<svg width="114" height="20" viewBox="0 0 114 20" fill="none" xmlns="http://www.w3.org/2000/svg">
<path d="M65.8543 2.62507C66.0561 2.8447 66.386 3.03396 66.7477 3.19799C67.1066 3.52884 67.672 3.83025 68.0655 4.15316C69.8907 6.16492 69.7047 8.79259 69.3028 10.9782C69.1944 11.2488 69.2617 11.5119 69.2468 11.7796C69.2038 11.8834 68.9823 11.9287 69.043 12.0119C69.6038 12.7558 68.215 14.2241 67.5514 14.9279C67.13 15.3344 66.8328 15.7886 66.2 16.1265C66.015 16.2265 65.7757 16.2994 65.5842 16.3957C65.2776 16.5634 65.0757 16.8004 64.7 16.9513C63.2047 17.6457 60.8066 17.4822 59.2169 16.9223C57.8907 16.4303 57.0038 15.7499 56.2571 14.947C55.6561 14.2316 55.2645 13.518 55.5973 12.81C55.6552 12.7446 55.7019 12.481 55.858 12.5301C55.9225 12.5633 55.9888 12.7086 56.0823 12.7325C56.2935 12.1539 55.6963 11.4693 55.5739 10.8735C55.4346 10.6132 55.6552 9.59122 54.6926 10.1431C54.4701 10.3501 54.373 10.6011 53.9973 10.7604C53.301 11.0927 52.1365 11.324 51.2131 11.5689C50.8431 11.6712 50.5627 11.7408 50.13 11.7651C49.6702 11.8002 48.9094 11.8563 48.5178 11.8876C48.1038 11.9156 48.258 11.9936 48.4767 12.1222C48.8561 12.3652 49.4505 12.4778 49.8477 12.7077C50.2758 12.968 50.6496 13.3563 51.0262 13.6115C51.4879 13.8792 52.229 14.075 52.1216 14.4774C52.1945 14.5409 52.3851 14.5601 52.3945 14.6465C52.4159 14.8045 52.7487 14.8989 52.9599 15.0054C53.3982 15.2307 53.4617 15.5592 53.7954 15.8143C54.1776 16.1237 54.7804 16.4102 54.9066 16.7765C54.9393 16.8985 54.8916 17.0298 54.8982 17.1532C54.9281 17.3985 55.2281 17.613 55.0888 17.8649C55.0711 17.9149 55.0309 17.9607 54.9374 17.9504C54.7645 17.9168 54.7215 17.856 54.658 17.9789C53.8206 18.864 51.8113 17.9855 51.258 17.4186C50.4543 16.7172 49.7879 15.812 48.9038 15.104C47.6907 14.1942 46.2646 13.1063 44.4945 12.4595C44.3926 12.453 44.3337 12.4941 44.3057 12.567C43.8926 13.6484 43.3636 14.79 43.1337 15.8877C42.9113 16.5574 43.3103 17.285 42.7431 17.8985C42.6646 18.2168 42.9103 18.5486 42.0365 18.635C41.1608 18.7733 40.4365 18.3472 39.8767 18.0761C39.7954 18.0299 39.9356 17.9504 39.9272 17.9088C39.8945 17.8555 39.7459 17.8168 39.6832 17.7649C39.2188 15.7097 40.7038 13.4245 41.2449 11.3646C41.2917 11.2245 41.2057 11.1044 40.9262 11.2277C40.2683 11.552 39.4253 11.7693 38.7431 12.0806C37.4412 12.431 35.5075 12.7124 34.0842 12.6997C33.3898 12.6839 32.5113 12.325 31.8618 12.5605C31.6776 12.7507 31.7963 13.0012 31.7309 13.211C31.6178 14.2274 31.4001 15.3914 31.5879 16.3957C31.7954 16.8625 32.0197 17.3677 31.6094 17.8233C31.0571 18.4537 30.3347 18.399 29.173 18.2434C28.5309 18.0883 28.073 17.6532 27.8347 17.3247C27.73 13.9208 28.53 10.5399 28.2907 7.18085C28.2851 6.86541 28.3861 6.55512 28.4879 6.25278C28.7711 5.71724 26.8076 6.66728 26.6206 6.7598C25.459 7.2472 25.0702 8.32855 23.4263 8.39071C22.9206 8.30005 22.3758 7.97667 22.2319 7.69769C22.059 7.2145 22.4655 6.74812 22.7459 6.29951C23.1347 6.0009 23.8487 5.71117 24.5711 5.33125C25.8758 4.63543 27.4599 4.1055 29.1664 3.68679C29.2524 3.65969 29.3692 3.63258 29.43 3.59987C29.4618 3.58258 29.4973 3.56155 29.4403 3.55314C29.273 3.54146 28.4309 3.68352 29.0421 3.48632C32.6262 2.76947 37.5309 2.74937 41.0702 3.58912C41.7141 3.73866 42.0795 3.31762 42.5505 3.16201C43.5206 2.85125 44.7047 2.7947 45.7991 2.91293C47.9711 3.02462 50.6496 3.41248 52.1982 4.27233C52.573 4.57608 53.3346 4.66907 53.6832 4.97609C53.873 5.41256 54.5113 5.79435 54.9879 6.17941C55.3281 6.50139 55.3122 6.86027 55.5552 7.19954C55.7094 7.57759 55.8337 7.34814 55.9524 7.1243C56.4206 6.39016 57.0814 5.67098 57.4571 4.94058C57.7571 4.05737 58.3655 3.19846 59.5085 2.50497C59.8066 2.3017 60.3533 2.29562 60.7309 2.14468C61.83 1.63578 64.9206 2.13486 65.8421 2.61759L65.8514 2.62413L65.8543 2.62507ZM60.0309 14.4456C59.9832 14.5007 60.0701 14.5793 60.129 14.6335C60.4066 14.883 60.8991 15.1241 61.4318 15.1928C61.7141 15.2335 62.0094 15.2111 62.2552 15.1321C62.8393 14.9409 63.3963 14.6657 63.7599 14.362C64.9963 13.3829 65.1337 12.2212 65.3243 11.0978C65.6234 9.11083 66.1234 6.73877 64.5991 4.82562C64.3131 4.5228 64.0253 4.20831 63.4281 4.04054C62.1244 3.7396 61.6384 4.56346 61.158 5.04105C60.4141 5.89014 59.7374 6.90233 59.286 7.78694C58.8617 8.5837 58.7748 9.40243 58.7814 10.2211C58.7692 10.4034 58.8318 10.5866 58.9384 10.759C58.9916 10.8674 58.986 10.974 58.9926 11.0829C59.015 11.2829 59.1272 11.5567 59.2206 11.7446C59.2804 11.8843 59.1505 12.0039 59.1645 12.1465C59.1851 12.3095 59.3038 12.4694 59.3729 12.6287C59.4673 12.8273 59.487 13.0404 59.5505 13.2306C59.6487 13.5671 60.0599 13.8563 60.1888 14.1881C60.2038 14.2414 60.2038 14.2802 60.1664 14.3292C60.129 14.376 60.0664 14.4068 60.0356 14.4419L60.0318 14.4461L60.0309 14.4456ZM45.7197 4.85039C45.3029 4.86113 44.6515 4.92375 44.8122 5.18498C44.9029 5.34199 45.086 5.48593 45.158 5.64668C45.4795 6.27895 45.4954 6.92616 45.1917 7.5645C45.1066 7.78087 44.8954 7.97994 44.8954 8.19864C44.8935 8.54118 44.8244 9.25148 44.8505 9.6043C44.9029 9.79636 45.3636 9.81085 45.6739 9.83375C46.6702 9.94544 47.7664 9.92067 48.7599 9.78655C49.6739 9.66038 50.6608 9.4286 51.2739 9.07017C52.5599 8.04537 51.6468 6.38315 49.9402 5.59761C48.915 5.13544 47.1001 4.82702 45.7374 4.84992H45.7197V4.85039ZM39.9767 8.62436C40.0589 8.57155 40.1066 8.5066 40.1711 8.44772C40.2487 8.36827 40.3973 8.30752 40.5019 8.2192C40.6683 8.07621 40.7963 7.91919 40.9412 7.76451C41.1412 7.52058 41.444 7.2902 41.3599 7.02336C41.3001 6.69158 41.1244 6.22801 40.9646 5.91164C40.8879 5.76304 40.8272 5.65789 40.6552 5.55929C39.115 4.77375 33.816 4.7658 31.7842 5.14713C31.4945 5.22517 31.7057 5.41396 31.787 5.53312C32.0337 5.84482 32.0702 6.1537 32.0459 6.47848C32.015 6.85139 31.887 7.2215 31.8328 7.59348C31.7543 8.10518 31.829 8.62109 31.8141 9.13092C31.8122 9.4571 31.6823 9.78141 31.7309 10.1076C31.7552 10.3328 31.9758 10.3352 32.2889 10.4034C32.3935 10.4445 32.4347 10.5057 32.5861 10.5179C33.0076 10.5534 33.4702 10.5399 33.9019 10.5515C34.6094 10.5637 35.1926 10.5198 35.8225 10.3772C36.8477 10.1515 37.9907 9.79964 38.5907 9.43C38.8842 9.24821 39.0141 8.9968 39.3664 8.83558C39.529 8.76081 39.7599 8.7253 39.8795 8.67343C39.9132 8.65988 39.9421 8.64492 39.9692 8.62903L39.9767 8.62436ZM68.5496 13.0619C68.5879 13.0731 68.6374 13.0516 68.6683 13.0353C68.9571 12.8755 68.8356 12.5315 68.8038 12.2979C68.7972 12.2736 68.7916 12.2352 68.7589 12.225C68.4636 12.3194 68.5458 12.7969 68.5122 12.9759C68.5122 13.004 68.5103 13.0432 68.544 13.0596L68.5505 13.0619H68.5496Z" fill="#FFF0B8"/>
<path d="M85.1477 1.15712C85.3309 1.24824 85.3823 1.38984 85.5159 1.49966C85.83 1.7249 86.1543 1.93191 86.3234 2.19781C86.515 2.38754 86.2655 2.54783 86.2178 2.73195C86.2122 2.82073 86.2795 2.93989 86.3038 3.06139C86.3206 3.17355 86.4262 3.3558 86.6477 3.1857C87.3309 2.51418 88.4178 2.06323 89.6599 1.64826C90.6982 1.22862 91.3066 1.05338 92.6141 1.35806C94.0131 1.48984 92.7972 1.50853 93.6141 1.83051C94.0608 2.04453 94.6486 2.22024 94.8776 2.51371C95.2795 2.92447 96.0767 3.61749 96.3842 3.97311C96.3739 4.30583 96.6271 4.68248 96.6402 5.02736C96.7926 6.22787 96.2757 7.44334 95.9346 8.62656C95.4028 11.2346 92.5655 16.7128 86.0262 16.703C79.8318 16.5114 79.5636 12.6417 80.3113 10.2813C80.4075 9.92427 80.7206 9.5607 80.8178 9.20695C80.8402 8.88638 81.158 8.67375 81.3365 8.35411C81.3589 8.26953 81.829 7.77933 81.3926 7.8854C80.8739 7.99195 80.7197 8.2429 80.244 8.39244C79.0253 8.74712 78.4496 8.88031 77.0197 8.92423C76.4963 8.94433 76.058 8.96442 75.5935 8.91115C75.1459 8.87096 74.2898 8.63637 74.2823 9.03031C74.0216 11.4033 73.7346 13.8319 74.1664 16.1829C74.2412 16.4549 74.0814 16.7138 73.93 16.9708C73.787 17.2133 73.8309 17.5339 73.3786 17.6928C73.2879 17.7274 73.1888 17.7577 73.0795 17.7722C72.8767 17.7975 72.7365 17.7461 72.5767 17.7367C72.1159 17.7367 71.5393 17.7395 71.229 17.546C71.0776 17.4082 70.8552 17.3376 70.6561 17.1998C70.2244 16.8082 70.1945 16.3161 70.2552 15.8792C70.5244 13.4197 70.3739 10.907 70.8281 8.42608C70.8795 8.09476 70.93 7.76577 70.9197 7.43072C70.8917 7.25174 70.8786 7.06342 70.9496 6.90313C70.9898 6.78584 71.0001 6.67461 70.9832 6.55639C70.9524 6.28021 71.087 5.99235 71.0954 5.71664C71.1057 5.53205 71.0468 5.34653 71.0412 5.16474C71.0365 5.03109 71.0075 4.88436 70.7898 4.79277C70.5103 4.67267 70.0917 4.65117 69.8468 4.5222C69.6188 4.38013 69.3767 4.26705 69.1505 4.13059C68.6804 3.79133 68.7122 3.31748 69.1655 2.98055C69.3917 2.84877 69.3402 2.67446 69.4599 2.52399C69.5449 2.43427 69.7197 2.36604 69.7692 2.27492C69.8346 1.82163 70.4991 1.43143 71.1122 1.13703C74.1197 -0.155546 80.5038 -0.380788 83.8711 0.640278C84.1673 0.730936 84.3963 0.876269 84.6533 0.985151C84.8318 1.05805 85.0057 1.08936 85.1365 1.15244L85.1468 1.15758L85.1477 1.15712ZM92.1468 1.42956C92.1328 1.41507 92.086 1.40666 92.0505 1.40152C91.7533 1.36507 91.4066 1.35245 91.1823 1.44965C91.1533 1.46274 91.1159 1.48003 91.1253 1.49685C91.1365 1.5104 91.1832 1.51274 91.215 1.51414C91.4533 1.51087 92.044 1.57115 92.1505 1.43423L92.1477 1.42956H92.1468ZM74.4888 6.42694C74.7038 6.77041 75.0328 6.95079 75.7945 6.97229C78.1272 6.97603 80.9113 5.4484 81.7365 4.53341C82.2094 3.97404 82.7814 3.32402 82.6169 2.77213C82.0496 1.60854 78.4935 1.84266 76.6692 2.0693C76.3954 2.09968 76.1552 2.16977 75.9066 2.23192C75.5767 2.30108 75.3029 2.38473 75.015 2.4609C74.6459 2.52259 74.2244 2.6268 74.0496 2.8226C73.8991 2.99691 74.201 3.01607 74.3365 3.10532C74.3748 3.14224 74.344 3.21093 74.344 3.26701C74.3374 3.33757 74.3748 3.42216 74.3814 3.50207C74.3842 3.59459 74.3786 3.69927 74.3991 3.79647C74.4935 4.3577 74.7066 4.91848 74.5879 5.46008C74.5431 5.77365 74.272 6.11151 74.4832 6.41993L74.4888 6.42788V6.42694ZM92.5786 4.10443C92.5113 3.88012 92.3916 3.67824 92.1019 3.48804C91.9038 3.35159 91.729 3.24738 91.4664 3.27075C91.0524 3.32215 90.6842 3.56048 90.4 3.72404C89.9823 3.97545 89.5047 4.30817 89.1225 4.60818C88.8636 4.80491 88.6627 5.00773 88.4 5.2026C88.1365 5.39793 87.8225 5.56008 87.6047 5.73112C87.4281 5.86711 87.2963 6.00309 87.1505 6.16011C86.5664 6.80546 86.0412 7.63072 85.6916 8.26486C85.5243 8.49057 85.6272 9.10788 84.8832 9.00508C84.7412 8.98732 84.6515 8.98778 84.5683 9.04947C83.3729 10.135 83.3589 11.9052 83.7328 13.1202C83.8169 13.3665 83.8655 13.6132 84.0954 13.8375C84.3001 14.0394 84.6767 14.2698 85.0057 14.3973C85.5729 14.6361 86.286 14.4674 86.8655 14.2992C87.6851 14.0515 88.2795 13.7244 88.8991 13.3024C90.7178 12.0192 91.8206 10.3098 92.2599 9.06068C92.6225 8.39524 92.7384 7.6153 92.858 6.94285C93.0318 5.97412 93.0842 5.03296 92.5814 4.11283L92.5776 4.10396L92.5786 4.10443ZM83.1683 7.12229C82.0879 7.26436 81.9701 7.94522 81.6337 8.41393C81.6057 8.45879 81.5589 8.54291 81.6262 8.56534C81.6589 8.57468 81.7141 8.55786 81.7655 8.52048C81.9262 8.39758 81.9094 8.22748 82.029 8.09336C82.2515 7.81484 82.629 7.4938 83.03 7.24987C83.0795 7.21575 83.2057 7.15127 83.172 7.1237L83.1683 7.12229Z" fill="#FFF0B8"/>
<path d="M110.196 0.716033C110.412 0.778652 110.617 0.901085 110.828 0.983331C110.959 1.03567 111.095 1.08801 111.167 1.16138C111.245 1.25063 111.126 1.36279 110.969 1.43008C110.849 1.4913 110.521 1.57354 110.855 1.63663C111.087 1.68382 111.511 1.76327 111.366 1.92028C111.315 1.98057 111.237 2.03524 111.186 2.09692C111.075 2.23431 111.035 2.45488 110.827 2.59134C107.635 4.20962 104.017 5.94567 101.408 7.78265C101.24 7.89621 101.026 8.04294 100.906 8.15837C100.844 8.21818 100.816 8.26771 100.835 8.3023C100.921 8.46398 102.249 8.32753 102.558 8.31585C103.873 8.21818 105.198 8.06724 106.523 8.05042C108.642 8.0177 110.823 8.2093 112.826 8.49015C113.313 8.52333 113.61 8.74858 113.892 8.93503C114.049 9.05326 113.939 9.18551 113.943 9.33785C113.945 9.49346 114.044 9.64253 113.977 9.79861C113.86 10.0757 113.615 10.3444 113.196 10.5384C112.98 10.6388 112.708 10.6888 112.441 10.7454C111.795 10.8912 111.096 11.087 110.523 11.3094C110.199 11.4585 109.893 11.6351 109.53 11.7669C108.993 11.9632 108.5 12.1735 108.02 12.3637C107.817 12.4454 107.592 12.5123 107.363 12.5744C107.134 12.6384 106.95 12.7202 106.766 12.7805C106.558 12.8548 106.323 12.9025 106.113 12.9772C105.861 13.0721 105.662 13.2156 105.396 13.3104C105.107 13.4216 104.732 13.4936 104.451 13.5787C104.228 13.645 104.039 13.724 103.839 13.8072C102.16 14.4885 100.276 15.1166 98.5542 15.7984C98.2102 15.9157 97.913 15.975 97.6168 16.1157C97.2046 16.3208 96.77 16.4788 96.27 16.6493C95.4 16.9405 94.5158 17.2316 93.5962 17.4718C93.2401 17.5625 92.9411 17.6994 92.5785 17.7816C92.1401 17.8765 91.5841 17.8167 91.2701 17.6354C91.0766 17.5251 90.8308 17.4129 90.7243 17.2975C90.5906 17.1512 90.471 17.0026 90.3719 16.8493C90.2887 16.6774 90.2962 16.4549 90.3383 16.2713C90.3663 16.1881 90.4261 16.1115 90.5112 16.0376C90.7476 15.8315 91.2317 15.5413 91.6065 15.3689C91.8224 15.2642 92.0813 15.2086 92.3672 15.1717C93.87 14.9521 95.1663 14.4736 96.4233 14.0203C97.2205 13.7235 98.0009 13.4142 98.8065 13.123C100.492 12.5305 102.233 11.9534 103.902 11.3487C104.435 11.1664 105.035 10.9996 105.555 10.8225C106.016 10.6603 106.593 10.4327 107.019 10.2594C107.506 10.0673 107.185 10.0239 106.778 10.0304C105.933 10.0524 104.89 10.1042 103.928 10.165C102.898 10.215 101.965 10.3398 100.963 10.4398C99.9214 10.5197 98.2261 10.7173 97.3457 10.3299C97.0308 10.1813 96.971 9.9631 96.7495 9.79581C96.5486 9.64907 96.3514 9.49533 96.3439 9.31074C96.2972 8.96447 96.513 8.50277 96.7859 8.15182C96.8607 8.05603 96.9401 7.9635 97.0523 7.87751C97.2121 7.74947 97.4654 7.6476 97.6046 7.5261C97.7663 7.39151 97.7504 7.22469 97.9224 7.07795C98.1074 6.91813 98.4214 6.76953 98.6551 6.61579C99.156 6.29381 99.656 5.96202 100.153 5.63771C101.497 4.71711 103.507 3.96148 104.946 3.05397C105.34 2.8063 105.692 2.53526 106.142 2.31375C106.809 2.06328 107.349 1.71981 107.838 1.38054C108.351 1.07072 109.325 0.538921 110.184 0.713227L110.198 0.716969L110.196 0.716033Z" fill="#FFF0B8"/>
<path d="M0.980469 14.6646C0.986076 14.6225 1.02252 14.5903 1.07673 14.5594C1.17299 14.5047 1.35897 14.4197 1.5057 14.3407C2.27673 13.8799 3.82346 14.1982 4.3786 13.5103C5.18888 12.4093 5.9786 11.2836 6.63467 10.1513C7.14308 9.32277 7.66084 8.51246 8.05803 7.65261C8.21972 7.3741 8.19728 7.06474 8.33934 6.7909C8.44308 6.6222 8.68327 6.48248 8.78887 6.31378C8.8814 6.17218 8.89822 6.03433 9.09728 5.92545C9.44401 5.71983 9.97859 5.65114 10.4963 5.6731C10.7291 5.67404 10.9692 5.6731 11.1879 5.71656C11.6319 5.81517 12.0702 6.03807 12.3814 6.19134C12.4861 6.25163 12.5468 6.31144 12.5982 6.38762C12.7814 6.65118 13.0122 7.18204 13.1599 7.54327C13.4861 8.32974 13.6945 9.11435 13.916 9.90597C14.1954 10.8074 14.3328 11.7224 14.6618 12.6196C14.7907 12.8425 15.0206 12.9902 15.0674 13.215C15.1309 13.4122 15.1477 13.6622 15.1206 13.85C15.0795 13.9935 14.9169 14.1103 14.9515 14.2613C15.2104 15.4697 16.1048 16.6506 16.9244 17.7792C17.1982 18.0605 17.6973 18.375 17.8253 18.7058C17.9104 18.9012 17.8636 19.1086 17.8861 19.3021C17.8954 19.3988 17.9244 19.4993 17.8945 19.5942C17.8328 19.7811 17.4552 19.8475 17.0786 19.9208C16.8702 19.9591 16.6431 19.975 16.4281 19.947C16.2608 19.9264 16.0973 19.8923 15.9244 19.8676C15.5543 19.8124 15.215 19.8021 14.972 19.6619C14.744 19.5231 14.5122 19.3652 14.3412 19.2101C14.1963 19.0633 14.072 18.8951 13.9113 18.7446C13.5412 18.3834 13.0935 18.1007 12.8384 17.7637C12.4954 17.3058 12.587 16.7941 12.358 16.3221C12.216 15.9571 12.0328 15.6006 11.8954 15.2235C11.8076 15.0716 11.8263 14.7211 11.3524 14.7814C11.1711 14.8076 10.9431 14.8809 10.7328 14.9169C10.3926 14.9781 10.0356 15.0132 9.69728 15.0786C9.03654 15.2043 8.39915 15.3665 7.72813 15.487C7.59729 15.5113 7.46364 15.538 7.34775 15.5744C6.38701 15.88 5.91224 17.8675 5.35804 18.454C5.16084 18.7297 4.66925 18.9292 4.43 19.1942C4.29168 19.3582 4.18327 19.5718 4.10103 19.7587C4.02906 19.9741 3.81785 20.0063 3.42159 19.9989C2.91131 20.0143 2.80009 19.8591 2.44402 19.7339C2.27486 19.6816 2.07019 19.6694 1.89822 19.6218C1.55523 19.5119 1.40664 19.2923 1.24402 19.1082C0.861777 18.6371 1.45897 18.1857 1.82346 17.7628C2.14028 17.4128 2.02626 17.0067 2.36738 16.6628C2.47486 16.5062 2.81131 16.2571 2.52346 16.1141C2.38981 16.0571 2.13374 16.0641 2.06178 16.03C1.99075 15.9922 2.02439 15.9422 1.98421 15.8926C1.92439 15.7926 1.70757 15.7333 1.56925 15.6604C1.43 15.5875 1.40477 15.5076 1.35243 15.4538C1.27019 15.3482 1.08888 15.3389 1.02907 15.1903C0.99916 15.0286 1.00757 14.8253 0.980469 14.6711V14.6655L0.980469 14.6646ZM10.7917 10.6392C10.5851 10.6079 10.3814 10.97 10.3066 11.0513C9.87953 11.6341 9.61878 12.2696 9.14869 12.8472C9.1113 12.9033 9.01037 13.0033 9.10476 13.0346C9.16925 13.0528 9.33841 13.0252 9.54962 12.9846C9.98326 12.9005 10.5823 12.7556 10.9141 12.6477C11.059 12.6014 11.1795 12.5364 11.1702 12.4463C10.9945 11.9416 11.059 11.4168 10.902 10.9182C10.8702 10.8252 10.8954 10.7097 10.7963 10.642L10.7907 10.6396L10.7917 10.6392Z" fill="#FFF0B8"/>
<path d="M16.0786 5.50315C15.5207 5.92372 14.5431 5.85924 13.6749 5.69801C12.8057 5.54474 11.9001 5.30828 11.0777 5.08117C9.95714 4.76761 8.89546 4.43955 7.74593 4.15356C6.74032 3.87318 5.55247 3.5942 4.95154 3.08811C4.71603 2.87314 4.51976 2.58108 4.73285 2.34088C4.8992 2.17172 5.20761 1.98573 5.50201 1.85441C5.74873 1.74553 6.05434 1.71936 6.36836 1.7245C6.71602 1.72871 7.11509 1.68805 7.43565 1.74507C7.65621 1.78385 7.83565 1.86376 8.01415 1.93666C8.32163 2.06564 8.68051 2.17639 9.02724 2.28714C10.9347 2.92174 14.8506 3.73345 15.8067 4.6447C15.9674 4.83116 16.0413 5.04986 16.1226 5.25407C16.1497 5.33585 16.1571 5.42324 16.0833 5.49754L16.0768 5.50408L16.0786 5.50315Z" fill="#FFF0B8"/>
</svg>
