<?xml version="1.0" encoding="UTF-8"?>
<svg id="Calque_1" data-name="Calque 1" xmlns="http://www.w3.org/2000/svg" viewBox="0 0 100 65.02">
  <defs>
    <style>
      .cls-1 {
        fill: #fdf1be;
      }
    </style>
  </defs>
  <path class="cls-1" d="M99.97,32.3l-.36.02c-.09.06-.08.6-.17.76-.11.19-.71.93-.8,1.13-.13.3-.22,1.26-.32,1.39-.09.12-.72.55-.84.68-.62.66-1.01,1.37-1.7,1.97-1.36.46-2.7,1.2-4.01,1.67-.47.17-.85-.07-.92.44-.89.05-1.96-.1-2.82,0-.95.11-.68.8-2.27.41-.12-.03-.08-.31-.56-.2-.1.02-.07.19-.18.21-.6.12-.91-.34-1.73-.33-3.62.04-7.29.16-10.95.12-14.09-.14-28.29-.12-42.41-.22-1.26,0-3.02.13-4.2.01-.26-.03-.13-.21-.39-.23-1.96-.2-4.31.06-6.36-.1-.61-.05-.56-.31-.8-.33-.26-.02-1.11-.03-1.33,0-.05,0-.39.56-.5,0h-.19c-.12,0-.02.18-.16.21-.26.05-2.47.04-2.83,0-.25-.03-1.02-.29-1.61-.33-2.35-.16-4.06-.09-6.36-.53-.43-.08-1.42-.21-1.81-.39-.16-.07-.57-.55-.73-.65s-.62-.15-.73-.28c-.14-.17-.15-.78-.35-1.01-.09-.1-.84-.52-.88-.64-.23-.56.22-1.77-.16-2.32-.1-.15-.43-.13-.41-.35l.07-.17c.98-.37-.28-.6-.21-1.12-.02-.2.74-.53.78-.62.41-.82.93-1.69,1.43-2.46.09-.14.04-.41.12-.49.07-.06.44-.02.58-.23.16-.24,0-.55.07-.79.01-.05.46-.16.27-.5.4-.08.69.17,1.02.21,1.2.14.42-.59.8-.85.24-.17.61-.1.8-.21s.04-.57.75-.44l.15-1.07c.32-.23,1.35.76,1.8.65.27-.35.1-.5.75-.45l.08-.32c.47.08,1.61-.11,1.95.06.12.06.14.26.37.35,1.03.4,2.08.35,3.22.55,2.4.42,4.78.19,7.29.22.91.01,1.98.19,2.92.16.36,0,.19-.38.47-.47.4-.12.85.1,1.2.09.92-.02,1.72-.09,2.7-.1,3.25-.04,6.47.05,9.74,0,2.32-.04,5.17.09,7.32-.32,1.59-.3,5.09-.1,6.86-.11,3.16-.02,6.32.03,9.46.12,1.39.04,2.22-.15,3.5.23.41.12,3.32.09,4.07.09,3.17.03,6.46-.12,9.6,0,1.91.07,3.77.55,5.81.33.26-.03.07-.2.52-.23.66-.04.67.33,1.51.23.25-.03.18-.2.29-.22.86-.16,3.25-.16,4.14,0,.08.01.1.36.81.21.13-.03.14-.32.98-.22.25.03.17.19.29.22,1.1.22,2.61.53,3.54,1.04.11.06.42.43.45.44.44.12.81-.07,1.15.43.47.68-.47.61-.62.8-.26.32.2.78.24,1.01.08.42-.1,1,.01,1.37.02.08.21.06.26.15.15.29-.21.5.56.63l-.03.68Z"/>
  <path class="cls-1" d="M99.96,52.79c-.1.15-.85.15-.78.45h-.13c.01-.36-.86-.37-.39.15.2.22.48.57.52.89s-.21.41-.27.64c-.14.55.21.48-.43.94-.09.06-.3.05-.35.1-.09.08-.06.51-.34.7-.14.1-.45.1-.48.15-.07.09.02.31-.02.45-.03.09-.24.07-.26.15-.05.17.05.38-.07.57-.03.05-.82.47-1.06.77-.47.59-.38.55-1.03,1.11-.14.13-.5.66-.69.74-.3.12-.6,0-.86.07-.19.05-.12.3-.72.38-1.11.15-2.2-.09-2.92.74l-.46.12h-2.93c-.13.62-.12,1.13-.62,1.63l-.2-.22h-.27c-.34.58-1.38.21-2.17.42-.37.1-.58.48-1.28.22.37,1.66-1.46.85-2.63.85-1.52,0-3.09.12-4.59.1-2.08-.03-4.63.03-6.51-.3-2.57-.45-6.29.36-8.75-.44l-5.08-.1.02-.42c.57-.2,1.15.07,1.69.08,1.55.04,3.33-.17,4.75.22.4.11,2.67.11,3.33.12,2,.05,4.02.02,6.02.1l-.22-.52c-.54-.07-1.34-.03-1.85-.13-.09-.02-.08-.34-.68-.21-.13.03-.03.29-.42.21-.09-.02-.38-.3-1.09-.33-3.27-.13-6.7-.1-9.99.01-1.02.04-2.07-.1-3.08.11-2.67.57-5.99-.07-8.82.2-1.74.17-2.74.02-4.45,0-4.86-.06-9.7.4-14.6,0-.52-.04-1.28.08-1.73,0-1.66-.31-3.62-.22-5.44-.42-.27-.03-.13-.2-.39-.23-.36-.04-1.42-.04-1.77,0-.25.03-.18.2-.29.22-.3.06-1.26-.37-2.11-.21-.11.02-.04.19-.29.22-.18.02-.79.03-.94,0s.02-.27-.29-.22c-.08.29-.47.27-.82.22-.25-.03-.17-.19-.29-.22-1.11-.23-2-.21-3.04-.66-.64-.27-.92-.89-1.38-1.18-.15-.09-.42-.08-.46-.12-.1-.09-.04-1.96-.16-2.38-.01-.05-.39-.29-.4-.78-.03-.67.38-.68.41-.77.06-.23-.02-.49.07-.79.1-.37.53-.44.58-.72.13-.64-.44-.95.21-1.6.16-.17,1.28-1,1.31-1.08.06-.19-.03-.44.04-.7.08-.3.42-.48.52-.66.08-.15.08-.55.13-.59.03-.03.7-.09.94-.17.19-.06,1.15-.4,1.21-.44.24-.16.8-.93,1.22-1.17.94-.53,2.12-.41,3.14-.6.1-.02.08-.19.19-.21.66-.13,2.13-.12,2.79,0,1.91.36,4.4.37,6.51.43,1.37.04,2.45-.15,3.69.2.49.14,1.93.2,2.53.22,1.56.05,3.12-.29,4.57-.08.38.05.3.28.56.31,3.05.28,7.68.06,10.95.11.95.02,1.32-.48,2.14-.33.11.02.04.19.29.22.52.05,2.2.05,2.72,0,.26-.03.13-.21.39-.23,2.25-.23,5.69-.06,8.11-.1,2.06-.04,4.79.1,6.77-.09.27-.03.14-.23.39-.23.48.21,1.25.34,1.87.22.11-.02.04-.19.29-.22.54-.06,2.32-.06,2.86,0,.26.03.07.2.52.23.73.04.56-.2.81-.23.38-.04,1.53-.04,1.91,0,.42.04.98.39,1.86.22,1.69-.32,3.22-.31,4.91,0,.86.16,1.08-.2,1.32-.22,1.24-.12,3.01.04,4.33,0,.56-.01,1.04-.1,1.75-.1.9,0,6.27-.1,6.61.09.04.02.43.57.35.65h-1.08s.16.41.16.41c.93.13,2.1-.03,2.99.15.36.07.28.18.42.26s.71.08.29.58c-.21.25-.77-.09-1.07.09-.12.07-.05.22-.13.29-.2.2-.94.6-.27.88.58.24,2.13-.06,1.9.75Z"/>
  <path class="cls-1" d="M96.33,5.58l-.37.02-.29,1.2c-.76.27-.22.94-.43,1.41-.06.13-.29.14-.35.2-.11.14-.03.37-.25.61s-.83.47-1,.6c-.09.07-.57.63-.34.69l.74.1c-.25.1-.64.05-.84.11-.14.04-.15.18-.26.25s-.3.03-.39.14c-.15.19-.07.61-.14.81-.02.06-.45.32-.49.58-.02.15.11.32.08.5-.09.72-.47.52-1.03.75-.79.32-1.63.8-2.43,1.12-.18.07-.56.1-.79.13-.85.1-1.18.15-1.99.44-.13.05-.13.2-.27.24-.21.07-3.63.1-4.09.07-.83-.05-1.23-.51-2.27-.32-.09.02-.07.34-.68.21-.11-.02-.04-.19-.29-.22-2.56-.26-6.25,0-8.93.01-1.96,0-4.41-.21-6.35-.01-.26.03-.13.21-.39.23-4.85.49-10.93-.28-15.69.2-.26.03-.13.21-.39.23-.8.08-1.87-.04-2.72-.01-1.88.07-3.78.25-5.68.21-.41.22-.64.27-.82.66-.84.17-.68-.33-1.19-.33-.12,0-.95.09-1.06.12-1.98.47-4.59,0-6.61.43s-4.53.23-6.68.63c-.68.13-2.2.19-2.95.22-1.93.07-5.48.19-7.3,0-.81-.08-2.64-1.35-3.4-1.72-.28-.13-.59-.15-.86-.29-.32-.36.01-1.53-.13-2-.02-.08-.22-.07-.25-.16-.79-2.08-1.36-3.77,0-5.85.32-.49.49-.59.98-.94.19-.13,1.42-1.07,1.45-1.15.22-.69-.88-.42-.79-1.2.57-.38.94-.1,1.53-.12.97-.02,1.9,0,2.84,0,.46,0,1.03-.21,1.55-.11v-.32c-.58.21-1.87.1-1.89-.49-.02-.47.59-.45.98-.26s.17.79.77.65c.13-.1-.4-.67.65-.83.62-.09,1.28.04,1.86-.02.25-.03.18-.2.29-.22.17-.03,1.14-.11,1.33-.11.99,0,1.51.47,2.84.33.26-.03.13-.21.39-.23,1.59-.16,3.77.17,5.38-.21,1.85-.44,4.23-.08,6.22-.43,1.74-.31,3.71-.23,5.57-.42.26-.03.13-.21.39-.23.41-.04.92.04,1.36,0,3.47-.3,6.88-.58,10.4-.65,2.24-.04,5.21.22,7.31.01.27-.03.14-.23.39-.23.6.27,1.68.31,2.44.23.26-.03.13-.21.39-.23,2.94-.3,7.36.29,10.12-.21,1.84-.33,3.95-.2,5.98-.21,3.49-.02,6.93-.03,10.4-.22,1.01-.05,1.86.14,2.84.21.49.04,1.34-.08,1.73,0,.12.03.13.2.24.26.14.08.38.05.4.06.06.04-.54.89.77.35.16-.06.16-.22.27-.24.69-.14.82.3.69.78-.1.37-.71.47-.65.67.23.26.68.19.97.28.1.03.09.16.21.2.31.1.68-.08.95.3.35.47-.15,2.06.01,2.71Z"/>
</svg>