<?xml version="1.0" encoding="UTF-8"?>
<svg id="Calque_1" data-name="Calque 1" xmlns="http://www.w3.org/2000/svg" viewBox="0 0 100 100">
  <defs>
    <style>
      .cls-1 {
        fill: #fdf1be;
      }
    </style>
  </defs>
  <path class="cls-1" d="M99.95,17.29c-2.55.11-1.05,2.09-1.18,3.31-.01.11-.35,1.75-.38,1.84,0,.03-.3.13-.41.36-.39.76-.95,2.29-1.5,2.89-.31.34-1.43.54-1.87,1.08s-.06,1.47-.78,1.87c-.26.14-.47-.04-.67.03-1.12.4-1.56,1.39-2.33,2.03-2.04,1.68-4.5,3.26-6.3,5.22s-3.95,3.68-5.97,5.48c-4.53,4.05-9.38,8.44-14.07,12.77-.38.35-.96.09-.5,1.27.23.61,1.88,2.05,2.43,2.64.72.78.55.76,1.53,1.43.5.35.56,1.01.79,1.31.95,1.19,2.17,2.12,3.29,2.98.53.4.53.95.8,1.3.97,1.32,3.29,2.38,4.5,3.89,2.03,2.52,2.82,2.55,5.31,4.16.5.32,2.07,2.02,2.22,2.08.26.1,1.88.55,1.96.63s.05.42.2.6c.4.48.91,1.08,1.2,1.64.27.52.36,2.46.78,3.42.25.57,1.45,1.61,1.94,1.97.03.32-.3,0-.35.43-.12,1.06.33.94.37,1.25.04.29.05,1.52,0,1.76-.04.18-.93.32-.34,1.41.15.29.5.12.52.75.02.94-.7.83-.83,1.29-.15.51.09,1.25-.03,1.71-.04.16-.36.19-.48.42-.2.38-.15,1.18-.24,1.28-.04.05-.99.42-1.08.55-.17.25-.03.94-.2,1.4-.31.85-2.47,2.96-3.24,3.42-1.41.86-3.77.96-5.42.73-.32-.04-.22-.33-.36-.37-.44-.11-1.09.04-1.63-.05-.69-.11-1.03-.65-1.1-.67-.47-.1-.95.08-1.52-.16-.39-.17-.53-.74-1.04-.86-.35-.08-1.1.02-1.21-.07-.09-.07-.08-.42-.19-.56-.68-.83-1.58-.93-2.28-1.4-.64-.42-2.81-3-3.45-3.79-.17-.21-.19-.71-.45-.96-.22-.21-.65-.23-.85-.4-.76-.67-1.51-1.78-2.29-2.5-1.44-1.32-3.42-2.55-4.65-4.06-1.44-1.78-3.08-3.08-4.7-4.75-1.88-1.93-3.65-4.1-5.64-5.87-.24-.21-.69-1.39-.95-1.68-1.17-1.28-2.27,1.03-3.13,1.72-.42.33-1.39.72-1.79,1.07-.35.3-.4.96-.58,1.09-.33.24-1.18.13-1.54.39-.9.66-2.18,2.31-3.05,3.14-3.55,3.42-7.18,6.8-10.7,10.19-.84.81-2.06,2.05-2.82,2.93-.15.17-.11.51-.27.64-.42.33-.98-.06-1.38.1-.2.08-.71.92-.96,1.07-1.2.71-3.61,1.67-4.92,2.26-.44.2-.91-.07-1.4-.07-.75.01-1.26.69-1.56-.54-1.08.07-2.19,0-3.05-.7-.28-.23-.76-1-1.06-1.26-.25-.22-.66-.25-.84-.41-.46-.41-1.06-1.38-1.54-1.72-.2-.14-.58-.12-.74-.26-.22-.2-.09-.56-.22-.75-.28-.42-1.06-.77-1.15-.89-.14-.19-.03-1.51.04-1.73.11-.35.66-.15.48-.64-1.86-.17-.42-1.94-1.85-2.16-.44-1.11.92-1.14,1.25-1.59.29-.4.05-1.36.94-1.71l-.07-.26c-.7-.23-.66-.96-.93-1.31-.2-.26-.65.11-.52-.47,1.22.45,1.49-.37,2.56-.64.17-.62-.35-.86-.67-.59-.1.09.17.71-.36.51-.1-1.09-.04-1.58.51-2.4l-.85-.28c-.17-1.71,1.19-1.03,1.51-1.27.08-.06.08-.45.24-.64.31-.36,2.22-2.13,2.46-2.18.34-.08,1.01.1,1.22-.03.07-.04.12-.47.29-.67,1.1-1.28,3.76-3.35,4.45-4.52.12-.2,0-.62.21-.76.19-.13.55-.01.82-.13.89-.41,3.01-2.66,3.86-3.53,1.22-1.25,2.06-2.38,3.39-3.41,1.97-1.52,3.87-4.74,5.78-6.15.33-.24,1.1-.06,1.15-.68.03-.33-.55-1.22-.78-1.5-1.17-1.44-2.42-2.81-3.54-4.24-.29-.37-1.24-.91-1.28-.98-.08-.13.03-.44-.07-.63-.07-.14-.89-.74-1.05-.95-.45-.58-1.34-2.33-1.66-2.62-.14-.12-.64,0-.94-.27-.25-.21-.76-1.58-1-1.9-.59-.8-1.78-1.68-2.46-2.46-.79-.93-1.53-2.19-2.2-3.18-.43-.64-2.13-1.81-2.52-2.44-.16-.26-.06-.91-.31-1.2-.15-.17-.43-.12-.54-.23-.51-.51-.9-1.85-1.63-2.39-.27-.2-.76-.1-1.06-.41s-.66-1.3-.93-1.65c-1.35-1.75-3.19-3.25-4.49-4.79-.7-.82-1.13-2.09-1.66-3.04-.35-.63-1.32-1.63-1.36-2.38-.01-.27.23-.94.19-.98-.05-.05-.4.12-.52-.12-.35-.67-.2-1.65-.34-2.26-.03-.13-.3-.11-.33-.24-.09-.39.05-.95-.01-1.37,1.07-.15,1.52-1.01,1.72-1.96-1.16-.35-1.35-.56-1.37-1.89,1.59.37,1.82-.63,2.88-1.53v-.34c-.7-.23-.6-1.45-.51-2.15.04-.32.3-.26.34-.39.14-.4.11-.85.34-1.22.2-.15.75-.05.93.09.16.12.04,1.25.76.05.16-.27-.03-.86.62-.92.73-.08.99.85,1.1.71l.11-.36c1.09-.25,2.21.02,3.2.01.75,0,1.4-.18,2.05-.2.82-.02,2.64,1.01,3.23,1.62.4.41.84,1.36,1.46,1.85.44.35,1.44.72,1.89,1.02,7.55,4.91,13.92,14.27,19.89,21.11.42.48,1.53,1.32,1.82,1.75.16.25.11.68.32,1,.43.68,1.85,1.72,2.44,2.44.84,1.03,1.5,2.36,2.42,3.35,1.33,1.44,2.37,2.8,3.32.12.17-.24,2.72-2.73,2.89-2.85.3-.19.68-.12.87-.24.2-.14.28-.76.44-.96.36-.48,1.15-1.05,1.58-1.55.59-.68.98-1.02,1.67-1.55,2.23-1.69,5.59-4.57,7.54-6.65.08-.09.42-.93.55-1.1.7-.87,1.16-.42,1.77-.82s1.89-2.04,2.54-2.6c.2-.17.73-.22.92-.47.22-.28.14-.71.31-1.01.1-.18,2.68-2.71,2.84-2.82.23-.15.68-.02.98-.32s.21-.89.38-1.11c.4-.52,2.21-.95,3.03-1.96.98-1.21,1.9-2.63,3.12-3.73.18-.16.63-.19.84-.41.29-.29.81-1.69,1.47-1.89,1.01-.3,1.13.77,2.31.84,1.42.07,1.01-.75,1.39-.89.3-.11,1.92-.05,2.35,0,.47.06,1.89.92,2.27,1.23.14.12.47.11.53.21.12.19,0,1.08.28,1.4l1.79.89-.02.33c-.43,0-.35.33-.3.72l2.01.41c-.12.75,1.15,1.08,1.3,1.39.2.39,0,.91.08,1.31.03.14.29.12.39.34.11.24.06.57.22.84.21.36.93.75,1.26,1.01.34,1.11-3.41,1.98-.19,2.95l.03,1.93c.49-.65.36-.84,1.28-.89.47-.03.22.55.24.88Z"/>
</svg>