<?xml version="1.0" encoding="UTF-8"?>
<svg id="Calque_1" data-name="Calque 1" xmlns="http://www.w3.org/2000/svg" viewBox="0 0 100 100">
  <defs>
    <style>
      .cls-1 {
        fill: #fdf1be;
      }
    </style>
  </defs>
  <path class="cls-1" d="M99.97,49.68l-.36.03c-.09.1-.08.92-.17,1.17-.11.29-.71,1.43-.8,1.74-.13.47-.22,1.94-.32,2.14-.09.18-.72.85-.84,1.04-.62,1.02-1.01,2.11-1.7,3.02-1.36.71-2.7,1.84-4.01,2.57-.47.26-.85-.11-.92.68-.89.08-1.96-.15-2.82,0-.95.17-.68,1.24-2.27.64-.12-.05-.08-.47-.56-.31-.1.03-.07.29-.18.32-.6.19-.91-.52-1.73-.51-3.62.06-7.29.24-10.95.19-14.09-.21-28.29-.19-42.41-.34-1.26-.01-3.02.2-4.2.02-.26-.04-.13-.32-.39-.36-1.96-.3-4.31.1-6.36-.15-.61-.07-.56-.47-.8-.51-.26-.04-1.11-.05-1.33.01-.05.01-.39.86-.5.01l-.19-.02c-.12.02-.02.29-.16.33-.26.08-2.47.07-2.83.01-.25-.04-1.02-.45-1.61-.51-2.35-.24-4.06-.14-6.36-.82-.43-.13-1.42-.32-1.81-.6-.16-.11-.57-.85-.73-1s-.62-.23-.73-.43c-.14-.27-.15-1.2-.35-1.56-.09-.16-.84-.8-.88-.98-.23-.86.22-2.72-.16-3.56-.1-.23-.43-.2-.41-.54l.07-.25c.98-.57-.28-.92-.21-1.73-.02-.31.74-.81.78-.95.41-1.26.93-2.6,1.43-3.79.09-.22.04-.63.12-.76.07-.1.44-.04.58-.36.16-.37,0-.85.07-1.21.01-.07.46-.25.27-.77.4-.12.69.27,1.02.33,1.2.21.42-.91.8-1.31.24-.26.61-.16.8-.32s.04-.88.75-.68l.15-1.64c.32-.36,1.35,1.17,1.8.99.27-.53.1-.77.75-.69l.08-.49c.47.12,1.61-.17,1.95.1.12.1.14.41.37.54,1.03.61,2.08.54,3.22.85,2.4.64,4.78.29,7.29.33.91.02,1.98.29,2.92.25.36,0,.19-.59.47-.72.4-.18.85.16,1.2.15.92-.03,1.72-.14,2.7-.16,3.25-.05,6.47.08,9.74-.01,2.32-.07,5.17.13,7.32-.48,1.59-.46,5.09-.16,6.86-.18,3.16-.03,6.32.04,9.46.18,1.39.06,2.22-.23,3.5.35.41.18,3.32.13,4.07.14,3.17.05,6.46-.19,9.6-.01,1.91.11,3.77.84,5.81.52.26-.04.07-.31.52-.36.66-.06.67.5,1.51.35.25-.04.18-.31.29-.34.86-.25,3.25-.24,4.14,0,.08.02.1.55.81.32.13-.04.14-.49.98-.34.25.04.17.3.29.34,1.1.34,2.61.81,3.54,1.6.11.1.42.66.45.67.44.19.81-.11,1.15.66.47,1.05-.47.93-.62,1.23-.26.49.2,1.2.24,1.55.08.64-.1,1.54.01,2.11.02.12.21.09.26.23.15.44-.21.77.56.97l-.03,1.04Z"/>
  <path class="cls-1" d="M99.96,81.19c-.1.23-.85.23-.78.69h-.13c.01-.56-.86-.57-.39.22.2.34.48.88.52,1.36s-.21.63-.27.98c-.14.84.21.74-.43,1.45-.09.1-.3.07-.35.15-.09.12-.06.78-.34,1.07-.14.15-.45.16-.48.23-.07.14.02.48-.02.69-.03.13-.24.1-.26.23-.05.26.05.59-.07.88-.03.08-.82.73-1.06,1.19-.47.91-.38.84-1.03,1.71-.14.2-.5,1.02-.69,1.13-.3.18-.6.01-.86.12-.19.07-.12.47-.72.59-1.11.23-2.2-.13-2.92,1.14l-.46.19-2.93.02c-.13.94-.12,1.72-.62,2.49l-.2-.33h-.27c-.34.9-1.38.33-2.17.65-.37.15-.58.73-1.28.34.37,2.56-1.46,1.3-2.63,1.3-1.52,0-3.09.18-4.59.15-2.08-.04-4.63.05-6.51-.46-2.57-.69-6.29.55-8.75-.68l-5.08-.15.02-.64c.57-.32,1.15.11,1.69.13,1.55.06,3.33-.27,4.75.33.4.17,2.67.16,3.33.19,2,.08,4.02.03,6.02.16l-.22-.8c-.54-.1-1.34-.05-1.85-.19-.09-.03-.08-.52-.68-.32-.13.04-.03.45-.42.33-.09-.03-.38-.47-1.09-.51-3.27-.2-6.7-.16-9.99.02-1.02.06-2.07-.16-3.08.17-2.67.88-5.99-.11-8.82.31-1.74.26-2.74.03-4.45,0-4.86-.1-9.7.62-14.6,0-.52-.06-1.28.12-1.73,0-1.66-.48-3.62-.33-5.44-.64-.27-.05-.13-.31-.39-.35-.36-.06-1.42-.06-1.77,0-.25.04-.18.3-.29.34-.3.1-1.26-.57-2.11-.32-.11.03-.04.3-.29.34-.18.03-.79.04-.94,0s.02-.42-.29-.33c-.08.45-.47.41-.82.34-.25-.05-.17-.3-.29-.34-1.11-.35-2-.32-3.04-1.01-.64-.42-.92-1.37-1.38-1.81-.15-.14-.42-.13-.46-.18-.1-.14-.04-3.02-.16-3.66-.01-.08-.39-.45-.4-1.2-.03-1.03.38-1.04.41-1.18.06-.36-.02-.75.07-1.21.1-.56.53-.68.58-1.1.13-.99-.44-1.46.21-2.47.16-.26,1.28-1.55,1.31-1.66.06-.29-.03-.68.04-1.08.08-.47.42-.73.52-1.01.08-.23.08-.85.13-.91.03-.04.7-.14.94-.26.19-.1,1.15-.62,1.21-.67.24-.24.8-1.43,1.22-1.8.94-.82,2.12-.63,3.14-.92.1-.03.08-.29.19-.32.66-.19,2.13-.19,2.79,0,1.91.55,4.4.57,6.51.66,1.37.06,2.45-.23,3.69.31.49.21,1.93.31,2.53.34,1.56.07,3.12-.44,4.57-.13.38.08.3.43.56.47,3.05.43,7.68.09,10.95.17.95.02,1.32-.74,2.14-.5.11.03.04.3.29.34.52.08,2.2.08,2.72,0,.26-.04.13-.32.39-.36,2.25-.35,5.69-.09,8.11-.16,2.06-.06,4.79.15,6.77-.15.27-.04.14-.36.39-.36.48.33,1.25.52,1.87.34.11-.03.04-.3.29-.34.54-.09,2.32-.09,2.86,0,.26.04.07.31.52.36.73.07.56-.31.81-.36.38-.06,1.53-.06,1.91,0,.42.06.98.59,1.86.34,1.69-.49,3.22-.48,4.91,0,.86.24,1.08-.3,1.32-.34,1.24-.19,3.01.06,4.33.01.56-.02,1.04-.15,1.75-.16.9-.01,6.27-.15,6.61.14.04.03.43.87.35,1h-1.08s.16.64.16.64c.93.2,2.1-.04,2.99.23.36.11.28.28.42.4s.71.13.29.89c-.21.38-.77-.14-1.07.14-.12.11-.05.34-.13.45-.2.3-.94.92-.27,1.35.58.37,2.13-.09,1.9,1.16Z"/>
  <path class="cls-1" d="M96.33,8.58l-.37.02-.29,1.85c-.76.41-.22,1.45-.43,2.16-.06.2-.29.21-.35.31-.11.21-.03.57-.25.94s-.83.73-1,.93c-.09.11-.57.97-.34,1.06l.74.16c-.25.16-.64.08-.84.17-.14.06-.15.28-.26.39s-.3.05-.39.22c-.15.29-.07.94-.14,1.25-.02.09-.45.5-.49.89-.02.24.11.49.08.78-.09,1.11-.47.8-1.03,1.15-.79.49-1.63,1.23-2.43,1.73-.18.11-.56.16-.79.2-.85.15-1.18.23-1.99.67-.13.07-.13.3-.27.37-.21.1-3.63.15-4.09.11-.83-.08-1.23-.79-2.27-.49-.09.03-.07.52-.68.32-.11-.04-.04-.3-.29-.34-2.56-.41-6.25,0-8.93.02-1.96.01-4.41-.32-6.35-.02-.26.04-.13.32-.39.36-4.85.75-10.93-.43-15.69.3-.26.04-.13.32-.39.36-.8.12-1.87-.07-2.72-.02-1.88.1-3.78.38-5.68.32-.41.33-.64.41-.82,1.01-.84.26-.68-.51-1.19-.51-.12,0-.95.14-1.06.18-1.98.72-4.59-.01-6.61.67s-4.53.35-6.68.97c-.68.19-2.2.29-2.95.33-1.93.11-5.48.29-7.3,0-.81-.12-2.64-2.07-3.4-2.64-.28-.21-.59-.24-.86-.44-.32-.55.01-2.35-.13-3.08-.02-.12-.22-.11-.25-.24-.79-3.19-1.36-5.79,0-9,.32-.76.49-.91.98-1.44.19-.2,1.42-1.64,1.45-1.77.22-1.07-.88-.65-.79-1.84.57-.58.94-.16,1.53-.18.97-.03,1.9,0,2.84,0,.46,0,1.03-.32,1.55-.17v-.49c-.58.33-1.87.16-1.89-.76-.02-.72.59-.7.98-.41s.17,1.22.77,1c.13-.15-.4-1.03.65-1.27.62-.15,1.28.06,1.86-.03.25-.04.18-.31.29-.34.17-.05,1.14-.17,1.33-.17.99,0,1.51.72,2.84.51.26-.04.13-.32.39-.36,1.59-.25,3.77.26,5.38-.32,1.85-.67,4.23-.12,6.22-.66,1.74-.47,3.71-.36,5.57-.64.26-.04.13-.32.39-.36.41-.06.92.07,1.36.01,3.47-.46,6.88-.89,10.4-1,2.24-.07,5.21.34,7.31.02.27-.04.14-.36.39-.36.6.41,1.68.48,2.44.36.26-.04.13-.32.39-.36,2.94-.45,7.36.44,10.12-.32,1.84-.51,3.95-.3,5.98-.32,3.49-.03,6.93-.05,10.4-.33,1.01-.08,1.86.21,2.84.33.49.06,1.34-.13,1.73,0,.12.04.13.3.24.4.14.13.38.08.4.1.06.06-.54,1.36.77.54.16-.1.16-.34.27-.37.69-.21.82.46.69,1.2-.1.57-.71.72-.65,1.03.23.39.68.29.97.43.1.05.09.25.21.3.31.15.68-.12.95.46.35.73-.15,3.17.01,4.17Z"/>
</svg>