<svg width="100" height="20" viewBox="0 0 100 20" fill="none" xmlns="http://www.w3.org/2000/svg">
<path d="M49.3316 1.07737C49.8008 1.3812 49.6308 1.82397 49.413 2.17056C49.2766 2.33596 49.1158 2.37006 49.0008 2.52375C48.9499 2.64692 48.5173 3.19198 49.0292 3.15941C52.9836 2.6174 56.8648 1.95019 60.7947 1.34151C61.2375 1.2616 61.6406 1.313 62.0884 1.23768C62.5119 1.1649 63.0228 0.957263 63.4697 0.88703C63.7486 0.854968 64.0224 0.861584 64.283 0.788807C65.3782 0.434081 66.1843 0.360285 67.1594 0.863618C67.4505 1.03258 67.2643 1.3069 67.3396 1.49266C67.3986 1.63363 67.5992 1.65552 67.6572 1.77155C67.7193 1.92678 67.5961 2.09371 67.6216 2.253C67.6541 2.51612 67.874 2.79553 67.8119 3.06933C67.6684 4.16761 68.1834 5.27046 67.9656 6.35449C67.9707 6.40182 67.9585 6.44711 67.9798 6.48884C68.0216 6.55399 68.0969 6.36059 68.1559 6.42675C68.2577 6.61302 68.3127 6.81761 68.3738 7.01253C68.7046 8.19478 68.3341 9.40858 69.0628 10.5501C69.302 11.2769 69.2776 12.024 69.4354 12.7451C69.7021 13.1116 69.6237 13.4851 69.6329 13.8668C70.0532 14.9066 70.0237 15.9835 70.4482 17.0247C70.723 17.7098 71.2258 18.3973 71.2116 19.1012C71.2452 19.2355 71.2523 19.3211 71.0914 19.4921C70.9479 19.6239 70.781 19.8325 70.498 19.8824C70.3973 19.8773 70.3616 19.7979 70.2609 19.8066C70.0013 20.0101 70.0013 20.0356 69.4354 19.9633C69.1036 19.9272 68.7453 19.9516 68.4979 19.8371C68.0888 19.5877 67.6979 19.2432 67.5534 18.918C66.9579 17.2909 66.7309 15.4002 66.2973 13.7253C66.1467 13.4337 66.5182 12.8179 65.5889 12.8434C65.0555 12.8617 64.5201 12.9879 63.9939 13.0276C63.0809 13.1401 61.777 12.9996 61.0014 13.3233C60.7388 13.4602 60.5912 13.7091 60.354 13.8999C60.2278 14.0068 60.0822 14.1065 60.0242 14.2261C59.5051 15.4679 57.0856 16.6324 56.2469 17.808C56.0983 17.9897 56.0922 18.2202 55.8001 18.3612C55.4968 18.4869 55.0194 18.5546 54.6336 18.5215C54.4219 18.4849 54.3812 18.3592 54.2519 18.2813C54.1328 18.2024 53.9547 18.1963 53.9445 18.1169C53.9262 18.0452 54.1176 17.8726 53.8376 18.0019C53.7074 18.0558 53.5791 18.1403 53.4234 18.178C53.29 18.2136 53.3369 18.0233 53.2697 17.9668C52.9043 17.7067 53.1027 17.3428 53.2391 17.0604C53.4346 16.7479 53.8132 16.5153 53.9812 16.2084C54.6133 15.3463 55.7828 14.5244 56.3202 13.6363C56.3762 13.3309 55.341 13.2999 55.2871 12.7472C55.3716 12.3802 55.1934 11.9426 55.68 11.6173C56.3762 11.196 57.8653 11.4219 58.5626 10.9847C60.8293 8.55663 61.7953 5.8313 63.3944 3.2729C63.4758 2.95024 62.8803 3.17112 62.5109 3.21896C62.0355 3.26018 61.6966 3.38334 61.3088 3.50905C60.638 3.6546 59.2629 3.82967 58.4211 3.95843C57.8755 4.03884 57.3421 4.23682 57.1009 4.49027C56.7732 4.99106 56.0953 6.07305 55.8428 6.70158C55.7706 7.07157 55.9792 7.44411 55.6728 7.80341C55.4225 8.1047 55.3512 8.49047 55.0408 8.76173C54.8983 8.87522 54.7741 9.00958 54.7812 9.15005C54.7914 9.375 54.7649 9.61063 54.6102 9.83303C53.4987 11.8179 53.2972 14.1757 52.2325 16.2313C52.0106 16.6863 51.6329 17.1184 51.2492 17.5444C50.9225 18.1709 50.154 18.7393 48.7086 18.5144C48.2089 18.3658 47.536 18.063 47.3589 17.7505C47.3091 17.4482 47.3793 17.1113 47.5157 16.8227C47.9198 16.3514 48.6017 15.9132 48.8389 15.4196C49.7753 13.9844 50.097 12.2983 50.6141 10.8545C51.353 8.90118 52.1409 6.94434 53.1648 5.02261C53.1984 4.9422 53.1893 4.82413 53.0315 4.84652C52.2467 4.94067 49.9993 5.30914 49.0537 5.44401C48.2201 5.59516 47.1096 5.72239 46.9223 6.23692C44.7837 10.1068 42.9791 14.0618 40.409 17.8762C40.2593 18.1062 40.3387 18.3627 40.0232 18.549C39.1122 19.007 37.7218 18.5373 37.1783 18.092C36.9523 17.9184 36.8983 17.6518 36.8525 17.4288C37.2556 14.8689 36.5787 12.2856 36.4505 9.72005C36.3894 9.5063 36.2327 9.54396 36.137 9.72412C34.9003 12.1421 33.6198 14.7488 31.8233 17.0751C31.4355 17.5668 30.9612 18.0411 30.497 18.519C29.8781 19.1134 29.8079 19.7542 28.047 19.4503C26.5416 19.1226 26.5813 18.6004 26.8042 17.8818C27.076 17.5016 27.6276 17.1576 27.9554 16.7856C30.212 14.448 30.9265 11.8102 32.546 9.37652C33.4447 7.96525 34.488 6.50513 35.224 5.07452C35.4306 4.6577 35.6291 4.26786 35.737 3.86428C35.8204 3.57674 35.7522 3.24644 36.08 2.99299C36.3548 2.80316 36.9808 2.74616 37.448 2.73751C37.7961 2.73852 38.1422 2.87594 38.5086 2.93192C40.1596 3.07951 39.3412 5.44808 39.4206 6.10918C39.3901 7.81665 39.8298 9.57755 39.9387 11.3232C39.9499 11.4911 40.0425 11.8479 40.1647 11.942C40.5138 11.2988 42.5679 7.46396 42.8742 6.8166C42.6452 6.52498 41.1031 6.64152 40.7784 5.94886C40.7021 5.59312 41.2253 5.2954 41.3769 4.96205C41.4971 4.50197 42.3429 4.37729 43.1348 4.27143C44.2707 4.14012 44.8672 3.74112 44.9985 3.18384C45.2418 2.55734 45.3873 1.86876 45.6601 1.26466C46.0978 0.388785 46.4968 0.399474 48.2007 0.490064C48.6201 0.53027 48.3076 0.764886 48.4949 0.886011C48.6465 0.974566 49.131 0.951664 49.3265 1.07075L49.3387 1.07686L49.3316 1.07737ZM64.9843 10.6758C65.0097 10.6193 65.256 10.5934 65.3843 10.513C65.5594 10.4178 65.5797 10.2804 65.5787 10.1542C65.5512 9.50121 65.1074 8.68946 65.1237 8.00241C65.1451 7.75914 65.082 7.50823 64.9517 7.27209C64.8326 7.0166 64.5659 7.49195 64.4998 7.55607C64.3491 7.75863 64.3145 7.92556 64.2199 8.11641C64.1445 8.27214 64.115 8.39123 64.0641 8.52813C64.059 8.6462 64.1069 8.70117 64.0936 8.81517C64.0835 8.89711 63.998 9.00806 63.941 9.09712C63.8717 9.19076 63.83 9.29458 63.7231 9.37499C63.6305 9.43861 63.4778 9.39281 63.3445 9.44574C63.2152 9.50121 63.1877 9.59587 63.145 9.67577C63.1063 9.76993 62.7938 10.1684 63.1267 9.99996C63.2366 9.93533 63.319 9.81217 63.4259 9.75924C63.6193 9.68035 63.429 9.93635 63.3516 10.0468C63.2814 10.147 63.1989 10.2661 63.1185 10.3812C63.03 10.5104 62.9404 10.6321 62.8854 10.7216C62.8498 10.7939 62.806 10.8545 62.8915 10.9089C63.0544 10.9588 63.2671 10.8657 63.5694 10.8575C63.9175 10.8524 64.2809 10.8555 64.6219 10.8041C64.8499 10.773 65.0525 10.7547 65.0932 10.7303C65.081 10.7099 64.9965 10.7028 64.9873 10.6794V10.6768L64.9843 10.6758Z" fill="#FFF0B8"/>
<path d="M31.0853 9.27979C31.0018 9.3373 30.9021 9.37089 30.844 9.50525C30.8084 9.58464 30.787 9.67879 30.7555 9.76175C30.5712 10.3343 30.0898 10.859 29.8384 11.4219C29.6684 11.7461 29.8068 12.1349 29.4536 12.4316C29.2267 12.6036 28.964 12.7751 28.8287 12.9757C28.4948 13.4011 28.3075 13.8495 28.05 14.2704C27.936 14.418 27.6459 14.4063 27.4963 14.5477C27.2235 14.8226 27.0291 15.1269 26.7746 15.4078C26.456 15.7987 25.9176 16.1438 25.4066 16.4863C24.972 16.7713 24.6198 17.0726 24.2422 17.3749C23.3057 18.1937 21.4237 18.6075 19.9763 19.1266C19.448 19.2818 19.1803 19.6142 18.6073 19.7083C18.0739 19.7577 17.4601 19.7913 16.9247 19.7434C16.0555 19.5953 15.3878 19.1831 14.8402 18.8416C14.2386 18.4034 13.5363 17.9418 13.409 17.3993C13.3388 17.1377 13.2279 16.7046 13.1637 16.4807C13.1302 16.3763 13.0813 16.3443 13.008 16.3387C12.2426 16.4008 11.7367 17.5739 11.1311 17.9352C10.0623 18.7459 7.2642 19.6864 5.3038 19.6371C3.76682 19.4854 2.808 18.8319 2.21764 18.1311C-0.776919 15.077 -0.349417 12.0789 1.41251 8.88486C2.36217 7.24457 3.5032 5.20019 5.84021 3.90343C6.47638 3.57263 7.36701 3.36702 8.23728 3.22706C9.0302 3.0922 9.7142 3.33241 10.4287 3.47389C11.0954 3.58942 11.5728 3.66475 11.5718 4.06375C11.5881 4.17062 11.7133 4.26986 11.8782 4.3457C12.2019 4.51262 12.4095 4.69941 12.5612 4.90501C13.5933 6.33409 13.6279 8.90573 13.407 10.4483C13.3378 10.6493 13.3358 10.9114 13.1281 11.1028C12.9907 11.2 12.7301 11.2153 12.5378 11.2855C12.4095 11.3277 12.3047 11.3893 12.1917 11.4387C11.7856 11.5853 11.7011 11.2188 11.4405 11.1303C11.2675 11.0539 11.0191 11.0453 10.8237 10.9918C10.3483 10.8682 10.5112 10.0747 10.4654 9.75971C10.4155 8.91081 10.2791 8.04054 10.103 7.17231C10.0145 6.72139 9.84754 6.29287 9.57374 5.8557C9.47093 5.66688 9.34472 5.27501 8.82866 5.52133C6.23514 7.06543 4.32054 11.7166 4.05895 13.7737C4.03249 14.1126 4.10374 14.4083 4.27067 14.735C4.5292 15.2786 4.81319 15.8786 5.09819 16.4201C5.25087 16.6797 5.57862 17.1464 6.2555 17.013C7.84948 16.6532 9.4007 15.6287 10.5061 14.9188C10.8094 14.7152 11.1779 14.5518 11.5341 14.3686C11.7703 14.2536 11.98 14.0678 12.2192 14.0144C12.5031 13.9375 12.8757 14.1426 13.0762 14.1386C13.2839 14.1111 13.2197 13.9828 13.233 13.878C13.2157 12.5476 13.6991 11.3491 14.3872 10.1485C14.5908 9.80552 14.8106 9.44825 15.056 9.10625C15.6921 8.2146 16.6428 7.59166 17.3309 6.82419C17.6831 6.48983 17.6383 6.07301 17.9966 5.76511C18.7569 5.23887 19.8165 4.80424 20.5992 4.28513C21.328 3.84134 22.0538 3.33394 22.9169 2.96446C23.6844 2.6708 24.9364 2.67691 25.8066 2.8932C27.0515 3.19042 28.9121 3.7706 29.8567 4.36097C30.6384 4.92486 30.84 5.70963 31.1189 6.57024C31.2135 6.96212 31.2878 7.28681 31.2858 7.5993C31.2695 7.79371 31.1606 7.98761 31.2135 8.18508C31.3316 8.47822 31.3581 8.76933 31.2268 9.06502C31.2023 9.14034 31.1524 9.23959 31.0863 9.27725L31.0812 9.28132L31.0853 9.27979ZM24.7725 12.9955C26.4397 11.1308 28.393 7.70872 27.0515 5.8104C26.8937 5.59818 26.6555 5.37832 26.2626 5.25109C25.8015 5.08823 25.4229 4.97473 25.0076 5.20732C20.8568 7.34839 17.8083 10.3022 17.3899 13.2998C17.3482 13.6154 17.3187 13.9172 17.2729 14.2378C17.2566 14.816 16.6621 17.0176 17.5772 17.2303C17.7075 17.2517 17.8449 17.2293 17.9721 17.2039C18.2734 17.1397 18.7304 17.012 19.0551 16.9189C20.2644 16.557 21.7138 15.8359 22.464 15.1819C22.7062 14.9646 22.9179 14.7249 23.1347 14.4953C23.2793 14.3661 23.4859 14.3386 23.5755 14.2149C23.66 14.0831 23.6874 13.9299 23.8218 13.8042C24.0773 13.5482 24.5109 13.2612 24.7654 13.0047L24.7725 12.997V12.9955Z" fill="#FFF0B8"/>
<path d="M98.5171 0.72461C99.6958 1.08595 99.1461 1.2656 99.5971 1.4305C100.035 1.50989 100.182 1.72619 99.7009 1.85291C99.6347 1.87683 99.3955 1.91449 99.4444 1.96386C100.005 2.12214 100.046 2.12264 99.6337 2.4336C99.3813 2.70944 99.1003 2.9802 98.4184 2.95628C97.6601 2.95068 96.9394 3.03058 96.1954 3.10692C95.1358 3.24688 93.838 3.07384 92.8496 3.31049C92.4791 3.5502 92.8303 3.90493 92.6613 4.18229C92.588 4.35838 92.4506 4.51157 92.4629 4.67138C92.5229 4.86477 92.528 5.02763 92.4669 5.23425C92.2817 6.12845 91.956 6.96717 91.8491 7.8634C91.6811 8.75352 92.0486 9.99022 91.7167 10.9735C91.5091 11.1262 91.7737 11.3007 91.8165 11.4722C91.9865 12.0784 91.9193 12.6728 92.072 13.282C92.4181 14.2759 92.5086 13.908 91.8307 14.8627C91.615 15.4078 90.3732 15.1869 89.6739 15.0256C89.4164 14.9457 89.2729 14.8062 89.0825 14.7136C88.8708 14.6078 88.5787 14.5319 88.5614 14.364C88.1919 11.3196 88.2133 8.23695 88.8973 5.21034C88.9471 4.96758 88.9054 4.71769 88.9186 4.47188C89.0622 4.14972 89.3808 3.98788 89.1751 3.62858C89.0693 3.43162 89.451 3.08961 88.9838 3.0316C88.0718 2.93744 83.8792 2.51045 82.9692 2.41884C82.7942 2.40459 82.7809 2.43971 82.8563 2.53997C83.7683 3.57107 83.6217 4.73652 83.2899 5.83938C83.2725 6.01852 82.9377 6.11318 82.6069 6.09689C82.2638 6.06839 81.9554 5.91775 81.6389 5.83683C81.5493 5.79713 81.5625 5.71876 81.5249 5.67448C81.4689 5.60578 81.3539 5.58491 81.2521 5.51162C80.2851 4.74008 80.4887 1.94299 78.1476 4.04285C75.2894 6.77479 74.5759 10.2971 75.3088 13.3879C75.6203 14.4006 75.5022 14.9691 77.7944 14.1991C78.4937 13.8993 78.2993 14.1864 78.7746 13.9752C79.2805 13.7019 80.0134 13.5471 80.5854 13.2871C80.9559 13.0688 81.2226 12.8626 81.7101 12.7135C82.2343 12.5476 83.2787 11.3857 83.9993 11.7618C84.4319 11.8845 84.8146 11.8071 85.1648 12.0952C86.1165 12.3578 85.5923 12.5985 85.5516 13.0255C85.5505 13.4963 84.5836 13.7599 84.1479 14.1309C82.727 14.7833 81.8221 15.6994 80.2057 16.2542C79.6194 16.4598 78.9049 16.5758 78.1995 16.6053C77.9339 16.6394 77.5216 16.613 77.314 16.701C77.261 16.7402 77.3649 16.7992 77.2295 16.8557C77.0086 16.9315 76.6666 16.9687 76.3938 16.9941C69.8001 17.3545 71.6648 8.22321 72.7387 6.35849C72.9372 5.71927 73.4726 5.11313 73.7942 4.48867C74.0812 4.109 74.3836 3.7497 74.5505 3.34357C74.8996 2.48551 75.7058 2.56236 76.0366 2.07531C75.9918 2.06106 75.8706 2.11908 75.8289 2.08906C75.8605 1.91246 76.3979 1.42439 76.7989 1.37553C76.6005 1.83561 77.4331 1.02183 77.9746 1.01063C78.4978 0.923602 79.1787 1.03099 79.6948 0.971441C80.2179 0.887467 79.765 0.292527 81.0027 0.00294516C82.1875 -0.0336979 83.3876 0.281331 84.5449 0.406528C87.5069 0.785173 90.9126 1.08137 93.9479 1.01776C94.8487 0.998925 95.7414 0.911895 96.629 0.821305C97.2193 0.781609 97.941 0.637582 98.5039 0.721047L98.5161 0.723591L98.5171 0.72461Z" fill="#FFF0B8"/>
</svg>
