<svg width="38" height="39" viewBox="0 0 38 39" fill="none" xmlns="http://www.w3.org/2000/svg">
<path d="M37.8854 16.7039L37.7699 16.4937L38 16.3976L37.6978 16.2017C37.6783 15.9649 37.7903 15.5926 37.7325 15.3697C37.7218 15.3293 37.6395 15.3328 37.6221 15.2812C37.5755 15.1446 37.5853 14.7325 37.5397 14.5652C37.53 14.5284 37.4109 14.5008 37.3889 14.399L37.4651 14.3264L37.3843 14.1351L37.4579 14.1121L37.462 14.0395C37.1971 13.9526 37.303 13.749 37.2467 13.544C37.2237 13.4601 37.1628 13.4606 37.1572 13.4366C37.1286 13.3056 37.1685 13.0919 37.1577 12.9441C37.149 12.8244 37.1429 12.5396 37.0028 12.5421L37.0805 12.4859L37.0774 12.3923C36.7588 12.3391 36.8821 12.0972 36.8468 11.8742C36.8279 11.7561 36.7 11.6477 36.6969 11.6339C36.675 11.5234 36.631 11.3224 36.6172 11.2217C36.5865 10.9967 36.6264 10.6934 36.6187 10.4602L36.3543 10.1784C36.4331 9.8051 36.4228 9.36734 36.0822 9.16687L36.1584 9.12903C36.1886 9.02368 36.0966 9.06255 36.0418 8.99709C35.9841 8.92703 35.8588 8.61456 35.8419 8.60024C35.8127 8.57671 35.7468 8.59973 35.7365 8.59206C35.7227 8.58183 35.7999 8.33227 35.7299 8.25402C35.7156 8.23766 35.6424 8.24737 35.6025 8.20953C35.5729 8.18089 35.5698 8.12055 35.5437 8.08372C35.4328 7.92672 35.3494 7.80092 35.2241 7.64699C34.8994 7.24912 34.6836 6.81136 34.3154 6.42729C34.2775 6.38792 34.2136 6.39252 34.1747 6.35519C34.0965 6.27899 34.0919 6.07903 34.0458 6.00692C33.9594 5.87038 33.4286 5.55791 33.2956 5.43364C33.1044 5.25363 33.0778 5.01838 32.9361 4.89156C32.7704 4.74171 32.6369 4.57755 32.4457 4.4538C32.3971 4.4226 32.2953 4.4093 32.2575 4.36277C32.2033 4.2968 32.2299 4.18633 32.17 4.12343C32.0074 3.9516 31.6152 3.6468 31.4229 3.49032C31.2536 3.35275 30.8184 2.98096 30.6731 2.89965C30.5949 2.85567 30.4548 2.87663 30.3944 2.84032C30.3822 2.83316 30.2901 2.66287 30.2236 2.61019C30.1766 2.57337 30.0999 2.56724 30.0503 2.53144C29.477 2.1172 28.8091 1.71882 28.1647 1.53267C27.8962 1.45545 27.8154 1.28515 27.6907 1.22941C27.5265 1.15628 27.0744 1.06167 26.8683 0.994676C26.495 0.873474 26.1467 0.778353 25.7524 0.690392C25.7238 0.684255 25.7294 0.622376 25.6998 0.615216C25.5668 0.583509 25.395 0.643343 25.2334 0.590157C25.1265 0.554871 25.1163 0.468444 25.0856 0.460773C24.9362 0.422929 24.389 0.484297 24.2673 0.404519C24.2438 0.388665 24.231 0.338548 24.23 0.307864H24.1927C24.1681 0.516004 24.0244 0.312978 24.0111 0.309398C23.9058 0.281271 23.6935 0.298658 23.601 0.271554C23.5575 0.258769 23.5902 0.192798 23.5713 0.16416C23.5447 0.123759 22.9495 0.160069 22.8288 0.155977C22.4616 0.143192 22.0821 0.0997233 21.7139 0.0818242C21.5641 0.0741532 21.2056 0.150352 21.1422 0H21.0665C20.9903 0.211209 20.8277 0.0782444 20.688 0.0910295C20.2861 0.12785 19.9393 0.283316 19.5302 0.309398C19.3599 0.320137 19.117 0.259281 18.9257 0.306329C18.8823 0.317069 18.8853 0.406053 18.8449 0.412701C18.8158 0.417304 18.7452 0.375369 18.6885 0.380994C18.2793 0.420883 17.9244 0.486854 17.5404 0.541063C17.0162 0.615216 16.2573 0.94865 15.7622 1.1481C15.463 1.26776 15.1148 1.33067 14.8616 1.46926C14.6571 1.58176 14.2919 1.60222 14.1339 1.68916C13.823 1.85997 13.8665 1.77661 13.556 1.84258C13.5427 1.84514 13.4768 1.94588 13.3397 1.9781C12.7485 2.11771 12.1175 2.45268 11.5651 2.76361C11.492 2.80453 11.155 3.13949 11.1248 3.14563C11.019 3.16711 10.9049 3.1262 10.7822 3.18041C10.6242 3.24945 10.3541 3.40133 10.2064 3.48418C9.95986 3.62175 9.63767 3.70817 9.37839 3.83756C9.32265 3.86517 9.20861 4.04621 9.15389 4.08252C8.91967 4.2385 8.67471 4.36379 8.44509 4.56221C8.40724 4.59494 8.33053 4.79337 8.26558 4.82354C8.19041 4.85831 8.06563 4.80513 8.00323 4.85013C7.9521 4.88695 7.98431 4.99077 7.96181 5.01889C7.93778 5.04856 7.76083 5.04088 7.70969 5.07413C7.64883 5.11453 7.54144 5.315 7.50462 5.34875C7.39825 5.44796 7.23 5.51137 7.09805 5.65354C6.81678 5.95885 6.37851 6.32297 6.07781 6.66152C6.01849 6.728 5.91876 6.80113 5.86251 6.89778C5.68352 7.20667 5.56948 7.37339 5.35878 7.65159C5.03301 8.08168 4.58145 8.37062 4.26182 8.77514C4.01635 9.08505 3.76014 9.29881 3.5612 9.65935C3.52643 9.72328 3.50086 9.89153 3.46915 9.92426C3.44869 9.94523 3.29885 9.99483 3.26357 10.0628C3.2247 10.138 3.21601 10.272 3.16947 10.3636C3.03753 10.6223 2.68006 10.9297 2.59568 11.1383C2.55067 11.2493 2.57624 11.3802 2.5517 11.4232C2.54402 11.4365 2.35787 11.5766 2.31696 11.6272C2.07251 11.9284 2.02291 12.1182 1.94517 12.4777C1.9421 12.4935 1.73754 12.6899 1.72732 12.7073C1.48287 13.1113 1.45423 13.7823 1.19444 14.2287C1.16938 14.2717 0.984761 14.3995 0.960214 14.4338C0.878901 14.5484 0.82009 14.8398 0.784803 14.9682C0.759744 15.0592 0.643145 15.1733 0.639053 15.2081C0.620131 15.3738 0.713718 15.3426 0.719343 15.363C0.740822 15.4418 0.581265 15.5548 0.565412 15.6305C0.522965 15.8325 0.596607 16.1603 0.565412 16.3787L0.698887 16.3393C0.781223 16.4231 0.647236 16.4155 0.606835 16.4768C0.57564 16.5244 0.582799 16.6067 0.555183 16.6369C0.508646 16.6875 0.289766 16.685 0.27647 16.798C0.296926 16.956 0.462108 16.9289 0.410457 17.1176C0.403297 17.1427 0.361362 17.1447 0.350623 17.1626C0.300506 17.2424 0.364431 17.2736 0.180326 17.2777C0.102082 17.3227 0.128675 17.8213 0.104639 17.9251C0.0974792 17.9538 0.0355996 17.9481 0.0289514 17.9773C-0.0155405 18.1752 -0.0022441 19.1356 0.0253716 19.3535C0.0345768 19.4271 0.0990134 19.3903 0.108219 19.4634C0.133277 19.6639 0.133277 20.3037 0.108219 20.5041C0.0990134 20.5778 0.0355996 20.5404 0.0253716 20.6141C0.0141208 20.6974 -0.00428969 20.8923 0.103616 20.8672L0.105662 20.9235C-0.0917393 20.9966 0.0990134 21.0181 0.105662 21.0442C0.148108 21.2088 0.0923652 21.6241 0.109753 21.8394C0.139414 22.2025 0.286698 22.6479 0.408411 22.9676C0.443698 23.0606 0.428356 23.2401 0.5649 23.2447V23.2821C0.363408 23.301 0.550581 23.3976 0.561832 23.4273C0.753607 23.9244 0.883503 24.5186 1.10596 24.9774C1.13511 25.0382 1.30439 25.1446 1.32229 25.1722C1.3545 25.2223 1.37291 25.4274 1.41178 25.5159C1.51355 25.746 1.81425 26.1142 1.94313 26.3812C1.97586 26.4497 1.96614 26.5694 2.00398 26.619C2.02904 26.6512 2.20803 26.7212 2.25201 26.801C2.33282 26.9473 2.37577 27.2158 2.48163 27.3584C2.90763 27.9343 3.28862 28.527 3.71104 29.1233C3.92072 29.4189 4.11607 29.7605 4.32626 30.0106C4.35132 30.0402 4.40757 30.0525 4.4357 30.0939C4.48991 30.1747 4.4628 30.3092 4.48479 30.3333C4.55332 30.4074 4.67299 30.4949 4.78805 30.6237C5.40225 31.3111 6.0415 31.9616 6.70223 32.6315C6.92367 32.8555 7.11953 33.0498 7.35989 33.2682C8.10142 33.9412 9.02553 34.5078 9.87701 35.1215C10.2508 35.3905 10.5434 35.7209 10.9689 35.904C11.2061 36.0062 11.4383 36.1684 11.6823 36.2798C11.8638 36.3627 12.0489 36.3964 12.2228 36.4609C12.32 36.4967 12.411 36.6031 12.4514 36.6138C12.592 36.6506 12.749 36.6225 12.8933 36.6276C12.9618 36.894 13.0958 36.7831 13.2727 36.823C13.5811 36.8915 14.0679 37.2331 14.4039 37.3548C14.631 37.4371 14.8898 37.4479 15.0943 37.5399C15.1572 37.5681 15.1583 37.6448 15.2319 37.6729C15.4037 37.7384 15.6415 37.7092 15.8042 37.743C15.8353 37.7491 15.8297 37.8212 15.9034 37.8412C16.0563 37.8831 16.2066 37.8371 16.3759 37.8989C16.8351 38.0657 17.3675 38.0682 17.8421 38.1281C17.9142 38.1367 17.971 38.1966 18.038 38.2012C18.1372 38.2083 18.2558 38.1265 18.3765 38.17C18.4271 38.1879 18.4287 38.26 18.4466 38.2707C18.4865 38.2943 18.6164 38.2743 18.7064 38.3009C18.8199 38.3347 18.8475 38.4681 18.8976 38.4911C18.9697 38.5239 19.0398 38.4957 19.1022 38.5106C19.1201 38.5147 19.1768 38.6543 19.3159 38.5806L19.361 38.3577C19.4632 38.3945 19.654 38.304 19.7179 38.3147C19.7547 38.3208 19.7501 38.4093 19.8048 38.4272C19.8923 38.4564 20.0467 38.3853 20.0882 38.509C19.9797 38.5106 19.9097 38.4692 19.877 38.5868C19.7885 38.6057 19.8381 38.5203 19.7946 38.509C19.7368 38.4937 19.6535 38.5177 19.5895 38.5096C19.4627 38.621 20.0447 38.6625 20.1056 38.6645C20.2861 38.6722 20.9836 38.6512 21.1258 38.6062C21.2086 38.5801 21.1821 38.5167 21.2557 38.507C21.3048 38.5004 21.4403 38.4978 21.4828 38.509C21.5191 38.5183 21.5042 38.5817 21.5083 38.5847C21.5881 38.643 21.5779 38.5167 21.6086 38.5085C21.6669 38.4932 21.7497 38.5183 21.8141 38.509L21.7697 38.3618L21.5093 38.3285C21.6045 38.3152 21.6674 38.2104 21.6883 38.2043C21.7579 38.1838 21.8842 38.2002 21.9676 38.1644L21.8909 38.3173C21.9502 38.3234 22.0039 38.3556 22.0647 38.3577C22.144 38.3607 22.4687 38.3004 22.5541 38.2779C22.5848 38.2692 22.5787 38.2104 22.6078 38.2037C22.7311 38.1746 22.8589 38.2656 22.8502 38.0493L22.8881 38.1644C23.0108 38.2099 23.1121 38.0646 23.1479 38.0524C23.4997 37.9307 23.8091 37.7956 24.163 37.6632C24.1968 37.6504 24.1886 37.5901 24.2965 37.5604C24.3548 37.5445 24.7112 37.4944 24.7291 37.5123L24.6524 37.7419C24.7481 37.7517 24.8375 37.7373 24.8764 37.6392L24.8442 37.3973H24.9593V37.4847L25.035 37.5113C25.0544 37.4397 25.1204 37.3298 25.1889 37.3973C25.1551 37.2464 25.2809 37.2863 25.372 37.2193C25.4942 37.1293 25.5607 36.9774 25.7647 37.0516L25.7264 36.8986C25.8997 36.9058 26.0097 36.7222 26.2245 36.7452C26.2623 36.8818 26.0951 36.7974 26.071 36.8219V36.9559C26.2459 37.0372 26.2245 36.915 26.2777 36.8347C26.2899 36.8158 26.3365 36.824 26.3385 36.8204C26.4014 36.7268 26.2224 36.7739 26.2633 36.669C26.5139 36.6071 26.6474 36.3642 26.853 36.2231C26.9865 36.131 27.3102 36.0318 27.4027 35.9664C27.436 35.9428 27.5423 35.7817 27.596 35.7485C27.685 35.6938 27.8139 35.6979 27.8466 35.6749C27.9561 35.5981 28.1581 35.3619 28.288 35.2887C28.4757 35.1829 28.7186 35.1711 28.849 34.939C28.9262 34.8009 29.0755 34.6209 29.2259 34.5063C29.2755 34.469 29.345 34.4429 29.4085 34.4434L29.3317 34.3294C29.3757 34.3258 29.4207 34.3135 29.4581 34.29C29.6043 34.1979 29.7363 34.11 29.8631 33.9985C30.0206 33.8604 30.106 33.8558 30.2333 33.7152C30.2773 33.6661 30.3689 33.6968 30.3285 33.5495C30.1827 33.4717 30.1623 33.2917 30.3571 33.3822C30.3709 33.3889 30.3551 33.4492 30.4221 33.4498C30.7243 33.4513 30.8337 33.0253 31.0961 32.9859L31.0951 32.9102L31.0183 32.8908V32.8151C31.0291 32.7762 31.4699 32.4305 31.5425 32.3589C31.5778 32.3247 31.7179 32.1907 31.7271 32.1805C31.8233 32.0664 31.7706 31.9406 32.0544 32.0659C31.9977 31.8547 32.2401 31.8665 32.3112 31.7473C32.3357 31.7069 32.3117 31.6414 32.3296 31.6133C32.3459 31.5877 32.438 31.5882 32.4774 31.5478C32.5127 31.5121 32.5045 31.4435 32.5244 31.4236C32.5536 31.3944 32.6374 31.4072 32.6799 31.376C32.9939 31.1418 33.1079 30.8355 33.3191 30.5598C33.4317 30.4141 33.7538 30.1599 33.8443 30.0198C33.8929 29.9446 33.8991 29.8142 33.9477 29.739C34.0714 29.5478 34.2392 29.4102 34.3992 29.1448C34.6902 28.6625 35.0057 28.1486 35.2691 27.6684C35.3177 27.5799 35.2937 27.473 35.3269 27.3973C35.3397 27.3682 35.5427 27.2204 35.5463 27.206C35.5703 27.1094 35.5274 26.9642 35.5555 26.8399C35.5795 26.7335 35.8685 26.4875 35.8843 26.441C35.9155 26.3505 35.8756 26.2011 35.9068 26.0784C35.913 26.0544 36.1416 25.7414 36.1579 25.6724C36.183 25.5675 36.1257 25.4177 36.1774 25.3144C36.205 25.2591 36.3037 25.2545 36.3134 25.2121C36.3482 25.0602 36.3298 24.9252 36.3922 24.7314C36.5026 24.3908 36.6949 23.9438 36.7716 23.6007C36.8156 23.4022 36.8038 23.031 36.8483 22.8489C36.8529 22.83 37.0805 22.6975 36.947 22.5124L36.8084 22.4536L36.8493 22.0547C36.9358 21.9483 36.9915 22.3723 36.8499 22.3242V22.3999L37.0023 22.4766C36.9644 22.3825 37.0733 22.3559 37.0785 22.3349C37.1327 22.1012 37.0979 21.753 37.1582 21.5075C37.2677 21.0616 37.2651 21.0186 37.2748 20.544C37.2784 20.3794 37.3807 20.3195 37.3848 20.3021C37.4559 20.003 37.1812 20.0459 37.2334 19.7539L37.3797 19.7467C37.4574 19.5949 37.4344 19.4143 37.4635 19.2814C37.4697 19.2532 37.5316 19.2584 37.5387 19.2287C37.5714 19.0901 37.5704 18.8549 37.617 18.7066C37.6277 18.6723 37.665 18.6754 37.6926 18.6795L37.5392 18.6411C37.5464 18.5598 37.573 18.4417 37.5392 18.3655C37.5142 18.3087 37.2856 18.2412 37.5336 18.189C37.5249 18.2724 37.6553 18.2918 37.6967 18.2345C37.7351 18.1829 37.6967 18.0985 37.707 18.0535C37.7607 17.808 37.7683 17.6311 37.8435 17.4229C37.8952 17.2797 37.909 17.0194 37.8681 16.8732C37.8435 16.7847 37.6292 16.7607 37.8854 16.7039ZM0.181349 19.1591L0.182883 19.1024C0.387955 19.0922 0.21101 18.6999 0.258571 18.6416C0.28005 18.6329 0.411991 18.7096 0.411991 18.7183V19.4087C0.4079 19.4143 0.293346 19.4552 0.27647 19.4102C0.223795 19.309 0.321984 19.1924 0.181349 19.1591ZM0.41148 21.9396C0.295392 22.0501 0.341418 21.5868 0.335281 21.5566L0.452392 21.5735C0.551604 21.6926 0.438073 21.8179 0.41148 21.9396ZM0.296926 21.3265C0.251411 21.0585 0.285675 20.8268 0.296926 20.5589L0.408923 20.5619C0.514271 20.7051 0.40074 20.9746 0.420174 21.0728C0.435516 21.1505 0.84208 21.2994 0.296926 21.3265ZM20.2416 6.36797H20.9703V6.44468H20.2416V6.36797ZM21.2005 38.3556C21.0481 38.3024 21.0557 38.4732 20.9166 38.4339C20.8742 38.4221 20.9187 38.3398 20.8558 38.3561L20.8548 38.4717L20.666 38.4303L20.6635 38.2794C20.7515 38.2677 20.8619 38.2978 20.9442 38.2784C20.9545 38.2758 21.0281 38.1255 21.1191 38.2089C21.1278 38.2165 21.1145 38.2748 21.136 38.3055C21.1549 38.3326 21.2158 38.2953 21.2005 38.3556ZM22.5812 38.0104L22.658 37.9526L22.5812 37.858C22.7219 37.8033 23.0113 37.7823 23.0415 37.9721L22.5812 38.0104ZM26.5334 36.1704C26.5252 36.1801 26.5385 36.2579 26.4945 36.3049C26.3436 36.4634 26.1882 36.4036 26.0306 36.4547C25.9084 36.4946 25.9176 36.6629 25.7647 36.6296C25.8225 36.5596 25.9033 36.3954 25.9575 36.3427C25.9657 36.3346 26.1263 36.2123 26.1375 36.2093C26.2393 36.1817 26.3482 36.221 26.4648 36.132C26.5415 36.0732 26.563 35.8467 26.6459 35.9019C26.6525 35.9065 26.7277 36.0267 26.7277 36.0344C26.72 36.2747 26.5431 36.1597 26.5334 36.1704ZM28.066 35.1721C27.8538 35.1369 27.8359 35.4089 27.6441 35.4023C27.6375 35.3455 27.7014 35.3696 27.7346 35.3184C27.7715 35.2611 27.7832 35.1691 27.8241 35.1323C27.8993 35.0658 28.0809 35.0136 28.066 35.1721ZM32.9361 19.5734C32.9335 19.5851 32.8149 19.6792 32.8236 19.7759L32.707 19.7534V19.869L32.8246 19.8899L32.8215 20.3671C32.7361 20.3297 32.8343 20.1727 32.6656 20.275C32.5648 20.4182 32.7106 20.5067 32.707 20.6125C32.7024 20.7445 32.5612 20.9434 32.5546 20.97C32.529 21.08 32.5664 21.2395 32.5444 21.3745C32.5403 21.3986 32.3904 21.777 32.3725 21.8164C32.3383 21.8916 32.2334 21.9069 32.2145 21.9652C32.1792 22.0726 32.2043 22.3211 32.1675 22.4485C32.1276 22.5886 31.9368 22.9374 31.8596 23.1378C31.8448 23.1757 31.6745 23.2273 31.8642 23.3015V23.3772C31.7103 23.4258 31.8432 23.6579 31.6382 23.6303C31.6417 23.8298 31.6382 23.9643 31.5615 24.1489C31.4561 24.401 31.2935 24.6163 31.1733 24.8459C31.1416 24.9068 31.1518 25.0495 31.1263 25.0776C31.1048 25.1011 31.0097 25.0756 30.9851 25.1471C30.9212 25.3328 31.0864 25.4335 30.7136 25.4704C30.6645 25.6043 30.8036 25.5829 30.8245 25.6458C30.8752 25.8007 30.733 25.838 30.713 25.8795C30.6128 26.084 30.5376 26.3464 30.3484 26.5049C30.3111 26.5361 30.0896 26.6384 30.0774 26.6558C30.0339 26.7151 30.0891 26.7933 30.0779 26.8547C30.0201 27.1779 29.9347 27.0332 29.8166 27.1539C29.7577 27.2142 29.836 27.2838 29.6161 27.3068C29.6539 27.5748 29.454 27.5916 29.3461 27.7456C29.1932 27.965 29.2663 28.0028 28.9564 28.1506C28.8878 28.1833 28.7329 28.1787 28.695 28.2283C28.6495 28.2877 28.7431 28.3828 28.7017 28.4605C28.6904 28.481 28.4179 28.7336 28.3683 28.7801C28.265 28.8783 27.9632 29.1785 27.8722 29.2445C27.7464 29.3345 27.6661 29.3115 27.503 29.4705C26.9205 30.0382 26.2935 30.5266 25.6251 31.0058C25.5729 31.0431 25.4308 31.2011 25.3929 31.2236C25.2876 31.2865 25.1684 31.2886 24.9951 31.3903C24.7992 31.5054 24.612 31.5315 24.4346 31.6184C24.3993 31.6353 24.2341 31.8184 24.2213 31.8255C24.1717 31.8532 23.9406 31.8736 23.8383 31.915C23.6225 32.002 23.2507 32.2341 23.0129 32.362C22.7301 32.5129 22.2811 32.834 22.0141 32.9061C21.8719 32.945 21.6577 32.9399 21.537 32.9895C21.495 33.0069 21.5058 33.0739 21.4045 33.0928C21.2843 33.1148 21.1289 33.0764 21.0327 33.1076C20.9811 33.1245 20.9795 33.2058 20.9233 33.2298C20.8123 33.2764 20.6758 33.235 20.5566 33.281C20.5044 33.3014 20.2845 33.4738 20.2288 33.5096C20.0237 33.64 20.1076 33.4692 20.0856 33.4498C19.9276 33.393 19.9439 33.5167 19.8703 33.5536C19.8202 33.5781 19.7409 33.5658 19.6908 33.5986C19.6611 33.6175 19.6709 33.73 19.5921 33.6732C19.5716 33.6584 19.5967 33.5469 19.386 33.5996C19.3712 33.6032 19.2203 33.8082 19.1789 33.8302C19.1549 33.8425 18.8015 33.9918 18.7805 33.9975C18.6711 34.0266 18.5422 34.0021 18.464 34.0276C18.3862 34.0532 18.3202 34.3416 18.2031 34.0675L18.1152 34.0599C18.0656 34.1846 17.8999 34.1626 17.7996 34.2271C17.6457 34.3268 17.6825 34.5124 17.391 34.4429C17.3598 34.4352 17.3808 34.3728 17.3097 34.3641C17.1931 34.3493 17.0648 34.3774 16.9328 34.358C16.6792 34.3202 16.5349 34.0563 16.2353 34.1396L16.2092 34.0292C16.1744 33.9923 15.9197 34.0026 15.8589 33.9831C15.841 33.9775 15.6149 33.7745 15.5715 33.7556C15.484 33.7177 15.3521 33.7193 15.2697 33.6824C14.6627 33.4119 14.0603 33.1276 13.4604 32.8366C13.2236 32.8228 13.1065 32.6223 12.9643 32.5226C12.8892 32.4694 12.7066 32.5681 12.7628 32.3589C12.7659 32.3461 12.8994 32.2996 12.839 32.2193C12.836 32.2152 12.7496 32.1815 12.7429 32.1815C12.6897 32.1845 12.7224 32.3748 12.5475 32.3717C12.3282 32.3686 12.1231 32.0311 11.9247 31.9176C11.8715 31.8869 11.7549 31.8777 11.6828 31.8327C11.6086 31.7867 11.515 31.6292 11.4552 31.5893C11.3555 31.5228 11.1432 31.463 11.0266 31.3735C10.9218 31.2927 10.819 31.062 10.7183 31.0037C10.6523 30.9654 10.5106 30.9689 10.4119 30.9147C10.3337 30.8713 9.90565 30.4846 9.79467 30.39C9.64432 30.2617 9.73433 30.2944 9.65966 30.2013C9.64637 30.1845 9.39885 29.9896 9.33492 29.9318C9.29759 29.8986 9.2081 29.9083 9.17486 29.8423C9.13752 29.7687 9.1769 29.6623 9.15031 29.6173C9.13343 29.5882 8.96365 29.559 8.91967 29.5319C8.77238 29.4404 8.64709 29.1484 8.5443 29.0256C8.15052 28.5567 7.44376 28.0028 7.09857 27.5267C7.01572 27.4121 6.92571 27.1299 6.84286 27.0158C6.81014 26.9713 6.64904 26.8624 6.61018 26.8087C6.42658 26.553 6.40306 26.3899 6.16577 26.1781C6.13099 26.1469 5.74693 25.4847 5.70807 25.4008C5.68914 25.3589 5.70806 25.2755 5.67738 25.2085C5.65232 25.1538 5.43446 24.9712 5.39918 24.9017C5.33167 24.7687 5.3869 24.582 5.33321 24.4414C5.31275 24.3867 5.13632 24.1095 5.09541 24.019C5.05142 23.9223 4.91386 23.6978 4.9067 23.6794C4.85351 23.5342 4.89238 23.2836 4.8617 23.1563C4.85351 23.1205 4.76606 23.1092 4.73538 23.0443C4.67861 22.9236 4.73129 22.8008 4.70725 22.695C4.7006 22.6663 4.63872 22.6715 4.63208 22.6423C4.57071 22.3881 4.66481 21.6911 4.56611 21.4492C4.54667 21.4006 4.48377 21.4231 4.47508 21.3474C4.45002 21.1434 4.48582 20.8708 4.47917 20.6535C4.46076 20.0408 4.42496 19.5499 4.47047 18.9295C4.47456 18.8743 4.42854 18.8047 4.43621 18.7372C4.44695 18.6452 4.54463 18.6575 4.55537 18.615C4.58605 18.4887 4.59116 18.2263 4.62747 18.0433C4.70316 17.6602 4.71288 17.269 4.93738 16.9034C4.95988 16.867 5.12916 16.8614 4.93687 16.777L4.93483 16.7034C5.04427 16.6052 4.99517 16.5587 5.0233 16.4451C5.06574 16.2743 5.28462 15.5696 5.40941 15.4668C5.43191 15.4484 5.49328 15.4668 5.50606 15.4535C5.53214 15.4264 5.53419 15.1303 5.55311 15.0638C5.58891 14.9396 5.84665 14.6077 5.93104 14.4675C6.27981 13.8876 6.60302 13.3568 6.99475 12.7978C7.26324 12.4153 7.34506 12.3759 7.66264 12.065C7.86822 11.8635 7.95721 11.6697 8.09529 11.4426C8.15001 11.3516 8.35508 11.3373 8.23643 11.1624L8.41185 11.1266C8.35815 10.809 8.74937 10.7844 8.73505 10.5103C8.60771 10.5272 8.57958 10.517 8.54327 10.3958C8.62152 10.382 8.70334 10.4219 8.77801 10.4121C8.79846 10.4091 9.11707 10.2198 9.1319 10.2055C9.24338 10.0971 9.41112 9.91198 9.50471 9.7647L9.96497 9.48957C10.0453 9.38013 9.90616 9.1546 10.0207 9.12954C10.1179 9.10806 10.1005 9.27427 10.1363 9.28501C10.192 9.30188 10.3552 9.20932 10.4043 9.16841C10.4436 9.13568 10.6518 8.91373 10.5485 8.89839L10.461 8.86157C10.5674 8.85543 10.5822 8.73678 10.662 8.69689C10.7152 8.67081 10.7888 8.68513 10.8333 8.65701C11.0287 8.53529 11.1596 8.26681 11.403 8.21106C11.5928 8.16759 11.6996 8.16299 11.8889 8.05457C12.0535 7.96048 12.1691 7.89962 12.3307 7.827C12.4519 7.77177 12.6468 7.75847 12.678 7.74057C12.7409 7.70426 12.9526 7.43578 13.0988 7.36776C13.216 7.31304 13.3653 7.32787 13.4911 7.32634L13.489 7.21434C13.3755 7.22048 13.3034 7.15706 13.3361 7.03995C13.3453 7.00774 13.4512 7.01132 13.5023 6.98114C13.9677 6.7055 14.4075 6.93563 14.8841 6.82721C14.9123 6.82107 14.9056 6.76226 14.9378 6.75306C15.2646 6.66254 15.7177 6.76942 16.0333 6.67277C16.1964 6.62316 16.4035 6.50861 16.5692 6.43394C16.9021 6.28359 17.1205 6.42525 17.4417 6.44417V6.5981C17.6672 6.57816 17.8574 6.47281 18.1039 6.52293C18.154 6.53315 18.1673 6.69271 18.3872 6.69783C18.5698 6.70243 18.5949 6.60526 18.6194 6.59964C18.9764 6.51577 19.9936 6.54645 20.3781 6.59503C20.4518 6.60424 20.4149 6.66868 20.4881 6.67788C20.6185 6.69425 21.0153 6.69425 21.1452 6.67737C21.1836 6.67277 21.2838 6.57509 21.4505 6.56026C22.0944 6.504 22.9883 6.66203 23.5902 6.52037C23.6225 6.5127 23.601 6.45082 23.6716 6.44161C23.8055 6.42423 23.9758 6.46002 24.1154 6.44417C24.0827 6.62572 24.1487 6.77863 24.3456 6.75152V6.40633C24.6003 6.45031 25.0713 6.44059 25.3152 6.36593C25.5141 6.30507 25.9662 6.15881 26.1646 6.13477C26.4065 6.1046 26.7512 6.08108 26.9773 6.15369C26.9859 6.15676 26.9895 6.20125 27.0212 6.21148C27.1854 6.26262 27.6349 6.35416 27.7561 6.42985C27.8671 6.49889 27.9724 6.71266 28.0798 6.8134C28.2527 6.97603 28.379 6.97296 28.5657 7.18315C28.716 7.35293 28.8659 7.49919 29.0152 7.64596C29.0561 7.68585 29.1108 7.89348 29.1354 7.92519C29.1614 7.95843 29.4182 8.03719 29.4376 8.06276C29.4657 8.09907 29.432 8.19419 29.4821 8.23101L29.7153 8.24686L29.6002 8.09395L29.7352 8.13128L29.7705 8.5179C30.061 8.56393 29.9782 8.63757 30.0973 8.79406C30.3515 9.12698 30.5954 9.47525 30.8286 9.79948C31.0485 10.1048 31.0357 10.3809 31.1748 10.6709C31.1999 10.7241 31.3958 10.854 31.4029 10.8831C31.4188 10.9435 31.3886 11.0263 31.4096 11.0979C31.431 11.1726 31.518 11.1757 31.5574 11.2288C31.6238 11.3178 31.7195 11.6441 31.7757 11.7663C31.8422 11.9111 31.9384 12.0885 32.0161 12.2251C32.2631 12.6597 32.482 13.3921 32.5531 13.905C32.5965 14.2205 32.6287 14.6056 32.708 14.9329C32.9121 15.7762 32.975 16.1521 32.9796 17.0839C32.9801 17.246 33.1698 17.538 33.1667 17.8167C33.1647 18.009 33.0747 18.571 33.0169 18.7096C32.955 18.8579 32.9821 19.3668 32.9361 19.5734ZM33.381 30.2852C33.3652 30.3108 33.2987 30.4023 33.2782 30.4299C33.2302 30.4938 33.2123 30.5046 33.1289 30.4928L33.3979 30.0714C33.5263 30.1262 33.4199 30.2223 33.381 30.2852ZM33.6408 29.9328C33.6173 29.9518 33.648 30.0249 33.5508 29.9942C33.5206 29.9594 33.694 29.6296 33.7804 29.6112C33.807 29.8188 33.7758 29.826 33.6408 29.9328ZM34.7817 28.2079L34.6631 28.2299C34.6125 28.0749 34.7434 28.0688 34.7674 28.0284C34.7899 27.9905 34.7705 27.9281 34.7981 27.8857C34.8191 27.8535 34.8804 27.853 34.8886 27.8422C34.9065 27.8187 34.7828 27.7031 34.9316 27.7318C34.9689 27.9235 34.7833 27.9962 34.7817 28.2079ZM35.4686 25.8524C35.6332 25.8498 35.578 26.0462 35.5836 26.1592H35.3918L35.4686 25.8524ZM35.6828 26.3745C35.666 26.4062 35.5979 26.5003 35.5688 26.5474C35.5371 26.5985 35.5637 26.6394 35.4686 26.619C35.4128 26.5438 35.6931 26.1413 35.7365 26.1976C35.7524 26.2743 35.714 26.3162 35.6828 26.3745ZM37.597 17.8351C37.5193 17.8331 37.4998 17.3703 37.5975 17.2992C37.6512 17.4286 37.5627 17.5022 37.6313 17.6295C37.6369 17.6403 37.684 17.6403 37.6926 17.6705C37.7151 17.7497 37.6763 17.8377 37.597 17.8351Z" fill="black"/>
<path d="M32.9795 17.0839C32.9749 16.1522 32.912 15.7763 32.708 14.933C32.6287 14.6057 32.5965 14.2206 32.553 13.9051C32.4819 13.3921 32.2631 12.6598 32.0161 12.2251C31.9383 12.0886 31.8422 11.9111 31.7757 11.7664C31.7194 11.6441 31.6238 11.3179 31.5573 11.2289C31.5179 11.1757 31.431 11.1726 31.4095 11.098C31.3886 11.0264 31.4187 10.9435 31.4029 10.8832C31.3957 10.854 31.1999 10.7241 31.1748 10.6709C31.0357 10.381 31.0485 10.1048 30.8286 9.79952C30.5954 9.47529 30.3514 9.12703 30.0973 8.79411C29.9781 8.63762 30.061 8.56398 29.7705 8.51795L29.7352 8.13133L29.6002 8.094L29.7153 8.24691L29.4821 8.23105C29.4319 8.19423 29.4657 8.09911 29.4376 8.0628C29.4181 8.03723 29.1614 7.95848 29.1353 7.92523C29.1108 7.89353 29.0561 7.6859 29.0151 7.64601C28.8658 7.49924 28.716 7.35298 28.5656 7.18319C28.379 6.97301 28.2526 6.97607 28.0798 6.81345C27.9724 6.7127 27.8671 6.49894 27.7561 6.4299C27.6349 6.35421 27.1854 6.26267 27.0212 6.21153C26.9895 6.2013 26.9859 6.15681 26.9772 6.15374C26.7512 6.08112 26.4065 6.10465 26.1646 6.13482C25.9662 6.15885 25.5141 6.30511 25.3152 6.36597C25.0712 6.44064 24.6002 6.45035 24.3455 6.40637V6.75157C24.1487 6.77867 24.0827 6.62576 24.1154 6.44422C23.9758 6.46007 23.8055 6.42427 23.6715 6.44166C23.6009 6.45086 23.6224 6.51274 23.5902 6.52041C22.9883 6.66207 22.0944 6.50405 21.4505 6.5603C21.2838 6.57513 21.1835 6.67281 21.1452 6.67742C21.0153 6.69429 20.6184 6.69429 20.488 6.67793C20.4149 6.66872 20.4517 6.60428 20.3781 6.59508C19.9935 6.5465 18.9763 6.51581 18.6194 6.59968C18.5948 6.60531 18.5698 6.70247 18.3872 6.69787C18.1673 6.69276 18.154 6.5332 18.1039 6.52297C17.8574 6.47285 17.6671 6.5782 17.4416 6.59815V6.44422C17.1205 6.42529 16.9021 6.28364 16.5692 6.43399C16.4035 6.50865 16.1964 6.62321 16.0332 6.67281C15.7177 6.76947 15.2646 6.66258 14.9378 6.7531C14.9056 6.76231 14.9122 6.82112 14.8841 6.82726C14.4075 6.93567 13.9677 6.70554 13.5023 6.98119C13.4512 7.01136 13.3453 7.00778 13.3361 7.04C13.3034 7.15711 13.3755 7.22052 13.489 7.21439L13.491 7.32638C13.3652 7.32792 13.2159 7.31309 13.0988 7.36781C12.9525 7.43582 12.7408 7.70431 12.6779 7.74062C12.6467 7.75852 12.4519 7.77181 12.3307 7.82705C12.1691 7.89966 12.0535 7.96052 11.8888 8.05462C11.6996 8.16304 11.5927 8.16764 11.403 8.21111C11.1596 8.26685 11.0286 8.53534 10.8333 8.65705C10.7888 8.68518 10.7152 8.67086 10.662 8.69694C10.5822 8.73683 10.5674 8.85547 10.461 8.86161L10.5484 8.89843C10.6517 8.91377 10.4436 9.13572 10.4042 9.16845C10.3551 9.20936 10.192 9.30193 10.1362 9.28505C10.1005 9.27431 10.1178 9.10811 10.0207 9.12959C9.90612 9.15464 10.0452 9.38017 9.96493 9.48961L9.50467 9.76475C9.41108 9.91203 9.24334 10.0972 9.13186 10.2056C9.11703 10.2199 8.79842 10.4091 8.77797 10.4122C8.7033 10.4219 8.62148 10.382 8.54323 10.3958C8.57954 10.517 8.60767 10.5272 8.73501 10.5104C8.74933 10.7845 8.35811 10.809 8.4118 11.1266L8.23639 11.1624C8.35504 11.3373 8.14997 11.3516 8.09524 11.4427C7.95717 11.6697 7.86818 11.8635 7.6626 12.065C7.34502 12.376 7.26319 12.4153 6.99471 12.7979C6.60298 13.3568 6.27977 13.8877 5.93099 14.4676C5.84661 14.6077 5.58887 14.9396 5.55307 15.0639C5.53415 15.1304 5.5321 15.4265 5.50602 15.4536C5.49323 15.4669 5.43187 15.4485 5.40936 15.4669C5.28458 15.5697 5.0657 16.2744 5.02326 16.4452C4.99513 16.5587 5.04422 16.6053 4.93478 16.7034L4.93683 16.7771C5.12912 16.8615 4.95984 16.8671 4.93734 16.9034C4.71284 17.2691 4.70312 17.6603 4.62743 18.0433C4.59112 18.2264 4.58601 18.4887 4.55532 18.6151C4.54458 18.6575 4.44691 18.6452 4.43617 18.7373C4.4285 18.8048 4.47452 18.8743 4.47043 18.9296C4.42492 19.5499 4.46071 20.0408 4.47912 20.6535C4.48577 20.8709 4.44997 21.1434 4.47503 21.3475C4.48373 21.4232 4.54663 21.4007 4.56606 21.4492C4.66476 21.6911 4.57067 22.3882 4.63203 22.6423C4.63868 22.6715 4.70056 22.6664 4.70721 22.695C4.73125 22.8009 4.67857 22.9236 4.73534 23.0443C4.76602 23.1093 4.85347 23.1205 4.86165 23.1563C4.89234 23.2836 4.85347 23.5342 4.90666 23.6795C4.91382 23.6979 5.05138 23.9224 5.09536 24.019C5.13628 24.1096 5.31271 24.3867 5.33317 24.4415C5.38686 24.5821 5.33163 24.7688 5.39914 24.9017C5.43442 24.9713 5.65228 25.1538 5.67734 25.2086C5.70802 25.2756 5.6891 25.3589 5.70802 25.4008C5.74689 25.4847 6.13095 26.147 6.16573 26.1782C6.40302 26.3899 6.42654 26.553 6.61013 26.8087C6.649 26.8624 6.81009 26.9714 6.84282 27.0159C6.92567 27.1299 7.01568 27.4122 7.09852 27.5267C7.44372 28.0029 8.15048 28.5567 8.54426 29.0257C8.64705 29.1484 8.77234 29.4404 8.91962 29.5319C8.9636 29.5591 9.13339 29.5882 9.15027 29.6174C9.17686 29.6624 9.13748 29.7687 9.17481 29.8424C9.20805 29.9083 9.29755 29.8986 9.33488 29.9319C9.39881 29.9897 9.64633 30.1845 9.65962 30.2014C9.73429 30.2944 9.64428 30.2617 9.79463 30.3901C9.90561 30.4847 10.3336 30.8713 10.4119 30.9148C10.5106 30.969 10.6523 30.9654 10.7182 31.0038C10.819 31.0621 10.9218 31.2927 11.0266 31.3735C11.1432 31.463 11.3554 31.5228 11.4552 31.5893C11.515 31.6292 11.6086 31.7867 11.6827 31.8327C11.7548 31.8777 11.8714 31.887 11.9246 31.9176C12.123 32.0312 12.3281 32.3687 12.5475 32.3718C12.7224 32.3748 12.6897 32.1846 12.7429 32.1815C12.7495 32.1815 12.8359 32.2153 12.839 32.2194C12.8994 32.2997 12.7659 32.3462 12.7628 32.359C12.7066 32.5681 12.8891 32.4694 12.9643 32.5226C13.1065 32.6223 13.2236 32.8228 13.4604 32.8366C14.0602 33.1276 14.6627 33.412 15.2697 33.6825C15.352 33.7193 15.484 33.7178 15.5714 33.7556C15.6149 33.7745 15.8409 33.9776 15.8588 33.9832C15.9197 34.0026 16.1744 33.9924 16.2091 34.0292L16.2352 34.1397C16.5349 34.0563 16.6791 34.3202 16.9328 34.358C17.0647 34.3775 17.1931 34.3493 17.3097 34.3642C17.3808 34.3729 17.3598 34.4353 17.391 34.4429C17.6825 34.5125 17.6457 34.3268 17.7996 34.2271C17.8998 34.1627 18.0655 34.1847 18.1151 34.0599L18.2031 34.0676C18.3202 34.3417 18.3862 34.0533 18.4639 34.0277C18.5422 34.0021 18.671 34.0267 18.7805 33.9975C18.8014 33.9919 19.1548 33.8426 19.1789 33.8303C19.2203 33.8083 19.3711 33.6032 19.386 33.5996C19.5967 33.547 19.5716 33.6584 19.5921 33.6733C19.6708 33.73 19.6611 33.6175 19.6908 33.5986C19.7409 33.5659 19.8201 33.5782 19.8703 33.5536C19.9439 33.5168 19.9275 33.393 20.0856 33.4498C20.1076 33.4692 20.0237 33.64 20.2288 33.5096C20.2845 33.4738 20.5044 33.3015 20.5566 33.281C20.6757 33.235 20.8123 33.2764 20.9232 33.2299C20.9795 33.2059 20.981 33.1245 21.0327 33.1077C21.1288 33.0765 21.2843 33.1148 21.4045 33.0928C21.5057 33.0739 21.495 33.0069 21.5369 32.9895C21.6576 32.9399 21.8719 32.945 22.0141 32.9062C22.281 32.8341 22.73 32.5129 23.0128 32.362C23.2506 32.2342 23.6224 32.002 23.8382 31.9151C23.9405 31.8737 24.1717 31.8532 24.2213 31.8256C24.2341 31.8184 24.3992 31.6353 24.4345 31.6185C24.612 31.5315 24.7992 31.5054 24.995 31.3904C25.1684 31.2886 25.2875 31.2866 25.3929 31.2237C25.4307 31.2012 25.5729 31.0431 25.6251 31.0058C26.2935 30.5266 26.9204 30.0382 27.5029 29.4706C27.6661 29.3115 27.7464 29.3345 27.8722 29.2445C27.9632 29.1786 28.2649 28.8784 28.3682 28.7802C28.4178 28.7337 28.6904 28.481 28.7017 28.4606C28.7431 28.3828 28.6495 28.2877 28.695 28.2284C28.7329 28.1788 28.8878 28.1834 28.9563 28.1507C29.2662 28.0029 29.1931 27.965 29.346 27.7456C29.4539 27.5917 29.6539 27.5748 29.616 27.3068C29.8359 27.2838 29.7577 27.2143 29.8165 27.1539C29.9346 27.0332 30.0201 27.178 30.0778 26.8548C30.0891 26.7934 30.0339 26.7151 30.0773 26.6558C30.0896 26.6384 30.311 26.5362 30.3484 26.505C30.5376 26.3464 30.6128 26.0841 30.713 25.8795C30.7329 25.8381 30.8751 25.8008 30.8245 25.6458C30.8035 25.5829 30.6644 25.6044 30.7135 25.4704C31.0863 25.4336 30.9211 25.3328 30.9851 25.1472C31.0096 25.0756 31.1047 25.1012 31.1262 25.0776C31.1518 25.0495 31.1416 24.9068 31.1733 24.846C31.2934 24.6164 31.4561 24.4011 31.5614 24.1489C31.6381 23.9643 31.6417 23.8298 31.6381 23.6304C31.8432 23.658 31.7102 23.4258 31.8637 23.3772V23.3015C31.6744 23.2274 31.8447 23.1757 31.8596 23.1379C31.9368 22.9374 32.1275 22.5886 32.1674 22.4485C32.2042 22.3212 32.1792 22.0726 32.2145 21.9653C32.2334 21.907 32.3382 21.8916 32.3725 21.8164C32.3904 21.7771 32.5402 21.3986 32.5443 21.3746C32.5663 21.2396 32.529 21.08 32.5546 20.9701C32.5612 20.9435 32.7024 20.7445 32.707 20.6126C32.7105 20.5067 32.5648 20.4183 32.6655 20.2751C32.8343 20.1728 32.7361 20.3298 32.8215 20.3671L32.8246 19.89L32.707 19.869V19.7534L32.8236 19.7759C32.8149 19.6793 32.9335 19.5852 32.9361 19.5734C32.9821 19.3668 32.955 18.858 33.0169 18.7097C33.0747 18.5711 33.1647 18.009 33.1667 17.8168C33.1698 17.538 32.98 17.246 32.9795 17.0839ZM30.33 14.6241C30.24 14.7458 30.0635 14.935 29.95 15.022C29.8927 15.0659 29.9183 15.1498 29.7782 15.113C29.7495 15.1053 29.75 14.9918 29.6385 15.0363C29.7045 15.4694 29.5266 15.4352 29.298 15.6372C28.9635 15.9322 28.6382 16.259 28.3345 16.5418C28.11 16.751 27.8916 16.9602 27.6441 17.1463C27.6339 17.2067 27.6988 17.1872 27.7407 17.1857C28.0169 17.175 27.908 17.0839 27.975 17.0282C28.0373 16.976 28.29 16.8584 28.3616 16.7888C28.3882 16.7633 28.5089 16.5229 28.5232 16.5122C28.5441 16.4968 28.604 16.5357 28.6393 16.5132C28.8806 16.3623 29.2847 15.7154 29.5322 15.6009C29.704 15.5211 29.7736 15.6668 29.7966 15.3477L29.9454 15.3426C30.0047 15.7394 29.8165 15.676 29.6145 15.8177C29.4764 15.9143 28.9952 16.3122 28.8822 16.4304C28.7753 16.5429 28.7247 16.5444 28.6894 16.5807C28.5759 16.6983 28.5201 16.7669 28.3866 16.8921C27.4758 17.7477 26.5522 18.612 25.5443 19.4098C25.306 19.5985 24.9838 19.7427 24.7337 19.9314C24.6089 20.0255 24.4207 20.2577 24.3174 20.3303C24.211 20.406 23.9482 20.4561 23.9047 20.631C23.8607 20.8054 24.0085 20.7793 24.0592 20.8264C24.4949 21.2314 24.7736 21.6799 25.1254 22.1402C25.1648 22.1923 25.173 22.2803 25.2006 22.312C25.2604 22.3805 25.3929 22.3723 25.4655 22.404C25.4977 22.4178 25.4931 22.4628 25.5264 22.4751C25.624 22.5119 25.6742 22.4025 25.6491 22.6301L25.5923 22.5529L25.4962 22.6296C25.6261 22.649 25.7222 22.853 25.8158 22.9241C25.8583 22.9569 26.0071 22.9886 26.025 23.0218C26.0628 23.0908 25.9897 23.2576 26.1298 23.3205L26.2244 23.2443C26.2224 23.298 26.2188 23.3471 26.2459 23.3972C26.2735 23.4483 26.4581 23.6068 26.4944 23.6559C26.5824 23.7746 26.5262 23.907 26.7205 23.8533L26.7236 23.7429C26.7747 23.6871 26.9501 23.9142 26.8391 23.993C26.7445 24.0605 26.5814 23.7904 26.5701 24.0109C26.8069 24.0415 26.7992 24.1438 26.8913 24.3044C26.9486 24.4051 26.989 24.3673 27.0263 24.5719C27.058 24.7463 27.0606 24.7284 27.1035 24.8475C27.1628 25.0142 27.2575 25.3922 27.4523 25.3922C27.4283 25.4157 27.2795 25.5394 27.2682 25.5435C27.2324 25.5568 27.1577 25.5353 27.146 25.5461C27.1352 25.5558 27.1439 25.7558 27.1132 25.8386C27.0877 25.9082 26.9874 25.8857 27.0309 26.056C27.0391 26.0866 27.1322 26.0836 27.1439 26.2201C27.1623 26.4323 27.1092 26.5663 26.877 26.5428C26.8417 26.6615 26.9343 26.6405 26.9598 26.71C26.989 26.7893 26.9941 26.8808 26.9926 26.9647L26.8442 26.9698C26.8136 27.2393 26.5297 27.1217 26.34 27.1181L26.3758 27.293L26.6243 27.2777L26.723 27.4066C26.7573 27.5334 26.5272 27.4291 26.4939 27.3866L26.5701 27.7313C26.3947 27.6889 26.1027 27.7502 25.9478 27.6919C25.9043 27.6756 25.9033 27.6121 25.8547 27.5856C25.7693 27.5375 25.665 27.583 25.6302 27.4628L25.5744 27.4654C25.6 27.6142 25.2973 27.5058 25.2656 27.5395L25.2666 27.672L25.1899 27.6924L24.9976 27.4633H25.2661C25.3034 27.1437 24.9894 27.2787 24.861 27.2629C24.8038 27.2557 24.8293 27.1386 24.7787 27.1171C24.7327 27.0977 24.6381 27.1028 24.5665 27.0767C24.5409 27.0675 24.5399 27.0113 24.5097 27.0046C24.4161 26.9831 24.1947 27.0092 24.1144 26.9463C24.0576 26.9018 24.0822 26.7515 24.051 26.6661C24.0162 26.5725 23.7421 26.2994 23.6546 26.2073C23.491 26.034 23.4419 25.9363 23.312 25.7532C23.2394 25.6499 22.953 25.5062 22.9013 25.4182C22.8609 25.3497 22.8804 25.2607 22.7975 25.1753C22.6753 25.0495 22.5766 25.1119 22.4539 25.0843C22.4257 25.0782 22.4324 25.0193 22.4002 25.0101C22.3168 24.9871 22.1777 25.005 22.0826 24.9697C22.1107 24.8675 22.3501 25.0106 22.3894 24.9697C22.393 24.914 22.3961 24.8695 22.3685 24.8168C22.3531 24.7882 21.9737 24.4184 21.9102 24.3576C21.7737 24.2262 21.5947 24.1044 21.4684 23.9838C21.228 23.7531 21.1672 23.5982 20.8808 23.4289C20.821 23.3931 20.8404 23.3297 20.7601 23.3174C20.5709 23.2898 20.599 23.3813 20.5576 23.3946C20.4768 23.4202 20.1873 23.4514 20.1546 23.4713C20.0232 23.5501 20.0984 23.7311 20.0881 23.7424C20.0825 23.7485 19.9756 23.7485 19.9235 23.7812C19.8733 23.8124 19.7716 23.9659 19.7301 23.9986C19.5148 24.1668 19.2464 24.3336 19.0326 24.509C18.9191 24.6026 18.7902 24.8562 18.694 24.9176C18.6281 24.96 18.5028 24.9656 18.4496 25.0188C18.4036 25.0654 18.3877 25.2065 18.3534 25.23C18.2466 25.3037 17.9663 25.2433 18.0937 25.5834C18.0793 25.5962 17.8241 25.6054 17.7592 25.634C17.7347 25.6448 17.6104 25.8176 17.5823 25.8396C17.3168 26.0437 16.7533 26.3884 16.5569 26.6732C16.5139 26.7351 16.5354 26.8118 16.5119 26.8425C16.4802 26.8824 16.0685 27.0338 15.9642 27.1171C15.9376 27.1386 15.6711 27.4071 15.6609 27.426C15.6215 27.4966 15.6323 27.6127 15.6001 27.6929L15.528 27.6878C15.4579 27.4715 15.1746 27.7564 15.1188 27.8817C14.8417 27.763 14.7261 27.9016 14.5338 27.9962C14.4601 28.032 14.3563 28.0438 14.2883 28.078C14.2766 28.0842 14.0853 28.3107 14.0664 28.1726C14.0449 28.0192 14.1415 28.0903 14.2326 28.031C14.3205 27.9732 14.3492 27.8592 14.5266 27.8842V27.7712C14.4622 27.6725 14.0812 27.8898 14.004 27.9384C13.8904 28.009 13.6659 28.3143 13.5095 28.1547C13.3351 27.9768 13.6179 27.6403 13.4931 27.5569C13.3432 27.4572 13.2911 27.6214 13.2435 27.6208C13.1264 27.6188 12.9981 27.494 12.8569 27.537C12.548 27.6899 12.5368 27.5902 12.7643 27.4142C12.8293 27.3641 13.1576 27.2291 13.0686 27.1181C12.8794 27.1749 12.7945 27.2787 12.5705 27.2327C12.5664 27.1023 12.7321 27.1539 12.6856 27.0031H12.4774C12.3741 26.9003 12.5286 26.8364 12.5317 26.8236C12.5552 26.7141 12.4969 26.5771 12.5705 26.4661H12.2253V26.2355H12.4171C12.4227 26.1301 12.4304 26.0304 12.2979 26.0595C12.233 26.0739 12.2238 26.1444 12.2166 26.148C12.0463 26.2365 12.1486 25.9261 11.918 26.0053L12.0719 25.699C11.9236 25.7016 11.8193 25.5865 11.6485 25.5635L11.6664 25.4274L11.9175 25.3144L11.9144 25.2413C11.8167 25.2582 11.8218 25.1083 11.8413 25.0352C11.8515 24.9974 11.9169 24.9989 11.9343 24.9687C12.0387 24.7841 12.1496 24.579 12.2846 24.397C12.3102 24.3622 12.3782 24.3499 12.3977 24.3177C12.4442 24.2415 12.4125 24.0073 12.4631 23.904C12.5429 23.8457 12.7495 23.7562 12.8114 23.7061C12.9495 23.593 13.084 23.3885 13.2476 23.2898C13.3039 23.2565 13.4031 23.2663 13.443 23.2346C13.4849 23.2008 13.4926 23.0683 13.5406 23.0249C13.5739 22.9952 13.6757 22.9865 13.7309 22.9384C13.8526 22.8336 13.9303 22.7538 14.0638 22.6475C14.407 22.3739 14.7726 22.1069 15.1265 21.8487C15.4819 21.5889 15.5648 21.5382 15.8292 21.2012C16.0199 20.9588 16.0363 21.0406 16.2403 20.9297C16.4219 20.8305 16.6096 20.5446 16.763 20.4178C16.8177 20.3727 16.898 20.3692 16.9532 20.3283C17.0427 20.2628 17.2964 19.9462 17.3271 20.1753H17.3644C17.3849 20.046 17.5066 20.0956 17.5219 19.9268C17.547 19.642 17.391 19.6803 17.259 19.576C16.8423 19.2477 16.7246 18.9316 16.4045 18.547C16.2322 18.3399 16.0153 18.1246 15.8302 17.9226C15.3387 17.3862 14.7522 16.8027 14.2367 16.2667C14.1574 16.1844 13.6721 15.6801 13.6347 15.6602C13.5867 15.6351 13.4972 15.6505 13.4235 15.6203C13.198 15.5272 13.2711 15.4531 13.1995 15.3083C13.0113 14.9258 12.7797 14.5602 12.613 14.1996C12.5833 14.1362 12.5746 14.0467 12.5332 13.9905C12.4739 13.9107 12.3312 13.901 12.3107 13.8769C12.2846 13.8462 12.2765 13.6269 12.2376 13.5501C12.1343 13.3471 12.0274 13.1252 11.9159 12.918C11.8131 12.7263 11.6873 12.7416 11.6183 12.6879C11.604 12.6767 11.6162 12.6189 11.5983 12.5969C11.4572 12.4194 11.5354 12.4072 11.4705 12.244C11.4531 12.2 11.3892 12.2036 11.382 12.1714C11.3186 11.883 11.4552 11.9065 11.5329 11.7464C11.5487 11.7137 11.5201 11.6472 11.5467 11.5935C11.5554 11.5756 11.6377 11.5991 11.6116 11.4902C11.6091 11.4785 11.4838 11.4058 11.4761 11.2959C11.4598 11.0611 11.6541 11.1547 11.7763 11.1246C11.7983 11.1194 12.0341 10.8781 12.0673 10.8233C12.2095 10.5866 12.2744 10.6515 12.369 10.5385C12.503 10.3774 12.4391 10.4613 12.5813 10.3559C12.7055 10.2639 12.6927 10.0813 12.8518 10.1273C12.8901 10.1386 12.9121 10.3109 13.0875 10.1232C13.2287 10.2051 13.4737 10.2419 13.6562 10.2025C13.689 10.1953 13.7278 10.0148 13.9012 10.1391C13.9242 10.1549 13.9283 10.225 13.9753 10.2373C14.0648 10.2618 14.3819 10.2562 14.5 10.2807C14.5302 10.2869 14.5277 10.3483 14.5742 10.3677C14.7051 10.4234 14.8867 10.4556 14.9767 10.5973C15.0043 10.6408 14.9869 10.7267 15.0288 10.7942C15.0703 10.8612 15.2646 10.9829 15.3096 11.0499C15.3561 11.1194 15.3454 11.2171 15.3817 11.2662C15.4124 11.3087 15.7402 11.4508 15.776 11.5071C15.8154 11.5685 15.711 11.7311 15.798 11.8666C15.846 11.9408 15.9182 11.9162 15.9371 11.9372C15.9632 11.9658 15.9529 12.107 15.9851 12.1683C16.1191 12.4266 16.3927 12.5642 16.5191 12.7641C16.5958 12.8858 16.5579 12.9538 16.7267 13.1047C16.9635 13.3159 17.146 13.6074 17.3634 13.8575C17.729 14.2789 18.1458 14.6425 18.534 15.0373C18.6905 15.1958 18.6255 15.2833 18.8592 15.4797C19.1062 15.6878 19.479 16.2304 19.6805 16.5178C19.8191 16.7157 20.2175 16.9683 20.3448 17.1571C20.3694 17.1934 20.3515 17.2619 20.3745 17.3018C20.4006 17.3468 20.4712 17.2926 20.5085 17.3176C20.5612 17.3529 20.5872 17.4792 20.7223 17.4874L20.8527 17.2767L20.9703 17.2997L20.9749 17.1908C21.1166 17.198 21.2035 17.0855 21.2909 16.9873C21.4653 16.7914 21.4321 16.9141 21.5814 16.817C21.6356 16.7822 21.787 16.6155 21.8606 16.5577C22.2028 16.2887 22.4124 16.1107 22.8185 15.8755C22.999 15.7712 23.3504 15.4219 23.5467 15.2623C23.8433 15.0214 24.1062 14.7903 24.3849 14.5192C24.409 14.4957 24.4187 14.4558 24.4228 14.4226L24.4954 14.4277L24.523 14.4998L24.6468 14.4932C24.6759 14.441 24.6851 14.3638 24.7178 14.3172C24.8078 14.1904 24.9577 14.0416 25.0835 13.948C25.1331 13.9112 25.2359 13.8969 25.2563 13.8759C25.2927 13.8381 25.2742 13.701 25.3428 13.6366C25.4098 13.5732 25.5115 13.6008 25.5627 13.5685C25.6987 13.4811 26.0413 13.0689 26.2009 13.0004C26.3211 12.9492 26.5369 12.8986 26.6438 12.8275C26.6995 12.7907 26.811 12.6107 26.8693 12.5831C27.1598 12.447 27.393 12.4235 27.6937 12.3519C27.7116 12.3478 27.8809 12.1305 27.9678 12.1187C28.27 12.0783 28.2056 12.2169 28.314 12.2374C28.4587 12.2645 28.694 12.2057 28.8433 12.2762C28.8699 12.289 28.9231 12.4747 28.9497 12.2773L29.0238 12.2757C29.0019 12.4174 29.3123 12.3703 29.3317 12.3898V12.5432H29.5618C29.5956 12.6813 29.4427 12.6373 29.4836 12.7861C29.4887 12.8035 29.7132 12.9871 29.7531 13.0229C29.7766 13.0439 29.7833 13.1011 29.7996 13.1103C29.8595 13.1451 30.0778 13.0899 30.1668 13.2029L30.1781 13.4044L30.0671 13.43C30.0957 13.6079 29.9193 13.5808 29.9454 13.7317H30.1755V13.521L30.2517 13.5026C30.2471 13.5916 30.3489 13.5987 30.378 13.6632C30.4092 13.7332 30.3893 13.8058 30.4082 13.857C30.421 13.8923 30.5325 13.9025 30.4813 14.0375C30.4732 14.0467 30.2875 14.0472 30.2405 14.0764C30.2016 14.1004 30.2144 14.1551 30.1893 14.1863C30.0016 14.4185 29.6825 14.5397 29.4606 14.7432C29.2478 14.9376 29.3225 14.9396 29.2524 15.1616C29.2407 15.1994 29.1374 15.1912 29.1788 15.3048L29.4084 15.2659V14.8823L29.7137 14.8808L29.7925 14.576L29.8651 14.5806C29.8707 14.5847 29.8605 14.6435 29.8937 14.6527C30.1034 14.712 30.3121 14.2835 30.5018 14.1925L30.5596 14.4226C30.3581 14.3786 30.42 14.5029 30.33 14.6241Z" fill="#FFF9E3"/>
<path d="M30.5018 14.1924C30.3121 14.2834 30.1034 14.7119 29.8937 14.6526C29.8605 14.6434 29.8707 14.5846 29.8651 14.5805L29.7925 14.5759L29.7137 14.8807L29.4084 14.8822V15.2658L29.1788 15.3047C29.1374 15.1911 29.2407 15.1993 29.2525 15.1615C29.3225 14.9395 29.2479 14.9375 29.4606 14.7431C29.6825 14.5396 30.0017 14.4184 30.1893 14.1862C30.2144 14.155 30.2016 14.1003 30.2405 14.0763C30.2875 14.0471 30.4732 14.0466 30.4813 14.0374C30.5325 13.9024 30.421 13.8922 30.4082 13.8569C30.3893 13.8057 30.4092 13.7331 30.378 13.6631C30.3489 13.5986 30.2471 13.5915 30.2517 13.5025L30.1755 13.5209V13.7321H29.9454C29.9193 13.5807 30.0958 13.6078 30.0671 13.4299L30.1781 13.4043L30.1668 13.2028C30.0779 13.0898 29.8595 13.145 29.7997 13.1102C29.7833 13.101 29.7766 13.0438 29.7531 13.0228C29.7132 12.987 29.4887 12.8034 29.4836 12.786C29.4427 12.6372 29.5956 12.6812 29.5618 12.5431H29.3312V12.3897C29.3123 12.3702 29.0019 12.4173 29.0239 12.2756L28.9497 12.2772C28.9231 12.4746 28.8699 12.2889 28.8433 12.2761C28.694 12.2056 28.4588 12.2644 28.314 12.2373C28.2056 12.2168 28.2701 12.0782 27.9678 12.1186C27.8809 12.1304 27.7116 12.3477 27.6937 12.3518C27.393 12.4234 27.1598 12.447 26.8693 12.583C26.811 12.6106 26.6995 12.7906 26.6438 12.8274C26.5369 12.8985 26.3211 12.9491 26.2009 13.0003C26.0414 13.0688 25.6987 13.481 25.5627 13.5685C25.5115 13.6007 25.4098 13.5731 25.3428 13.6365C25.2743 13.7009 25.2927 13.838 25.2564 13.8758C25.2359 13.8968 25.1331 13.9111 25.0835 13.9479C24.9577 14.0415 24.8079 14.1903 24.7179 14.3171C24.6851 14.3637 24.6759 14.4409 24.6468 14.4931L24.523 14.4997L24.4954 14.4276L24.4228 14.4225C24.4187 14.4557 24.409 14.4956 24.3849 14.5192C24.1062 14.7902 23.8434 15.0213 23.5467 15.2622C23.3504 15.4218 22.999 15.7711 22.8185 15.8754C22.4125 16.1106 22.2028 16.2886 21.8607 16.5576C21.787 16.6154 21.6356 16.7821 21.5814 16.8169C21.4321 16.914 21.4653 16.7913 21.291 16.9872C21.2035 17.0854 21.1166 17.1979 20.9749 17.1907L20.9703 17.2996L20.8527 17.2766L20.7223 17.4873C20.5873 17.4791 20.5612 17.3528 20.5085 17.3175C20.4712 17.2925 20.4006 17.3467 20.3745 17.3017C20.3515 17.2618 20.3694 17.1933 20.3449 17.157C20.2175 16.9683 19.8191 16.7156 19.6806 16.5177C19.4791 16.2303 19.1062 15.6877 18.8592 15.4796C18.6255 15.2832 18.6905 15.1957 18.534 15.0372C18.1458 14.6424 17.729 14.2788 17.3634 13.8574C17.146 13.6073 16.9635 13.3158 16.7267 13.1046C16.5579 12.9538 16.5958 12.8857 16.5191 12.764C16.3928 12.5641 16.1192 12.4265 15.9852 12.1682C15.9529 12.1069 15.9632 11.9657 15.9371 11.9371C15.9182 11.9161 15.8461 11.9407 15.798 11.8665C15.7111 11.731 15.8154 11.5684 15.776 11.507C15.7402 11.4507 15.4124 11.3086 15.3817 11.2661C15.3454 11.217 15.3561 11.1194 15.3096 11.0498C15.2646 10.9828 15.0703 10.8611 15.0288 10.7941C14.9869 10.7266 15.0043 10.6407 14.9767 10.5972C14.8867 10.4556 14.7051 10.4233 14.5742 10.3676C14.5277 10.3482 14.5302 10.2868 14.5001 10.2807C14.3819 10.2561 14.0649 10.2617 13.9754 10.2372C13.9283 10.2249 13.9242 10.1549 13.9012 10.139C13.7278 10.0147 13.689 10.1953 13.6562 10.2024C13.4737 10.2418 13.2287 10.205 13.0876 10.1231C12.9122 10.3108 12.8902 10.1385 12.8518 10.1272C12.6928 10.0812 12.7055 10.2638 12.5813 10.3558C12.4391 10.4612 12.503 10.3773 12.369 10.5384C12.2744 10.6514 12.2095 10.5865 12.0673 10.8233C12.0341 10.878 11.7983 11.1194 11.7763 11.1245C11.6541 11.1546 11.4598 11.0611 11.4761 11.2958C11.4838 11.4057 11.6091 11.4784 11.6117 11.4901C11.6377 11.599 11.5554 11.5755 11.5467 11.5934C11.5201 11.6471 11.5488 11.7136 11.5329 11.7463C11.4552 11.9064 11.3186 11.8829 11.382 12.1713C11.3892 12.2035 11.4531 12.1999 11.4705 12.2439C11.5355 12.4071 11.4572 12.4193 11.5984 12.5968C11.6163 12.6188 11.604 12.6766 11.6183 12.6878C11.6873 12.7415 11.8132 12.7262 11.9159 12.918C12.0274 13.1251 12.1343 13.347 12.2376 13.55C12.2765 13.6268 12.2847 13.8461 12.3107 13.8768C12.3312 13.9009 12.4739 13.9106 12.5332 13.9904C12.5746 14.0466 12.5833 14.1361 12.613 14.1995C12.7797 14.5601 13.0114 14.9257 13.1996 15.3082C13.2712 15.453 13.198 15.5271 13.4236 15.6202C13.4972 15.6504 13.5867 15.635 13.6348 15.6601C13.6721 15.68 14.1574 16.1843 14.2367 16.2666C14.7522 16.8026 15.3388 17.3861 15.8302 17.9225C16.0153 18.1245 16.2322 18.3398 16.4045 18.5469C16.7247 18.9315 16.8423 19.2476 17.2591 19.5759C17.391 19.6802 17.547 19.6419 17.5219 19.9267C17.5066 20.0955 17.3849 20.0459 17.3644 20.1753H17.3271C17.2964 19.9461 17.0427 20.2627 16.9532 20.3282C16.898 20.3691 16.8177 20.3727 16.763 20.4177C16.6096 20.5445 16.4219 20.8304 16.2404 20.9296C16.0363 21.0405 16.0199 20.9587 15.8292 21.2011C15.5648 21.5381 15.4819 21.5888 15.1265 21.8486C14.7726 22.1068 14.407 22.3738 14.0638 22.6474C13.9304 22.7537 13.8526 22.8335 13.7309 22.9384C13.6757 22.9864 13.5739 22.9951 13.5407 23.0248C13.4926 23.0682 13.4849 23.2007 13.443 23.2345C13.4031 23.2662 13.3039 23.2564 13.2476 23.2897C13.084 23.3884 12.9495 23.5929 12.8114 23.706C12.7495 23.7561 12.5429 23.8456 12.4631 23.9039C12.4125 24.0072 12.4442 24.2414 12.3977 24.3176C12.3782 24.3498 12.3102 24.3621 12.2847 24.3969C12.1497 24.5789 12.0387 24.784 11.9344 24.9686C11.917 24.9988 11.8515 24.9973 11.8413 25.0351C11.8218 25.1082 11.8167 25.2581 11.9144 25.2412L11.9175 25.3143L11.6664 25.4273L11.6485 25.5634C11.8193 25.5864 11.9236 25.7015 12.0719 25.6989L11.918 26.0052C12.1486 25.926 12.0463 26.2364 12.2166 26.1479C12.2238 26.1443 12.233 26.0738 12.298 26.0594C12.4304 26.0303 12.4227 26.13 12.4171 26.2354H12.2248V26.466H12.5705C12.4969 26.577 12.5552 26.714 12.5317 26.8235C12.5286 26.8363 12.3742 26.9002 12.4775 27.0035H12.6856C12.7321 27.1538 12.5664 27.1022 12.5705 27.2326C12.7945 27.2786 12.8794 27.1748 13.0686 27.118C13.1576 27.229 12.8293 27.364 12.7644 27.4141C12.5368 27.5901 12.548 27.6898 12.8569 27.5369C12.9981 27.4939 13.1264 27.6187 13.2435 27.6207C13.2911 27.6207 13.3433 27.4571 13.4931 27.5568C13.6179 27.6402 13.3351 27.9767 13.5095 28.1546C13.666 28.3142 13.8905 28.0089 14.004 27.9383C14.0812 27.8897 14.4622 27.6724 14.5261 27.7711V27.8841C14.3492 27.8591 14.3206 27.9731 14.2326 28.0309C14.1416 28.0902 14.0449 28.0191 14.0664 28.1725C14.0853 28.3106 14.2766 28.0841 14.2883 28.0779C14.3563 28.0437 14.4602 28.0319 14.5338 27.9961C14.7261 27.9015 14.8417 27.7629 15.1189 27.8816C15.1746 27.7563 15.4579 27.4714 15.528 27.6877L15.6001 27.6929C15.6323 27.6126 15.6216 27.4965 15.6609 27.4259C15.6712 27.407 15.9376 27.1385 15.9642 27.117C16.0685 27.0337 16.4802 26.8823 16.5119 26.8424C16.5354 26.8117 16.514 26.735 16.5569 26.6731C16.7533 26.3883 17.3169 26.0436 17.5823 25.8395C17.6104 25.8175 17.7347 25.6447 17.7592 25.634C17.8242 25.6053 18.0794 25.5961 18.0937 25.5833C17.9663 25.2432 18.2466 25.3036 18.3535 25.2299C18.3877 25.2064 18.4036 25.0653 18.4496 25.0187C18.5028 24.9655 18.6281 24.9599 18.6941 24.9175C18.7902 24.8561 18.9191 24.6025 19.0326 24.5089C19.2464 24.3335 19.5149 24.1667 19.7302 23.9985C19.7716 23.9658 19.8733 23.8123 19.9235 23.7811C19.9756 23.7484 20.0825 23.7484 20.0881 23.7423C20.0984 23.731 20.0232 23.55 20.1546 23.4712C20.1873 23.4513 20.4768 23.4201 20.5576 23.3945C20.599 23.3812 20.5709 23.2897 20.7601 23.3173C20.8404 23.3296 20.821 23.393 20.8808 23.4288C21.1672 23.5981 21.2281 23.753 21.4684 23.9837C21.5947 24.1043 21.7737 24.2261 21.9103 24.3575C21.9737 24.4183 22.3531 24.7881 22.3685 24.8167C22.3961 24.8694 22.393 24.9139 22.3894 24.9696C22.3501 25.0106 22.1107 24.8674 22.0826 24.9696C22.1777 25.0049 22.3168 24.987 22.4002 25.01C22.4324 25.0192 22.4258 25.0781 22.4539 25.0842C22.5766 25.1118 22.6753 25.0494 22.7975 25.1752C22.8804 25.2606 22.861 25.3496 22.9014 25.4181C22.953 25.5061 23.2394 25.6498 23.312 25.7531C23.4419 25.9362 23.491 26.0339 23.6547 26.2072C23.7421 26.2993 24.0162 26.5724 24.051 26.666C24.0822 26.7514 24.0576 26.9017 24.1144 26.9462C24.1947 27.0091 24.4161 26.983 24.5097 27.0045C24.5399 27.0112 24.5409 27.0674 24.5665 27.0766C24.6381 27.1027 24.7327 27.0976 24.7787 27.117C24.8293 27.1385 24.8038 27.2556 24.861 27.2628C24.9894 27.2786 25.3034 27.1436 25.2661 27.4627H24.9976L25.1899 27.6923L25.2666 27.6719L25.2656 27.5394C25.2973 27.5057 25.6 27.6141 25.5745 27.4653L25.6302 27.4627C25.665 27.5829 25.7693 27.5374 25.8547 27.5855C25.9033 27.6121 25.9043 27.6755 25.9478 27.6918C26.1027 27.7501 26.3947 27.6888 26.5702 27.7312L26.494 27.3865C26.5272 27.429 26.7573 27.5333 26.7231 27.4065L26.6244 27.2776L26.3758 27.2929L26.34 27.118C26.5298 27.1216 26.8136 27.2392 26.8443 26.9697L26.9926 26.9646C26.9941 26.8807 26.989 26.7892 26.9598 26.7099C26.9343 26.6404 26.8417 26.6614 26.877 26.5427C27.1092 26.5662 27.1624 26.4322 27.1439 26.22C27.1322 26.0835 27.0391 26.0865 27.0309 26.0559C26.9875 25.8856 27.0877 25.9081 27.1133 25.8385C27.1439 25.7557 27.1353 25.5557 27.146 25.546C27.1578 25.5353 27.2324 25.5567 27.2682 25.5434C27.2795 25.5393 27.4283 25.4156 27.4523 25.3921C27.2575 25.3921 27.1629 25.0141 27.1035 24.8474C27.0606 24.7283 27.058 24.7462 27.0263 24.5718C26.989 24.3672 26.9486 24.4051 26.8913 24.3043C26.7993 24.1437 26.8069 24.0414 26.5702 24.0108C26.5814 23.7903 26.7445 24.0604 26.8391 23.9929C26.9501 23.9141 26.7747 23.687 26.7236 23.7428L26.7205 23.8533C26.5262 23.9069 26.5824 23.7745 26.4945 23.6558C26.4582 23.6068 26.2735 23.4482 26.2459 23.3971C26.2188 23.347 26.2224 23.2979 26.2244 23.2442L26.1298 23.3204C25.9897 23.2575 26.0628 23.0908 26.025 23.0217C26.0071 22.9885 25.8583 22.9568 25.8158 22.924C25.7222 22.8529 25.6261 22.6489 25.4962 22.6295L25.5924 22.5528L25.6491 22.63C25.6742 22.4024 25.6241 22.5118 25.5264 22.475C25.4931 22.4627 25.4977 22.4177 25.4655 22.4039C25.3929 22.3722 25.2605 22.3804 25.2006 22.3119C25.173 22.2802 25.1648 22.1922 25.1254 22.1401C24.7736 21.6798 24.4949 21.2313 24.0592 20.8263C24.0085 20.7792 23.8607 20.8053 23.9047 20.6309C23.9482 20.456 24.2111 20.4059 24.3174 20.3302C24.4207 20.2576 24.6089 20.0254 24.7337 19.9313C24.9838 19.7426 25.306 19.5984 25.5443 19.4097C26.5523 18.6119 27.4758 17.7476 28.3867 16.8921C28.5201 16.7668 28.5759 16.6982 28.6894 16.5806C28.7247 16.5443 28.7753 16.5428 28.8822 16.4303C28.9952 16.3121 29.4764 15.9143 29.6145 15.8176C29.8165 15.6759 30.0047 15.7394 29.9454 15.3425L29.7966 15.3476C29.7736 15.6667 29.704 15.521 29.5322 15.6008C29.2847 15.7153 28.8807 16.3622 28.6393 16.5131C28.604 16.5356 28.5442 16.4967 28.5232 16.5121C28.5089 16.5228 28.3882 16.7632 28.3616 16.7887C28.29 16.8583 28.0374 16.9759 27.975 17.0281C27.908 17.0838 28.0169 17.1749 27.7408 17.1856C27.6988 17.1871 27.6339 17.2066 27.6441 17.1462C27.8916 16.9601 28.11 16.7509 28.3345 16.5417C28.6383 16.2589 28.9635 15.9322 29.298 15.6371C29.5266 15.4351 29.7045 15.4693 29.6386 15.0362C29.75 14.9917 29.7495 15.1052 29.7782 15.1129C29.9183 15.1497 29.8927 15.0658 29.95 15.0219C30.0635 14.9349 30.24 14.7457 30.33 14.624C30.42 14.5028 30.3581 14.3785 30.5596 14.4225L30.5018 14.1924ZM18.6588 24.4608C18.5458 24.4495 18.1903 24.8403 18.132 24.7779C18.0456 24.6858 18.3841 24.4935 18.4102 24.4705C18.5192 24.3713 18.5913 24.2286 18.7452 24.203L18.6588 24.4608ZM26.5702 26.083L26.7921 26.0911L26.8386 26.3504H26.7236C26.722 26.3039 26.7328 26.2338 26.7067 26.195C26.6668 26.1361 26.5379 26.2057 26.5702 26.083ZM27.7203 17.2996C27.6686 17.4234 27.4943 17.4546 27.4278 17.5052C27.3429 17.5697 27.2882 17.7226 27.2391 17.7568C27.1163 17.8422 27.0642 17.7594 26.8622 17.9573C26.8044 18.0141 26.7517 18.057 26.7047 18.1036C26.6423 18.1654 26.6878 18.2953 26.5318 18.258L26.5702 18.3726C26.4157 18.304 26.3323 18.3833 26.1866 18.4109C26.2091 18.2452 26.429 18.2227 26.4822 18.1695C26.5262 18.1256 26.6627 17.8192 26.7451 17.7614C26.8207 17.7088 26.9225 17.742 26.9823 17.7103C27.01 17.6955 27.1414 17.5108 27.1869 17.474C27.2191 17.4479 27.436 17.2971 27.4636 17.2894C27.5689 17.2608 27.6134 17.2771 27.7203 17.2996Z" fill="black"/>
</svg>
