<svg width="71" height="15" viewBox="0 0 71 15" fill="none" xmlns="http://www.w3.org/2000/svg">
<g clip-path="url(#clip0_103_262)">
<path d="M46.8394 0.980764C47.0924 0.860986 47.6603 1.03631 47.7764 1.19775C47.7971 1.22553 47.9752 1.59528 47.9804 1.62479C48.0139 1.76887 47.939 1.95114 47.9855 2.07612C48.001 2.11605 48.1404 2.11084 48.143 2.13862C48.143 2.16118 47.9339 2.5101 47.9003 2.54135C47.7713 2.66807 47.3299 2.68716 47.033 2.83124C45.4533 3.60199 43.7729 4.95426 42.5287 5.96283C42.0564 6.34473 41.3465 6.64677 41.1891 7.19185C41.7982 7.15366 42.3532 6.87591 42.8617 6.75961C43.0915 6.70753 43.5742 6.711 43.8065 6.66587C44.315 6.56866 46.1735 5.96456 46.5529 6.02011C46.6742 6.03747 47.0743 6.1017 47.1698 6.12427C47.3325 6.16072 47.9416 6.49401 48.0216 6.57734C48.1197 6.68149 48.4992 7.45224 48.5198 7.58069C48.5327 7.66228 48.3211 8.23687 48.2849 8.26117C48.2695 8.26985 48.0604 8.27159 47.9081 8.34102C47.4899 8.53024 47.1698 8.92429 46.8446 9.16558C45.0532 10.5057 42.9624 11.8389 40.807 12.9082C40.3192 13.1495 39.4467 13.5991 38.9201 13.7449C38.7498 13.7918 38.4271 13.8786 38.2542 13.8647C38.0115 13.8439 38.1019 13.6928 38.0528 13.6633C37.9909 13.6251 37.6786 13.7032 37.485 13.6095C37.2036 13.4724 37.1313 13.1703 37.0797 12.9585C37.0668 12.8995 37.1339 12.8301 37.1236 12.7676C37.1107 12.6843 36.9119 12.6513 37.0307 12.4777C37.1313 12.3319 38.6491 11.4969 38.9434 11.3494C40.7941 10.4293 42.2551 9.62212 43.9407 8.54586C44.0207 8.49378 44.1627 8.47816 44.1704 8.47122C44.2272 8.42782 44.2014 8.36012 44.0594 8.37053C43.6671 8.40178 43.045 8.65522 42.6423 8.75243C42.0306 8.89999 40.5721 9.32528 40.0662 9.38257C39.8236 9.41034 39.4803 9.32528 39.3357 9.38951C39.2015 9.44853 39.1266 9.75753 38.9408 9.85821C38.8246 9.9207 38.644 9.92244 38.5201 9.98667C37.2862 10.6151 36.2382 11.3858 35.0405 12.0107C33.6028 12.7624 32.0618 13.3873 30.5491 14.073C29.8987 14.3681 29.2663 14.776 28.5512 14.993C28.1486 15.0173 28.1795 14.8837 27.9576 14.8229C27.7898 14.7778 27.4155 14.7847 27.3277 14.6823C27.2555 14.5972 27.3045 14.4462 27.2374 14.3334C27.2038 14.2761 27.0748 14.2778 27.0619 14.2362C27.0283 14.1303 27.098 13.9931 27.0619 13.8959C27.0412 13.8369 26.8554 13.8387 26.8321 13.7814C26.7882 13.6685 27.2322 13.4568 27.1367 13.3995C26.7934 13.3526 26.4295 13.4776 26.1042 13.455C25.8332 13.4359 25.7712 13.278 25.4899 13.2484C24.9375 13.1894 23.8637 13.2849 23.2906 13.3526C21.9329 13.5106 20.7171 13.6321 19.3723 13.9029C19.3284 13.9116 18.5979 13.9723 18.5592 13.9688C18.4921 13.9619 18.4947 13.8647 18.4301 13.8404C18.0326 13.6807 17.8649 13.606 17.5603 13.3457C17.0595 12.9186 17.3279 11.9361 17.3486 11.4084C17.3512 11.3268 17.3693 11.2973 17.2479 11.2452C17.1524 11.2278 16.8659 11.3407 16.7627 11.3789C16.4632 11.4917 16.1483 11.6809 15.9134 11.7816C15.3326 12.0333 15.0848 12.1635 14.3543 12.1149C14.326 12.1132 13.8226 12.0368 13.7968 12.0298C13.5696 11.9587 13.5929 11.6809 13.2909 11.6601C12.501 12.0593 12.0441 12.5714 11.2052 12.929C9.10407 13.8282 6.88419 13.9098 4.71336 13.1026C3.90542 12.8023 3.79443 12.6131 3.34529 12.1218C3.21365 11.9778 2.91422 11.8823 2.94004 11.6618C3.29883 11.6011 3.31948 11.3216 3.54405 11.1636C4.36747 11.2087 5.02311 11.6757 5.83104 11.8371C7.95025 12.2607 10.6477 11.0959 11.7473 9.90681C13.3115 8.21604 15.2449 4.53938 12.341 3.08642C10.7174 2.27402 8.95436 2.55176 7.15264 2.86596C7.021 2.88853 6.88419 2.87811 6.74997 2.87811C6.76546 3.41625 6.7319 3.95785 6.74739 4.49772C6.76546 5.12091 6.84289 5.77014 6.91001 6.39333C6.78611 8.04765 7.15006 9.68288 7.51144 11.3198C6.95905 12.1114 5.89041 11.6445 5.08248 11.3407C5.18315 11.0733 4.81661 10.957 4.77789 10.7453C4.75208 10.6064 4.85791 10.4658 4.84242 10.2991C4.78563 9.65511 4.51718 8.90693 4.46039 8.24381C4.41909 7.76644 4.48621 7.26997 4.46298 6.80995C4.40877 5.70418 4.22292 4.59666 4.38296 3.49783C3.97254 3.4527 3.606 3.70614 3.31432 3.88147C2.92713 4.11582 1.9669 5.0671 1.65715 5.12959C1.19769 5.22159 0.924075 5.00981 0.565281 5.08966C0.529144 5.0671 0.407825 4.54632 0.325224 4.45432C0.203905 4.31892 -0.118751 4.46126 0.0490301 4.04985C0.0748427 3.98736 0.779525 2.94408 0.836313 2.88506C1.00926 2.70799 2.31537 2.07612 2.6277 1.98412C3.32206 1.77755 4.11451 1.71853 4.77014 1.57792C4.91728 1.54667 4.99471 1.43557 5.1212 1.41127C5.48773 1.33836 6.36536 1.33489 6.78611 1.28976C8.39681 1.11964 9.21765 0.991179 10.898 1.2099C12.3255 1.39565 13.1205 1.69769 14.1582 2.39727C14.4189 2.57259 14.7183 2.8434 14.9609 3.03782L15.121 2.77569C15.3559 2.71494 15.6166 2.70973 15.8541 2.6646C17.6971 2.31221 19.7543 2.21326 21.4889 1.57618C22.4388 1.5189 24.0186 0.805437 24.8755 0.836683C25.113 0.845363 26.0113 0.989443 26.2436 1.0502C26.7676 1.18734 27.24 2.0848 26.623 2.30526C24.9246 2.9111 22.968 3.24265 21.1843 3.73218C20.539 3.9023 19.4652 3.95264 18.8767 4.13144C18.807 4.15227 18.7425 4.1731 18.6986 4.21997C18.6237 4.31198 19.0548 4.8015 19.1168 4.96989C19.3723 5.66251 19.3465 6.51658 19.4317 7.2231C19.4678 7.5182 19.6227 7.81851 19.6201 8.1223C19.8292 8.05807 20.0202 7.97127 20.2319 7.91225C20.5855 7.81331 20.7455 7.72998 21.0346 7.64492C22.2375 7.2908 23.1797 7.14845 24.2819 6.63289C24.5787 6.49401 24.6949 6.49749 24.9685 6.37771C25.2421 6.25793 25.9597 5.70591 26.13 5.66946C26.4475 5.60176 26.8889 5.64863 27.2167 5.66425L27.2271 5.80486C27.4749 5.73889 27.8724 5.99234 27.9447 6.11732C27.9911 6.19717 27.7898 6.3482 28.0221 6.3239C28.4299 6.12947 28.6364 5.78056 28.9462 5.50802C30.6085 4.04985 32.9136 2.55523 35.216 1.56056C35.4587 1.4564 35.9904 1.21685 36.2537 1.25157C36.3776 1.26719 36.4731 1.35572 36.5996 1.38349C36.7829 1.42342 36.9377 1.41648 37.1417 1.48071C37.2268 1.50674 37.9238 1.8817 37.9522 1.91121C38.1174 2.08827 37.8231 2.15077 37.7766 2.25492C37.7328 2.3504 37.7766 2.4667 37.725 2.57954C37.5288 3.00483 37.2862 2.94408 36.8526 3.12288C34.5114 4.08284 30.2859 6.43673 29.7773 8.3254C29.6973 8.61703 29.8006 8.66043 30.2394 8.68647C30.562 8.70556 31.4139 8.65869 31.7649 8.63439C33.3988 8.52156 35.025 8.17611 36.5428 7.84282C37.0694 7.72825 37.5366 7.50779 38.1019 7.76297C38.2929 7.65187 38.1871 7.47133 38.2542 7.29948C38.8479 5.78403 42.5184 3.18884 44.2143 2.06571C44.6325 1.78796 45.1978 1.31406 45.6056 1.08839C45.6985 1.03805 46.5968 0.729057 46.6562 0.729057C46.8627 0.725585 46.8549 0.893968 46.8472 0.987707L46.8394 0.980764ZM17.1189 9.02844C17.1628 8.97637 17.1498 7.98343 17.1344 7.8324C17.0905 7.37586 16.8943 6.82557 16.7704 6.38292C16.6465 5.94026 16.5613 5.42122 16.4142 4.9803C16.3884 4.90739 16.3471 4.79629 16.2206 4.7772C16.1741 5.42643 16.28 6.11038 16.2206 6.7544C16.1561 7.48175 15.8153 8.50593 15.4152 9.18988C15.3507 9.30098 14.8603 9.85994 14.9222 9.91029L17.1189 9.02671V9.02844ZM27.0619 7.70394C26.5482 7.80289 26.0887 8.13098 25.637 8.31151C24.3774 8.81319 22.9964 9.1812 21.6903 9.60997C21.4038 9.70371 19.7001 10.2488 19.6717 10.3512L19.8034 11.8354C19.935 11.8858 20.6345 11.8667 20.8307 11.8545C22.795 11.7243 24.4419 11.1098 26.3804 11.7799C26.9018 11.9604 27.5317 12.7051 27.6349 13.0922C28.0918 12.568 28.8713 12.2659 29.6509 11.983C29.7515 11.9465 29.8135 11.858 29.8883 11.8354C30.0406 11.7903 30.2446 11.8337 30.3504 11.7851C30.4175 11.7556 30.3994 11.6514 30.4459 11.6202C30.7892 11.3737 31.3751 11.3355 31.6849 11.1949C31.8191 11.1358 31.912 10.9744 32.0643 10.8841C32.2166 10.7939 33.2311 10.5179 33.0194 10.3703C31.5894 10.4068 30.1645 10.4623 28.7397 10.3477C28.5383 10.3061 27.7098 9.76447 27.5962 9.62733C27.5446 9.5631 27.0644 8.80104 27.0644 8.75417V7.70221L27.0619 7.70394Z" fill="#FFF0B8"/>
<path d="M61.0906 0.433978C61.1938 0.486055 61.1628 0.628399 61.421 0.519037C61.4081 0.729082 61.661 0.958222 61.7127 1.11966C61.8133 1.43907 61.7488 1.9963 61.8159 2.3834C62.0611 3.77908 62.6522 5.14871 62.6471 6.55133C62.6471 7.39151 62.8071 8.11017 62.771 8.94862C62.7684 9.02326 62.6755 9.0736 62.8355 9.1413C62.9439 8.88786 63.1246 8.63442 63.2382 8.38445C63.5324 7.73174 63.7389 7.04606 64.0952 6.39336C64.7714 5.15045 65.7962 4.02037 66.6842 2.84689C66.9913 2.43895 68.2794 0.418354 68.6769 0.293369C68.7362 0.274274 68.8395 0.30552 68.9092 0.288161C69.1467 0.223932 69.4254 -0.0225669 69.3687 0.364541C69.5158 0.378428 69.5984 0.293369 69.73 0.270802C70.0372 0.218725 69.9417 0.321143 70.063 0.3819C70.3521 0.531189 70.6877 0.70478 70.8529 0.932184C71.2659 1.49983 70.7677 1.88867 70.0682 2.19419L69.903 2.75315C69.6397 2.64379 69.3712 3.08298 69.3248 3.23574C69.1776 3.71832 68.6407 4.51337 68.2097 4.94908C67.5902 5.57401 67.1359 6.33781 66.7151 7.07557C65.6258 8.97986 65.3342 10.8321 64.4591 12.6947C64.361 12.9013 63.9429 13.6321 63.7957 13.7883C63.7699 13.8161 63.3053 14.0921 63.2666 14.0991C63.1685 14.1164 62.3606 14.1095 62.2857 14.0869C62.1799 14.0557 62.1721 13.9637 62.1128 13.9428C62.0121 13.9064 61.8469 13.9272 61.8185 13.9098C61.7901 13.8925 61.8133 13.7692 61.7746 13.7102C60.8608 12.3371 60.7137 11.1723 60.5821 9.68638C60.5227 9.02326 60.4633 8.38618 60.3549 7.73348C60.293 7.36199 60.5356 7.03391 60.4762 6.67805C60.2672 6.99225 60.0632 7.36026 59.9213 7.69182C59.1366 9.52668 58.7029 11.4692 57.975 13.3127C57.9311 13.4273 57.5362 13.9185 57.611 13.9654L57.8408 14.0157C57.6523 14.0522 57.4252 13.9532 57.2703 13.9637C57.1025 13.9758 57.0561 14.1077 56.8935 14.1147C56.8109 14.1182 56.2223 14.0418 56.1242 14.0157C55.7345 13.9168 55.9306 13.705 55.8455 13.5349C55.8093 13.462 55.5435 13.4568 55.6286 13.2971L55.4015 13.3491C55.546 13.0766 55.435 12.7867 55.4841 12.5072C55.5228 12.2868 55.7267 11.8997 55.8197 11.6549C56.6586 9.43814 57.5207 7.24395 58.419 5.03588C59.1262 3.29302 59.2837 2.89029 58.9972 1.0537C58.912 0.508622 59.0075 0.270802 59.7122 0C60.1794 0.135401 60.6982 0.227404 61.1009 0.433978H61.0906Z" fill="#FFF0B8"/>
<path d="M50.6184 2.87986C50.3835 2.85903 49.7046 2.6837 49.5704 2.55871C49.4439 2.44241 49.0593 1.79491 49.0593 1.67514C49.0593 1.60396 49.2658 1.25157 49.3613 1.21512C49.4388 1.18561 49.9086 1.07278 50.0273 1.04847C50.5565 0.939111 51.1553 0.897449 51.6896 0.781143C52.4382 0.616231 53.6256 0.0971943 54.2786 0.0572683C54.5445 0.0416451 55.2311 0.0347015 55.4608 0.0867788C55.515 0.0989302 56.1655 0.449584 56.2042 0.484302C56.323 0.584985 56.3617 0.821069 56.5063 0.972093C56.5889 1.05889 56.7411 1.0016 56.6844 1.13527C56.1449 1.11617 56.2791 1.65257 56.3023 1.90601C56.1062 1.89733 55.9203 1.92511 55.7345 1.95983C55.435 2.01537 54.48 2.22021 54.3767 2.38165C54.1263 2.7705 54.1651 3.1767 54.0825 3.57075C53.8011 4.9074 53.3158 6.38466 53.1739 7.73346C53.1325 8.12578 53.2384 8.64308 53.1739 9.01109C53.1222 9.29231 52.8847 9.66379 52.8667 9.99362C52.8589 10.1412 52.9725 10.2922 52.9519 10.4016C52.926 10.5231 52.7634 10.5092 52.7144 10.5647C52.5982 10.6915 52.6524 10.8963 52.6421 11.0421C52.7247 11.0612 52.8099 10.9918 52.8331 10.9918H54.1702C54.1883 11.1671 54.8826 11.5282 54.9162 11.6393C54.9962 11.9153 54.4516 12.0958 54.7071 12.377C54.7562 12.4013 55.0866 11.9812 55.164 12.2486C54.6194 12.5489 54.085 12.7954 53.4346 12.9863C51.6664 13.5054 49.1884 13.8578 47.2628 13.7623C46.7156 13.7345 46.269 13.6859 45.8457 13.4828C45.7631 13.4429 45.6004 13.4238 45.5617 13.3925C45.5411 13.3752 45.3501 13.0037 45.332 12.9551C45.3191 12.9238 45.2391 12.6044 45.2313 12.561C45.1797 12.2486 45.5695 11.9621 45.998 11.891C46.7104 11.7729 47.73 11.851 48.4734 11.8094L50.6804 11.5473C50.9617 11.4952 50.8843 11.2261 50.7707 11.0977C50.6907 11.0091 50.4687 10.9813 50.4429 10.9119C50.4248 10.8581 50.6055 10.5231 50.59 10.3512C50.5694 10.1099 50.4093 9.99709 50.4326 9.68636C50.5487 8.098 51.0908 6.24752 51.4134 4.64875C51.5322 4.06375 51.6019 3.47007 51.7309 2.88507C51.3799 2.8625 50.9643 2.91631 50.6236 2.88507L50.6184 2.87986Z" fill="#FFF0B8"/>
</g>
<defs>
<clipPath id="clip0_103_262">
<rect width="71" height="15" fill="white"/>
</clipPath>
</defs>
</svg>
