<svg width="354" height="125" viewBox="0 0 354 125" fill="none" xmlns="http://www.w3.org/2000/svg">
<g clip-path="url(#clip0_72_263)">
<path d="M57.6213 22.4081C52.2061 17.7265 37.8023 9.91478 30.9236 8.33597C27.216 7.48561 19.6421 6.53772 16.5717 8.72915C15.5136 9.48503 15.1813 10.6859 14.5318 11.2467C11.3638 13.9898 6.22921 9.11623 4.22292 15.1571C3.08562 18.5769 2.63741 28.4642 2.36604 32.6094C1.5001 45.7915 1.0336 59.2144 0.774424 72.2715C0.621971 80.0711 -1.29589 95.5726 1.54279 102.08C2.76242 104.881 6.02187 107.28 5.04312 110.108C9.17766 110.55 13.8427 112.242 17.9132 113.601C18.7853 113.89 19.3555 114.741 20.3586 114.924C22.8863 115.39 23.7614 113.714 25.6853 113.811C27.3867 113.897 28.9722 115.692 30.5547 115.981C50.2822 119.581 65.497 109.855 75.3242 93.2197C79.3611 86.3863 80.1204 84.1004 80.1691 76.0296C80.3063 53.6703 74.8607 37.3001 57.6213 22.4081ZM49.8431 82.7654C43.6657 89.5957 34.7624 97.4867 24.856 95.9323C23.9016 95.2679 24.4169 83.6036 24.3773 81.3939C24.1791 70.9122 24.7858 60.2781 24.3773 49.7476C24.2279 45.8646 21.9533 36.8337 23.7888 33.6487C24.2096 32.9172 25.9719 31.9602 26.2098 31.2927C26.5817 30.2533 24.9109 28.5008 27.3074 28.0467C31.0273 27.3426 37.6895 29.2963 41.2569 30.7227C47.2209 33.1031 52.7214 36.2729 56.7462 41.2562C58.9659 44.0024 62.9358 49.9336 63.0181 53.5179C63.2621 63.9935 56.6547 75.2341 49.8431 82.7654Z" fill="#FFF0B8"/>
<path d="M312.792 18.0344C314.63 20.3111 315.838 23.1792 317.091 25.8034C322.149 42.2681 327.534 58.5957 333.629 74.6976C334.635 74.0454 334.361 73.2621 334.452 72.3111C335.577 60.2811 336.913 50.2566 336.602 37.9432C336.51 34.304 335.404 29.1073 335.48 25.6023C335.501 24.6026 337.038 21.8991 337.977 21.7193C340.852 22.2801 342.984 21.8198 345.429 23.7522C353.085 29.7962 353.835 41.7987 353.982 50.8388C354.168 62.3507 352.878 77.0841 350.905 88.2242C349.878 94.0334 347.021 104.716 343.758 109.508C341.92 112.208 339.523 111.79 336.584 112.562C335.27 109.157 330.989 106.819 329.385 104.159C323.68 94.6857 321.774 81.8328 317.783 71.7747C317.46 70.9579 317.204 70.4123 316.46 69.8789C315.021 75.2798 315.597 81.211 315.112 86.7642C314.777 90.6076 314.527 96.0999 314.014 99.6141C313.42 103.695 310.371 108.563 309.721 112.751C305.004 113.765 303.053 111.16 300.73 107.597C298.733 104.536 296.327 100.065 296.854 96.3986C300.373 71.921 300.467 47.7817 300.653 22.9689C300.672 20.4087 299.513 16.803 300.077 13.9167C300.464 12.2921 306.855 13.9746 308.316 13.6576C309.301 15.2394 311.889 16.9127 312.792 18.0313V18.0344Z" fill="#FFF0B8"/>
<path d="M105.364 47.8884C109.952 47.4495 114.892 46.1237 119.545 46.8521C120.258 46.9649 127.607 50.1713 128.573 50.6986C128.939 50.8967 134.421 56.1025 134.589 56.4835C134.726 56.7974 135.888 62.3689 135.973 63.1401C136.242 65.5692 135.903 67.7972 134.531 69.821C134.058 70.519 129.628 74.4569 129.119 74.6123C126.317 75.4627 124.176 72.8689 121.746 72.5458C115.746 71.7473 110.117 74.3929 104.29 73.1067C103.955 77.9467 104.775 82.677 105.842 87.3738L106.818 88.0383C107.461 88.2547 108.074 88.1571 108.718 88.0261C112.544 87.255 119.386 83.1891 123.451 82.3448C126.698 81.6712 131.043 82.6587 134.528 81.7352C135.854 84.4875 136.455 85.8255 139.471 87.0477C138.989 90.123 139.751 88.6692 141.023 90.2815C142.504 92.1621 142.901 96.8192 142.267 99.0076C141.617 101.248 138.321 101.19 136.644 101.967C133.074 103.625 130.851 104.32 127.454 105.652C122.881 107.447 114.419 111.757 109.943 112.293C109.157 112.388 108.108 112.37 107.352 112.144C106.9 112.01 99.9028 107.932 99.2106 107.417C93.332 103.058 92.3258 96.8284 90.9172 89.9645C89.6061 83.5762 89.3774 75.9778 88.0785 69.7387C87.5022 66.9743 84.6147 63.9203 84.4104 61.0309C84.261 58.9248 85.4258 57.6691 85.4868 56.1726C85.5294 55.1363 84.7763 53.972 84.941 53.0881C85.0172 52.6797 87.6729 51.6526 88.0876 50.1987C88.4779 48.8363 88.0541 47.0716 88.2645 45.5507C89.2036 38.757 94.2345 24.1454 100.165 20.4391C105.617 17.0316 111.41 16.9432 117.313 15.593C119.996 14.9804 122.502 13.6759 125.631 13.1821C127.058 12.9566 130.671 12.3653 131.869 12.5055C134.818 12.8499 138.876 19.4425 139.163 22.4172C139.501 25.9101 136.876 32.6795 132.97 33.3927C131.811 33.603 130.491 33.2555 129.29 33.4689C120.185 35.0964 107.336 36.9709 105.367 47.8945L105.364 47.8884Z" fill="#FFF0B8"/>
<path d="M289.213 112.635C282.164 114.549 275.99 118.767 269.26 121.382C264.528 123.22 254.146 126.244 249.545 124.451C244.264 122.394 238.33 117.414 237.925 111.376C237.736 108.575 239.044 106.905 238.956 104.226C245.413 102.793 252.478 103.689 258.22 100.12C258.549 99.1204 256.622 95.7494 256.247 94.1523C251.844 75.3133 254.042 54.2768 256.652 35.2976C253.911 31.0793 250.155 29.3878 250.161 23.484C250.161 22.146 250.804 20.7531 250.731 19.7564C250.484 16.4159 248.481 18.0557 251.835 13.8466C253.554 11.6887 260.171 6.56517 262.683 4.84921C263.552 4.25487 270.41 0.25604 270.873 0.167652C273.736 -0.384016 274.806 0.58826 276.91 1.08202C278.035 1.34718 279.203 1.0424 280.249 1.49653C280.859 1.7617 282.725 4.4347 283.451 5.26677C285.533 7.65631 286.14 6.34267 286.619 10.6798C287.006 14.1757 286.308 17.6138 285.875 21.0609C282.435 25.139 276.776 24.8068 276.02 31.055C274.871 40.54 275.877 53.2527 275.444 63.198C275.288 66.7457 274.52 70.8573 274.328 74.4173C273.995 80.5069 274.816 86.7429 272.937 92.6924L273.813 93.7348C276.227 94.8076 280.758 92.1956 283.658 92.4608C284.548 92.7107 284.963 94.7985 285.869 95.6397C286.664 96.3804 288.299 96.6608 288.875 97.4593C289.5 98.3219 290.924 105.192 290.997 106.597C291.134 109.273 291.049 110.605 289.213 112.629V112.635Z" fill="#FFF0B8"/>
<path d="M201.556 114.774C200.01 112.885 198.65 108.608 199.357 106.198C199.659 105.17 201.342 104.433 201.4 102.817C201.452 101.4 199.784 100.702 200.55 99.3825C205.468 96.8192 209.709 93.8414 213.731 90.0011C218.746 85.2129 213.804 86.5661 211.203 84.7343C205.614 80.7995 200.354 75.8589 197.433 69.2724C187.539 46.968 206.779 29.2628 220.161 13.8283C220.713 13.1913 220.811 12.0818 221.46 11.3717C222.875 9.82334 226.912 8.78401 228.906 9.38139C229.872 9.67094 234.324 14.5293 234.943 15.6783C236.154 17.9277 237.318 23.0847 236.663 25.5017C236.404 26.4557 235.202 27.3853 234.791 28.452C234.074 30.3234 233.909 32.335 233.306 33.9413C231.119 39.7475 223.838 45.6848 220.167 50.8418C218.823 52.7285 213.313 62.948 213.761 64.728L214.938 65.4839C219.823 64.661 227.961 63.6612 232.748 64.5421C235.772 65.0968 243.005 74.2984 243.663 77.2304C244.685 81.7931 243.663 84.2985 243.24 88.3918C243.044 90.2754 243.52 92.4516 243.203 94.2529C241.947 101.394 225.549 115.667 218.92 118.249C217.417 118.834 209.639 120.2 208.282 120.017C207.599 119.925 207.05 119.608 206.486 119.236C206.154 119.017 201.79 115.058 201.559 114.774H201.556Z" fill="#FFF0B8"/>
<path d="M183.337 100.644C175.321 108.249 165.418 115.503 153.438 112.196C150.133 111.284 144.148 104.814 144.041 101.211C143.974 98.9649 145.105 97.6787 146.136 95.9048L143.709 92.9453L160.57 85.1245L168.123 78.1905L162.491 73.64C153.121 69.7479 147.627 62.6585 145.13 53.021L147.032 44.2309C149.996 34.8008 158.088 29.1286 164.72 22.4934C167.641 19.5705 172.318 11.329 177.111 13.4351C182.109 15.6326 185.966 24.1118 185.325 29.406C185.103 31.2561 183.365 32.7343 182.865 34.4655C181.917 37.7328 182.124 40.1102 180.035 43.4354C178.712 45.5415 171.425 52.6004 171.916 54.5572C172.699 55.8099 174.364 55.2673 175.666 55.6422C182.856 57.7148 191.972 67.2547 192.277 75.0024C192.351 76.8342 191.722 78.1936 191.713 79.7845C191.671 85.8194 192.89 90.2693 189.051 95.3623C187.521 97.3922 185.149 98.9283 183.337 100.647V100.644Z" fill="#FFF0B8"/>
</g>
<defs>
<clipPath id="clip0_72_263">
<rect width="354" height="125" fill="white"/>
</clipPath>
</defs>
</svg>
