<?xml version="1.0" encoding="UTF-8"?>
<svg id="Calque_1" data-name="Calque 1" xmlns="http://www.w3.org/2000/svg" viewBox="0 0 804.37 980.47">
  <defs>
    <style>
      .cls-1 {
        fill: #fcf1be;
      }
    </style>
  </defs>
  <path class="cls-1" d="M470.77,687.23c-5.87-5.01-14.79-2.6-22.7-2.22-4.38.39-8.75.77-13.13,1.21-17.15,1.49-33.9,5.6-50.74,8.97-6.12,1.29-12.83,2.24-18.29,5.27-9.46,5.04-9.31,15.65-8.12,25.19,1.63,14.09,3.09,28.2,4.12,42.35,2.09,35.89,7.02,71.75,6.18,107.74-.44,15.31-2.22,30.57-4.92,45.64-1.86,10.24-3.87,20.51-7.37,30.3-3.2,8.69-7.96,19.76-17.31,22.05-6.55,1.41-12.46-3.01-15.04-9.33-2.02-4.87-1.96-10.55-1.03-15.92,1.51-8.39,4.34-16.59,5.99-24.98,3.92-19.44,5.61-39.32,5.52-59.13-.45-34.86-3.65-69.62-6.64-104.33-.76-8-1.53-16.03-2.36-23.98-.38-3.69-.99-7.89-2.13-10.94-1.93-5.87-6.69-8.33-12.23-7.41-7.62,1.22-16.96,5.42-21.08,12.61-1.83,3.17-2.68,6.94-2.86,11.09,1.26,30.29,4.1,60.6,4.91,90.94.63,18.22,1.01,36.45,1,54.67-.04,20-2.63,39.87-6.12,59.57-1,5.48-2.05,10.97-3.52,16.33-1.36,4.76-2.93,9.08-5.98,12.71-8.35,9.92-20.78,3.19-24.56-7.68-2.97-8.1-2.01-17.34-.68-25.86,1.81-10.99,3.66-22.11,4.81-33.26.9-8.76,1.04-17.57.89-26.37-.38-17.68-.61-35.38-.98-53.05-.59-21.93-1.34-43.89-2.96-65.79-.28-3.07-.7-5.96-1.46-8.33-1.18-3.74-3.22-6.11-6.22-6.71-5.37-.89-10.53,2.19-14.11,6.4-5.34,6.31-4.91,15.13-3.88,23.1,4.82,35.95,6.18,72.32,3.19,108.49-1.08,16.34-2.14,32.68-5.07,48.8-1.71,9.38-4.14,18.74-8.31,27.32-2.39,4.99-6.71,11.47-12.2,12.09-6.06.86-11.76-5.64-13.87-11.34-2.5-6.37-2.52-12.64-1.21-19.64,1.93-10.73,5.22-21.26,6.91-32.04,1.26-6.95,2.3-15.53,1.45-22-.57-8.44.2-18.07.41-26.95.11-20.32.45-40.75-1.59-60.97-1.12-7.37-.75-26.64-12.86-20.93-6.93,3.52-13.31,9.54-19.8,14.01-12.39,9.07-25.04,17.82-36.77,27.76-13.36,11.51-25.97,23.9-40.43,34.06-6.63,4.84-13.22,10.55-21.1,12.6-12.47,3.16-23.3-7.83-23.24-20.28-.18-9.32,3.2-18.47,4.95-27.63,6.38-33.33,14.98-66.18,24.34-98.75,7.55-27.79,12.73-56.11,19.37-84.11,5.21-21.79,11.74-43.26,16.25-65.17,3.03-14.1,6.17-37.45,25.5-34.6,16.27,2.84,22.31,20.22,28.95,33.33,10.68,20.45,20.6,41.27,29.4,62.62,9.16,21.47,16.39,43.71,22.11,66.32,1.64,5.94,4.67,12.29,11.3,12.14,5.97-.07,11.98-3.98,14.97-9.22,1.99-3.62,2.43-7.48,1.99-12.02-.32-3.37-1.19-6.98-2.01-10.36-9.1-37.55-21.89-74.11-38.48-109.02-1.98-4.24-4.01-8.45-6.26-12.55-4.44-8.29-10.8-15.88-12.52-25.04-1.98-10.37,7.28-17.86,17.32-15.39,9.1,2,15.6,9.72,20.44,17.43,16.06,27.84,28.52,57.78,38.54,88.35,3.16,9.87,6.06,19.83,8.93,29.79,1.59,5.48,3.12,10.98,4.65,16.41,1.7,6.14,4.57,13.85,11.34,14.73,6.73.9,17.1-3.44,22.73-7.24,7.08-4.79,7.96-12.97,6.79-21.06-1.02-7.37-2.24-14.87-3.38-22.26-4.58-28.1-9.12-56.7-21.11-82.7-3.51-8.13-8.98-16.07-10.34-24.82-1.87-11.72,7.84-17.16,18.6-16.07,8.4.71,16.54,3.04,24.8,4.71,17.33,3.78,34.81,6.54,52.4,8.58,8.62.95,17.24,1.66,25.88,1.64,6.33-.03,12.64-.49,18.97-.93,12.17-.9,24.26-2.75,36.12-5.94,4.99-1.32,9.98-2.68,15.03-3.76,12.97-2.95,26.35-4.14,39.1-7.9,6.6-1.92,13.01-4.47,19.33-7.16,13.05-5.93,28.58-6.56,39.29,4.16,4.9,4.61,4.63,10.11,1.64,15.62-2.49,4.69-6.05,9.57-8.8,14.5-12.69,24.24-25.34,48.72-33.74,74.86-1.24,3.78-2.44,7.57-3.57,11.38-3.2,10.76-7.16,23.64,6.57,26.81,8.52,1.73,21.19,3.04,27.77-3.34,6.24-6.16,7.71-16.1,10.61-24.21,6.48-20.79,13.74-41.52,26.19-59.54,3.73-5.49,7.63-10.98,12.57-15.36,7.24-6.67,17.41-9.35,25.98-3.68,9.39,6.12,9.16,15.25,3.29,24.23-1.78,2.85-3.83,5.68-5.84,8.42-11.45,15.64-18.9,33.79-25.56,51.9-2.81,8.95-9.95,23.22,1.15,28.45,5.82,2.29,12.93,1.9,18.75-.35,5.53-2.16,9.58-7.12,12.2-12.51,7.02-16.49,13.02-33.45,20.55-49.74,4.52-9.74,9.75-20.03,19.74-24.4,11.35-4.88,25.2,1.18,32.38,10.69,5.39,6.63,8.19,14.95,11.42,22.79,9.65,22.94,23.22,44.41,40.09,62.7,7.36,8.07,16.8,13.57,26.26,18.83,6.48,3.67,13.16,8.99,14.43,16.33.99,5.91-2.92,11.4-8.92,12.72-3.09.75-6.32.51-9.45-.02-5.82-1.02-11.59-3.18-17.63-4.21-6.86-1.26-13.91-.99-20.81.48-19.16,4.38-38.45,14.33-48.69,31.61-2.66,4.29-4.95,8.85-7.12,13.42-10.06,21.66-19.63,43.68-26.09,66.71-1.79,6.03-3.48,12.95-7.09,17.99-7.55,10.55-20.67,2.63-26.14-6.31-4.6-7.03-5.91-15.88-6.42-24.23-1.96-32.19-3.5-64.7-1.22-96.93.24-4.88-.04-10.22-3.09-13.91-4.98-5.69-14.49-7.59-21.79-5.8-3.56.97-6.06,3.37-7.53,6.89-1.33,3.05-1.97,7.12-2.42,10.68-2.22,18.45-2.98,37.22-1.95,55.8,1.37,21.17,7.23,41.79,13.61,61.95,1.98,5.87,4.62,11.8,6.22,17.64,2.9,9.45,1,19.44-10.04,20.91-9.71.77-17.05-7.56-21.3-15.73-5.96-11.45-8.99-24.25-12.52-36.62-4.74-17.47-9.76-34.98-10.88-53.11-.68-9.32-.51-18.68.11-28,.6-9.23,1.52-18.42,2.21-27.63.77-9.31-.31-18.64-10.88-20.94-7.17-1.43-17.27-1.81-23.59.47-8.48,3.01-9.89,13.1-10.75,21.38-.82,7.23-1.51,14.49-2.06,21.75-1.44,21.25-3.47,42.49-3.63,63.81-.15,23.61-.64,47.72,5.64,70.65,2.73,10.26,8.94,19.41,13.33,28.83,2.11,4.96,3.51,10.3,1.81,15.26-3.29,9.03-14.42,8.57-21.44,3.34-17.02-11.87-28.06-49.66-30.33-69.91-1.38-11.6-1.68-23.29-2-34.95-1.07-29.67.48-59.31,3.12-88.87.22-7.76,3.6-22.36-2.14-27.88l-.05-.04.04.08ZM517.22,543.88c-1.54-2.39-7.2-1.68-10.46-1.06-20.56,4-41.31,7.71-61.98,11.07-13.47,1.57-27.06,2.96-40.6,3.27-22.98-.22-45.91-3-68.54-6.91-14.68-2.28-13.23,5.3-9.22,16.15,9.71,28.23,14.01,57.95,18.55,87.35,1.85,12.96,6.52,16,19.31,13.21,29.25-6.11,58.8-10.74,88.59-13.24,6.11-.62,12.36-.67,18.41-1.59,6.53-1.02,11.23-4.61,13.9-10.67,2.95-6.75,4.41-14.29,6.12-21.47,1.73-7.73,4.15-15.25,6.67-22.76,3.66-11.76,8.46-23.16,13.77-34.24,1.73-4.42,8.22-15.35,5.51-19.08l-.03-.04h0ZM188.11,733.1c1.73-3.83,1.34-8.39.51-12.51-6.87-33.07-17.49-64.53-31.44-95.49-2.47-5.44-5.15-11.05-7.82-16.11-1.62-2.71-4.92-10.33-7.23-9.05-1.11.54-2.15,2.79-3.25,5.95-.85,2.45-1.75,5.36-2.69,8.16-12.35,40.48-18.13,82.63-29.05,123.49-2.46,9.97-5.29,19.83-8.47,29.6-3.28,10.5-5.82,21.03-8.53,31.75-.74,3.49-3.71,12.88,2.44,9.1,2.95-1.89,5.99-4.8,8.83-7.23,3.57-3.11,7.13-6.18,10.76-9.2,12.87-10.86,27.28-19.82,40.85-29.84,8.63-6.22,17.01-12.98,25.69-19.02,3.65-2.53,7.55-5.4,9.37-9.51l.03-.08h0ZM688.09,609.89c-4.48-.29-7.26,10.75-8.84,14.38-7,18.76-14.71,37.3-19.19,56.87-3.15,13.29-6.44,26.65-7.23,40.32-.31,5.69-1.24,11.85-1.04,17.42.69,10.49,7.95-5.38,9.47-8.32,4.2-8.14,8.37-16.44,14.47-23.34,10.89-12.37,30.2-19.94,45.67-25.28,8.29-2.68,11.13-5.97,5.6-13.79-12.47-16.71-23.4-34.23-33.11-52.42-1.35-2.32-3.39-5.52-5.74-5.84h-.06ZM196.81,925.67c-.19-.21-.4.03-.52.2-.5.68-.78,2.67-.46,3.27.21.5.58.08.75-.29.39-.82.67-2.37.26-3.15l-.03-.04h0Z"/>
  <path class="cls-1" d="M149.14,284.44c-3.82-9.48-7.46-19.26-11.2-28.77-1.72-4.29-3.42-8.51-4.77-12.9-5.67-17.1-8.22-35.8-5.83-53.83,1.26-9.53,3.88-18.86,6.24-28.18,2.62-9.83,4.8-19.85,8.78-29.24,4.23-10.07,11.47-18.5,17.18-27.81,3.82-6.11,7.22-12.46,10.57-18.84,6.52-13.02,15.84-24.66,27.19-33.8,6.92-5.4,15.27-9.06,22.76-13.78,5.89-3.59,11.52-7.59,17.44-11.14,12.85-7.73,27.15-12.96,41.71-16.19,10.11-2.25,20.4-3.55,30.64-5.09,12.24-1.8,24.48-3.81,36.84-4.6,18.26-1.13,36.63,1.42,54.5,5.17,21.2,4.71,41.44,12.84,61.32,21.4,6.21,2.75,12.17,6,18.06,9.36,8.8,5.1,18.12,9.41,26.45,15.28,11.85,8.62,21.71,19.05,32.76,28.56,5.37,4.83,10.81,9.58,16.2,14.38,8.56,7.71,16.48,16.11,24.39,24.48,5.5,6.02,9.88,12.9,14.31,19.72,8.67,12.93,17.15,26.07,25.38,39.3,7.59,11.68,12.93,24.51,17.62,37.61,1.96,5.24,3.78,10.55,5.09,15.99,3.05,13.09,4,26.53,5.07,39.95,1.03,12,.53,24-.83,35.96-.59,5.61-1.42,11.21-2.8,16.69-3.97,14.62-9.51,29.11-18.64,41.3-6.55,8.97-13.66,17.49-21.03,25.76-7.17,8.04-14.06,16.47-22.33,23.37-6,5.15-12.79,9.34-18.98,14.23-7.07,5.75-12.82,12.75-20.82,17.24-6.66,3.64-13.9,6.42-20.94,9.28-10.57,4.19-21.26,8.07-32.03,11.72-14.51,4.88-29.07,9.77-44.08,12.77-11.69,2.3-23.51,3.96-35.36,5.14-11.67,1.18-23.41.8-35.06.47-4.07-.11-8.14-.43-12.14-1.14-7.25-1.24-14.21-3.62-21.23-5.84-9.26-2.79-18.33-6.16-27.21-10.01-5.17-2.22-10.35-4.44-15.49-6.73-10.68-4.79-20.72-10.93-30.45-17.37-11.38-7.52-21.36-16.53-31.97-25.15-3.33-2.67-6.83-5.14-10.21-7.75-5.72-4.44-11.08-9.37-15.61-15.03-11.88-14.86-20.62-31.64-30.12-48.05-1.96-3.25-3.82-5.59-5.65-8.53-2.03-3.18-3.37-6.79-5.05-10.27-1.79-3.79-3.73-7.68-5.74-11.36-2.5-4.59-4.78-10.07-6.9-15.33-2.71-6.12-5.56-12.25-7.97-18.34l-.04-.09-.02.03ZM504.57,420.86c4.98-3.19,9.77-6.96,14.96-10.01,5.82-3.31,12.07-5.94,17.7-9.64,12.38-7.79,23.65-17.25,32.74-28.71,6.2-7.57,12.5-15.11,17.09-23.7,6.54-12.85,13.49-26.06,15.21-40.51.89-7.48.87-15.07,1.01-22.59.12-5.22.27-10.39.13-15.6-.15-7.6-.37-15.24-.31-22.87.03-6.02-.16-12.07-1.25-18-2.37-12.81-8.18-24.72-13.02-36.77-3.58-8.55-7.82-16.86-13.33-24.32-3.9-5.35-8.35-10.31-12.8-15.22-19.39-21.14-37.33-44.08-60.53-61.22-9.17-6.49-18.73-12.42-28.19-18.47-11.75-7.43-23.46-15.05-36.5-19.99-17.64-6.59-36.46-10.94-55.34-11.72-5.87-.07-11.74.68-17.54,1.58-8.73,1.4-17.49,2.59-26.18,4.17-9.5,1.79-19.02,3.47-28.6,4.79-14.68,2-29.05,5.5-43.49,8.96-10.63,2.46-21.47,5.45-29.99,12.53-10.05,8.58-19.58,18.03-28.05,28.13-3.84,4.74-7.35,9.73-10.89,14.7-9.23,13.07-17.96,26.77-23.51,41.84-2.46,7.21-2.26,14.93-4.25,22.16-1.77,7.22-5.29,14.01-5.99,21.52-2.15,19.26,3.9,38.29,10.33,56.24,9.05,25.56,21.71,49.59,34.6,73.41,4.67,8.66,9.3,17.35,14.52,25.69,10.24,16.12,22.75,31.08,37.98,42.66,7.93,6.05,16.3,11.49,24.42,17.27,24.33,17.71,52.92,30.32,82.93,34,13.44,1.59,27.05,1.17,40.48-.03,6.98-.61,13.98-1.23,20.92-2.21,15.82-2.37,31.07-7.8,46.24-12.77,5.86-2.07,11.26-5.14,16.55-8.21,4.08-2.29,8-4.5,11.84-7.02l.08-.05.03-.02Z"/>
  <path class="cls-1" d="M654.03,465.89c-9.64,1.36-19.59-7.42-20.59-17.01-.69-5.96,2.64-11.8,6.36-16.44,19.28-21.12,31.96-46.98,45.84-71.75,4.86-9.25,10.05-18.23,14.86-27.5,4.02-7.77,7.3-15.92,11.65-23.51,4.23-7.58,11.41-12.63,20.31-10.37,8.14,2.08,14.84,10.12,15.94,18.28,1.23,9.56-6.08,17.53-10.16,25.64-3.46,6.28-6.75,12.64-10.16,18.94-11.47,21.06-23.52,41.88-36,62.39-5.45,8.71-11.28,17.19-17.86,25.1-5.55,6.39-11.36,14.68-20.12,16.2h-.09l.02.03Z"/>
  <path class="cls-1" d="M788.96,343.49c8.25,2.05,14.2,10.5,15.24,18.71.48,3.65-.11,7.39-1.39,11.04-.78,2.27-1.76,4.5-2.8,6.7-9.61,19.2-19.68,38.21-29.89,57.11-5.85,10.84-12.54,21.19-18.78,31.81-3.56,6.05-6.75,12.32-10.39,18.3-4.95,8.29-12.45,19.14-23.44,15.88-11.76-3.74-15.73-17.54-11.33-28.4,1.96-5.4,5.1-10.34,7.94-15.32,3.88-6.57,7.4-13.33,11.19-19.95,7.61-12.69,14.87-25.6,21.67-38.7,6.76-13.35,13.86-26.57,18.96-40.69,1.75-4.39,3.79-8.98,7.13-12.26,4.08-4.04,10.37-5.57,15.82-4.27l.09.02-.02.02Z"/>
  <path class="cls-1" d="M123.29,463.17c1.42,3.8-1.72,5.73-4.82,7.13-3.69,1.68-8.13,2.11-12.4,2.68-3.53.42-7.09.15-10.58-.46-9.01-1.37-17.67-4.51-24.43-10.75-10.4-9.54-18.84-21.05-26.61-32.78-11.08-16.89-21.51-34.21-32.01-51.44-3.97-6.71-9.56-12.92-11.9-20.3-1.97-6.64,1.62-14.1,7.82-17.27,5.08-2.91,11.27-2.55,17.03-1,6.58,1.66,11.88,5.91,15.39,11.54,2.32,3.58,4.31,7.35,6.62,11.01,2.38,3.8,4.91,7.5,7.36,11.26,15.23,23.61,30.41,47.45,48.83,68.74,4.08,4.31,8.39,8.46,12.7,12.43,2.73,2.47,5.84,5.85,6.99,9.14l.02.06h0Z"/>
  <path class="cls-1" d="M112.35,357.49c7.92,10.11,14.03,21.61,21.67,31.98,5.88,7.82,12.1,15.39,18.22,23.03,3.31,4.14,7.05,7.91,10.6,11.84,16.22,17.34-5.48,25.56-20.88,20.45-5.72-1.9-10.63-5.83-14.91-10.06-21.76-22.26-37.96-49.16-57.08-73.57-3.12-4.12-6.73-7.94-10.21-11.68-5.57-5.89-9.08-12.26-6.23-20.28,2.4-7.65,9.87-11.37,17.67-10.23,5.88.69,11.54,2.66,16.16,6.28,6.46,4.86,10.52,12.16,15.05,18.65,3.1,4.74,6.48,9.08,9.89,13.51l.06.08h0Z"/>
</svg>