<svg width="290" height="413" viewBox="0 0 290 413" fill="none" xmlns="http://www.w3.org/2000/svg">
<g opacity="0.2" clip-path="url(#clip0_105_309)">
<path d="M197.465 262.315C194.786 260.799 191.475 262.419 188.405 263.167C186.719 263.652 185.036 264.132 183.354 264.636C176.75 266.519 170.5 269.398 164.16 271.994C161.86 272.963 159.304 273.844 157.395 275.444C154.071 278.134 154.934 282.276 156.123 285.92C157.829 291.313 159.47 296.726 160.945 302.187C164.483 316.078 169.131 329.743 171.529 343.895C172.516 349.922 172.975 356.031 173.06 362.135C173.107 366.285 173.098 370.458 172.469 374.555C171.874 378.2 170.848 382.894 167.359 384.5C164.9 385.548 162.251 384.266 160.761 381.987C159.601 380.234 159.194 378.006 159.152 375.833C159.107 372.434 159.595 369.01 159.605 365.6C159.668 357.693 158.824 349.782 157.287 342.034C154.47 328.421 150.583 315.056 146.782 301.695C145.878 298.621 144.968 295.536 144.041 292.486C143.612 291.071 143.055 289.473 142.378 288.365C141.177 286.214 139.126 285.611 137.026 286.392C134.134 287.447 130.794 289.799 129.725 292.926C129.248 294.306 129.201 295.846 129.445 297.484C132.233 309.246 135.642 320.897 138.258 332.712C139.885 339.797 141.415 346.905 142.792 354.038C144.291 361.871 144.782 369.846 144.908 377.822C144.931 380.043 144.936 382.272 144.766 384.482C144.594 386.448 144.307 388.259 143.387 389.911C140.868 394.427 135.489 392.735 133.185 388.766C131.408 385.82 131.084 382.13 130.96 378.694C130.836 374.255 130.718 369.761 130.324 365.309C130.013 361.812 129.4 358.352 128.674 354.919C127.186 348.026 125.755 341.115 124.271 334.225C122.379 325.685 120.421 317.145 118.127 308.695C117.785 307.514 117.402 306.415 116.924 305.545C116.179 304.17 115.2 303.397 113.98 303.389C111.809 303.448 110.021 305.045 108.938 306.964C107.324 309.839 108.161 313.26 109.168 316.301C113.78 330.009 117.068 344.144 118.637 358.53C119.452 365.009 120.275 371.486 120.349 378.019C120.39 381.82 120.147 385.669 119.164 389.344C118.606 391.478 117.405 394.342 115.301 395.001C112.993 395.797 110.268 393.685 109.009 391.613C107.548 389.309 107.065 386.856 107.048 384.017C106.991 379.67 107.481 375.298 107.327 370.95C107.294 368.134 107.051 364.696 106.228 362.228C105.365 358.967 104.937 355.139 104.346 351.646C102.85 343.683 101.435 335.66 99.1043 327.899C98.1072 325.099 96.7921 317.527 92.4814 320.68C90.0337 322.584 87.9909 325.424 85.7875 327.666C81.6217 332.156 77.3298 336.54 73.4884 341.32C69.1276 346.839 65.1271 352.645 60.2331 357.719C58.0029 360.116 55.8543 362.851 52.9232 364.251C48.2783 366.433 43.2036 362.952 42.2839 358.074C41.5072 354.439 42.1379 350.601 42.1293 346.882C42.1031 333.351 42.9827 319.839 44.1812 306.379C45.033 294.928 44.9162 283.449 45.3956 271.984C45.7854 263.059 46.7164 254.159 46.8229 245.24C46.9415 239.49 46.4023 230.112 54.1895 229.762C60.7774 229.64 64.46 235.986 68.054 240.615C73.7866 247.811 79.2496 255.21 84.314 262.9C89.5285 270.611 94.0454 278.769 97.9989 287.187C99.0913 289.388 100.759 291.644 103.345 291.083C105.678 290.603 107.736 288.616 108.51 286.338C109.015 284.77 108.895 283.226 108.378 281.482C107.998 280.187 107.384 278.84 106.806 277.579C100.397 263.569 92.6173 250.226 83.4743 237.818C82.3775 236.308 81.2634 234.814 80.0715 233.379C77.7043 230.47 74.6382 227.981 73.2705 224.526C71.7092 220.616 74.7688 216.982 78.8884 217.188C82.6043 217.281 85.7352 219.811 88.2151 222.462C96.6149 232.143 103.764 242.919 110.004 254.127C111.99 257.751 113.881 261.43 115.759 265.112C116.797 267.137 117.813 269.174 118.824 271.183C119.955 273.458 121.663 276.259 124.382 276.09C127.086 275.932 130.819 273.447 132.736 271.533C135.146 269.121 134.871 265.852 133.8 262.774C132.842 259.966 131.796 257.122 130.79 254.316C126.867 243.663 122.922 232.811 116.255 223.541C114.265 220.625 111.521 217.931 110.325 214.609C108.704 210.163 112.096 207.297 116.393 206.908C119.737 206.549 123.102 206.844 126.463 206.872C133.538 207.038 140.594 206.793 147.638 206.258C151.086 205.977 154.516 205.601 157.899 204.938C160.376 204.447 162.813 203.788 165.259 203.136C169.957 201.861 174.553 200.221 178.956 198.073C180.811 197.178 182.662 196.267 184.559 195.462C189.415 193.324 194.566 191.843 199.275 189.405C201.715 188.153 204.032 186.669 206.304 185.137C210.966 181.826 217.001 180.402 222.008 183.787C224.277 185.22 224.588 187.394 223.834 189.777C223.214 191.802 222.189 193.982 221.486 196.121C218.352 206.572 215.252 217.114 213.942 227.984C213.743 229.558 213.56 231.132 213.406 232.71C212.968 237.164 212.393 242.507 218.011 242.707C221.479 242.738 226.541 242.291 228.635 239.294C230.612 236.41 230.435 232.407 230.956 229.012C231.919 220.382 233.192 211.717 236.703 203.719C237.749 201.287 238.86 198.842 240.463 196.753C242.794 193.593 246.574 191.773 250.36 193.343C254.502 195.027 255.104 198.618 253.485 202.579C253.004 203.829 252.415 205.093 251.835 206.318C248.535 213.308 246.993 220.978 245.756 228.573C245.333 232.289 243.618 238.417 248.362 239.623C250.815 240.078 253.57 239.386 255.68 238.064C257.682 236.8 258.892 234.551 259.51 232.242C261.011 225.255 262.076 218.161 263.791 211.213C264.823 207.057 266.092 202.632 269.674 200.164C273.75 197.394 279.634 198.716 283.167 201.895C285.78 204.081 287.507 207.126 289.367 209.951C294.884 218.199 301.826 225.576 309.82 231.457C313.314 234.058 317.428 235.495 321.532 236.837C324.348 237.783 327.368 239.359 328.421 242.136C329.257 244.375 328.141 246.82 325.891 247.792C324.738 248.32 323.454 248.471 322.188 248.501C319.831 248.542 317.408 248.134 314.964 248.189C312.181 248.216 309.441 248.856 306.849 249.954C299.676 253.121 292.875 258.479 290.173 266.02C289.456 267.901 288.905 269.86 288.401 271.813C286.102 281.055 284.022 290.401 283.236 299.906C282.992 302.402 282.854 305.239 281.822 307.486C279.664 312.188 273.925 310.082 271.105 306.997C268.771 304.594 267.587 301.229 266.755 297.999C263.548 285.546 260.482 272.936 258.933 260.146C258.657 258.217 258.143 256.148 256.669 254.935C254.287 253.085 250.418 253.062 247.695 254.316C246.374 254.966 245.576 256.095 245.267 257.584C244.977 258.879 245.035 260.521 245.129 261.948C245.657 269.339 246.781 276.745 248.593 283.94C250.733 292.124 254.591 299.752 258.617 307.16C259.837 309.308 261.321 311.429 262.39 313.594C264.242 317.074 264.254 321.129 260.041 322.541C256.297 323.579 252.79 320.874 250.507 317.998C247.305 313.967 245.148 309.186 242.828 304.611C239.648 298.132 236.355 291.658 234.543 284.645C233.57 281.048 232.928 277.371 232.465 273.675C232 270.017 231.664 266.349 231.237 262.692C230.833 258.989 229.703 255.418 225.389 255.319C222.472 255.303 218.487 255.92 216.185 257.291C213.091 259.112 213.303 263.169 213.594 266.476C213.82 269.368 214.1 272.263 214.435 275.146C215.481 283.574 216.295 292.043 217.847 300.401C219.578 309.655 221.212 319.131 225.409 327.631C227.256 331.441 230.382 334.552 232.815 337.907C234.017 339.689 234.97 341.673 234.68 343.744C234.075 347.528 229.681 348.192 226.535 346.676C218.969 343.32 211.782 329.363 209.359 321.608C207.939 317.171 206.936 312.618 205.927 308.078C203.26 296.544 201.622 284.823 200.416 273.051C199.914 269.996 200.132 264.025 197.466 262.299L197.443 262.287L197.465 262.315ZM204.798 202.677C204.013 201.858 201.85 202.565 200.62 203.055C192.87 206.179 185.024 209.204 177.182 212.087C172.025 213.722 166.808 215.297 161.528 216.445C152.51 218.1 143.318 218.75 134.158 218.935C128.235 219.156 129.378 222.013 131.77 225.956C137.712 236.272 141.648 247.58 145.654 258.745C147.361 263.679 149.42 264.515 154.218 262.453C165.212 257.844 176.436 253.791 187.915 250.554C190.261 249.848 192.705 249.355 195.005 248.536C197.486 247.642 199.055 245.88 199.641 243.305C200.285 240.439 200.286 237.377 200.412 234.436C200.504 231.279 200.882 228.152 201.3 225.021C201.842 220.14 202.859 215.313 204.099 210.573C204.442 208.712 206.156 203.941 204.812 202.686L204.797 202.673L204.798 202.677ZM90.2261 301.7C90.6136 300.069 90.1153 298.314 89.4781 296.764C84.2816 284.338 77.7384 272.828 69.9287 261.765C68.5491 259.823 67.0743 257.83 65.6451 256.051C64.8053 255.113 62.9354 252.381 62.1276 253.057C61.7337 253.352 61.4968 254.312 61.3054 255.632C61.1581 256.656 61.026 257.863 60.87 259.031C59.0996 275.814 60.0292 292.752 58.8477 309.576C58.6395 313.665 58.2781 317.74 57.7727 321.805C57.2835 326.164 57.0864 330.479 56.8372 334.881C56.8117 336.304 56.3599 340.205 58.4823 338.259C59.4946 337.295 60.4649 335.925 61.3932 334.759C62.5558 333.271 63.7177 331.799 64.9107 330.342C69.1289 325.115 74.0942 320.515 78.6502 315.564C81.5592 312.474 84.3294 309.193 87.2716 306.17C88.5096 304.903 89.8197 303.484 90.2212 301.737L90.2269 301.703L90.2261 301.7ZM276.726 215.565C274.95 215.791 274.697 220.323 274.353 221.864C273.033 229.739 271.418 237.581 271.146 245.582C270.919 251.023 270.642 256.503 271.369 261.914C271.678 264.165 271.781 266.647 272.281 268.812C273.346 272.867 274.987 266.104 275.36 264.837C276.388 261.333 277.393 257.767 279.259 254.604C282.588 248.936 289.578 244.508 295.232 241.245C298.276 239.568 299.139 238.064 296.381 235.422C290.231 229.826 284.622 223.796 279.441 217.411C278.736 216.605 277.695 215.507 276.75 215.56L276.73 215.564L276.726 215.565ZM108.224 376.426C108.133 376.358 108.069 376.468 108.035 376.543C107.891 376.848 107.932 377.648 108.103 377.858C108.223 378.038 108.336 377.846 108.375 377.688C108.465 377.337 108.457 376.709 108.238 376.435L108.223 376.422L108.224 376.426Z" fill="black"/>
<path d="M40.9697 129.016C38.7552 125.595 36.5885 122.042 34.403 118.603C33.4043 117.054 32.4187 115.53 31.5573 113.914C28.0409 107.65 25.6253 100.523 25.1954 93.2832C24.9669 89.4569 25.2862 85.6059 25.5045 81.7785C25.7859 77.7317 25.8806 73.6439 26.7281 69.6663C27.622 65.4035 29.8191 61.5545 31.3503 57.4771C32.3836 54.7956 33.2342 52.052 34.063 49.3005C35.6303 43.7093 38.3989 38.446 42.1521 34.0076C44.4534 31.369 47.4467 29.3033 50.0228 26.8877C52.0579 25.0359 53.96 23.0432 56.0098 21.2047C60.4573 17.2045 65.6622 14.0731 71.1204 11.7049C74.9099 10.0577 78.8418 8.76872 82.736 7.3896C87.3939 5.75708 92.0358 4.04235 96.8172 2.79613C103.884 0.969544 111.272 0.575237 118.556 0.688599C127.216 0.92534 135.76 2.57369 144.195 4.41766C146.836 5.02345 149.417 5.84393 151.978 6.71278C155.812 8.04219 159.789 9.02292 163.496 10.6894C168.791 13.1656 173.443 16.5012 178.492 19.3864C180.961 20.8701 183.452 22.3172 185.926 23.7877C189.863 26.1571 193.602 28.845 197.334 31.522C199.945 33.4618 202.182 35.823 204.434 38.1571C208.809 42.5616 213.126 47.0627 217.352 51.6179C221.21 55.615 224.274 60.2327 227.103 65.0055C228.268 66.9082 229.383 68.849 230.308 70.8793C232.495 75.7724 233.885 80.9618 235.321 86.1342C236.633 90.7538 237.347 95.4894 237.72 100.274C237.914 102.515 238.013 104.77 237.888 107.02C237.441 113.045 236.369 119.137 233.716 124.601C231.83 128.609 229.691 132.484 227.431 136.28C225.231 139.971 223.171 143.793 220.455 147.121C218.495 149.592 216.153 151.747 214.099 154.131C211.765 156.918 210.043 160.094 207.25 162.458C204.917 164.388 202.292 166.025 199.751 167.678C195.929 170.12 192.036 172.449 188.094 174.694C182.78 177.705 177.447 180.723 171.796 183.035C167.391 184.821 162.887 186.367 158.335 187.728C153.853 189.074 149.226 189.815 144.638 190.569C143.036 190.835 141.417 191.018 139.797 191.043C136.863 191.107 133.956 190.703 131.039 190.366C127.2 189.976 123.392 189.344 119.622 188.51C117.429 188.033 115.232 187.557 113.045 187.05C108.499 185.985 104.102 184.342 99.8025 182.559C94.7753 180.477 90.1837 177.707 85.3748 175.137C83.8682 174.344 82.3102 173.642 80.7885 172.877C78.2117 171.572 75.7387 170.048 73.5356 168.176C67.7565 163.259 63.0618 157.353 58.0975 151.649C57.0835 150.526 56.1777 149.75 55.2382 148.738C54.2021 147.647 53.4038 146.336 52.4821 145.101C51.4938 143.753 50.4392 142.377 49.3731 141.089C48.0461 139.481 46.7379 137.509 45.509 135.61C43.9838 133.42 42.4031 131.236 40.9977 129.035L40.9752 129.003L40.9697 129.016ZM190.522 155.477C192.231 153.851 193.822 152.012 195.624 150.424C197.653 148.687 199.901 147.184 201.826 145.309C206.085 141.321 209.783 136.763 212.475 131.588C214.33 128.154 216.226 124.725 217.373 121.014C218.961 115.488 220.683 109.79 220.261 104.003C220.043 101.007 219.46 98.0373 218.945 95.0828C218.597 93.0302 218.264 90.9949 217.814 88.966C217.18 86.0022 216.515 83.028 215.96 80.0365C215.516 77.6776 214.983 75.3236 214.107 73.0848C212.208 68.2497 209.03 64.0277 206.221 59.6774C204.171 56.6017 201.881 53.67 199.158 51.1673C197.225 49.3685 195.106 47.7642 192.991 46.1794C183.794 39.3736 175.029 31.7532 164.644 26.802C160.56 24.9565 156.366 23.3598 152.203 21.7085C147.038 19.6906 141.874 17.5953 136.392 16.6499C128.983 15.4074 121.282 15.1311 113.828 16.257C111.523 16.6746 109.281 17.4132 107.077 18.2052C103.764 19.415 100.423 20.5449 97.1389 21.8222C93.5535 23.2431 89.9519 24.6225 86.2996 25.8654C80.7012 27.7612 75.3378 30.2207 69.944 32.6698C65.9668 34.4387 61.9475 36.4309 59.1467 39.8484C55.8603 43.9691 52.8435 48.3909 50.2912 52.9868C49.1462 55.1335 48.1495 57.353 47.1394 59.567C44.5144 65.3832 42.133 71.4082 41.1009 77.7284C40.6836 80.7374 41.3468 83.7444 41.1152 86.7256C40.9689 89.6862 40.1046 92.6111 40.3994 95.6041C41.0165 103.307 44.828 110.298 48.7065 116.837C54.1879 126.157 60.9672 134.605 67.8208 142.952C70.3061 145.989 72.778 149.039 75.4545 151.909C80.6866 157.443 86.7201 162.351 93.5628 165.73C97.1273 167.497 100.818 168.992 104.436 170.639C115.308 175.728 127.461 178.497 139.495 177.663C144.879 177.266 150.179 176.07 155.348 174.582C158.036 173.814 160.731 173.041 163.375 172.131C169.391 170.004 174.953 166.723 180.519 163.627C182.657 162.372 184.54 160.761 186.379 159.158C187.804 157.953 189.172 156.79 190.485 155.513L190.512 155.487L190.522 155.477Z" fill="black"/>
<path d="M252.476 161.775C248.803 163.038 244.24 160.355 243.122 156.677C242.4 154.396 243.262 151.857 244.368 149.759C250.319 140.03 253.326 128.945 256.886 118.196C258.089 114.206 259.442 110.297 260.623 106.304C261.609 102.957 262.276 99.5183 263.405 96.2173C264.488 92.9293 266.917 90.408 270.575 90.6181C273.921 90.8153 277.154 93.4548 278.203 96.5659C279.409 100.215 277.15 103.889 276.166 107.373C275.287 110.094 274.48 112.833 273.622 115.558C270.725 124.672 267.582 133.736 264.248 142.711C262.773 146.534 261.132 150.295 259.154 153.891C257.464 156.813 255.817 160.499 252.501 161.758L252.466 161.765L252.476 161.775Z" fill="black"/>
<path d="M296.052 103.63C299.439 103.807 302.41 106.664 303.439 109.799C303.904 111.192 303.956 112.701 303.731 114.227C303.598 115.174 303.383 116.122 303.142 117.062C300.833 125.306 298.329 133.512 295.761 141.684C294.291 146.372 292.455 150.93 290.816 155.561C289.88 158.199 289.105 160.895 288.132 163.512C286.822 167.133 284.706 171.949 280.154 171.506C275.265 170.933 272.664 165.832 273.565 161.247C273.924 158.984 274.779 156.813 275.514 154.648C276.536 151.782 277.403 148.868 278.386 145.99C280.405 140.445 282.27 134.841 283.941 129.197C285.578 123.458 287.357 117.745 288.285 111.831C288.638 109.979 289.089 108.028 290.149 106.491C291.441 104.6 293.789 103.524 296.022 103.62L296.058 103.621L296.052 103.63Z" fill="black"/>
<path d="M44.3861 200.943C45.2302 202.323 44.1465 203.317 43.0384 204.1C41.7203 205.037 40.0138 205.542 38.3845 206.089C37.0337 206.521 35.6188 206.685 34.2056 206.711C30.5727 206.858 26.9428 206.285 23.8223 204.355C19.0259 201.408 14.8481 197.542 10.9159 193.539C5.29639 187.767 -0.101146 181.778 -5.51928 175.829C-7.58265 173.503 -10.2427 171.496 -11.7184 168.784C-12.9931 166.334 -12.1521 163.141 -9.96383 161.43C-8.19454 159.906 -5.74273 159.578 -3.36918 159.748C-0.666118 159.899 1.73182 161.161 3.53319 163.099C4.71314 164.324 5.77823 165.649 6.96032 166.907C8.18044 168.214 9.45174 169.471 10.6962 170.757C18.4504 178.845 26.2025 187.027 35.0303 193.965C36.955 195.343 38.9576 196.641 40.9465 197.869C42.203 198.629 43.6772 199.716 44.3769 200.917L44.3893 200.939L44.3861 200.943Z" fill="black"/>
<path d="M32.0941 160.402C35.9623 163.759 39.2268 167.798 43.0049 171.279C45.9005 173.894 48.9104 176.386 51.8863 178.913C53.4965 180.283 55.247 181.475 56.9353 182.744C64.6022 188.303 56.7254 193.166 50.3062 192.333C47.9218 192.023 45.7009 190.856 43.704 189.525C33.4944 182.46 25.111 173.158 15.7725 165.051C14.2383 163.675 12.5349 162.453 10.8885 161.253C8.26055 159.369 6.40311 157.142 6.91178 153.786C7.27223 150.609 9.91628 148.587 13.0578 148.442C15.4132 148.266 17.7794 148.608 19.8633 149.675C22.7618 151.088 24.9051 153.638 27.1711 155.835C28.7445 157.456 30.3972 158.899 32.0685 160.374L32.0981 160.401L32.0941 160.402Z" fill="black"/>
</g>
<defs>
<clipPath id="clip0_105_309">
<rect width="320.907" height="390.953" fill="white" transform="translate(-39 28.9762) rotate(-10.9535)"/>
</clipPath>
</defs>
</svg>
