<svg width="79" height="15" viewBox="0 0 79 15" fill="none" xmlns="http://www.w3.org/2000/svg">
<g clip-path="url(#clip0_103_242)">
<path d="M59.5934 12.612C59.3623 12.7567 58.9709 13.0898 58.6447 13.0424L58.641 13.1847L58.0557 13.0898L58.1284 13.2807L57.9178 13.2747C57.8638 13.1616 57.737 13.0181 57.6177 12.9318C57.5376 12.8746 57.4239 12.9318 57.3195 12.7835C55.4519 10.1499 56.3988 6.11084 57.7668 3.42623C58.0017 2.96542 58.4192 2.22862 58.8367 1.79942C58.9392 1.69486 58.9206 1.44439 59.2262 1.52828C59.1014 1.17082 59.0287 0.801204 59.7574 0.967776C60.0128 1.02614 60.0668 1.138 60.3986 1.05045L60.4061 1.33253L60.7658 1.3374C60.6111 1.55017 60.8292 1.59516 60.8814 1.71796C60.9298 1.82982 60.872 2.42194 60.8217 2.54474C60.7844 2.63593 60.5794 2.78669 60.5123 2.91557C59.3623 5.08709 58.531 6.95464 58.4192 9.2903C58.3987 9.73652 58.5385 10.1852 58.4229 10.6059L58.6932 10.5426L60.6577 9.03011L60.6074 9.18817L59.5953 10.0575L59.6307 10.128C60.5589 9.50429 61.2336 8.75046 62.0109 8.04891C62.0388 7.95529 61.9568 7.95651 61.8636 8.00028C61.5878 8.12916 61.4219 8.5158 61.0957 8.6459C61.0416 8.65319 61.0454 8.59605 61.0603 8.57538C61.146 8.45379 61.6213 8.10849 61.7797 7.94556C63.6306 6.03789 64.6464 4.37095 65.3863 2.17634C65.4404 2.01341 65.6678 1.32767 65.8579 1.28755L66.0405 1.32159L66.1132 1.52828L66.4785 1.38481V1.5757C66.678 1.4298 66.7115 1.49181 66.8718 1.47722C66.9464 1.47114 66.8681 1.3374 67.0638 1.38481L66.9967 1.54895L67.2017 1.6292L67.1384 1.81401L67.3937 1.71917C67.6658 1.84805 67.526 2.05475 67.5801 2.21159C67.5913 2.24442 67.6994 2.23956 67.7199 2.2809C67.9752 2.80858 66.5885 5.32175 66.2008 5.95521C65.9697 6.33213 65.664 6.69688 65.4199 7.07015L63.9176 8.78815C64.022 8.80274 64.0965 8.77478 64.1879 8.75046C65.1533 8.48905 66.2008 8.20697 67.0992 7.87869C67.3546 7.65011 67.3788 7.36195 67.5279 7.10784C68.2418 5.90536 69.3303 4.18493 69.1905 2.88639C69.1159 2.18363 68.4822 1.72161 69.1737 1.01641C69.6248 0.556817 69.731 0.650438 70.5213 0.776886C72.9219 1.1611 74.4913 1.46871 77.0634 1.43345C77.2349 1.43102 77.4288 1.36779 77.5723 1.37995C77.6767 1.38968 78.0811 1.71188 78.411 1.62434L78.3402 1.95627C78.6999 1.91128 78.7596 1.99153 78.9981 2.12405L78.7857 2.22254L78.8528 2.4341H78.5601L78.9255 2.57878L78.631 2.69794L78.9236 2.96056H78.5583L78.5937 3.10646C78.3365 3.31073 77.8947 3.14902 77.5723 3.15023C77.3598 3.15023 77.0579 3.22805 76.823 3.22927C74.9871 3.23778 73.1736 2.99825 71.3805 2.76967C71.4383 3.03108 71.4812 3.29371 71.4569 3.55998C71.4029 4.11198 71.1103 4.92781 70.8493 5.45671C70.6238 5.91266 70.3815 6.4683 70.0777 6.95951C70.0199 7.05434 69.9192 7.12608 69.8428 7.2124C70.0031 7.28657 71.127 7.00693 71.3805 6.951C71.662 6.88899 71.9564 6.81725 72.2453 6.7516C73.7793 6.40143 75.2816 5.99777 76.8398 5.68894C77.0113 5.69623 77.1995 5.72541 77.3505 5.77891C77.6375 5.87983 77.6133 6.09017 77.9693 5.97223L77.6767 6.30659C78.0401 6.26525 78.411 6.36617 78.1165 6.59232L78.2675 6.66284C78.2731 6.88291 77.8724 6.86224 77.8947 6.90358L78.1874 6.92789L78.042 7.11878L78.48 7.09447C77.9656 7.57959 77.2442 7.51637 76.5043 7.66835C75.0598 7.96623 73.6656 8.41853 72.2547 8.76627C71.3507 8.98877 70.3069 9.15777 69.3992 9.38879C69.2333 9.43134 68.7021 9.57481 68.594 9.62709C68.3909 9.72679 68.115 10.2922 68.005 10.4855C67.8951 10.6788 67.1868 12.0211 67.2744 12.0868C67.4999 12.0248 67.7441 12.0588 67.9622 12.0345C69.3918 11.8752 71.3675 11.418 72.771 11.1104C72.9834 11.0642 73.0915 10.8916 73.332 10.8551C73.811 10.7846 74.4037 10.9086 74.8902 10.8454L74.838 10.967C75.0505 11.012 74.9852 11.1287 75.0318 11.1554C75.1064 11.198 75.2369 11.1992 75.3077 11.2417C75.4177 11.3074 75.4568 11.4861 75.4903 11.5044C75.5574 11.5384 75.8016 11.4922 75.8333 11.5895C75.6898 11.8886 75.9265 12.3093 75.2629 12.3324L75.248 12.5123C75.1716 12.5768 74.2416 12.5999 74.0645 12.6242C73.4662 12.7081 72.8325 12.9221 72.2752 13.0339C72.1317 13.0631 71.962 13.0376 71.8129 13.0436L71.8875 13.1385C71.8185 13.1677 71.1997 13.1664 71.0599 13.1883C71.0096 13.1968 71.0227 13.2552 70.9481 13.2783C70.8624 13.3051 70.676 13.2357 70.7133 13.3768L70.6406 13.282L70.128 13.3768L70.2025 13.4716C70.0982 13.4716 69.9919 13.4643 69.8894 13.4838C68.7916 13.6808 67.7124 13.8279 66.6314 14.0844C66.3704 14.1464 66.3257 14.2948 65.9958 14.3422C65.7367 14.3787 65.7013 14.2875 65.5503 14.2875C65.4236 14.2875 65.3062 14.3738 65.2558 14.3714C65.2353 14.3714 64.9576 14.1902 64.9483 14.1768C64.9017 14.1051 64.9446 14.0212 64.8924 13.9495C64.8402 13.8777 64.6538 13.8789 64.6333 13.8206C64.5271 13.5178 64.3761 13.1932 64.4152 12.8771C64.4208 12.8284 64.7582 12.3543 64.816 12.2302C65.0751 11.6782 65.2726 11.1141 65.5131 10.5597C65.3975 10.5451 65.3435 10.5669 65.254 10.6046C65.0806 10.6776 64.3295 11.0533 64.2177 11.0752C63.9921 11.1189 63.1888 11.0703 63.0584 10.9414C63.0099 10.894 63.0472 10.8053 63.0024 10.7639C62.9391 10.7056 62.7694 10.68 62.6949 10.5536C62.6371 10.4551 62.7266 10.3323 62.6427 10.2314L62.4358 10.2241L62.5458 10.0806L61.9587 10.5609L61.9959 10.798C61.5188 10.787 61.3604 11.1627 61.1162 11.3475C60.6707 11.6868 60.1544 11.9992 59.7258 12.3506L60.0557 12.2315C60.1358 12.364 59.7332 12.516 59.5785 12.6132L59.5431 12.4698C59.4536 12.5318 59.3306 12.5695 59.3604 12.6606L59.5785 12.6132L59.5934 12.612ZM59.7407 1.05167C59.504 0.99574 59.4294 1.01276 59.448 1.19392H59.5561L59.7407 1.05167ZM59.5934 10.1754C59.5207 10.1268 59.2989 10.2691 59.3753 10.3177C59.4518 10.3663 59.6698 10.2241 59.5934 10.1754Z" fill="#FFF0B8"/>
<path d="M15.3042 0.609097C15.4011 0.645572 15.9193 0.651652 15.9454 0.668674C15.7105 0.905765 16.2156 0.96899 16.2399 1.03708C16.3051 1.21581 15.9994 1.48573 16.4561 1.60002C16.251 1.69485 16.3405 1.85413 16.2548 1.99396C16.156 2.15323 15.7702 2.34534 15.6192 2.48638C15.3303 2.75751 15.0805 3.12227 14.855 3.42137C12.8215 6.12178 11.8057 8.7152 10.8645 11.6223C10.7675 11.9226 10.6725 12.2059 10.6017 12.4953C10.5812 12.5792 10.5662 12.9002 10.5066 12.9366C10.4768 12.9549 10.365 12.933 10.3258 12.9561C10.2662 12.9901 10.2773 13.1494 10.0835 13.2066C9.61381 13.3464 9.63431 13.0449 9.47402 12.9135C9.32305 12.7895 9.08634 12.8041 9.07143 12.792C9.0472 12.7725 8.67815 12.3919 8.66324 12.3676C8.46567 12.0588 8.62037 11.5907 8.71356 11.2624C9.03788 10.1353 9.53553 8.96567 10.0071 7.85559C10.0761 7.6951 10.1189 7.52123 10.1562 7.35709C9.34542 7.83857 8.78253 8.42096 7.96056 8.90974C7.81704 8.99485 6.79005 9.55657 6.71177 9.57603C6.50488 9.62952 6.33527 9.57603 6.17684 9.60156C6.11533 9.61129 6.1377 9.70612 6.09483 9.69761C6.06501 9.69153 5.586 9.50794 5.56363 9.49335C5.44248 9.4131 5.44248 9.19546 5.17408 9.13832L4.70252 8.26412C4.29434 8.61064 4.11168 9.08239 3.81719 9.45444C3.74822 9.54198 3.55997 9.62709 3.46492 9.74989C3.01572 10.3299 2.1658 11.8375 1.4799 12.1804C1.23014 12.3056 0.848046 12.4369 0.581513 12.2643C0.529325 12.2302 0.534916 12.1476 0.471545 12.0977C0.424948 12.06 0.292613 12.0564 0.236697 11.9895C0.0913159 11.8108 0.229242 11.6405 0.203148 11.5433C0.188237 11.4898 0.0130334 11.4983 -0.00187749 11.4436C-0.0167884 11.3889 0.171462 10.9195 0.219923 10.832C1.33638 8.8076 2.92626 6.74673 4.37075 4.83541C4.78267 4.28949 5.24304 3.77153 5.61768 3.22318C5.88235 2.83654 6.28122 1.90641 6.86647 1.69729C7.30262 1.54166 7.2672 1.69485 7.48155 1.76659C7.71826 1.84684 8.15254 1.9283 8.32774 2.0742C8.48244 2.20187 8.74152 2.58972 8.75643 2.75143C8.7788 2.9946 8.64833 3.07728 8.5775 3.29127C8.26251 4.24085 7.87669 5.20868 7.5356 6.14732C7.50578 6.22756 7.48528 6.37468 7.5561 6.44763C8.06308 6.01722 8.62969 5.61355 9.11802 5.17342C10.8384 3.62685 12.0741 2.29062 14.0349 0.832814C14.2884 0.644357 14.4822 0.260146 14.9352 0.339177C15.1271 0.372005 15.2371 0.583564 15.2986 0.606665L15.3042 0.609097Z" fill="#FFF0B8"/>
<path d="M54.7101 1.4178C55.122 1.64274 55.2245 1.76189 55.5656 2.03059C55.6961 2.13273 55.8713 2.21662 56.0055 2.31753L55.8582 2.36374C56.1285 2.67256 56.8871 3.565 56.7957 3.88842C56.7864 3.92368 56.6876 3.98082 56.6653 3.96502L56.5926 3.79723C56.4491 3.71942 56.2105 3.92854 56.4826 3.96502C56.8181 4.01 56.4304 4.19846 56.3876 4.286C56.2888 4.49027 56.3577 4.83192 56.2813 5.02889C56.0483 5.63682 55.3997 6.01617 55.0922 6.54506C54.9934 6.71407 55.0605 6.85997 55.0456 6.87334C55.0269 6.8928 54.8163 6.9086 54.7418 7.03505C54.6952 7.1153 54.7846 7.20649 54.7324 7.30983C54.6784 7.42169 54.4268 7.49464 54.4678 7.64298L54.2497 7.54814C54.136 7.82657 53.8769 8.04664 53.6439 8.27644C53.4259 8.49286 53.1519 8.81628 52.9282 9.00595C52.8164 9.10201 52.4753 9.23575 52.343 9.3391L52.6356 9.38651C52.5219 9.5008 52.3709 9.3853 52.2311 9.45339C52.0764 9.52877 51.918 9.82787 51.7558 9.95918C51.4054 10.2425 50.755 10.4796 50.4511 10.8297C50.6897 11.3538 50.878 11.9009 51.1352 12.4201C51.4185 12.9903 52.0746 13.6943 51.9478 14.3095C51.9236 14.4226 51.4315 14.5089 51.685 14.7606H51.2452V15.0001L50.9152 14.8092C50.453 15.208 49.864 14.6281 49.8528 14.284C49.6273 14.2451 49.6907 14.4797 49.4521 14.4749C49.18 14.4335 48.7047 13.056 48.6264 12.8152C48.591 12.707 48.6357 12.5927 48.6059 12.4942C48.5537 12.3277 48.3468 12.1793 48.3916 11.9897C48.5649 11.9702 48.5314 12.0006 48.5724 12.0845C48.6917 12.3277 48.7289 12.6219 48.837 12.8602C48.9116 13.0219 49.0439 13.2785 49.1613 13.4694C49.1725 13.4864 49.3925 13.8305 49.4148 13.6396L48.6842 11.7039C48.4959 11.6833 48.4605 11.8085 48.4643 11.8948C47.8827 11.7793 47.2453 12.065 46.6544 12.1222C44.1867 12.3605 42.6807 10.6583 42.321 9.2856C42.1252 8.53906 42.4887 7.38886 42.8037 6.64963C42.9416 6.32378 43.2678 5.98334 43.2659 5.63682C43.3591 5.56387 43.5045 5.86297 43.6723 5.68545C43.7617 5.59183 43.6201 5.49821 43.6685 5.39973C43.6909 5.35596 44.0898 4.9146 44.1531 4.85381C44.2165 4.79302 44.4271 4.73465 44.429 4.70426C44.429 4.68967 44.2351 4.55592 44.3638 4.44163L44.4364 4.63252C44.6266 4.76748 45.3889 3.7948 45.4988 3.72549C45.5771 3.85559 45.4057 4.02581 45.3423 4.14983C45.3013 4.23129 45.2733 4.30303 45.4262 4.20454C46.4476 3.13945 47.8622 1.16004 49.9125 0.824465C51.5061 0.563057 53.4482 0.728413 54.7119 1.4178H54.7101ZM52.6356 7.02289C52.7064 6.97912 52.8947 6.85024 52.9282 6.80769C53.0401 6.66543 52.6002 6.87577 52.7101 6.68975H53.0028L53.0102 6.50007L53.2227 6.49764C53.2488 6.36876 53.2264 6.37727 53.0755 6.33107C53.1948 6.28365 53.1985 6.17058 53.2637 6.11465C53.3159 6.07088 53.411 6.10735 53.4743 6.06723C53.8732 5.81676 54.4324 4.38327 54.4659 3.98812C54.5144 3.40937 54.3559 2.83063 53.4408 2.60448C53.2768 2.56435 52.7269 2.45249 52.5797 2.44277C52.4119 2.43183 52.3542 2.52423 52.2367 2.52788C51.9553 2.53639 51.6235 2.5145 51.3309 2.56071C49.7634 2.81117 47.3553 4.52796 47.9405 5.66478C47.5416 5.72801 48.0542 6.09884 48.0225 6.11465L47.7299 6.13897C47.9741 6.47211 48.3301 6.61801 48.5705 6.97669C49.0066 7.62596 49.2732 8.43572 49.6832 9.11903C49.7112 9.16644 49.7112 9.21994 49.7056 9.26979C50.002 9.30384 50.0467 9.11173 50.2144 9.00474C50.33 8.93178 50.4754 8.88801 50.5742 8.80898C50.6729 8.72995 50.6823 8.64849 50.7307 8.60107C50.522 8.70442 50.2778 8.77859 50.1082 8.93543L50.0728 8.86491L51.1706 8.12324C51.2228 8.30562 50.9171 8.36763 50.8016 8.4807C50.7531 8.52812 50.7494 8.58405 50.7326 8.60107C51.152 8.39438 52.5704 7.3378 52.6375 7.02411L52.3448 7.16758L52.6002 6.88185C52.6636 6.88915 52.6431 6.99006 52.6356 7.02532V7.02289ZM47.0701 6.35296C46.9452 6.15599 46.6246 6.06845 46.4103 5.89944C46.1959 5.73044 46.058 5.46052 45.8791 5.29152C45.8194 5.23559 45.8194 5.18695 45.6796 5.20762C45.7654 5.58454 45.3963 6.00401 45.2435 6.38092C44.8968 7.23567 44.2911 8.86613 44.6881 9.69899C44.7608 9.85097 45.2099 10.3142 45.4373 10.3568C45.6293 10.3932 46.4979 10.3799 46.7234 10.3556C47.1763 10.3057 47.454 10.0455 47.8753 10.0321L47.2882 8.74333L47.1428 8.83816L47.2882 8.55244C47.2211 8.54879 47.1204 8.55365 47.0701 8.52812C46.9154 8.45031 46.4121 7.12867 46.483 7.07031L46.701 7.11773C46.5594 6.90495 46.4457 6.78945 46.5594 6.54628L46.8483 6.54385L46.7756 6.30554L47.0682 6.35296H47.0701ZM42.4552 9.12389V8.83816H42.3843V9.12389H42.4552ZM49.6329 14.1879C49.6534 14.0992 49.6329 14.0226 49.4875 13.997C49.467 14.0858 49.4875 14.1624 49.6329 14.1879Z" fill="#FFF0B8"/>
<path d="M34.7667 0.955562L34.694 1.09782L35.6465 1.14645L35.5067 1.35193C35.831 1.53796 35.8422 1.50148 35.8384 1.78356C35.8384 1.81639 35.749 1.85773 35.7508 1.88569C35.7508 1.95743 36.0248 2.13616 36.0025 2.28084C35.9205 2.82676 34.996 2.68937 34.53 2.91187C33.9466 3.1903 33.2551 3.63044 32.6512 3.94413C30.4351 5.09433 29.0801 5.89801 27.3318 7.35339C27.2069 7.45795 26.8621 7.4847 27.1957 7.68167C27.5685 7.67559 27.9301 7.6306 28.301 7.59899C28.4892 7.58197 28.7241 7.68532 28.8378 7.49929L28.6178 7.45187C29.4025 7.41661 30.1741 7.17223 30.9607 7.30719L30.888 7.21357L31.3279 7.16493L31.1825 7.25977C31.4434 7.29016 31.4677 7.24883 31.5851 7.11751L31.6205 7.21235L32.2803 7.16493L32.0622 7.0701C32.6792 7.13575 33.982 6.76978 34.4461 7.02146C34.6512 7.13332 34.8059 7.17587 34.9587 7.25855C35.6931 7.66222 35.7695 8.41969 35.2439 8.92792C35.0258 9.13948 34.8599 9.04708 34.6512 9.11395C33.7882 9.38751 32.6065 10.1037 31.7678 10.4818C29.8126 11.3608 27.5946 12.1524 25.7307 13.0886C25.3076 13.3014 24.8416 13.598 24.3943 13.8035C23.8687 14.0455 23.317 14.1233 22.6926 14.1865C22.8249 13.992 22.5863 13.9871 22.4 13.8752C22.3403 13.7403 22.6926 13.8655 22.618 13.733C22.536 13.5859 22.385 13.7707 22.2919 13.7561C21.8743 13.536 22.1819 13.4533 22.1763 13.26C22.1726 13.1129 21.9526 12.832 21.9899 12.6788C22.0048 12.6168 22.1632 12.5706 22.2136 12.5123C22.3105 12.4016 22.3235 12.3031 22.4689 12.201C22.7355 12.0125 22.9032 12.1159 23.2257 12.0733C23.7718 12.0016 26.2116 10.7736 26.8714 10.4866C28.081 9.95897 29.3373 9.47506 30.5283 8.93035C30.532 8.84767 30.1947 8.87442 30.122 8.88172C29.9952 8.89266 29.9076 8.94494 29.8293 8.95102C28.5395 9.06531 27.3336 9.17596 26.0774 9.34861C25.6394 9.40818 25.138 9.4787 24.8603 9.21365C24.4838 8.85497 24.5173 8.73095 24.4446 8.33702C24.4278 8.24826 24.3067 8.17409 24.3067 8.09628C24.3067 7.97347 24.8416 7.16372 24.974 7.00565C26.3215 5.41045 28.4818 4.11922 30.5637 2.96051C31.8796 2.22735 33.2085 1.45163 34.7742 0.954346L34.7667 0.955562Z" fill="#FFF0B8"/>
<path d="M24.3738 0.28452C24.398 0.29911 24.5248 0.250476 24.5956 0.262634C24.8584 0.307621 24.8118 0.509453 25.1007 0.238317C25.0187 0.530122 25.3206 0.505805 25.4455 0.587268C25.4828 0.611585 25.4735 0.677241 25.5126 0.710069C25.63 0.808553 25.809 0.763566 25.6133 1.00187L25.9059 0.954456C25.8705 1.01039 25.8351 1.05659 25.8313 1.11981C25.7307 2.867 24.8286 4.5388 24.0607 6.17412C23.8855 6.5486 23.097 7.15775 22.9796 7.52493C22.9405 7.64409 23.0598 7.56627 23.1231 7.54682C23.1623 7.59424 22.6311 8.25566 22.5304 8.33105C22.4298 8.40643 22.3161 8.38819 22.2173 8.46722C22.1185 8.54625 22.0775 8.8332 21.8688 8.99734C21.7476 9.09217 21.4718 9.17242 21.4028 9.2709C21.3525 9.34385 21.4214 9.40951 21.3972 9.46422C21.3021 9.69037 21.03 9.68794 20.784 9.86667C20.523 10.0551 20.3255 10.3506 20.0999 10.5439C20.0403 10.595 19.8334 10.6375 19.7514 10.7251C19.6526 10.8308 19.7644 10.9378 19.4308 11.0862C18.8661 11.3366 18.8046 11.4582 18.3386 11.7342C17.9882 11.9434 17.1699 12.3263 16.6984 12.409C16.622 12.4224 16.115 12.4698 16.074 12.4625C15.8037 12.4188 15.0619 11.7743 14.9109 11.5944C14.5083 11.1166 14.3126 10.8004 14.3387 10.2485C14.4226 8.54139 15.1048 6.81488 15.8969 5.19779C16.6201 3.71809 17.5502 2.24083 18.7691 0.909469L18.8064 1.05294L19.0189 1.04929C19.0282 0.975125 19.2761 0.629822 19.3544 0.862051C19.5072 0.571461 19.867 0.530122 19.8315 0.862051L20.1559 0.810985L20.2286 0.905822L20.4895 0.862051C20.3329 1.12103 20.3236 1.30705 20.4168 1.57819C20.5715 1.55022 20.5696 1.43107 20.62 1.35204C20.6927 1.23532 20.7337 1.26693 20.7113 1.3642C20.6852 1.48457 20.5212 1.90282 20.4522 2.0086C18.8344 4.53636 16.7524 7.28784 16.4617 10.1062C16.4561 10.1609 16.3946 10.4138 16.5698 10.3676C16.7021 10.3299 16.7729 10.1804 16.8475 10.1427C20.9965 8.01493 22.9405 4.43666 23.5667 1.07726C23.632 0.724659 23.8072 0.261418 24.1893 0.00244141L24.3775 0.286951L24.3738 0.28452Z" fill="#FFF0B8"/>
<path d="M38.9418 8.93291C38.8392 8.94507 38.6361 9.60528 38.5746 9.72078L38.7945 9.65026L38.6118 10.032L38.5037 9.93721L38.6491 10.1281C38.5727 10.1305 38.4739 10.1099 38.4217 10.1561C38.3695 10.2023 37.9669 11.2357 37.9875 11.2929C38.0042 11.3415 38.1608 11.305 38.1384 11.3464L37.8793 11.4133L37.8458 11.609L40.3564 11.0813C40.4888 11.3172 40.9007 11.3014 41.0666 11.395C41.1709 11.4534 41.1765 11.5725 41.2343 11.5993C41.3368 11.6467 41.5102 11.5324 41.4151 11.7646C41.3405 11.9494 41.2157 11.8558 41.499 12.1026L41.3592 12.2291L41.7991 12.1343C41.4915 12.2826 41.1952 12.5951 40.9249 12.7337C40.3359 13.0352 38.1086 13.4632 37.2922 13.6115C36.6343 13.7319 34.0882 14.1635 33.5645 14.138C33.5179 14.1356 32.8562 14.014 32.8245 14.0006C32.6531 13.9289 32.4648 13.6395 32.2822 13.5422L32.5002 13.4474C32.1219 13.3392 32.2952 13.2516 32.2337 13.1361C32.1666 13.0085 31.9206 12.7774 32.0659 12.6425C32.2356 12.4856 32.4499 12.5635 32.312 12.2291C32.448 12.082 33.0575 12.2303 33.339 12.2303C34.051 12.2303 35.1898 12.1464 35.8011 11.9288C35.8757 11.902 35.9297 11.9884 35.9819 11.851C36.036 11.7063 36.0211 11.564 36.0173 11.4169L35.872 11.4655C35.8626 11.2868 35.9167 11.1069 35.967 10.9306C36.6212 8.65205 37.9222 6.27627 39.1132 4.09624C39.1915 3.95399 39.4226 3.76918 39.4599 3.60504C39.4785 3.52357 39.4599 3.53087 39.3481 3.53208C38.8635 3.53695 38.2186 3.73027 37.7526 3.53695C37.6781 3.50534 37.6669 3.4263 37.596 3.38983C37.4488 3.31566 37.268 3.33633 37.1711 3.18678C37.0891 3.05912 37.1543 2.94239 37.1058 2.84634C37.0723 2.77825 36.9045 2.78312 36.8915 2.73692C36.8691 2.66153 36.9716 2.57156 36.9642 2.50347C36.9586 2.43052 36.8169 2.37824 36.83 2.32109C36.8412 2.27732 37.0164 2.20802 37.0723 2.14236C37.1506 2.05117 37.2475 1.84569 37.3388 1.78976C37.46 1.71438 37.6855 1.72411 37.8327 1.68399C37.9222 1.65967 37.9222 1.59158 37.9371 1.58672C37.9725 1.57577 38.5858 1.56848 38.7293 1.54903C39.2977 1.47486 39.8606 1.37881 40.4403 1.33625L40.5298 1.18792C40.7702 1.1405 41.1206 1.20494 41.3219 1.19035C41.5437 1.17333 41.909 1.02256 42.1662 1.02256C42.2818 1.02256 42.3359 1.10281 42.4831 1.08943C42.5931 1.07971 43.5735 0.82316 43.6909 0.776958C43.8027 0.733187 43.812 0.674826 43.894 0.618896L43.9295 0.713733C44.4979 0.644429 45.5585 0.767231 45.5436 1.23777L45.8343 1.2402C45.9014 1.41042 45.5548 1.28275 45.469 1.40799L45.689 1.55146C45.5398 1.80435 45.2584 2.08765 45.6871 2.2676C45.4355 2.31258 45.538 2.42566 45.4411 2.4828C45.1988 2.62506 44.4625 2.65181 44.0804 2.74664C43.8735 2.79771 43.6853 2.90592 43.5082 2.94604C43.2212 3.0117 42.0395 3.16246 41.9202 3.29499L41.2995 4.56313C40.5074 5.87868 39.2866 7.54197 38.9529 8.93169C39.0741 8.91832 39.1095 8.91224 39.0946 8.99857C39.0778 9.09827 39.02 9.35967 38.8802 9.40831C38.9604 9.25511 38.9194 9.07395 38.9529 8.93048L38.9418 8.93291Z" fill="#FFF0B8"/>
</g>
<defs>
<clipPath id="clip0_103_242">
<rect width="79" height="15" fill="white"/>
</clipPath>
</defs>
</svg>
