<svg width="283" height="92" viewBox="0 0 283 92" fill="none" xmlns="http://www.w3.org/2000/svg">
<path d="M50.9993 81.6105C50.4041 82.2077 43.111 80.6473 42.0577 80.0423C40.4307 79.1103 41.5604 76.3419 39.2716 76.6336L38.9936 76.2127C37.8287 69.7185 39.0347 63.3965 39.626 56.9688C40.2055 50.6684 40.8497 44.3386 41.3548 38.0245C41.4938 36.2878 41.8384 34.422 42.0381 32.6815C40.9789 31.4832 40.276 37.7151 40.1429 38.1909C39.4713 40.6069 37.999 44.7184 37.0044 47.1109C36.4269 48.501 34.4572 51.199 34.1851 52.591C33.9991 53.5347 35.1738 55.3262 33.6036 55.4299C33.0985 55.4632 30.3026 54.9992 29.7309 54.8132C29.3922 54.7016 26.0932 52.6341 25.6821 52.3169C23.1584 50.3688 18.5398 38.3475 17.3357 34.8155C17.1771 34.3476 17.2456 33.8503 17.2319 33.3706L15.8634 33.3667C15.7831 34.4318 15.9808 35.5869 15.8555 36.6363C15.2584 41.672 14.4302 45.5877 13.4826 50.4569C12.0024 58.0652 11.8752 66.4958 11.0353 74.1941C10.5634 78.5073 9.13025 82.7696 10.0074 87.118C7.42886 87.212 5.23605 87.2903 3.27622 85.4088C1.31639 83.5273 -0.0913135 80.2851 0.00462203 77.6282C0.31005 69.0645 2.58901 60.5909 2.7848 52.1622C2.83766 49.9029 2.24638 47.8256 2.46566 45.6347C2.66537 43.624 3.6306 41.0553 4.05349 38.9564C4.53317 36.5854 4.00846 36.1567 5.29478 33.9795C6.54782 31.8611 5.85278 26.7667 6.20128 24.2215C6.38923 22.8432 7.37208 21.132 7.55416 19.3719C8.01818 14.8472 7.64814 9.75676 9.40631 5.37505C9.83508 4.3041 11.4366 3.93602 11.0431 2.35602C12.3412 2.17982 13.2888 3.19203 14.4145 3.63843C14.7239 3.75981 15.231 3.46221 15.5344 3.58556C17.0831 4.21208 20.0767 9.59622 20.5916 11.2389C21.9425 15.5462 22.8255 19.8927 24.2959 24.4173C25.0046 26.5964 26.5749 33.9541 28.4427 34.7431C29.0202 34.9878 28.9928 34.4161 29.1142 34.0578C30.5748 29.7231 31.1739 25.2474 32.9183 20.9695C34.4337 17.2534 40.6598 4.02805 42.8467 1.4417C44.46 -0.465261 45.4722 -0.122644 47.5652 0.45297C49.7717 1.05795 51.1089 2.72214 52.2836 4.69176C53.4583 6.66138 54.2611 10.6535 54.4118 12.9187C55.4319 28.2508 53.8969 44.5775 52.3345 60.029C52.0565 62.7837 51.1892 65.9691 51.0051 68.6906C50.7193 72.8941 51.2048 77.3757 51.0012 81.6086L50.9993 81.6105Z" fill="#FFF0B8"/>
<path d="M196.522 9.10874C192.025 4.74074 187.694 2.37172 181.215 4.95023C177.343 6.49107 176.53 9.41221 173.824 10.9942C171.788 12.1846 171.005 11.8576 169.163 14.2579C166.745 17.4101 169.045 17.7136 169.108 19.7439C169.119 20.1609 168.751 23.5696 168.648 23.7419C168.309 24.247 167.718 23.6361 167.279 23.734C166.77 23.8476 166.492 24.2176 166.128 24.3175C165.54 24.4761 164.832 24.3018 164.332 24.5857C164.084 24.7267 161.613 28.6581 161.167 29.3433C160.738 30.0031 160.644 30.8215 160.199 31.4774C158.866 33.447 157.39 32.3995 156.781 35.6398C155.346 43.2931 160.902 57.889 163.913 65.3133C167.847 75.0047 178.876 79.5842 188.925 78.4721C190.85 78.2587 194.139 76.2773 195.143 76.4281C196.847 76.6807 198.296 79.3434 199.137 79.7134C199.286 79.778 202.158 80.2009 202.354 80.2009C203.173 80.2009 204.328 79.5999 205.322 79.8837C205.078 76.1188 203.862 73.317 201.538 70.4194C204.578 64.7553 207.335 58.3805 208.668 52.0487C211.552 38.3554 206.662 18.9627 196.522 9.10874ZM194.219 40.3524L191.543 49.2196C190.926 49.339 190.681 48.9142 190.358 48.5108C189.06 46.8839 188.097 43.9588 186.521 42.0127C185.342 40.5599 182.274 37.7974 180.34 37.8189C179.265 37.8307 178.744 39.1287 177.485 38.9467C176.683 40.7929 177.342 42.3847 177.785 44.2035C179.226 50.1183 182.225 55.9566 184.007 61.7969C184.056 62.8679 182.944 63.2536 182.129 63.7489C180.622 64.6633 178.719 65.5404 176.957 65.7225C176.322 65.5423 172.904 57.3506 172.432 56.1035C171.003 52.317 168.299 44.9769 168.89 41.206C169.024 40.3642 169.989 36.9124 170.288 36.0568C170.459 35.5693 171.886 32.566 172.093 32.3486C173.274 31.0956 175.434 32.2331 176.483 31.9375C176.988 31.7965 178.47 30.1441 178.646 29.5978C179.598 26.6434 177.29 26.6003 176.544 25.4491C175.804 24.3057 179.146 21.6763 180.005 20.9676C181.448 19.7733 186.527 16.3489 188.256 16.1277C192.923 15.5286 194.086 17.7038 194.638 21.8329C195.519 28.4114 194.85 33.8993 194.219 40.3524Z" fill="#FFF0B8"/>
<path d="M234.416 19.0508C234.522 18.8589 234.878 18.8883 235.074 18.1756C235.384 17.0459 235.403 13.8389 235.943 13.1752C236.39 12.627 239.092 11.838 239.871 12.0749C240.094 12.1434 243.143 14.7728 243.405 15.092C246.42 18.7454 245.631 22.9332 245.247 27.3071C244.991 30.2361 244.245 33.7407 243.939 36.6794C242.559 49.9832 241.788 78.1177 233.913 88.6706C231.276 92.2046 229.625 91.7073 225.97 90.0725C224.492 89.4107 224.128 89.2462 222.538 88.6824C220.098 87.819 216.149 82.0374 215.137 79.545C214.873 78.895 215.075 78.1393 214.789 77.4814C213.778 75.1574 212.984 75.41 212.253 71.7468C209.534 58.0985 209.69 51.2988 212.189 37.6545C213.626 29.8112 213.839 22.3263 215.008 14.6338C215.458 11.6716 216.373 8.29035 218.926 6.55176C221.128 7.80675 223.043 8.24727 224.555 10.5164C227.374 14.7435 226.375 19.9886 226.321 24.572C226.258 29.8993 226.614 35.4988 226.33 40.7773C225.886 49.0688 223.783 57.9928 224.253 66.2922C224.453 69.8281 225.455 73.6773 225.704 77.2465L226.499 77.8182C227.503 77.6008 229.054 71.8721 229.336 70.6583C231.25 62.4078 232.331 50.1065 232.549 41.484C232.697 35.5987 231.585 24.1471 234.412 19.0547L234.416 19.0508Z" fill="#FFF0B8"/>
<path d="M69.4776 7.6521C71.9034 10.0074 71.6861 14.6711 72.1051 17.9466C72.99 24.8833 72.7512 32.2841 72.714 39.3872C72.6748 46.9974 71.2358 62.4039 73.0723 69.0058C73.3836 70.1277 74.4624 70.717 74.4271 71.9622L75.3767 71.3631C76.1422 67.9212 77.8299 64.7808 78.9087 61.4582C79.6292 59.2419 81.4735 53.7423 81.5812 51.6963C81.916 45.2823 82.703 38.9545 83.3765 32.5053C84.05 26.0561 84.422 20.0689 84.794 13.9408C84.8998 12.1963 85.4793 6.9923 87.1748 6.30705C87.3021 6.25615 89.7651 6.28356 89.906 6.32272C90.8556 6.59486 93.4282 8.90318 94.0567 9.7666C97.6318 14.6711 95.6876 18.624 95.2236 23.9514C94.137 36.4152 93.7298 49.2803 90.8027 61.6364C89.0818 68.8962 84.747 77.8436 81.1759 84.3966C80.7726 85.1367 81.2151 85.8631 80.1128 86.0863C77.4227 86.6345 70.8677 83.6605 69.0724 81.6165C68.3499 80.7961 66.7816 78.2333 66.255 77.1995C63.651 72.0836 60.2874 63.6393 59.9428 58.0163C59.4847 50.551 60.5125 43.2383 60.6594 35.9648C60.8121 28.5073 60.1875 20.5623 60.632 13.1968C60.7651 11.0079 61.8224 8.77592 61.3212 6.37949C64.0445 4.22388 67.2182 5.45342 69.4796 7.64624L69.4776 7.6521Z" fill="#FFF0B8"/>
<path d="M278.698 16.4899C277.568 16.5878 276.24 16.3039 275.15 16.5584C274.457 16.7209 273.997 17.4571 273.345 17.5178C272.628 17.5843 271.365 17.1066 270.243 17.1575C266.948 17.3044 264.051 17.2456 263.285 20.8873C262.173 26.1755 262.802 31.6888 261.509 36.9633L262.316 37.5076C267.41 35.7573 274.488 33.0652 279.058 37.3177C279.289 37.5331 281.531 40.4248 281.619 40.6148C282.055 41.5643 281.697 43.0993 281.814 44.2074C281.889 44.9123 282.613 45.5251 282.443 46.2221C282.128 47.5162 280.072 47.0248 279.023 47.3087C276.076 48.1036 273.253 49.6816 270.095 50.4374C266.937 51.1931 263.365 51.3478 260.092 52.1466L259.747 52.8358C260.016 55.8411 259.166 58.7916 259.413 61.793C259.485 62.6701 259.64 65.045 260.589 65.0646L272.415 60.6829C274.615 60.1425 279.725 63.3378 280.963 65.2056C286.114 72.9959 274.087 73.7967 269.836 77.0526C267.313 77.3404 265.012 78.6914 262.59 79.1084C261.255 79.3375 259.877 78.9655 258.58 79.5372L257.441 78.1549C256.164 78.9146 251.826 76.804 251.352 75.7605C251.235 75.502 251.501 75.0282 251.313 74.7345C251.007 74.2588 249.964 74.065 249.604 73.3268C248.302 70.6543 247.689 59.3692 247.663 55.941C247.64 52.687 249.228 50.6273 246.659 47.6729C246.226 47.1756 245.518 47.0366 245.128 46.4472C244.525 45.5349 244.358 42.557 244.664 41.5389C244.948 40.5932 247.454 38.6628 247.849 37.8346C248.108 37.2962 248.513 35.2287 248.64 34.4905C249.907 27.1857 249.13 18.6044 250.886 11.5835C251.518 9.05979 254.872 7.37993 257.108 6.43624C262.32 4.23559 266.279 3.23317 271.696 5.40249C273.423 6.09362 277.433 8.79548 277.94 10.5282C278.183 11.3622 277.877 12.347 278.026 13.1968C278.208 14.2364 279.07 15.1957 278.699 16.4879L278.698 16.4899Z" fill="#FFF0B8"/>
<path d="M152.331 22.0542C152.889 30.1089 152.668 38.234 151.914 46.2769C152.642 49.6425 150.477 64.9119 152.102 66.7915C152.579 67.3436 153.923 67.1615 154.661 67.6784C154.954 67.884 158.155 72.2833 158.287 72.6651C158.843 74.2901 158.036 75.9406 158.43 77.5715C158.132 78.6757 155.826 78.6953 154.794 79.1319C151.037 80.7217 146.297 83.8856 142.377 84.6296C141.271 84.8391 135.552 84.9076 134.608 84.6355C133.475 84.3085 129.708 80.1813 129.173 79.0477C128.541 77.7027 128.214 75.1496 128.768 73.7732C129.623 71.6392 131.049 72.064 132.75 71.2084C133.134 71.0166 136.613 68.5301 136.772 68.3401C136.948 68.1287 137.13 67.9603 137.12 67.6549C137.063 65.2408 137.193 62.815 137.132 60.4029C136.92 51.8529 136.64 43.1502 137.103 34.561C137.343 30.0873 138.706 25.4335 138.314 20.9715C135.814 19.0645 135.695 16.8815 135.477 13.9427C136.67 12.0358 139.291 12.3725 140.584 10.4773C142.821 9.80184 146.637 6.15824 148.47 5.61591C153.598 4.09661 157.682 8.20618 159.567 12.4606C160.348 14.2227 160.043 16.2628 159.514 18.0405L152.333 22.0522L152.331 22.0542Z" fill="#FFF0B8"/>
<path d="M127.624 18.7552C127.697 18.9 128.112 18.8217 128.184 19.3993C128.294 20.2764 128.286 25.3297 127.838 25.641C126.18 26.2264 124.014 25.1515 122.651 24.2294C121.829 23.6733 121.921 22.3831 120.071 22.6729C119.196 22.8099 118.105 25.2377 117.647 26.1324C113.966 33.3139 110.714 41.9226 111.607 50.1006C111.819 52.0409 113.455 50.7095 115.219 50.968C119.814 51.6415 126.254 58.7681 127.648 62.9991C128.276 64.9041 128.517 67.6764 129.206 69.6754C127.853 70.4977 127.35 72.6886 126.442 73.8652C122.203 79.359 110.417 82.1 103.846 82.9595C103.247 83.0379 102.419 83.1103 101.857 82.9262C101.591 82.8401 98.1311 79.1084 98.0215 78.8519C97.7317 78.1765 97.9725 77.5774 97.8296 77.037C97.7669 76.7962 96.9446 76.6611 96.8878 75.4942C96.8644 74.9891 99.623 70.2902 99.9265 70.0826C100.688 69.5658 102.219 69.742 103.081 69.4463C105.066 68.7669 108.324 67.1028 110.485 66.1708C111.445 65.7577 113.878 64.8982 113.716 63.8644C113.8 63.3613 113.541 63.4102 113.265 63.2418C111.09 61.9242 107.345 61.3662 105.256 59.8978C103.425 58.6095 101.677 55.6159 100.939 53.5347C96.6881 41.5467 101.285 25.6664 107.776 15.2232C108.862 13.4748 109.953 11.7147 111.601 10.4186C113.986 10.7827 116.341 9.75484 118.652 10.6652C122.182 12.0573 125.917 15.3524 127.624 18.7552Z" fill="#FFF0B8"/>
</svg>
