<?xml version="1.0" encoding="UTF-8"?>
<svg id="Calque_1" data-name="Calque 1" xmlns="http://www.w3.org/2000/svg" viewBox="0 0 288.02 288.02">
  <defs>
    <style>
      .cls-1 {
        fill: #fcf1be;
      }
    </style>
  </defs>
  <path class="cls-1" d="M32.52,151.2c-.15-5.96-.7-14.31.95-19.69,2.11-4.45,2.09-10.6,2.2-15.52.05-1.56-.39-1.73-.87-2.85-1.03-6.88,2.52-18.66,3.54-24.67.3-1.39-.32-.21-.96,1.14-.47.87-.93,1.59-.89.88,2.6-13.82,11.21-27.88,21.19-37.68,8.4-7.3,18.14-14.75,28.16-20.1,13.14-6.56,27.33-10.67,41.93-11.73,12.12-.83,24.23-.65,36.4,1.26,9.44,1.55,18.06,3.59,26.48,8.04,21.28,8.08,43.59,20.11,54.07,40.96,2.43,4.82,3.3,10.1,4.63,15.27,1.49,5.64,4.85,11.8,5.34,18.24.52,7.44-2.06,14.29-1.44,21.81.76,7.68-.35,14.83-1.88,22.41-1.35,9.28-1.18,18.23-2.45,26.9-.99,6.49-3.52,13.47-5.84,19.55-2.69,6.76-5.39,13.52-8.75,20.18-4.11,8.08-9.76,15.84-15.41,23.24-7.34,9.8-16.3,16.61-27.83,20.83-19.96,8.71-42.02,10.26-63.67,8.66-9.46-.49-19.28-.29-28.23-3.9-13.61-6.16-26.11-15.84-35.47-27.64-6.81-8.91-12.64-20.28-17-30.03-4.26-9.87-7.94-19.8-10.65-30.26-1.86-7.93-2.98-16.85-3.54-25.14v-.18ZM34.33,140.41c-.27.34-.49,6.55.35,5.77.34-.55.37-3.47.29-5.16,0-.57-.23-1.83-.6-.73l-.04.13ZM100.14,187.01c-.3,9.99,4.36,12.25,13.49,13.79,18.03,5.81,18.44-2.76,19.12-18.21.29-11.47.64-23.02,2.53-34.32.79-5.18,1.43-10.45,2.18-15.8.54-4.71,1.25-9.75.27-14.26-1.11-4.3-2.67-8.7-2.72-13.34-.49-5.47.88-12.62-2.03-16.78-2.93-3.95-8.83-5.16-13.63-4.91-6.92.08-8.4,6.22-8.94,12.12-.47,4.76-.83,9.43-1.64,14.06-.49,3.36-.95,6.58-1.49,10-4.07,22.22-6,44.96-7.15,67.48v.17ZM164.16,182.2c-.68,4.94-1.35,10.17-1.35,15.16.02,2.74-.24,5.82,2.02,7.69,2.25,1.87,6.65,2.68,9.87,3.18,9.88,1.51,10.27-6.98,10.78-14.36,1.48-14.99,1.34-30.05,3.8-44.89,1.46-8.26,2.85-16.47,3.98-24.85.74-5.19,1.32-10.19,2.09-14.94.48-3.13,1.13-7.19.02-9.96-2.43-5.82-12.95-5.31-16.81-1.25-3.94,4.61-2.63,11.35-4.02,17.21-.48,2.76-.97,5.54-1.41,8.31-1.61,9.8-3.2,19.44-5.17,29.13-.95,5.24-1.37,11.21-1.93,16.92-.63,4.9-1.3,8.45-1.86,12.53l-.02.13ZM249.08,94.69c-.82.89.36,3.61,1.49,3.79.23-.09.02-1.02-.21-1.91-.16-.68-.32-2.27-1.19-1.95l-.09.07ZM251.32,102.04c-.17.8.35,2.53.92,3.22,1.04.66,1.72-1.66,1.12-2.34-.35-.62-1.31-1.31-1.98-.94l-.06.06Z"/>
</svg>