<svg width="190" height="99" viewBox="0 0 190 99" fill="none" xmlns="http://www.w3.org/2000/svg">
<path d="M189.79 48.4244C189.678 47.1538 188.789 45.8733 188.56 44.8004C187.205 38.4275 187.466 32.9083 183.313 27.3088C177.265 19.1503 168.936 17.2512 159.394 19.9198C158.644 20.1293 154.291 21.8953 154.035 21.6212L153.172 16.1117L147.652 11.2699C143.872 12.0961 140.122 11.0663 136.297 11.2895C131.525 11.5675 126.995 13.079 122.478 13.6605C117.174 14.3438 111.676 13.9424 106.345 14.753C104.681 15.0055 103.872 16.5992 102.872 16.7911C99.5651 17.4255 95.1854 15.2796 91.9686 17.2571C91.5026 17.5429 88.5306 20.7421 88.327 21.1944C87.7925 22.3867 85.8542 27.3871 85.6349 28.4933C85.4234 29.5584 85.6643 32.1526 85.4097 32.5774C85.3275 32.7145 83.4558 34.0047 83.2443 34.7095L82.377 33.339C80.6541 33.4154 81.7348 34.7271 81.7015 35.5827C81.6624 36.5519 81.0652 37.335 81.0026 38.3316C80.1881 51.0205 84.2644 70.8381 98.4824 74.6031C101.995 75.533 106.471 76.4669 110.136 76.0851C115.508 75.5252 118.247 70.4758 119.504 65.8142C121.444 58.6092 119.618 45.4465 118.12 38.0771C117.301 34.0556 115.6 30.3572 114.419 26.4493L124.873 26.8428L125.407 27.3577L126.135 46.5997C126.304 50.2628 126.952 53.973 127.179 57.6146C127.586 64.1539 125.924 79.0337 134.047 81.7552C135.561 82.2622 137.229 82.6636 138.687 82.9651C139.551 83.1452 139.652 83.9852 140.725 83.2627C142.897 81.8002 141.74 76.9936 141.636 74.8517C141.086 63.4569 140.312 52.1698 139.562 40.7495C139.22 35.5357 138.636 30.2789 138.194 25.0748C142.938 24.7557 147.229 22.0832 151.966 21.9697C151.964 24.0274 148.576 23.4009 147.987 24.3739C147.547 25.1101 148.228 25.8404 148.12 26.5511C148.034 27.1247 147.361 27.5535 147.227 28.0821C145.943 33.1745 145.92 37.4231 148.005 42.2963C148.343 43.0892 148.999 43.4044 149.224 44.1895C149.228 45.1861 147.607 45.7069 147.251 46.1905C143.521 51.2672 145.33 61.5539 149.025 66.429C154.503 73.6555 165.688 77.7826 174.499 75.3412C184.184 72.6589 188.098 59.8721 189.196 51.1086C189.32 50.1317 189.893 49.603 189.79 48.4244ZM108.577 42.4823C108.421 43.7255 107.54 44.0779 107.307 44.9414C106.844 46.6564 107.44 49.8419 107.164 51.7508C106.987 52.9765 105.339 57.9964 104.838 59.4159C103.925 62.0081 101.249 64.8352 98.2338 63.4804C97.2313 63.0301 96.0703 59.3689 95.6455 58.1452C93.3645 51.5805 91.7121 45.7421 93.2118 38.8289C93.5956 37.0668 94.9974 31.6768 95.6631 30.2534C96.6616 28.1193 99.1226 29.2255 100.922 28.6049L105.46 29.0337C105.617 29.1022 107.628 31.4634 107.698 31.618C108.291 32.9514 108.781 40.8651 108.577 42.4823ZM176.039 42.0828C175.323 46.7484 170.469 58.5799 166.789 61.4266C164.885 62.8989 159.597 64.5709 158.011 62.2646C156.88 60.616 155.552 55.2182 155.398 53.1624C155.272 51.4845 155.813 46.1494 155.094 45.1978C154.818 44.8317 153.874 44.6555 153.802 44.213C153.739 43.8273 154.123 41.2234 154.268 40.636C154.389 40.1465 155.351 37.8558 155.603 37.4917C156.862 35.6826 167.646 31.947 170.156 31.7179C171.91 31.5574 175.977 31.1579 176.415 33.5191C176.75 35.3204 176.341 40.1211 176.039 42.0828Z" fill="#FFF0B8"/>
<path d="M63.7812 58.8324L58.4949 59.2338C56.7916 60.4007 57.935 62.3311 57.935 63.8132C57.935 72.5238 57.98 81.2716 58.2522 90.0291C58.3148 92.0672 60.116 98.771 55.7735 98.0524C55.5444 98.0152 51.6678 96.678 51.3918 96.5468C50.4011 96.0769 48.7956 94.3912 48.4374 93.2987C47.8833 91.6032 47.3723 86.4775 47.247 84.4981C46.7203 76.1576 46.3699 67.9952 45.8608 59.6978C45.712 57.2602 44.226 53.1174 44.4688 51.4043C44.6293 50.2707 45.3596 50.1493 45.5143 49.3524C45.8354 47.7039 45.3948 45.0177 45.5221 43.1597C45.8373 38.5743 46.1682 32.4208 46.9004 27.9999C47.1765 26.3357 48.038 25.0807 48.2553 23.8433C48.5725 22.0499 48.4002 19.6026 48.7056 17.7465C49.011 15.8905 49.8607 12.3369 51.2077 11.2914C53.8176 9.26503 55.284 10.4378 57.0618 12.66C61.9545 18.7783 58.7318 30.3024 58.2678 37.6483C58.0897 40.4774 57.9174 44.1641 57.8899 46.9501C57.8527 50.6485 62.5986 46.815 63.7107 45.5052C64.0396 40.8631 63.4992 36.0526 63.7616 31.4281C63.9809 27.5515 65.3279 22.9858 65.9309 18.7822C66.0836 17.7211 67.0528 13.9698 67.5442 13.1612C68.854 11.0075 73.5627 13.1083 74.8079 14.5532C80.0432 20.6266 77.9307 30.9465 77.8837 38.3198C77.8387 45.4171 77.8289 52.9725 78.2479 60.0404C78.6355 66.5562 81.1729 73.8551 81.6839 80.7233C81.8092 82.3973 81.9541 87.8265 81.5351 89.1774C81.3648 89.7295 79.9493 91.241 79.452 91.5719C77.1417 93.101 77.2572 91.4446 75.5127 91.0295C73.5137 90.5538 71.4364 91.3957 70.1638 88.7976C67.4267 83.2059 67.785 80.7448 67.2172 74.8614C66.9001 71.5742 64.5898 68.9468 64.1238 66.5856C63.9006 65.4578 64.067 59.1359 63.7773 58.8344L63.7812 58.8324Z" fill="#FFF0B8"/>
<path d="M44.4629 28.0234C43.6073 20.4445 39.3528 10.2283 33.2854 5.43742C28.377 1.55888 19.9327 -0.94133 13.7361 0.337158C13.507 0.384147 11.185 1.37091 11.0753 1.46489C10.6466 1.83689 10.7738 2.65724 10.4018 3.20348C8.58688 5.86031 4.33047 8.64048 3.26735 11.916C2.1357 15.399 3.66479 14.8626 4.10923 17.0515C4.40878 18.5179 3.65305 19.6006 3.83513 20.7421C4.03679 22.0068 5.55022 21.7445 5.23109 24.5619C4.8356 28.0547 3.73136 31.8021 3.17533 35.2557C1.66385 44.6633 1.40933 54.621 0.72995 64.1637C0.449975 68.0716 1.61882 72.5414 1.10586 76.2535C0.949231 77.3793 0.305092 77.4361 0.121053 78.0274C-0.200038 79.0729 0.185662 83.5603 0.489132 84.7565C0.782812 85.9077 3.25952 88.9346 4.36571 89.1481C4.91587 89.2538 9.91235 89.5024 10.4664 89.4378C13.5951 89.0756 13.1937 84.179 13.1565 81.7336C13.0547 74.9907 12.1071 68.2008 12.44 61.405C12.7121 55.8329 14.1923 50.3137 13.83 44.7064C16.2989 44.2874 18.3841 45.8126 20.7002 46.2785C29.8317 48.115 37.3108 44.4793 42.2113 36.7437C44.1202 33.7306 44.874 31.6709 44.4629 28.0234ZM30.3231 20.372C29.6907 25.8012 25.7789 32.223 20.7355 34.5568C19.6234 35.0717 14.9832 36.8299 14.854 34.8896C15.3963 30.0302 16.2793 25.2217 16.8882 20.374C17.086 18.8018 17.0351 14.6022 17.7673 13.6702C18.059 13.2982 18.7737 12.8421 19.2436 12.7363C22.2665 12.0589 26.3075 12.8871 28.7568 14.7921C30.8302 16.4034 30.6227 17.7876 30.3231 20.372Z" fill="#FFF0B8"/>
</svg>
