<svg width="60" height="15" viewBox="0 0 60 15" fill="none" xmlns="http://www.w3.org/2000/svg">
<path d="M34.2452 0.661384C34.4976 0.817058 34.658 1.12998 35.1062 1.06394L34.8278 1.1803C35.5354 1.60172 35.9128 2.20869 36.2147 2.80151L36.3256 2.83453L41.9393 1.71179C41.9322 1.46334 42.2365 1.27779 42.0148 1.01833C42.496 0.946001 42.9701 0.925559 42.8521 1.34384C42.9229 1.31081 43.0739 1.31081 43.114 1.28565C43.1611 1.25578 43.18 0.911406 43.3404 1.01833C43.4041 1.06079 43.3663 1.33597 43.6234 1.41302C43.8805 1.49007 46.0387 1.15986 46.527 1.11583C47.0719 1.06708 48.0979 0.969588 48.5979 1.06551C48.6616 1.07809 48.6498 1.14256 48.7324 1.17086C48.973 1.24949 49.131 1.13312 49.131 1.41302L49.5957 1.52781L49.5626 1.73538L49.9023 1.87847V1.94609L49.7631 1.96968L49.94 2.18039C51.5911 1.26993 53.53 0.516717 55.6835 0.287137C57.1435 0.131463 57.4266 0.203796 58.4219 0.851653C58.5186 0.914551 58.6837 0.946001 58.797 1.02148C58.9621 1.13312 59.7876 2.00427 59.8796 2.15995C60.1202 2.57665 59.9339 2.82982 59.8867 3.22608C59.8678 3.38962 59.9433 3.85507 59.8489 3.94784C59.8136 3.98244 59.6791 3.97929 59.6744 4.02017C59.6697 4.05477 59.7499 4.11767 59.7334 4.19157C59.7169 4.26548 59.5895 4.35197 59.5541 4.44631C59.4597 4.70105 59.6013 5.01083 59.2616 5.22783C59.1177 5.32061 58.738 5.29387 59.1225 5.41653C59.1956 5.62724 58.9055 5.66812 58.8559 5.72473C58.8158 5.77033 58.8606 5.84267 58.8229 5.88669C58.7946 5.92129 58.5823 5.94959 58.5257 6.03765C58.4597 6.13829 58.5163 6.24679 58.4526 6.36158C58.396 6.46379 58.1601 6.55028 58.0894 6.62733C57.8464 6.89307 57.561 7.28776 57.3464 7.57552C56.4949 8.72185 55.3792 9.7298 54.1362 10.7834C53.8272 11.0444 53.6927 11.2284 53.3248 11.4973C52.0464 12.4345 49.6145 13.9755 47.5365 13.5399C46.8313 13.3921 45.2391 12.7568 44.9443 12.2929C44.7745 12.0272 44.8311 12.1262 44.64 11.9376C44.3782 11.6781 43.8735 10.7661 43.7956 10.4531C43.7532 10.2802 43.8051 10.1041 43.7626 9.96253C43.7319 9.8556 43.5668 9.82415 43.5527 9.72823C43.4489 9.02848 43.9914 7.14624 44.4065 6.48423C44.4985 6.33799 44.6801 6.23421 44.7415 6.08011L44.8099 6.35843C44.9702 6.46379 45.2486 6.05967 45.3123 5.97318C45.4255 5.82065 45.3948 5.63353 45.6826 5.52188L45.508 5.98576L46.0317 5.52188L46.067 5.66183L46.2086 5.63824C46.7652 5.06272 47.2511 4.44631 47.8243 3.87865C47.9375 3.76544 48.756 3.12701 48.6498 3.05783C47.5365 2.9336 46.4185 3.11758 45.3264 3.23866C45.0457 3.27011 43.5998 3.37232 43.4984 3.48396C43.4418 3.62863 43.5338 3.8189 43.4843 3.9557C43.4701 3.99344 43.3522 3.97143 43.3404 4.05477C43.3262 4.15541 43.4088 4.2985 43.397 4.34096C43.3852 4.38971 43.2272 4.38656 43.2059 4.43845C43.1635 4.54538 43.2484 4.71992 43.2059 4.83786C42.2176 7.60697 40.5099 10.4201 39.4438 13.1719C39.366 13.3716 39.4249 13.5226 39.09 13.6798L39.2999 13.749L39.1277 13.922L38.8824 13.7946L38.873 13.9739L38.6041 14.0274C38.6277 13.8025 38.4602 13.8371 38.4272 14.0274L37.7621 13.8654C37.6866 13.5839 37.5144 13.6201 37.2054 13.4911V13.3984L37.3469 13.3528C37.1606 13.1389 37.196 12.8936 37.0639 12.6593C37.9154 10.8887 38.8824 9.13541 39.7386 7.36953C39.8165 7.20757 39.8047 6.98899 39.8731 6.85533C39.925 6.75784 40.0736 6.71381 40.1184 6.55499C40.2316 6.15559 40.2411 6.31598 40.3826 6.08011C40.6963 5.55333 40.7906 4.89132 40.9864 4.3441C41.0312 4.21673 41.26 4.03433 41.2506 3.8472C40.9015 3.87236 40.5807 3.96828 40.2434 4.04062C39.248 4.25447 38.2173 4.51393 37.1889 4.69791C37.0002 4.73093 36.8398 4.83 36.5756 4.7781L36.9247 4.91648H36.3657C36.2902 4.9668 36.3586 5.37407 36.3445 5.44483C36.2879 5.71058 36.0025 6.10369 36.1487 6.38517L36.0119 6.43077L36.085 6.56443C35.9105 6.81288 35.5472 7.28934 35.6581 7.59439L35.5189 7.64157C35.7124 7.91203 35.467 7.87272 35.3892 7.97808C35.2194 8.20766 35.1415 8.6165 35 8.86967C34.1273 10.4421 32.7663 12.4203 31.2945 13.7475C31.1931 13.8387 29.9005 14.6784 29.8038 14.7019C29.7283 14.7208 29.5892 14.6721 29.45 14.6988C27.99 14.9708 26.9073 15.2051 25.3883 14.7145C24.3599 14.3812 23.4282 13.4345 22.9966 12.7741C22.9471 12.6986 22.9541 12.6231 22.9589 12.543C22.8362 12.5319 22.8928 12.6483 22.8904 12.7049C22.8692 13.054 22.8881 13.4739 22.815 13.8166C22.7914 13.9236 22.5178 14.389 22.3314 14.2617V14.0289H22.1215L22.1899 14.2601C21.8833 14.3497 22.0578 14.0761 21.8762 14.1217C21.7771 14.1469 21.6144 14.3403 21.421 14.3073V14.1437L21.1025 14.128C20.9021 13.7994 20.5082 13.4408 20.5082 13.076C20.5082 12.587 20.7275 12.0115 20.8478 11.5303C20.8973 11.3321 20.8997 11.1073 20.954 10.9044C21.0601 10.5098 21.3549 10.1213 21.2818 9.70465C21.2134 9.65904 19.81 9.97826 19.6543 10.0396C19.3359 10.1654 19.3713 10.8384 19.3099 11.0664C19.0269 12.1357 18.6778 13.249 18.3358 14.3183C18.2981 14.4331 18.0457 14.5777 18.0693 14.7271C17.8192 14.7806 17.9961 14.5478 17.8947 14.54C17.7674 14.5809 17.5055 14.54 17.4183 14.5541C17.2649 14.5824 17.206 14.757 17.0031 14.7208C16.8144 14.6878 16.7861 14.5478 16.8852 14.4472L16.6399 14.5856C16.4559 14.4755 16.654 14.3073 16.3262 14.3529C16.3568 14.2459 16.3734 14.0604 16.3616 13.9582C16.2389 12.9974 16.5621 12.6719 16.8097 11.7693C16.8498 11.6199 17.0479 10.7928 16.956 10.7283L15.9111 10.961L16.1894 11.0523C15.8497 11.0868 15.5761 11.2441 15.2412 11.2818C15.1704 11.2897 14.9841 11.3196 15.003 11.2394L15.8403 11.0523C15.8592 10.9799 15.7389 10.9988 15.6705 11.0082C15.2294 11.0664 13.149 11.6466 12.8424 11.8212C12.7221 11.8888 12.715 12.1011 12.4249 12.1483C11.9626 12.0822 11.3564 12.2379 10.9861 11.9847C10.9035 11.9281 10.913 11.8636 10.8611 11.8118C10.8328 11.7834 10.7361 11.7756 10.7101 11.7489C10.6842 11.7221 10.6299 11.3479 10.5898 11.2724C10.5073 11.1151 10.1747 11.0617 10.6063 10.8431L10.4672 10.6811C10.8446 10.678 10.821 10.45 10.9766 10.3226C11.6253 9.79428 14.4817 9.29738 15.5266 9.05364C16.1139 8.91684 17.0031 8.73915 17.5315 8.57719C17.5975 8.55674 17.6565 8.54259 17.6872 8.49384C17.7249 8.26898 17.9254 8.01424 17.9867 7.80982C18.14 7.30821 18.3169 6.81288 18.475 6.32227C18.6094 5.90399 18.6707 5.4181 18.7816 4.99196L18.8759 4.92906L19.0505 4.96051L18.8406 4.58941L19.1189 4.54066C19.0175 4.26076 19.0576 3.83777 19.258 3.58775L19.1189 3.56416V3.47296C19.3925 3.47925 19.2628 3.15846 19.1189 3.05468L19.3312 3.03109C19.2698 2.63326 19.1095 2.22284 19.6779 1.95867L19.9562 2.031L20.027 1.79828C20.1496 1.77941 20.2298 1.89577 20.3265 1.88476C20.3973 1.8769 20.4657 1.77784 20.5836 1.79828C20.6025 1.80771 20.6945 2.05774 20.7464 2.10963C20.7865 2.14894 20.9139 2.14422 20.987 2.25115C21.1096 2.42727 21.3195 2.98392 21.2795 3.16633C20.9516 4.67275 20.6709 6.2059 20.218 7.7139C20.1803 7.83813 19.8973 7.98279 20.3336 7.9309C20.4751 7.91361 21.7606 7.59597 21.8597 7.55194C22.1569 7.41985 22.072 7.217 22.1357 7.03774C22.6617 5.54861 23.1782 4.00131 23.8127 2.48387C23.8811 2.31719 24.0722 2.25115 24.0722 2.23542C24.0722 2.19611 23.999 2.13793 24.0108 2.09862C24.0439 1.97282 24.1854 1.89892 24.1028 1.74796L24.3528 1.70393L24.2844 1.47278C24.5109 1.51052 24.4873 1.39101 24.6335 1.33283V1.61115L24.8718 1.47592C25.051 1.58128 25.2869 1.6316 25.4709 1.73066C25.5039 1.74796 25.7751 1.92408 25.7846 1.93666C25.8907 2.07346 25.7799 2.3109 25.8247 2.46972C25.8671 2.61753 26.1808 2.72446 25.9261 2.91316L25.7516 2.68043V3.05153L25.9591 3.00593C26.0063 3.22451 25.8907 3.4022 25.7657 3.59718C25.6619 3.75915 25.4661 4.01546 25.4213 4.19944C25.4095 4.2529 25.4732 4.30165 25.4709 4.35354L25.2562 4.3787C25.2539 4.45103 25.2845 4.53752 25.2562 4.60671C25.0251 5.21525 24.617 6.18546 24.4991 6.79873C24.4802 6.89622 24.433 6.98428 24.6312 6.95597L24.6689 6.81288L25.2326 6.86005L25.3647 6.81602C25.8294 5.50458 26.4875 4.17113 27.2847 2.9336C28.3579 1.26521 29.7684 -0.610742 33.0069 0.191216C33.1649 0.230528 34.1273 0.578043 34.2405 0.648804L34.2452 0.661384ZM32.6036 2.07818C32.58 2.06874 32.5823 1.97597 32.4833 1.95238C31.9785 1.8313 31.4714 2.13636 31.1294 2.34078C29.9147 3.06097 28.8957 4.9385 28.3697 5.9889C27.6503 7.42614 27.3106 8.78318 27.2139 10.2865C27.2092 10.3525 27.1408 10.5758 27.0866 10.6214L26.7304 10.6859L26.8767 10.5711L26.7328 10.4075L26.6974 10.6387L26.4898 10.4547L26.037 10.6387C25.9214 10.4673 25.8836 10.2094 25.5558 10.2629C25.3317 9.7644 25.1548 9.26593 25.1925 8.73758L24.9189 8.75645C25.2208 8.81306 24.9661 8.92627 24.9331 9.04578C24.7444 9.77541 24.7892 11.3888 25.1642 12.0791C26.0228 13.6547 28.4829 13.2789 29.733 12.1498C31.2827 10.7503 32.7003 8.45453 33.4126 6.79086C33.639 6.26251 34.2287 4.73722 34.0306 4.26548C33.9905 4.17113 33.8466 4.17899 33.8466 4.15226C33.8466 4.08622 33.9716 4.00917 33.9858 3.91954C34.0919 3.27168 33.7782 2.45085 32.9102 2.08132C32.738 2.00899 32.6272 2.08918 32.6012 2.07818H32.6036ZM54.6008 7.49061C55.6457 6.33013 57.2732 4.75609 57.5775 3.36131C57.6742 2.9163 57.62 2.31405 56.8298 2.1914C56.7024 2.17095 56.1175 2.18353 55.9736 2.19926C51.9473 2.66628 48.6758 6.0974 47.1002 8.37748C46.5506 9.17315 45.7651 10.2157 46.4822 11.0365C46.9327 11.5507 47.6686 11.7772 48.5649 11.6309C50.5368 11.3101 52.4355 9.55998 53.6031 8.5253C53.8248 8.32874 54.2069 8.25955 54.0914 7.94348C54.5843 8.05827 54.4735 7.63213 54.6008 7.49218V7.49061ZM45.2981 6.40875C45.4373 6.38359 45.4561 6.30969 45.4373 6.2232C45.2981 6.24836 45.2792 6.32227 45.2981 6.40875ZM47.6686 13.3826L47.2511 13.2899C47.1002 13.3732 47.6497 13.5053 47.6686 13.3826Z" fill="#FFF0B8"/>
<path d="M16.1374 1.5169C16.2105 1.5452 16.319 1.52319 16.4016 1.52633L16.2624 1.57193V1.66471C16.4676 1.68673 16.5667 1.89272 16.6917 2.00908C16.8568 2.16004 17.1847 2.34716 17.2979 2.48711C17.6211 2.88337 17.5479 3.06578 17.614 3.44789C17.647 3.6413 17.8498 4.23412 17.8027 4.37564C17.7838 4.42754 17.5503 4.44483 17.5267 4.53132C17.5102 4.59579 17.6376 4.65869 17.6328 4.71058C17.6305 4.75461 17.4583 4.87097 17.5173 4.96689L17.3097 4.82694C17.4984 5.23421 17.0314 5.48738 16.9205 5.84747C16.8568 6.05347 17.0785 6.19027 16.6233 6.22644C16.5809 6.25946 16.6328 6.40255 16.6092 6.47332C16.5219 6.7312 16.2129 6.77837 15.9959 6.99538C15.8449 7.14633 15.7907 7.29729 15.6657 7.42623C14.7175 8.39959 13.5287 9.36823 11.7384 9.69216C11.4672 9.7409 11.2148 9.69058 11.0804 9.71417C10.9742 9.73304 10.8115 9.89029 10.6322 9.88557L10.5402 9.80066L10.6794 9.75505C10.2548 9.87928 9.88687 9.68429 9.52835 9.70316C9.19577 9.72046 9.31606 10.0947 9.27124 10.2331C9.19576 10.4595 8.97405 10.7331 9.00707 11.0303C9.03773 11.2992 9.08019 11.1388 9.00707 11.4533C8.86319 12.0902 8.99999 12.9377 8.78063 13.5321C8.76412 13.5762 8.257 14.1674 8.20275 14.169L8.09661 13.9378L7.7829 14.1108L7.13898 13.9708C7.10832 13.9174 7.12011 13.8561 7.08001 13.8026C6.98802 13.6768 6.69554 13.3214 6.64837 13.205C6.57761 13.0305 6.79933 12.6311 6.61535 12.5509C6.5493 12.5226 6.40071 12.5808 6.42193 12.4959L6.74036 12.4518C6.87009 12.0115 6.955 11.5681 7.04935 11.1231C7.18379 10.491 7.25455 9.86513 7.33475 9.22199C7.34654 9.12135 7.46448 9.02386 7.4692 8.93423C7.47392 8.82573 7.15313 8.4216 7.20974 8.20146C7.23804 8.09453 7.51637 8.00333 7.33004 7.80048C7.86546 7.87753 7.63902 7.70456 7.68148 7.59449C8.15558 6.39941 8.33248 5.19333 8.53061 3.97938C8.54005 3.92277 8.59666 3.86459 8.58487 3.80169L8.79243 3.89447C9.00707 3.70735 8.43154 3.24661 9.07311 3.24504C9.10142 3.26234 8.82309 3.70577 9.14388 3.66332V3.47777L9.70289 3.52337C9.68166 3.41958 9.44815 3.44474 9.3538 3.47777L9.45758 3.24661C9.69109 3.28278 10.1911 3.63501 10.2572 3.7844C10.3091 3.89919 10.3728 4.21368 10.3845 4.33948C10.4129 4.64611 10.302 4.90242 10.3232 5.27195C10.3232 5.29397 10.2053 5.2861 10.1911 5.32227C9.97886 5.94497 10.1275 6.76422 9.9765 7.40422C9.91989 7.64323 9.45051 7.83193 9.92932 7.97817C10.7053 7.88067 11.5167 7.78161 12.1677 7.46869C13.3848 6.8853 15.3024 4.73259 15.3567 3.73565C15.3732 3.43845 15.3142 3.10981 15.0406 2.87237C14.6231 2.50755 13.7716 2.17576 13.0758 2.17891C12.9013 2.17891 12.8305 2.24967 12.7197 2.2591C10.7973 2.42578 7.84187 3.23403 6.17663 4.03599C4.91944 4.64139 4.30618 5.46536 3.2825 6.19971C3.07965 6.34437 2.82255 6.57395 2.51356 6.54722L2.58433 6.6856C2.35789 6.57081 2.15269 6.77523 2.0607 6.76894C1.99701 6.76579 1.93568 6.66044 1.84369 6.64943C1.77293 6.64157 1.65972 6.69975 1.61962 6.68245C1.52291 6.64 1.13136 6.03303 1.11957 5.91981C1.10778 5.80659 1.32242 5.69337 0.980408 5.66192C1.21392 5.45121 1.13373 5.20591 1.3979 4.98733C2.15976 4.36149 2.81548 3.59098 3.66697 2.96514C5.15531 1.86913 8.47401 1.00113 10.611 0.617447C13.1725 0.158287 14.024 0.306099 16.0242 1.38638C16.0879 1.42098 16.1091 1.50432 16.1398 1.51533L16.1374 1.5169ZM9.4222 3.71206C9.4623 3.68533 9.36323 3.57369 9.31842 3.57369C9.125 3.57369 9.31842 3.78282 9.4222 3.71206Z" fill="#FFF0B8"/>
</svg>
