<?xml version="1.0" encoding="UTF-8"?>
<svg id="Calque_1" data-name="Calque 1" xmlns="http://www.w3.org/2000/svg" viewBox="0 0 288.02 288.02">
  <defs>
    <style>
      .cls-1 {
        fill: #fcf1be;
      }
    </style>
  </defs>
  <path class="cls-1" d="M26.23,169.2c-.05-10.12,2.54-20.5,4.34-30.37,1.47-7.29,1.81-14.87,3.49-22.16,1.09-5.51,2.96-10.63,4.91-15.95,2.18-6.09,4.47-11.98,7.64-17.31,5.88-9.21,11.18-18.95,17.6-27.79,5.93-8.22,13.98-15.14,22.65-20.53,5.75-3.94,11.55-7.62,17.69-10.75,7.63-4.25,16.18-5.2,24.79-4.62,9.44.38,18.66,1.53,27.88,3.42,17.61,2.75,32.54,8.63,47.08,18.8,17.93,11.34,31.82,27.53,43.07,45.25,4.56,8.24,8.52,16.33,11.47,24.84,3.51,12.42,4.5,26.05,3.45,38.89-.38,6.2-.47,12.5-1.34,18.67-.97,7.11-3.38,13.92-5.74,20.69-2.71,8.5-7.36,16.05-12.8,23.05-4.34,5.96-8.47,11.73-14.22,16.18-4.61,3.25-9.85,6.35-15.1,8.2-2.08.24-2.86.19-4.86,1.51-6.36,3.92-10.25,9.78-16.4,13.37-5.77,3.46-12.75,5.79-19.09,8.19-6.81,2.51-13.65,5.91-20.78,6.89-6.66.94-13.29-.13-20-.13-5.42-.08-10.97.37-16.41.11-11.71-.35-22.6-5.64-32.77-10.85-11.44-5.43-21.59-12.9-30.64-21.76-5.78-5.44-9.46-11.88-13.28-18.61-9.27-14.31-12.86-30.3-12.63-47.06v-.17ZM113.88,178.6c1.56,7.31,10.03,2.34,14.51.65,5.69-2.44,11.28-4.54,17.02-6.44,9.43-3.24,19.81-5.34,29.61-7.41,4.21-1.19,12.69-1.59,14.21-6.07,1.23-7.66-15.92-15.44-20.84-20.75-3.68-3.39-6.98-7.27-10.13-11.18-7.3-9.3-15.26-18.91-24.43-26.7-3.35-2.82-8.59-7.2-10.33-.4-1.46,5.89-1.62,12.47-2.55,18.54-1.65,12.33-3.94,24.1-4.96,36.51-.5,4.5-1.01,8.99-1.64,13.39-.43,3.08-1.01,6.8-.51,9.72l.03.15ZM141.6,265.29c-.9.65,1.57.26,2.48.29,1-.04,1.78-.26,1.55-.53-1.06-.69-2.76-.33-3.92.17l-.12.07ZM153.92,265.28c-2.41,1.04.64.8,1.63.53,1.02-.22,2.83-.77,3.43-1.27.22-.2.11-.3-.37-.32-1.42-.05-3.18.47-4.49.98l-.2.08ZM159.51,263.36c-.66,1.19,1.08,1.44,1.67.59.38-.79.39-1.77.9-2.53.67-1.51-2.4,1.31-2.48,1.76l-.09.17ZM163.98,261.67c-.84.6-1.73,2.07.21,1.16,1.1-.54,2.18-1.21,3.28-1.76,1.44-.71,2.39-1.99,1.82-2.34-.43-.2-.81-.04-1.38.21-1.22.65-2.67,1.77-3.76,2.58l-.17.14ZM171.92,257.46c-.58.31-.95,1.94-.29,2,.35.04.9-.35,1.45-.57.41-.18.75-.26.84-.4.22-.58-1.33-1.47-1.86-1.12l-.15.09ZM176.57,256.5c-.17.2-.18.4.07.51.77.43,4.01-.65,3.78-1.21-.15-.18-.29-.21-.58-.23-.97-.04-2.43.2-3.16.82l-.11.11ZM181.89,255.68c-.16.38.33.29.58.27,2.09-.34,4.73-1.84,5.35-3.95.05-1.33-1.86.55-2.33.98-1.07,1.1-2.65,1.42-3.57,2.62l-.04.07ZM190.83,250.58c-.72.46-1.95,2.28-.19,1.41,1.08-.77,2.45-1.42,3.08-2.64.16-1.54-2.24.72-2.7,1.07l-.18.15Z"/>
</svg>