<?xml version="1.0" encoding="UTF-8"?>
<svg id="Calque_1" xmlns="http://www.w3.org/2000/svg" version="1.1" viewBox="0 0 3024 3110.7">
  <!-- Generator: Adobe Illustrator 30.0.0, SVG Export Plug-In . SVG Version: 2.1.1 Build 123)  -->
  <defs>
    <style>
      .st0 {
        fill: #fff;
      }
    </style>
  </defs>
  <path class="st0" d="M2953.5,3.2c-3.1,4.6-7.4,4-8.3,11.4-.8,6.7,18.1-.7,20.6-2.1,3.3-1.9,6.9-16.4,12.5-11.3,3.4,3.1-12.1,11.7-10.3,16.5,15.1-5.5,20.8,11.5,36.2,12.4l-3,11.2c14.9,7.9,9.4,12.1,12.1,22.7.8,3,10.8-1.8,10.6,14.7-.1,10.1-4.3,41.2-6.4,51.7-.9,4.5-4.8,5.6-5.8,8.7-14.1,45.3-13.7,108.4-21.6,156.3-13.9,83.5-25.2,170.4-38.3,255.5-7.9,51.8-7,110-8.8,162.9-.1,3.9,2.9,8.5,2.2,12-.3,1.5-7.4,3.5-9.9,9.2-4.2,9.3,1.1,35.7-9.5,35.3-5.7-.2-5-8.4-11.5-5.7l-4.3,9.3-10.3-1.2c0,12.9-8.5,9.1-17,10.9-2.1.4-4.1,3.3-6.8,3.6-5.9.6-13-6.1-18.6,2-7.6-4.6,4.4-16.2-7.2-16.5-.6.5,2.2,9.5-5.1,6.1-3.9-1.8-7.1-12.6-10.4-16.5-4.4-5.4-24-20.7-25-22.7-2.3-4.5,6.9-19.9-3.9-27-4.5-2.9-15.4-5.8-21.8-9.2-30-15.6-66.4-40.5-96.4-52.5-2.5-1-14.6-5.2-15.2-4.4,1.3,26.8-23,46.7-36.9,67.6-25.7,38.5-52.1,77-77.8,114.5-4.4,6.4-3.1,14.9-5.5,19.2-4.1,7.8-19,19.2-24.3,27.6-8.3,13.2-13.8,31.2-23.9,46.5-60.6,92.3-125.4,181.5-183.7,275.5-94.2,152-184.1,307.1-280.3,458-26.5,41.5-54.7,81.7-80.9,124-5.6,9.1-16.2,34.1-22.1,40-3.7,3.7-9.5.7-13.5,3-7.3,4.2-2.9,22.4-15.4,19.7-12.5-2.8,4.8-15.7-2-25-1.5-2-15.3-6.2-15.5.9,0,2.9,2.3,5,1.1,9.6-.8,2.8-9.1,15.2-12.6,14.4-7.2-5.3-.6-13.8-1.1-19.6-1.1-11.8-8.8-8.1-15.1-9.4-1.7-.3-1.4-3.6-4-4.7-3.2-1.5-8.1-.9-11.1-3.3-6.4-5.2-.5-13.4-.7-19.8-.7-28.2-7.2-48.5,6.5-76.1,2.7-5.4,11.3-12.4,15.7-19.5,54.4-87.3,105.8-177.9,158-266,11.9-20.2,17.9-45.9,32.6-66.1,6.3-8.6,17.8-12.1,24.4-27.9,11.9-28.8,9-20.7,26.2-44.1,12.1-16.5,25.6-39.2,35.9-57.2,22.8-39.3,39.6-79.7,62.9-119.2,75-127.2,163.5-245.5,241.2-371.1,22.4-36.2,44.8-72.3,67.4-108.4,7.8-12.4,15.1-25.4,21.7-38.4.4-4.2-5.9-5.8-8.7-7.2-17.7-8.8-43.4-13.2-59.7-22.6-5.6-3.2-14.8-14.9-18.8-17.8-3.4-2.4-12.5-2.8-14.9-6.8-2.2-3.8-.3-10.2-1.5-15-.9-3.5-5.6-7.4-6.8-11.8-3.7-13.6-2.3-25.6-2.8-38.4-.3-7.4-4.9-16.6-1.2-23.9,1.3-2.5,5.3-2.8,7.2-5.7,4.5-6.9,2.8-17.4,5.3-23.1,2.4-5.5,54-32.2,63.8-39.7,4.8-3.7,13-14.8,14.4-15.6,16.5-10.2,20.2-17.8,33.6-27.5,5.5-4,12.6-5.1,16.6-8.2,4.4-3.5,10.7-14.9,15.7-19.5,16.8-15.6,35.5-31.2,52.5-46.8,88.8-81,180.7-159.9,268-240.9,4.7-4.4,8.6-12.7,13.3-15.7,15.1-9.5,23.1-3.2,38.3-2h0ZM2823.2,549.3c.4-8.8.9-19.2,2.2-27.8,8.6-54.3,20.5-110.2,32-164.5,5.3-25,2.4-42.4,5.1-65.3,1.1-9.2,7.2-18.7,4.2-29.9-5.2,5.9-13.4,8.7-18.7,13.4-9.6,8.6-19.5,16.3-28.9,24.9-7.4,6.6-15.5,20.9-23.7,26.1-3.9,2.5-6.9-.5-7.2-.2-.7.8-4.5,11.7-10.4,17.6-14,14-34.4,18.7-45.7,28.8-3,2.6-4.2,6.9-7.1,9.4-5,4.3-20.9,13.5-20.9,19.7,0,1.3,2.9,2.9,2.4,5.2-1.9,9.8-17.8,10.9-23.9,15.5-4.8,3.6-9.3,14.5-16.5,20.7s-18.1,10.8-24.8,18.6c-.2,3.9,31.7,14.2,37.2,16.6,46.3,20.4,91.2,44.2,134.6,70.2l10.2,1.1h0ZM2841.8,267.9c-2.7-2.3-15,11.6-16.5,14.5,3.6.5,6.3-2.5,9-4.5,1-.7,9.6-8.2,7.6-9.9ZM2806.6,299c-3-2.5-9.2,6.7-8.2,10.3l8.2-10.3ZM2777.7,327.9c-2.7-2.7-11.6,6.6-13.1,8.5s-7.1,8.3-5.5,10.1c4.1-.5,22.7-14.5,18.6-18.6h0Z"/>
  <path class="st0" d="M1402.9,2382.9c15-13.2,32.3-35.4,55.4-31.5,2,.3,18.2,5,19.3,5.7,5.7,3.4,5.2,10.6,7.7,14,11.2,15.4,40.1,20.4,43.8,43.9.6,3.9-2.5,6.6-2.2,9.5.4,5.3,6.5,18.4,7.2,25.1.9,7.5-4.6,28-7.7,35.4-5,12.3-19.3,19.8-23.7,32.2-7.9,22.4-3.2,41.1-3.8,62.3-.5,16.3-1.8,28.6-1.8,45.6,0,11.5-3.2,67.1,5.1,71.4,4.2,2.2,3.3-12.4,9.2-13.5v-3s-7.7-5.2-7.7-5.2c4.8-9.7,2.7-15.6,10.8-23.9,7.9-8.1,8.5-1.8,5.3-18.5,7.8-.4,15.9.7,23.7-.1,11-1.1,12.1-1.9,24.8-1.9,10.1,0,28.5,1.5,37.3-.1,11.2-2.1,5.1-21.9,5.2-32.1.2-26.2,0-54-2-80.6-1.4-17.8-9.7-39.5-10.4-55.8-.7-14.3,5.8-32.4,6.1-43.4.1-5.4-5-11.2-5.9-16.5.7-3.1,15.6-6.2,18-10,1.3-2,.6-6,2.5-8.9,1.6-2.5,10.6-14.7,12-15.5,6.2-3.8,9.9.8,13.7.3,1.9-.2,3.9-9.7,8.6-8.4,3.9,10.1,10.2,4.8,18.5,6.4,31.8,5.9,66.3,20,99.3,16.3,8.1-.9,21.6-6.4,31.2-6.2,5.6.1,16.6,8.3,27.1,8.2,5.8,0,10.7-5.3,15.9-4.1.9.2,6.7,9.9,12.6,12.7,4.3,2.1,9.6,1.3,12.6,3.9,3.8,3.4,7.3,17.1,11.3,21.8,6.1,7.4,22.2,6.9,4.2,14.4,4.1,3,13.3,15.6,12.2,20.3-1.5,6.3-14.3,6.4-12.2,10.7,2.8,5.7,15.8,0,20.2,8.8,8.9,17.6-.7,42.9-18.7,50.7-23,9.9-85.5,8.3-112.3,7.9-8.2-.1-33.5-6.9-36.1,7.1-1.9,10.5.1,31.5.1,43.5,0,7.8-5.6,14.9,3,21.6l16.6-14.4,6.1,4.1c8.8-7.4,28.2-18.2,39.4-18.7,9.6-.5,17.3,9.4,27.9,6.4-.8,2.4-2.2,4.2-2,7,1,15.1,10.2-.9,13.4,9.6,3.9,0,5-5.5,9.3-3.3,1.7.9,26.1,24,27.8,26.1,6.9,8.4-.3,17.1,1.2,26.8-3.7-.7-5.7-3.1-8.2,1.1l2.3,13.2c5-1.4,8.6,2.9,5.9,6.4-3.4,4.4-5.6-8.2-9.3-6.2-2.7.6-11.9,15.3-8.3,18.6l10.3-6.3,2,4.3c7.3-7.5,20.1-4.9,11.4,5.2-3.4,4-15.2,4.1-18.6,10.4l12.4,4.1c2.3,1.6,2.5,3.3,1.8,6-1.3,4.8-34,17.5-40.9,21.2-14.9,8.2-30.1,19.8-44.9,27.4-21.2,10.8-44.8,16.3-66,27.1-6.3,5.9-7.3,40.3-5.2,48.4.6,2.2,4.9.6,4.2,2.4-3.6,3.2-7.2,5.9-6.2,11.4l132.3-39.4c-.1-3.7,1.9-6.6-2.9-6-15.9,1.9-32.5,7.6-48,11.6-5.9,1.5-9.6,2.2-16.7,4.4-16.7,5-33.4,12-50.2,14.9,4.5-9.4,16.1-6.9,24.3-9.8,5.9-2.1,10.2-8.4,14.9-9.9,7-2.3,17.7-1.3,25.3-3.6,4.6-1.4,9.3-5.9,13.7-7,24.3-6.1,49.9-11.3,74.9-6.8l-2.1,6.2c20.8-2.8,14.1,2.4,22.8,13.5,1.3,1.7,10.2,10.4,12.3,12.4,8.4,7.7,23.6,10.9,20.8,25.8,4.9,3.4,7.4-7.8,9.3-2.1.7,2,3.1,15.2,3.2,17.5.5,8.1-2.1,14.9-2.2,22.7l12.5,16.6-3.5,4.8c-11.6-1.3-10,2.5-15.2,7.7-4,4-8.2,2.1-6.2,11.3h12.4c2.3,25.9-28.3,14.7-44.4,14.4l-1.2,6.2c-5.6,1.6-11.7-2.8-16.9-1.5-4,1-10.6,7.6-15.7,9.3-10.4,3.6-20.5,4.3-32.9,8.5-8.8,3-16.2,2.9-25.4,2.5,2.2-9.1,11.3-8.8,18.6-12.4l-1.1-4.1-116.8,45.6,2.7,3.8c7.3-3.8,16.2-4.5,23.6-7.5,21.1-8.5,36.5-15.2,59.1-21.1,3.1-.8,3.2-11.4,9.7-3.1l-33.7,18c-39,9.5-65.8,42.1-104.3,52.9-9.4,2.6-18.4,1.7-25.8,2.9-4.5.8-8.8,6.1-13.9,5.9-1.3-5.3-2.1-13.6-7.1-16.7-4.5-2.8-8.6-1.1-12-2.5-2.5-1-19.1-9.4-19.7-10.3-1.1-1.7-.2-5.4-1.6-7.7-6.1-10.1-4.6-11.2-8.2-18.8-1.3-2.7-7.7-5.1-10.5-8.2-9.9-10.9-1.7-15.4-1.3-25.9.2-6.4-4.1-18.4-3.3-24.4.7-5.4,7.6-16,9.3-21.8,7.6-25.4,8.9-65.3,11-92.4.6-6.9,8.8-25.3-1.1-26-4.8-.3-9,3.2-16.1,1.7-7.8-1.6-9.4-9.7-11.2-10.1-4.4-1-8.6,2.9-13.7,0-4.4-2.5-5.4-7.5-8.6-10.2-13.7-11.1-26.9-9.1-20.5-33.2l-15.7-6.1c11.1,46.4,27.5,101.3,20.1,149.4-1.7,11.2-8.5,15.6-12,25.2-3.9,10.6-5.3,25.8-9.2,36.3-24.2,65.4-76.7,135.6-143.2,160.9-25.8,9.8-32.2,3.4-54.7-4.3-6.8-2.3-15.7,0-20.1-6.8-1.7-2.6-1.7-7.9-2.6-8.7-1.1-.9-21.8-6.8-27-9.2-2.9-1.4-21.7-11.6-22.5-12.6-2.5-3.3-1.2-7.9-3-11.5-10.3-19.8-29-28.2-33.1-53.8-2.1-13.2,1.8-11.9,3.1-19.9,1.3-8.6-2.1-30.6,1.2-36.1,1.8-3.1,9.5-4.7,10.8-6.8s.3-5.7,2.5-8.8c5.5-7.8,13.7-13.5,19.1-21.3,10.2,4.2,20.9-2.5,29.7-2.1,9.1.4,39.1,26.4,38.3,38.9,13.2,9.6,53.4-42.3,60.2-52.2,8.8-12.8,18.9-27.2,23.8-42.4,12.7-39,6.3-49.3,1.1-86.8-1.5-10.9-2.9-13.6-4.6-22.3-1.9-9.8.9-24.1-.3-34.9-.9-8.7-7.4-23.3-8.3-31.1-.8-7.2,2.6-14.9,2.4-22.8-.2-8.4-3.9-18.1-4.4-26.8-1.8-31.6-2-63.6-1.9-95.3-2.1-15.6-25.6-9.9-37.3-13.4-1.7,14.9,3.7,29.6,2.1,44.5-3.1,28.9-8.5,63.3-19.2,90.5-6.3,15.9-14.4,34.1-30.6,41.8-5.8,2.8-13.6,2.6-19.6,9-5.1-1.8-6.1-11.1-9.3-13-3-1.8-8.1-.8-11.9-2.6-5.8-2.7-30.8-18-35.1-21.8-10.6-9.4-6.5-21.7-9.3-31-1.5-4.9-7.1-14.2-7.9-21.3s7.2-16.6,4.3-26.6l-6.3-1.1c-3.2-11.8,12.3-16.7,14-22.2,10.9-33.4,10.6-73.6,3.2-107.8-3.5-16-12.9-33.3-10.4-48.7.5-3.3,5.4-5.8,5.8-12.7.4-8.9-6.9-15.8-6.5-20.5.1-1.4,3.7-1.3,4.3-2.6,2.2-4.8,1.5-10.9,6.2-14.3l12.4,3.2-1.2-12.5,15.7-1.9c-1.4-18.3,3.6-7.7,11.5-6.3,51.5,8.7,73.8,36.7,119.3,50.4,5.2,1.6,18.8,5.8,23.2,5.5,7.7-.5,8.4-5.9,12.4-9.4h0ZM1875.7,2636.6l-3.1-12.4c-3.7,4.1-12.7,5.9-8.3,12.4h11.4ZM1861.1,2704.6l-.8-6c-3.9,2-6.1,3.9-7.2,8.2l8.1-2.2Z"/>
  <path class="st0" d="M1085.5,2394.5v-6.2c4.8-4.5,12.2,11,15.2,13.8,25,22.9,67.2,62.1,77.3,95.5,3.2,10.4,2.4,23.8,6.9,34.5.3,4.6-5.8,4.9-7.4,7.2-4.9,7.5,5.2,23.5,6.8,30.5,6.4,28,.4,68-1.6,96.8-.4,6.3-2.4,44.4-1,46.6.9,1.3,4.1,1.5,4.7,2.4,2.7,4.2-12.5,86.8-15.8,98.2-6.5,22.9-20.8,44-31.7,65.6-15,29.7-42.8,88-67.9,107.9-13.3,10.5-30.3,15.4-44.2,24.1-7.4,4.6-4.8,10-19.1,11.9-26.2,3.5-43.4,2.1-68.2-5.9-3.7-1.2-5.7-5.1-8.6-5.9-28-8.4-39.6-12.4-62.7-32.5-6.8-6-29.6-33.1-34.5-33.9-9.3-1.4-5.5,8.1-7.9,14.1-1.5,3.7-9.4,17.3-12.7,18.3-15.1,4.6-13.2-7.1-22.3-8.1-11.4-1.2-14.3,7.9-20.8,8.4-1.7.1-14.2-1.9-16-2.5-3-1.1-4.7-4.4-7.2-5.2-8.8-2.9-19.4-4.6-27.4-7.8-16.7-6.5-39.3-48.1-54.8-63.1-11.1-10.8-27.2-19.6-38.3-29.9-8.9-8.2-44.4-52.8-54.7-50.7-8.5,19.3-9.5,41.1-14.9,61.7-6.3,23.8-15.9,53.7-24.5,76.8-1.9,5.1-6.4,18.5-9.1,21.9-4.8,5.8-11.6,3.7-14.1,5.5s-.6,11.6-7.7,12.2-15.6-14.5-24.6-14.8l-8.4,9.9-15.8-6.5.3-7.4c-7.3-1.4-5.8,6.7-14.5,4.1,3.7-14.7-8.1-14.5-14.2-24.1-1.3-2.1-14-31.4-14.4-33.2-1-4.1,3.5-14.8,3.9-20.4.3-4.7-2-8.9-1.7-12.3,2.6-39.8,16.6-59.8,25.9-95.7,10.2-39.3,15.8-79.4,23.8-118.9,1.8-8.8,8.6-19.8,9.7-27.5,3.4-22.4-2.1-45.7,0-66.1.6-5.5,4.3-9.3,4.1-14.2-.2-4.2-3.7-8.5-4-12.9-.9-11.8,1.2-27.2-.6-40.6-1.1-8.2-5.2-12.9-7.8-20.2,11,.8,13.5-13.2,14.4-22.1.4-4.3-2.4-8.7-1.7-11.7.8-3.3,10.1-7.9,13.3-11.6,4.2-4.8,3.3-11.2,11.3-13.7,3.3-1,6.4.6,9.7-.4,4.2-1.3,7.4-5.7,12.1-6.6,45.1-8.9,82.6-6,127.3,4.9,10.2,2.5,20.5,12.5,29.7,15.8,11.4,4,24.1,3.3,34.3,13.3,3.2,3.1,5,8.9,8.3,12.4,23.8,25.3,57.5,58.6,70.7,90.7,1.6,3.9,5.8,24.2,8.9,24.1,5.8-6,5.2-14.1,9.7-21.3,6.1-9.9,18.8-15.6,20.4-30.3l4.1,1,3.1,9.3c6.6-7.4,16.8-10.5,22.6-18.7,7.4-10.4,8.8-26.3,14.5-37.2,29.2-56.4,81.3-126.4,153-119.2,4.8.5,10.8,6.6,16.9,7.6,7.3,1.1,15.9-2.9,20.1-1.7,5.9,1.7,9,18.1,20,14.2h0ZM959.3,2662.4c-1.8,14,0,34.7,0,49.6s-16.2-5.6-18.6-3.1l-2.3,16.4c-4.2.8-8.6-.6-12.8.6-2.5.7-7.7,8.1-9.7,5.8-4.2-4.9,6-7.9,7.3-10.3,2.5-5,.4-13.1,1-18.7-11-2.1-8.4,4.5-12.3,9.5-1.5,2-5.8,2.2-6.3,4.4-1.3,5.1-.3,26,0,32.7,1.8,29,15.3,78.7,31.8,102.7,15.5,22.6,32.6,10.8,46.8-5.5,46.5-53.4,75.1-146.7,78.8-217.1,2-38.2,2.1-76.5-17-110.4-13.9-8.7-49.7,30.1-56.3,41.3-4.9,8.3-10.8,24.9-13.3,34.3-1.3,5,.4,10.6-.9,15.6-4.1,14.8-14.3,38.4-16.1,52.2h0ZM648.5,2570.9c-7-5.7-45.4-12.1-50.2-2.7-5.4,11.6,3,26.9,2.8,36.3,0,4.4-3.5,8.1-3.7,12.5-.5,10.3,4.2,25.1,1.9,37-.8,4-4.6,5.2-4.1,9.4,27.8-4.6,69.3-50.8,61.5-79.1-.3-1-7.7-12.9-8.3-13.4h0ZM747.6,2747.5c-5.5,5.9-22,13.6-19.7,22,.4,1.6,18.8,21.9,21.3,24.3,8.9,8.3,21.6,11.9,29,22.6,6.6.1-.6-25.6-1-30-2.4-25.6-3.5-52.1,0-77.6-2.7-3.5-26.4,35.1-29.7,38.6h0ZM1178.6,2733.8c-5.9-1.1-3.3,1.5-4.7,4.5s-2.5,6-3.5,9.1c-9.2,29.8-12.1,61.9-20.8,91.9,12.2-6.7,10-20.1,12.5-29.9,6.4-25,12.8-50,16.4-75.6h0ZM1124.1,2896.6c2.1-3,3.1-6,2.7-9.7-7,4-12.2,12.4-12.4,20.7,3.2-.3,3-5.1,5.3-8.2,1-1.3,3.6-1.8,4.3-2.8ZM1093.8,2938.6c3.1,3,15.9-16.3,14.5-20.7-3.8.5-15.4,19.8-14.5,20.7Z"/>
  <path class="st0" d="M623.9,1598.4l.3,8,16.6-3.1c4.9,2.3,2.9,10,5.3,11.6,3.5,2.5,19.8.2,14.7,9.6-.2.4-3.3.5-3.6,1.8-2.6,12.7,25.8,20.9,24.9,36.9-.4,7.4-15.3,30.1-19,39.1-19.4,46.6-26.7,109.5-32.7,159.7-3.7,31,1.5,70.2-4.2,99.2-.9,4.6-5.2,5.8-6.2,10.4-2,10.2,1.1,26,0,37.3-2.4,26.3-.6,49.2,0,76.6.7,29.1.3,59.1,2,88.8.9,15.2,5.5,33.9,4.1,49.5-.2,2.3-14.1,33.1-15.5,34.3-6.8,6-16.3-1.2-22.5,0-1.6.3-.5,4.2-4.4,4.4-12.2.6-18.6-13.6-32.8-6.3-4.6-10.9-18.9-17.6-30.4-15.5l-3.9-14.8c-4.2-5.4-12.7-1.2-16.4-3.3-.6-.4-7.2-11.1-7.5-12.1-9.2-23.9-7.5-81.1-7.4-108.4.1-44.3,3.8-84.6,8.3-128.4.2-1.9,1-6.5-1-7.2-3.6,0-13.7,11.4-16.4,14.7-9.7,11.9-23.4,29.9-31.9,42.6-3.3,4.9-11.6,25.1-15.3,27.1-3.2,1.8-9-.8-11.7.8-.6.3-2.2,7.2-5.4,10.1-8.1,7.3-24.7,8.9-34.8,5.7-4.8-1.5-4.5-7.3-7-7.9-7.1-1.8-16.6,3.7-22,1.9-3-1-3.5-5.3-5.7-6.9-12.2-8.9-22.4-10.7-24.6-29-2.2-3.7-7.2,2-7.9,4.4-2.8,22.2-5.8,52.4-13.8,73.1-2.6,6.7-4.3-6.5-9.3-4.2l-12.4,53.8c5.6-2.2,6.1-9.1,6.3-14.4l10.3,1c-3.5,13.1-4.3,26.7-7.7,39.9-2.2,8.6-9.8,33.6-13.5,40.3-4.6,8.5-13.7,10.1-9.9,24.3l-24.7-4.2.2-7.9,18.3-4.4c-14.9-20.9-30.4-4-39.7,12.1l-8.1-.5c-4.3-27.9-5.9-6.1-15.4,2.9-16.3,15.4-14.8-1.9-17.9-3.8-2.1-1.2-6.7.6-10-1.4-.7-.4-10.4-11.4-10.7-12.2-5.1-13.4-5.9-62.1-3.9-76.9.9-6.2,6.1-14.5,7.8-21.1,22.5-86.6,31.2-176.3,46.6-263.8,7.3-41.8,20.3-88.2,25.9-129.3,1.1-8.1-1.2-24.5,2.4-30.2.4-.6,11.3-7.1,12-7.2,3.4-.7,7,2.1,11.4,1.4,8.5-1.3,16.2-10.1,29.3-7.9,7.2,1.2,11.2,9.1,15.8,11.2,6,2.8,15.5,2.3,22.5,6.5,8.9,5.3,24.8,23.2,26.4,33.2.4,2.6-2.2,5.6-.6,9,2.3,4.7,12.4,6.1,15.6,9.4,7.9,8,2.5,47.4,8.1,60.2-6.4,16.7,5.5,33.5,8.4,47.5,1.3,6.4-3.7,18.2,7.3,17.6,1.4-.3,13.5-20.1,16.5-23,4.9-4.8,14.3-7.1,17.7-15.4l-4.3-2.1c-2-10.8,25.1-13.4,18.7-27.9l6,2c11.8-16.7,25-32.8,35.4-50.6,14.9-25.5,33-57.9,46.3-84,13.6-26.7,22.9-57.5,38.4-83.7,13.9-6.8,34.1-4.6,42.6-19.5,6.1-1.3,4.4,10.2,7,13.6,2.7,3.6,11.5,4,12.4,5.3h0Z"/>
  <path class="st0" d="M397.4,2732.4c-21.4,26.8-59.7,66.8-97,67.6-18.5.4-49.9,1.3-68.2-2.1-4.9-.9-4.1-5-7.7-6.9-7.8-4.1-21.7-3-30.5-5.6.1,8.3-5.8,18.4-6,26.1-1.4,45.5.9,87.1-2.2,134.3-.8,11.6,1.6,26.2-.1,37.1-.2,1.5-11.6,24.6-13.4,27.9-4.4,8.2-21.4,26.5-30.9,26.7s-28.7-1.8-37.8-5.4c-8.5-3.4-15.1-12.4-24-17.4-3.3-1.9-11.1-3.5-11.5-4-1.6-1.9,2.4-13.2-4.5-19.4-5.2-4.7-11.8.5-14.2-1.2-.4-.3-1.9-7.6-3.4-10.1-1.7-2.9-5.7-4.7-6.7-7.8-2.6-8.5,3-20,3.5-28.8,4-63.6,9.8-129.7,14.6-192.3,1.9-24.5-1.3-52.5,3.7-74.9.7-2.9.7-5.9.5-8.8-7.7-.3-15,10.4-21.9,4.3-3.1-2.7-2.2-7.9-5-11.5-3.6-4.5-14.4-8.8-18.3-14.8-4.2-6.6-4.4-19.9-6.5-27.7l-8.2,4.1c-4-8.1.9-14.2,1.8-21.9,4.3-37.2,1.8-43,27.1-72.2,36-41.5,76.1-71.3,123.9-97.4,8-4.4,18.1-15.7,27.1-14.3,1.2,1.9-17.3,10.7-9.4,11.3,7.6,1,16.6-11.3,19.2-12.2,23.3-8.2,47.7-8.1,71.4-13,5.6-1.1,9.5-5.6,14.6-5.6,45.3,0,92.9,32.2,123.5,62.9,30.4,30.6,44.5,59.4,43.5,103.6-1.7,71-2,112.8-46.9,169.2h0ZM274,2537.7c-10.2,2-49.2,20.4-58.1,26.8-15.2,10.9-8.8,16-9.8,29.4-.6,9.1-12.8,36.9-5.2,42.9,1.2.9,18.9,7.2,21.3,7.6,45.9,7.9,86.9-41.6,81-85.2-2.5-18.5-10.9-24.9-29.3-21.4h0Z"/>
  <path class="st0" d="M959.6,1641.2c1.8,1.6,9.1-1.7,13.2,2.3,4.5,4.4,1.7,12.9,3.5,16.2.6,1,12.7,7.9,14,11.8l-6.2,6.2c2.1,4.8,25.3,2.3,20.5,17.4-1,1.4-13,1.3-12.3,7.4,6.2,1.7,10.7,6.5,11.9,13,2.5,13-8.9,6.7-11.7,9-2.9,2.4-1.7,15.8-16.8,21.4-20.7,7.7-42.4,12.9-63.5,19.3-11.3,2.4-42.8,3.2-51.4,8.6-3,1.9-3.8,4.4-4.9,7.5-4.8,13.5-6.6,34-8.4,48.5,4.4,4.3,51.7-24.3,61.5-26.4,13.6-3,7.3,4.1,8.8,5.7,5.9-1.1,8.7-4.1,15.5-4.3,11.9-.4,19.8,9.1,30.8.3,5.7,2.5,4.6,9,7.4,13.4,5.4,8.4,18.8,8.2,14.6,23.7l14.5-8.3c1.7,2.2-4.3,13.3-5.8,15.9-4.6,8-13.9,12.3-12.8,21.3,11.8-4.7,16.6-19.7,31-18.6l-12.4,13.4,18.6,3.2-6.2,18.5c-8.8,1.9,1.2-8.6-5.3-10.3l-17.4,7.2c5.7,1.4,14.7,5.6,19.4,9.1,2.3,1.7,1.4,2.7,1.1,5.2l-114.3,69.8c-15.5,13-52.3,19.8-65.4,31.8-7.7,7.1-3,42.6-8.4,54.7,2.8,2.9,45.3-27.2,51.1-30.6,13.8-8.3,28.8-14.9,42.5-23.2,8.5-5.1,17.6-15.6,29.7-20.4,8-3.1,37.2-7.3,39.4,3.8l-3.4,10.4c10-2.3,14.2-7.2,24.7-.9,1.6,1,25.1,26.2,25.9,27.9,2.2,4.8,1.9,12.2,5.3,17.4l-10.3,4.2,18.2,23.3-3.2,20.6c-3.6,9.6-53.5,27.8-65.3,34-27.2,14.4-54.8,34.8-81.5,50.9-37.8,22.9-77,46.9-113.8,68.2-4.3,2.5-7.3,7.2-12.4,8.3-7.9,1.8-13-2.2-18.1-1.7-5.5.5-8.3,9.5-15.6,7.5-5.4-1.5-12.5-13.7-13.7-13.7-2.7-.2-5.6,2.1-8.1,2-3.9-.1-42.4-39.4-43.9-44.8-1.1-4,.3-8.3-.5-11.9-4.3-18.7-6-29.6.7-49.2,6-17.7,7.5-20.3,12-39.8,3.4-15,20.2-66.2,13.3-77.7-1.5-2.4-18.1-15.4-21.8-19.6-5.1-5.7-15.7-19.7-19.1-26.5-3.4-7,1.4-9.7-10-13.1,1.2-11.3,9.5-12.1,2.3-24.3.8-3,9.4-5.4,11.3-9.6,2.9-6.3-2.5-11.6.8-15.6l46.6-23.9,4.5-7.9c2.1-39,7.2-78,7.2-117.1,0-27.5,1.6-37.7,6-64.1.9-5.2-1-11.9,0-16.1.5-2,6.8-3,9.5-5.4,4-3.7,4.6-10.7,9.3-13.4,7.6-4.4,50.7-20.6,59.8-22.9,13.8-3.5,33.6-2.9,48.2-5.6,16.8-3.1,39.3-11.6,54.4-13.8,2.5-.4,28.2-.3,30.4.2,1.2.3,20.5,11.1,21.4,11.9,3,2.7,2.5,7.5,3.2,8.1h0Z"/>
  <path class="st0" d="M2551.8,2429.3c-.5.9-4.3,1.6-5.8,3.4-4.8,5.7-7.1,23.9-8.2,32.2,2.5.3,4.1-4.5,4.9-6.4,4.9-11.9,4.1-28.6,22-24.6,4.3,4.4-10.9,23.4-14.5,27.9-8.9,11.3-14.1,20.9-22.5,33.4-14.5,21.6-21.2,42.4-36.3,65.1-4.5,6.9-7.4,16.7-9.6,24.6l-8.2-2.1c-4.2,24.7,25.8,15.2,42.4,16.6,11.9,1,22.7,6.4,34.7,6.6l56.4,26.4c6.1,1.4,0-7.6,6.1-6.1,1.7.4,29,16.2,30.1,17.5,4.1,4.6,3.2,16.9-2,20.7,12.8,6.5,13.9,23,21.9,33.6,4.4,5.8,13.4,6.7,11.1,17.1l-14.5-6.2c2.9,7.1-.5,17.3.8,22.9,1.3,5.9,15.2,8,11.6,18.5l-10.2.2c-5.8,40.1-35.7,61.4-61.2,88.7-19.2,20.5-39.5,40.4-59,61-20.5,21.6-32.1,30.6-54.4,49-12.9,10.6-28,20.6-33.2,37.2-3.1,3.8-8.6-1.1-11.5.6-1.5.9-17.2,23.7-21.8,28-12.3,11.7-69.8,53-84.3,58.4-2.4.9-23.7,5.9-25,5.5-3.8-1.1-4.9-10.3-10.6-10.2-10.6,15.9-8.9,1.4-11.9-3.6-1.6-2.6-15.3-7.5-19.1-10.9-4.4-3.9-18.5-25.3-19.2-30.4-.4-2.8,4.5-5.6,3.9-9.8-4.2-2.2-13.1-10.9-14.3-15.1-1.6-5.7,2.3-10.7,1.9-16.1-.3-5-4.8-7.5-4-11.8,1.4-7.6,17.2-24.2,17.8-27.7s-3.3-7.1-.6-13.1c2.3-5.2,47.6-30.2,56.8-36.4,65.4-44.4,125-102.6,181.2-158.1l11.4-15.6c-2.1-6.6-65.8.8-72.4,6.2-3.6,3-2,9.3-9.9,12.9-26,11.7-78.7,17.4-103.8,1.4-9.7-12.8-28.3-21.6-34.2-38.2-2.4-6.7,1.3-10.3.7-13.2s-6.4-3.9-8.1-6.2c-1.3-1.7-3.9-23.7-3.7-27.2,0-1,2.9-18.1,3.3-19.1,1.4-3.1,5.2-3.7,6.7-6.4,5.6-10,7.3-21.6,11.9-30.8,1.9-3.9,9.3-7.6,11.8-11,18.7-25.1,39.7-59.4,56.3-86.5,7.4-12.1,44-82.7,50.5-86.1,1.8-1,4.7.5,6.2-.2,8.3-4.1,42.7-81.3,58.9-96,1.8-1.6,13.5-9.6,15-9.9s25.9,1.6,28.1,2.1c3.6.8,5.9,4.1,9.3,5.2,4.7,1.6,12.2,1,16.1,4.6,4.3,3.9,1.9,9,4,12.6,1.7,3,9.1,3.4,12.3,8.4,2,3,5.5,20.2,5.2,23.6-.4,5-6.9,8.9-7.9,13-.9,3.7,1.4,6.7,1.1,9.6-.4,4.2-7.9,19.1-9.3,25.5-1,4.6.6,12.1-.9,14.6h0ZM2529.4,2475.2c-4.3-.9-4.8,2.1-6.6,4.7-2.4,3.5-14.1,23.9-12,26.3,8.2.5,7-8.1,9.4-12.2,3.5-6.1,8.8-8.9,9.2-18.7h0ZM2471.5,2572.4c3.8,4.2,23-29.2,24.5-32.4,2.9-6,6.1-14.7,6.5-21.4l-6.2,7.2-24.8,46.6h0ZM2469.4,2597.2c-.7-10.2-14.6-7.9-12.4,2.1l12.4-2.1ZM2634.9,2655.2c1.6-8.8-6.4-14.2-12.4-18.6-.1,3.1,6.8,24.3,12.4,18.6ZM2426,2731.7c-2.7-6.9-9.4-3.3-14.5-2,1.1,4.6,11,1,14.5,2Z"/>
  <path class="st0" d="M1290.7,1612.2c6.6,3.8,11.5-6.3,14.9-5.7,6.3,1,4.4,11.3,5.9,13.9,1,1.7,8.5,3.4,9.4,5.1,1.6,2.8-.9,8.3,2.5,11l2.8.7c22.8-12.8,5,20.8,1.3,30.2,5.2,8.5,12.5-2.3,16.6-.1,4.8,5.8,9.1,15.5,8.4,22.9-.2,2.6-14.8,34.8-17.1,38.9-5.4,9.8-13.7,14.3-19.2,22.2-8.1,11.6-15.3,26.5-23.4,38.6-4.6,6.9-35.2,44.8-31.5,50.2,45,4.1,79.2,4.6,120,25.8,23,12,41.4,26.4,61,42.4,17,13.9,5.5,22.3,9.3,37.8.6,2.2,7,3.4,8.3,6.7v2.9c-5.8,0-6.6,6.6-6,11.2l9.2,7.6c3.5,6.8-3.1,11.3-6.1,16.8-4.7,8.4-3.7,5.7-8.5,12-43.4,57.1-164,217-230.1,235.4-3.9,1.1-34.5,7-36.5,6.7-1-.2-18-7-19.3-7.8-2-1.2-21.3-14-22.3-14.9-1.2-1-13.9-15.6-14.4-16.6-1.8-4-1.1-8.2-1.1-12.4-11.8,3.2-15.6.7-19.3-10.7-2.6-8.1,1.7-13.5-9.7-14.1-2.6-8.7,15.1-20.8,16.3-24.1,2.1-6-7-17.5-4-28.4,9.2-6.2,19.6-11.1,29-16.9,4-2.5,6.3-7.3,11.1-9.6,10.2-4.9,21.4-4.8,33.2-12.3,29-18.5,72.8-62.9,94.4-89.7,5-6.2,11.5-13,10.4-21.7-7.2,0-14.5-.2-21.7,0-51.7,1.5-94.4,22.9-145.8,1-13.2-5.6-10.6-12-18.7-18.5-4.3-3.4-12-4.6-15.6-9.2-3.9-5-2-11.1-4.9-13.7-1.8-1.5-6.5-1.5-9.1-3.3-4.1-2.8-12.1-17.4-12.8-22.4-.3-2.1-.8-26.1-.6-27.5.6-3.5,21.5-42.4,24.8-47.7,29.3-45.7,70.4-86.5,100.6-135.2,11.4-18.4,33.5-67.6,48.6-77.6,15.7-10.4,33.1-14.8,51.7-9.5,4.1,1.2,6.4,6,8,9.5h0Z"/>
  <path class="st0" d="M2308.5,2292.7c2.8,1.6,11.8-.4,17.8,1.9,5.8,2.2,12.5,18.1,25.3,11,0,6.4-1.6,13.2,4.1,17.6l-10.3,3.1c-2.2,5.4,3.8,3.3,4.2,5.5,2.3,10.6-6.5,13.6-8,18.8-1.7,6,3.9,27.4,9.9,30.4,2.2,1.1,8.9-1.7,10.4,5.3-10.3-1.2-37.6.6-33.2,15.3l7.5,3.2.9,6.3c-15.4,2.2-29.7,9.7-41.4,19.7,13.3-.2,20-15.7,35.2-11.4-13.6,10.1-31.1,19-46.8,26.6-43.2,20.8-88.5,37.9-133.2,55.1l-1.8,2.4c1.8,14-3.6,29.9-2.3,43.2,1.4,14.2,11.1,11.2,8.4,31.2-5.3,39.9-3.7,82.2-6.5,123.8-1.2,17.1-7.3,65.8-3,80,13.4,43.9,10.4,108.7,5.4,154.1-1.7,15.1,1.9,25.9,4,40.2l-12.1.3-3.3,16.4c-6.1-.9-15.8,10.2-17.6,2.8-1.1-4.6,6.2-20.7-8.4-19.5l4.2,25.5c-11,9.3-20-5-26-13.1l-3.1,9.3c-8.8,5.1-7.6-9.3-14.6-12.4-3.7-1.6-11.8,2.1-17.5-3.1-3.9-3.5-4.1-12.2-6.4-16.4-2.4-4.3-9.6-7.8-10.8-11.9-1.4-4.8.7-10.1-1.5-15.1-1.9-4.3-10.6-7.4-11.4-13.6-1-7.8,4.2-27.6,4.3-37,.1-11.5-2.4-21.6-2.2-33.3.1-7.8,2.9-14.7,2.3-22.8-.7-8.7-6.8-13.4-6.5-22.6.4-11.1,6.6-31.3,8.1-43.8,6.9-54.5,13.2-108.4,18.9-163.1,2.5-23.7,7.1-47.4,8.1-71.3-3.2.2-6.6-1.3-9.5-1.4-20.3-.4-37.2-2-56.7-12-11.6-5.9-26.8-22.7-24.7-36.4h-10.4s-.3-12.1-.3-12.1l-12.1-2.4c4-10.2,12.9-12.2,11.5-26,0-.9-6.6-15.4-7.2-16.1-1.6-2.1-8.2-1.9-8.4-4.4-.6-7.7,18.5,5.2,23.8,1.2,7.2-5.4-5.3-15.6-7.2-21.7.5-2.4,17.9-13,21.2-14.2,19.2-6.8,50.3-9.4,71.9-14.9,70.2-18.2,135.8-48.7,200.1-81.5,11.3,4,22,1.4,34.4-.5,4.5-.7,11.5-4,14.8-3.8,6.1.4,5.9,6.8,7.5,7.7h0ZM2134.3,2967.6c-5.9-1-3.4,1.2-4.4,4.8-1.4,5.2-2.2,10.5-1.8,15.9l6.2-5.2v-15.5h0Z"/>
</svg>