<svg width="127" height="20" viewBox="0 0 127 20" fill="none" xmlns="http://www.w3.org/2000/svg">
<path d="M38.7195 1.96392C38.9762 2.21803 39.4516 2.28888 39.9331 2.46958C40.275 2.58816 40.4352 2.81352 40.738 2.94289C40.9064 3.02041 40.9424 2.90747 41.0389 2.86948C41.1672 2.84946 41.2853 2.90593 41.4793 2.9434C41.6497 3.00039 41.8633 3.04659 41.8027 3.09074C40.9033 3.27349 42.1908 3.45932 42.4157 3.62924C42.658 3.8428 42.8705 4.04917 43.1138 4.27915C43.1672 4.44548 43.2453 4.5923 43.4311 4.73449C44.0676 5.45114 44.2699 6.30844 43.8582 7.11492C43.7042 7.3911 43.2771 7.55537 42.9301 7.79614C42.5676 8.05025 42.2935 8.33362 41.9259 8.58516C40.6446 9.48764 38.6384 10.2628 37.1538 11.0872C36.6343 11.5257 35.8047 11.7423 34.8334 11.8568C34.2975 11.9173 34.2667 12.0893 34.6517 12.2582C34.9957 12.4138 35.2072 12.6093 35.5224 12.7793C35.7205 12.8824 36.085 12.9784 36.2185 13.0832C36.3704 13.21 36.5552 13.4538 36.8365 13.5282C36.8571 13.5349 36.8745 13.539 36.891 13.5411C37.0101 13.5585 37.0224 13.4682 37.0758 13.4641C37.314 13.519 37.393 13.6058 37.6702 13.7238C38.7565 14.2469 41.0758 15.3625 41.6939 15.6597C41.9845 15.844 42.1107 16.1109 42.2986 16.3368C42.4034 16.8712 41.6857 18.0155 40.4629 18.0673C40.1271 18.016 39.9341 17.8081 39.5666 17.765C38.9013 17.5771 38.4054 17.2316 38.0645 16.9C37.2493 16.2608 35.5953 15.5278 34.2616 14.8748C32.5993 14.0765 31.1671 13.1617 29.8406 12.2228C29.395 11.8958 29.1896 12.037 29.2266 12.3516C29.1814 12.9112 29.0048 13.461 29.0603 14.0216C29.0839 15.1946 29.4751 16.3543 29.0551 17.5078C29.0017 17.768 28.1198 17.8928 27.7112 17.9005C27.3826 17.842 27.0407 17.7778 26.707 17.7182C26.3159 17.574 26.0048 17.3974 25.6434 17.2434C25.5551 17.1428 25.9298 17.0724 25.6773 16.9734C24.4709 16.075 25.4237 14.327 25.3559 13.2074C25.398 12.7988 25.2481 12.4194 25.3621 12.0051C25.2276 11.3722 26.1054 10.4568 25.6465 9.89575C25.091 9.66988 24.5643 10.1345 24.1228 10.2638C23.3877 10.54 22.5386 10.7982 21.748 11.0287C21.3949 11.1355 20.9667 11.211 20.6259 11.3162C20.208 11.4599 19.9493 11.6519 19.4564 11.7279C18.2275 11.9682 16.7747 11.9902 15.5272 12.1586C14.6586 12.2982 13.7736 12.3075 12.866 12.366C12.4091 12.3373 12.0344 12.4271 12.1381 12.692C12.1853 12.9754 12.2336 13.2639 12.2613 13.5483C12.328 14.6905 12.3906 15.843 12.3968 16.9826C12.3044 17.4667 12.5837 18.0119 12.1401 18.4575C11.4943 18.8635 10.8988 18.9852 10.0015 18.6392C9.70272 18.5725 9.43577 18.3984 9.11647 18.3861C8.98299 18.3733 8.84747 18.3687 8.7181 18.3302C8.24582 18.0909 7.60207 17.8343 7.58565 17.4836C7.7109 15.5945 7.67907 13.6961 7.40392 11.8121C7.3033 11.3491 7.46963 10.8444 6.91213 10.4425C6.81151 10.3419 6.97989 10.3249 7.14827 10.2448C7.39468 10.0318 7.27045 9.73405 7.33308 9.48918C7.37414 8.75816 6.97783 7.97478 7.33821 7.25711C7.46757 6.83 8.20064 6.18575 7.85875 5.7843C7.65033 5.78584 7.34848 6.01326 7.16778 6.1303C6.31458 6.72528 5.79096 7.19397 4.87924 7.70117C4.04453 8.12006 3.81968 8.90293 2.7211 9.18425C2.2365 9.29256 2.57018 8.98763 2.05066 8.98096C1.46133 8.88291 1.17078 8.54204 0.903831 8.29358C0.245712 7.79973 1.3638 7.2833 1.79809 6.85259C3.37512 5.55689 5.02196 4.07894 7.5107 3.16158C7.58359 3.13386 7.6493 3.10768 7.69448 3.08406C7.91214 2.97728 7.66778 2.93827 7.88442 2.81866C10.5836 1.66413 14.5046 1.41412 17.7798 1.99678C18.594 2.15592 18.862 2.35202 19.7901 2.37871C20.1618 2.43929 20.5068 2.63796 20.8682 2.72779C21.4554 2.84022 22.0006 2.91928 22.5099 3.12616C23.1762 3.36281 24.0037 3.6277 24.5427 3.90029C24.8323 4.0235 25.1321 4.29352 25.5664 4.24322C25.8087 4.19137 26.0099 4.03582 26.1454 3.90132C26.2799 3.76066 26.1711 3.69239 26.2399 3.57842C26.436 3.3279 26.9853 3.20008 27.3303 3.00193C28.9771 2.07584 31.2502 1.22213 33.931 1.32993C34.7287 1.34585 35.4115 1.21956 36.2041 1.39153C36.9762 1.55529 38.1394 1.66669 38.7041 1.95622L38.7113 1.96187L38.7195 1.96392ZM38.5296 4.12976C37.0224 3.19905 34.3868 3.04145 32.3201 3.65029C31.9032 3.76785 31.5675 3.93982 31.1825 4.07535C30.9022 4.17905 30.5634 4.22525 30.28 4.32176C29.9155 4.43932 30.0931 4.63182 30.243 4.79456C30.3919 4.99322 30.394 5.22064 30.5018 5.43009C30.6085 5.69087 30.7646 5.96962 30.7533 6.23503C30.7174 6.53637 30.3734 6.8105 30.2769 7.10722C30.0829 7.63648 29.9833 8.21657 29.8344 8.74841C29.7779 9.01895 29.6362 9.32336 30.0942 9.52973C30.435 9.69606 31.0233 9.83107 31.4761 9.88651C31.9042 9.94144 32.2821 9.91423 32.7102 9.8244C35.0655 9.29154 36.3971 8.20425 38.0789 7.29459C38.6487 7.00711 39.2123 6.71245 39.4577 6.31614C39.8848 5.6149 39.4382 4.69959 38.5429 4.13849L38.5306 4.13079L38.5296 4.12976ZM12.1473 10.1237C15.5899 10.1966 21.0191 8.94554 22.9842 7.46862C23.3066 7.21348 23.4154 6.92549 23.3384 6.62569C22.9914 5.09487 19.4575 4.11282 16.5622 3.78068C14.7254 3.56148 12.8568 3.79814 11.3239 4.32073C11.1103 4.37617 10.6925 4.60667 11.0118 4.68265C11.1514 4.70729 11.3146 4.67803 11.4543 4.68983C11.5662 4.70267 11.635 4.80226 11.7654 4.85C11.8824 4.89825 12.0138 4.90544 12.0241 4.97115C12.0262 5.35514 12.0539 9.01997 12.0631 10.0759C12.0683 10.1011 12.0826 10.115 12.1401 10.1227L12.1473 10.1237Z" fill="#FFF0B8"/>
<path d="M88.3155 0.377872C88.798 0.453335 89.0239 0.675617 89.2519 0.885579C89.4089 1.00827 89.6861 1.11556 89.7231 1.21207C89.7334 1.39945 89.4921 1.49801 89.8237 1.66998C90.0619 1.79729 89.2518 1.84093 89.2467 2.07913C89.2385 2.49956 88.1389 2.35428 87.6091 2.49186C86.9294 2.60891 86.2477 2.77626 85.5824 2.91692C84.1409 3.22801 82.5834 3.36713 81.0536 3.53808C79.9817 3.60943 80.6193 4.05503 80.7969 4.37177C81.4407 5.50063 81.2353 6.76399 81.146 7.94265C81.071 8.53352 82.0577 8.00323 82.5156 7.8867C83.3524 7.65056 84.3514 7.47858 85.1635 7.23012C86.1851 6.90363 87.0978 6.40054 88.4223 6.46163C88.7713 6.45701 89.2621 6.5335 89.4418 6.65824C90.0188 6.87898 90.6451 7.27837 90.3052 7.66185C89.9798 7.99553 89.9141 8.43239 89.1615 8.60283C88.1389 8.81433 87.1101 9.07819 86.1194 9.3744C85.5927 9.56896 85.2569 9.78046 84.5742 9.84514C83.9356 9.9935 83.0228 10.2517 82.3349 10.4442C81.5125 10.6901 80.5823 10.839 80.5905 11.3806C80.4314 12.1624 80.4088 13.0007 80.3831 13.7939C80.377 14.1912 80.379 14.8057 80.4304 15.1928C80.4817 15.4304 80.4129 15.5901 80.9355 15.5716C83.3072 15.3611 85.76 14.8416 87.9777 14.3801C89.0527 14.1542 90.0167 13.7518 91.2129 13.7225C93.371 13.7138 94.4819 14.683 93.026 15.5439C92.9326 15.6933 93.0342 15.8026 92.6431 15.8555C92.1554 15.9079 90.9572 16.2682 90.5404 16.1779C90.5691 16.1291 90.8022 16.0459 90.8586 16.0085C90.8812 15.9884 90.8679 15.989 90.8422 15.9828C90.5352 15.9879 90.2149 16.1009 89.9079 16.1389C88.6687 16.3704 87.2272 16.5465 86.1327 16.8837C85.9027 16.9987 86.3812 16.9808 86.0721 17.067C85.1974 17.2739 83.9818 17.1348 83.1203 17.394C82.6214 17.5716 82.0598 17.6635 81.455 17.7108C80.6439 17.7852 79.8903 18.1086 79.0382 18.0804C78.3883 18.047 78.0433 17.6928 77.6747 17.4777C77.4427 17.3796 77.0833 17.3509 76.9632 17.1948C76.8112 16.934 76.7291 16.6502 76.6973 16.3776C76.7188 15.569 76.5884 14.7821 76.6357 13.9771C76.7147 13.6819 76.6593 13.3924 76.8123 13.1116C76.7958 12.8272 76.724 12.5279 76.7055 12.2353C76.6439 11.7312 75.6736 12.549 74.3348 11.9478C73.5904 11.7851 74.727 12.9114 74.7229 13.0593C75.1356 13.8503 75.6521 14.7071 75.1808 15.5013C74.9365 15.8267 74.7999 16.2564 74.381 16.5229C73.9826 16.8262 73.3605 17.0439 72.7845 17.2821C71.5124 17.9325 69.9692 18.4469 68.5278 18.9869C66.0421 19.3797 64.4055 18.6702 63.1909 17.6137C62.2073 16.9104 61.7125 16.1322 61.0872 15.3237C60.9691 15.125 61.2042 15.2271 61.3459 15.0916C61.4024 15.0054 61.3387 14.8847 61.3767 14.8011C61.4137 14.7389 61.54 14.7898 61.5585 14.7246C61.6036 14.6594 61.3275 14.3354 61.6067 14.3847C61.7135 14.394 62.1796 14.6969 62.2505 14.6204C62.2381 14.5526 62.1139 14.4037 62.1909 14.336C62.5082 14.2538 63.0369 14.4361 63.3655 14.4936C64.9394 14.9581 65.1519 16.0711 66.5051 16.6579C66.7895 16.7687 67.0154 16.7456 67.3132 16.6399C68.0822 16.3617 68.9549 15.992 69.6479 15.6496C72.3348 14.5362 70.1284 13.2995 69.8697 11.9632C69.9908 11.78 70.383 12.8164 70.5966 12.8447C70.7393 12.897 70.69 12.7841 70.6458 12.7107C69.6386 11.0084 69.0113 9.12234 69.4138 7.35435C69.3861 7.11821 69.4395 6.89541 69.4518 6.68288C69.4179 6.43493 69.3963 6.1413 69.4672 5.87794C69.6551 4.21057 69.6664 4.73625 66.2218 4.22084C65.9938 4.19825 66.0298 4.24548 66.1078 4.4154C66.3378 4.94261 66.7823 5.64129 66.885 6.21008C66.9969 6.97293 67.0709 7.75117 67.0719 8.51196C67.0267 8.57511 66.8511 8.5094 66.7136 8.57151C66.4938 8.67316 66.6899 8.83538 66.7074 8.95704C66.6571 9.12285 66.0298 8.96064 65.6786 9.13004C65.3994 9.23271 65.4004 8.98476 65.156 8.94421C64.9322 8.90827 64.6293 9.0361 64.4271 8.9324C63.732 8.55971 63.2741 8.0751 63.193 7.56072C63.1909 6.27425 62.7751 4.97188 61.8449 3.7619C61.4794 3.26446 60.7289 2.7932 60.7535 2.24597C60.7576 2.00315 60.7535 1.76752 61.2258 1.68641C61.9743 1.55807 62.9589 1.47953 63.7022 1.68025C65.4148 2.11249 67.2649 2.51342 69.1602 2.67256C70.1037 2.68488 69.9456 1.94873 70.7773 1.86916C71.8255 1.78189 73.4293 1.83939 74.0299 2.34453C74.1397 2.4164 74.4067 2.92462 74.6408 2.8086C74.6911 2.73365 74.6182 2.46825 74.8595 2.36558C75.1962 2.23467 75.417 2.17358 75.8625 2.10223C76.4509 2.03754 76.9231 1.84144 77.4868 1.72389C79.532 1.32398 81.7795 1.21567 83.8863 0.892766C85.3062 0.686397 86.7867 0.249533 88.2991 0.373251L88.3145 0.375818L88.3155 0.377872ZM74.7044 3.57658C74.5268 3.56067 74.4416 3.67771 74.3266 3.72751C74.1859 3.79732 74.0843 3.84866 74.0063 3.93747C73.8933 4.1346 73.4796 4.26653 73.3297 4.4616C73.0802 4.81274 73.1171 5.23471 73.0915 5.60176C73.0863 6.31943 73.2065 7.03556 73.2054 7.75374C73.2136 8.51248 73.1777 9.28662 73.2752 10.0613C73.2917 10.3436 73.5165 10.5217 73.7989 10.1521C73.921 9.98067 74.3091 9.95551 74.6151 9.90829C74.9272 9.8626 75.1695 9.8128 75.5186 9.73683C75.9303 9.6475 76.4447 9.53354 76.7548 9.4514C77.0207 9.38569 77.1583 9.28559 77.2219 9.1321C77.5371 8.2789 77.3759 7.33125 77.3205 6.47036C77.2999 6.1377 77.3615 5.80762 77.265 5.47342C77.2158 5.30196 77.1059 5.11202 76.9344 4.95596C76.5463 4.59097 75.878 4.51191 75.4344 4.2116C75.2486 4.09096 75.1161 3.93798 74.9888 3.78449C74.9211 3.71159 74.8574 3.61508 74.7147 3.57812L74.7044 3.57607V3.57658ZM61.6601 15.2128C61.5636 15.1866 61.504 15.2256 61.5513 15.2754C61.5759 15.3052 61.6283 15.3375 61.6293 15.3699C61.6231 15.4089 61.5215 15.4181 61.502 15.4551C61.5123 15.5136 61.6724 15.5336 61.6878 15.5968C61.7114 15.6389 61.7053 15.7066 61.8049 15.7225C62.0503 15.72 62.0143 15.5454 61.9394 15.4664C61.8562 15.3919 61.7987 15.2764 61.6734 15.2174L61.6601 15.2133V15.2128Z" fill="#FFF0B8"/>
<path d="M122.2 1.05125C122.206 1.29664 121.782 1.51584 121.677 1.75763C121.625 1.85979 121.677 1.96194 121.464 2.02149C121.009 2.14316 120.512 2.32591 120.081 2.48608C119.34 2.74943 118.842 2.98454 118.224 3.28075C118.041 3.36905 117.812 3.45067 117.648 3.5441C117.447 3.65858 117.392 3.75971 117.187 3.89626C117.053 3.98404 116.837 4.08723 116.649 4.15704C116.343 4.26331 116.101 4.28898 115.811 4.37779C115.503 4.47481 115.243 4.59083 114.973 4.71609C114.793 4.79566 114.567 4.87523 114.38 4.96917C114.153 5.08878 113.977 5.26332 113.722 5.37318C113.395 5.52205 112.857 5.55388 112.646 5.76076C112.547 5.86292 112.533 5.96405 112.377 6.07391C112.233 6.17453 112.016 6.25872 111.832 6.34239C111.224 6.60934 110.714 6.94866 110.212 7.26951C109.943 7.45483 109.477 7.74539 109.538 7.95278C109.619 8.08061 110.033 8.07599 110.301 8.09498C113.652 8.22794 116.952 7.81828 120.296 7.84652C121.601 7.85884 122.871 7.98718 124.189 8.1073C124.479 8.13656 124.733 8.16582 124.924 8.19303C125.081 8.21305 125.197 8.24129 125.269 8.31059C125.339 8.37989 125.463 8.48872 125.526 8.48975C125.583 8.48718 125.602 8.44971 125.632 8.42815C125.661 8.40659 125.679 8.38195 125.734 8.38195C125.801 8.38605 125.863 8.41942 125.908 8.44663C126.025 8.51747 126.115 8.60526 126.253 8.67302C126.378 8.73975 126.58 8.81778 126.487 8.91738C126.458 8.97128 126.324 9.02723 126.396 9.0837C126.491 9.14274 126.695 9.18021 126.844 9.26543C126.97 9.33884 127.014 9.42354 126.996 9.52827C126.966 9.66276 126.874 9.80137 126.74 9.91996C126.596 10.0426 126.444 10.1114 126.358 10.2146C126.084 10.6797 125.848 10.5052 125.152 10.7259C123.655 11.2449 122.28 11.8579 120.888 12.4457C118.17 13.5863 115.177 14.6202 112.453 15.7912C110.318 16.7753 108.036 17.6141 105.703 18.5166C104.958 18.8143 104.278 19.1429 103.505 19.4185C102.6 19.7435 101.392 20.0258 100.243 19.9981C99.7123 19.9612 99.3755 19.6911 99.1188 19.4786C98.7954 19.1634 98.9515 18.7584 98.5706 18.4504C98.433 18.3184 98.5182 18.1701 98.663 18.0422C98.8888 17.8369 99.0624 17.6464 99.5069 17.5843C100.45 17.4894 101.407 17.2383 102.242 16.977C102.589 16.8774 102.789 16.7024 103.13 16.6033C103.416 16.5201 103.853 16.4837 104.153 16.3708C104.592 16.2219 104.901 16.0058 105.327 15.8548C105.465 15.8056 105.615 15.7573 105.741 15.7019C105.991 15.5915 106.166 15.4857 106.422 15.4103C106.595 15.3584 106.778 15.3194 106.941 15.2568C107.428 15.0612 107.87 14.822 108.361 14.631C110.909 13.5586 113.715 12.5976 116.191 11.4667C116.434 11.3743 116.701 11.2773 116.91 11.1941C117.21 11.0668 117.525 10.9677 117.831 10.8147C117.933 10.7629 118.033 10.708 118.145 10.6633C118.396 10.5591 118.662 10.5355 118.898 10.4256C118.998 10.3804 119.082 10.3245 119.163 10.2695C119.342 10.1448 119.587 10.0303 119.611 9.96616C119.642 9.83166 118.808 9.87889 118.694 9.85425C118.392 9.81266 118.848 9.69459 118.091 9.71307C117.062 9.72437 116.038 9.80702 115.016 9.85065C114.834 9.86605 113.921 9.84141 113.927 9.94768C113.967 9.9795 114.293 9.99285 114.388 10.0031C114.587 10.036 113.773 10.0914 113.712 10.0914C112.006 10.1792 109.659 10.3019 107.997 10.2824C107.023 10.2844 106.744 10.1335 106.121 9.7834C105.875 9.65301 105.705 9.50157 105.468 9.36399C105.253 9.24335 105.068 9.10988 105.092 8.94458C105.164 8.69407 105.052 8.43328 105.013 8.16942C104.997 7.99744 105.053 7.82804 105.146 7.66274C105.479 7.03799 106.201 6.55697 106.919 6.03592C107.189 5.83982 107.426 5.60419 107.73 5.41784C107.935 5.2931 108.202 5.20531 108.448 5.10162C109.083 4.82543 109.521 4.5205 110.16 4.25304C110.978 3.90807 111.651 3.48866 112.4 3.11186C113.353 2.65908 114.387 2.2371 115.395 1.80896C116.386 1.37569 117.571 1.03637 118.494 0.559975C118.722 0.437283 118.836 0.28225 119.075 0.167259C119.388 0.00965946 119.939 -0.018575 120.396 0.00965946C120.981 0.0363539 121.358 0.252476 121.66 0.513773C121.844 0.684206 122.126 0.85618 122.201 1.04407V1.05177L122.2 1.05125Z" fill="#FFF0B8"/>
<path d="M47.1435 18.4735C46.8775 18.493 47.0408 18.7117 46.7081 18.5936C45.9299 18.2733 44.9155 18.0582 44.3662 17.6136C42.3118 16.1449 41.9709 14.454 42.3652 12.6911C42.4309 12.2157 42.4144 11.7357 42.4956 11.2558C42.5746 10.747 42.8539 10.2409 42.9627 9.72956C43.0397 9.58531 43.2101 9.55912 43.2851 9.40974C43.3559 9.10378 43.5582 8.79782 43.6845 8.50316C44.4925 6.82552 45.8324 3.94971 49.1384 2.82752C50.8909 2.26129 53.5347 2.04003 55.1703 2.80082C55.429 2.94764 55.4865 3.16838 55.8828 3.24744C56.2175 3.3265 56.621 3.35781 56.9701 3.43943C57.276 3.5072 57.5409 3.61141 57.775 3.72948C59.2401 4.47384 60.5389 5.71924 60.926 6.80549C61.8059 10.2352 58.8089 14.571 53.9978 17.0495C53.4978 17.2836 52.9033 17.4365 52.2616 17.5464C52.1476 17.5736 51.9567 17.588 51.9135 17.6465C51.9033 17.6809 51.9361 17.7179 51.8786 17.7476C51.779 17.8097 51.4854 17.7682 51.3293 17.7584C51.1384 17.7687 51.0419 17.9263 50.8468 17.9294C50.7431 17.9222 50.699 17.8672 50.6024 17.8488C50.4926 17.8185 50.28 17.8421 50.2441 17.8657C50.2164 17.8883 50.2749 17.9088 50.2996 17.9258C50.4238 17.9992 50.1733 18.0197 50.0357 18.0469C49.7913 18.0803 49.5121 18.1126 49.2687 18.1568C48.8899 18.2009 48.6332 18.3816 48.3478 18.4376C47.9792 18.5053 47.5264 18.4489 47.1548 18.472L47.1424 18.473L47.1435 18.4735ZM53.3489 4.35628C52.8776 4.21614 52.0337 4.53493 51.5747 4.69869C49.8211 5.46821 49.1188 6.5904 48.4679 7.68487C47.3591 9.71005 45.3272 14.3287 47.0305 15.8734C47.1527 15.9591 47.3539 15.9945 47.5613 15.9904C48.319 15.9658 49.2677 15.8698 49.9495 15.6701C53.6076 14.4283 56.3089 11.2748 56.9454 9.07195C57.0974 8.09555 57.1344 6.78958 56.199 5.97746C55.8664 5.68946 55.5122 5.92047 55.2801 5.68536C54.9362 5.26646 54.313 4.92713 53.7616 4.57292C53.6425 4.49694 53.5183 4.41173 53.3622 4.35988L53.3489 4.35577V4.35628Z" fill="#FFF0B8"/>
<path d="M109.987 1.38736C109.913 1.47515 109.741 1.54291 109.677 1.6348C109.618 1.72361 109.74 1.82885 109.742 1.90585C109.734 2.05626 109.391 2.07783 109.12 2.11889C108.414 2.19692 107.666 2.22362 106.986 2.35709C105.843 2.56089 104.758 2.8689 103.611 3.05217C102.289 3.18975 102.496 3.48441 102.498 4.045C102.624 7.48087 102.52 11.0569 103.694 14.4851C103.773 14.8239 103.689 15.173 103.728 15.5025C103.699 15.6519 103.32 15.6545 103.164 15.7454C103.125 15.8157 103.254 15.9486 103.029 15.999C102.795 16.0636 102.497 16.0806 102.244 16.1196C102.019 16.154 101.828 16.1786 101.617 16.1524C101.139 16.0616 100.694 15.8835 100.421 15.6658C100.216 15.4943 100.07 15.2643 99.9021 15.0903C99.7789 14.9517 99.5448 14.8531 99.4083 14.7248C99.1978 14.1293 99.2984 12.8988 99.1886 12.1139C99.1649 11.9599 99.0212 11.8392 98.9822 11.6878C98.9309 11.5415 99.0038 11.3757 98.976 11.2258C98.9463 11.0682 98.821 10.8988 98.8364 10.7186C98.8857 10.522 98.8066 10.2761 98.8467 10.1057C99.0048 9.85565 98.9853 9.58768 98.9052 9.32587C98.5879 7.79556 98.8949 6.12151 98.7656 4.545C98.745 4.35404 98.9339 3.96594 98.323 4.045C96.4103 4.39254 94.516 4.77704 92.6495 5.18208C91.3158 5.31657 90.0704 4.69336 89.9821 4.05629C89.826 3.88021 89.5591 3.8874 89.786 3.65228C89.9318 3.39663 90.1299 3.11942 90.6525 2.9957C91.7275 2.70822 93.1156 2.57116 94.2511 2.38686C94.8569 2.29343 95.4 2.11941 96.0243 2.03984C96.4103 1.98183 96.8354 1.93563 97.206 1.86016C97.475 1.80164 97.6598 1.69897 97.9278 1.64404C98.8066 1.54599 98.8857 1.12042 99.7091 1.1004C101.799 1.24209 104.276 0.51569 106.043 0.20511C106.916 0.00490245 107.931 0.000282269 108.817 0.190223C109.135 0.27698 109.305 0.461787 109.611 0.537764C109.674 0.557784 109.746 0.577805 109.748 0.615794C109.501 0.845776 109.902 0.838076 110.166 0.971548C110.282 1.03007 110.202 1.0773 110.145 1.1579C110.088 1.2313 110.063 1.31087 109.995 1.38172L109.989 1.38788L109.987 1.38736Z" fill="#FFF0B8"/>
</svg>
