<svg width="234" height="90" viewBox="0 0 234 90" fill="none" xmlns="http://www.w3.org/2000/svg">
<path d="M139.413 35.3992C138.973 33.3767 137.512 31.0625 137.185 29.3591C136.819 27.4581 136.935 25.8232 136.246 23.7538C135.024 20.0828 133.301 19.0627 131.046 16.3785C126.388 10.8338 123.126 7.90874 115.991 5.42029C113.074 4.40415 111.518 4.74874 108.724 4.41981C107.044 4.22403 106.051 3.1981 104.575 3.0591C102.517 2.86527 99.0736 2.94162 96.9591 3.06693C94.5254 3.21181 92.2288 3.61513 89.989 4.53533L88.1075 17.6433C85.3939 22.397 86.7037 28.0552 85.6974 33.1476C85.4311 34.4985 84.6127 35.1309 84.229 36.1588C82.324 41.2454 83.9138 45.8248 83.7239 50.8154C83.5672 54.9544 82.3024 60.0135 81.9951 64.2444C81.8404 66.3668 82.3651 68.1974 82.3455 70.0789C82.3142 73.2604 80.8732 76.7905 81.5937 79.7958C81.6877 80.1913 82.5844 82.8716 82.7136 82.9793C82.9113 83.1437 84.0547 82.8892 84.742 83.1947C85.2001 83.3963 86.9015 85.1819 87.7336 85.7125C89.341 86.7364 91.248 87.4922 92.873 88.5279C101.597 87.3355 109.48 88.5749 117.81 85.2524C119.453 84.5984 122.19 83.5275 123.657 82.8305C127.339 81.0762 135.511 68.7378 136.608 64.777C137.166 62.7623 136.819 60.6146 137.183 58.8035C137.354 57.9597 138.19 57.1178 138.407 56.2387C139.58 51.5007 140.428 40.0511 139.413 35.3992ZM127.776 44.2272C127.142 49.116 124.542 60.3444 122.082 64.3737C120.25 67.3751 116.71 72.4048 113.691 74.2433C109.119 77.0274 103.927 77.6226 98.682 77.7067C96.7104 76.7631 98.0555 74.3157 98.68 72.8277C99.6061 70.6153 99.0031 69.3466 99.2165 66.9992C99.5767 63.0129 101.259 57.9832 101.307 54.2437C101.386 48.3642 100.193 42.2008 100.575 35.9689C100.726 33.4902 101.484 30.9078 101.638 28.4194C101.959 23.2623 101.321 17.8038 101.681 12.6135C102.527 10.0957 110.073 13.0051 111.874 13.3281C115.097 13.9076 116.628 13.3242 119.706 15.4876C123.845 18.3951 124.917 23.975 126.509 28.3234C126.807 29.1379 127.989 30.8295 128.052 31.2113C128.199 32.1217 127.49 34.4751 127.445 35.6263C127.333 38.4711 128.117 41.6017 127.776 44.2272Z" fill="#FFF0B8"/>
<path d="M1.72441 9.11087C1.7107 8.8818 1.14488 8.39821 1.40919 7.94398C1.51492 7.76581 3.2535 7.23719 3.63529 6.88477C4.56528 6.03114 4.02686 4.39632 6.35868 4.79964C6.97345 4.90537 8.88042 6.79863 9.2994 7.3899C11.3101 10.2269 14.3096 23.0998 15.0692 27.1154C16.1637 32.9088 16.8098 38.8137 17.9414 44.5718C18.4818 47.3167 19.0202 50.1909 19.6174 52.8869L20.6687 53.0415C20.4436 50.9407 22.2899 48.975 22.329 46.9056C22.3447 46.1028 21.7749 45.8464 21.7749 45.351C21.7749 44.1195 27.0964 29.5843 27.9853 27.1096C28.9603 24.392 30.834 21.9055 31.7013 19.4562C32.2828 17.8156 32.1047 16.4157 32.4649 15.051C32.5315 14.8024 34.5853 10.64 34.7889 10.4833C35.715 9.76284 35.5916 11.6953 36.3395 11.3468C37.4203 10.3169 37.2695 8.65469 37.8295 7.32138C38.3346 6.1212 40.3199 2.08212 40.9875 1.17563C41.6923 0.216274 42.6693 -0.132227 43.8342 0.0439812C44.3413 0.120338 49.6902 3.17657 50.2678 3.62492C51.2879 4.41786 52.4195 7.14125 52.3784 8.408C52.3157 10.315 49.9917 13.3457 49.189 15.237C41.5455 33.2396 34.9181 51.7865 29.0347 70.5351C27.7034 74.7778 27.5507 75.138 25.4205 78.9794C24.6589 80.3518 24.6961 82.8285 22.9125 83.1868C20.7706 83.6156 21.9022 83.4061 20.3124 84.2049C18.1137 85.3092 18.0354 84.0835 16.984 83.7722C16.3869 83.5941 15.6742 83.8075 15.0575 83.6352C14.8578 83.5804 12.244 80.9177 12.1246 80.7121C10.2685 77.5325 10.5681 72.6927 9.91026 69.143C8.02287 58.9347 5.64798 49.0494 3.84282 38.6884C2.51343 31.0449 2.18255 23.1586 0.434173 15.566C0.254049 14.7828 0.124831 13.428 0.0112742 12.5371C-0.0709563 11.8793 0.310828 11.8206 0.69457 12.2043C1.20753 12.7153 0.845326 13.8704 1.72245 14.1054C1.64609 12.453 1.82818 10.7614 1.72245 9.10891L1.72441 9.11087Z" fill="#FFF0B8"/>
<path d="M231.915 33.8407C230.421 25.3769 228.647 16.8308 223.118 10.0761C222.805 9.69434 221.714 9.0365 221.151 8.42956C218.48 5.55541 217.386 3.9108 213.027 3.4644C207.53 2.89858 207.491 6.36596 204.17 7.65033C203.264 8.00078 202.51 7.4193 202.016 7.85786C201.49 8.32579 201.59 9.22249 201.19 9.81181C200.18 11.3057 198.404 12.4393 197.392 13.5925C196.632 14.4539 194.772 17.702 194.486 17.935C193.703 18.5654 193.118 17.798 192.456 17.9428C192.004 18.0407 188.932 23.5365 188.799 24.2922C188.558 25.6529 188.989 27.2603 188.699 28.672C188.454 29.8623 186.958 31.9122 186.731 33.2495C184.292 47.6359 186.792 62.4824 193.541 75.3241C195.305 78.6798 195.518 77.558 196.147 81.644C196.45 83.6195 197.666 85.9768 199.342 87.0948C203.379 89.7868 206.615 89.9043 211.32 89.2014C211.843 89.1251 212.168 88.6219 212.7 88.571C213.061 88.5377 213.517 88.9058 214.018 88.8098C217.754 88.1011 222.533 81.8907 224.158 78.6113C228.042 70.772 230.544 63.7237 232.216 55.3166C233.957 46.5669 233.432 42.4338 231.915 33.8407ZM215.254 68.6693C213.48 72.4147 212.211 75.1459 208.918 77.8399C207.718 78.8228 206.572 80.1737 205.133 78.8874C201.098 75.2771 200.528 72.2384 199.021 67.4319C196.787 60.3111 195.291 55.0288 195.651 47.3422C195.802 44.145 196.201 38.2499 197.157 35.409C198.537 31.3112 200.115 27.3308 201.413 23.1273C201.652 22.348 205.566 17.5983 206.326 17.0148C207.477 16.1318 208.924 16.1377 209.973 15.4955C212.792 13.7726 212.152 9.55533 216.88 13.9155C221 17.7157 222.043 31.4012 222.206 37.0046C222.537 48.4347 220.099 58.4355 215.254 68.6693Z" fill="#FFF0B8"/>
<path d="M82.6041 6.25824C82.7098 6.34635 83.4636 8.22199 83.767 8.72712C84.1704 9.39671 85.3079 9.29294 84.699 10.963C81.8464 11.4231 80.145 13.4436 77.8269 14.9414C76.5542 15.7637 73.6194 16.4529 73.3688 18.0896C73.2357 18.955 73.7232 19.6794 73.6879 20.4469C73.0183 34.5945 69.5921 48.6089 68.9675 62.8641C68.9146 64.0741 69.3062 65.8518 69.2573 67.3574C69.1946 69.2253 68.5935 71.4396 68.7051 73.3661C69.3356 74.5879 75.8435 76.5673 77.1475 78.0415C77.4921 78.4292 78.9761 82.7326 78.8528 83.132L78.1068 83.7898C73.5959 85.3679 69.2514 87.269 64.4957 88.0913C61.1184 88.6767 54.354 89.3071 51.331 88.013C50.8592 87.8113 46.7007 85.4579 46.497 85.268C45.1618 84.0287 43.8715 80.1012 45.1246 78.7072C45.8372 77.9143 49.7765 76.0426 51.0021 75.9721C51.5307 75.6118 51.566 70.165 51.6776 69.0667C52.539 60.6106 52.5645 52.0175 53.7588 43.585C54.6281 37.451 56.4939 31.0586 57.4885 24.9187C57.747 23.3211 57.5551 21.418 58.0759 19.7754L53.5649 15.5033C52.8875 14.3364 55.609 10.9219 56.7112 10.36C57.6412 9.88618 61.557 9.66102 61.9642 9.24008C62.1287 9.0717 62.1678 6.69877 63.881 6.56955C65.833 6.42271 64.9774 6.21517 66.0444 5.88821C66.9646 5.60627 67.8045 6.29936 68.6973 6.1858C69.5098 6.08204 70.8333 4.75264 71.9004 4.53728C74.8901 3.93034 76.8695 4.57056 79.4754 5.41832C80.0745 5.61411 82.4748 6.15448 82.5982 6.25824H82.6041Z" fill="#FFF0B8"/>
<path d="M179.08 15.7794C177.198 16.5801 175.278 17.4612 173.345 18.1386C171.45 18.8043 169.367 19.5737 167.487 20.2041C163.914 21.4024 159.632 20.9403 156.374 23.278C157.023 27.3993 156.913 31.6205 157.397 35.6713C158.246 36.7716 159.679 35.6517 160.733 35.501C164.155 35.0115 165.925 34.7002 169.032 36.4388C170.79 37.4216 172.245 39.0369 174.138 39.9453L175.008 45.6173L157.234 48.8869L154.356 70.7661L154.718 71.9506L155.186 72.027C156.981 71.9604 158.46 70.8503 160.112 70.3726C165.6 68.7867 173.02 68.3148 177.999 71.5571C179.767 72.7083 183.534 79.508 181.124 80.8765L180.691 80.9783C178.203 81.5598 175.671 79.9387 173.445 79.9211C168.002 79.878 162.166 83.9054 157.238 84.062C155.625 84.1129 154.558 83.1868 153.072 83.038C152.253 82.9558 151.556 83.3493 150.875 83.2103C150.497 83.132 144.678 80.0249 144.355 79.7292C143.819 79.2378 142.656 76.6417 142.63 75.9212C142.581 74.5272 144.013 73.6677 144.024 72.5145C144.032 71.7333 143.406 71.0265 143.296 70.1083C142.339 62.175 146.487 51.4341 143.789 44.4621C143.359 43.3501 142.427 43.2287 142.585 41.494C142.754 39.6673 145.751 38.52 145.745 35.64C145.735 31.9749 145.34 26.1424 144.666 22.5653C144.527 21.8292 143.813 21.2183 143.725 20.4058C143.601 19.2644 145.424 14.8298 146.213 14.0838C149.389 11.0844 154.499 11.2391 158.344 10.3678C160.58 9.86073 163.112 8.38449 165.353 7.73057C169.529 6.51081 169.398 7.20782 173.202 8.49609C173.805 8.69971 174.53 8.47847 175.09 8.67622C175.407 8.78781 177.774 10.1172 177.95 10.2954C178.348 10.6948 179.362 15.3408 179.084 15.7794H179.08Z" fill="#FFF0B8"/>
</svg>
