<?xml version="1.0" encoding="UTF-8"?>
<svg id="Calque_1" xmlns="http://www.w3.org/2000/svg" version="1.1" viewBox="0 0 2646.1 1445.1">
  <!-- Generator: Adobe Illustrator 30.0.0, SVG Export Plug-In . SVG Version: 2.1.1 Build 123)  -->
  <defs>
    <style>
      .st0 {
        fill: #fff;
      }
    </style>
  </defs>
  <path class="st0" d="M1335.4,601.6c6.6-4.8,7.4-14.5,11.7-22,1.2-2.1,10.6-16.1,11.5-17,2.7-2.5,28.4-16.7,31.9-17.6,5.8-1.5,22.4-3.8,28.1-3.4,8.1.6,14.2,2.9,14.3,12l7.5-4.5c-1.6,7.7,1.7,6.9,5.8,11.4-5.4,7.4.7,13.1.3,17.7-.1,1.5-10.9,26.7-11.9,28.3s-9.7,7.7-11.3,8.6c-10.6,5.9-27.1,9.8-39,7.4-4.2-.8-6.8-8.1-11.4-2.3-4,5,6,21.8,14.6,20.3,11.1-1.7,22.2-4.9,33.2-7,5.9-1.2,14.1-.8,18.8-1.9,1.2-.3.9-2.9,2-3,3-.5,6.3,2.7,8.8.2,2.1-1.7,7.3-19.8,8.1-23.5.9-4.4,2.6-14.8,3.2-19.3,1.1-9.2-4.9-13.9,4.3-22.6,14.9-14.1,34.6-7.4,33.8,14.3,7.1-5.4,12-13,18.8-18.7,5.2-4.3,24.7-17.3,30.7-17.2.8,0,15.8,3.9,16.5,4.3.9.6,11.5,9.9,12,10.6,4.4,6.2,3.4,21.7,1.9,28.9-1.2,5.7-6.4,15.6-8,22-1.8,6.9.4,12.9-4.3,19.7-1,1.4-19.4,16.4-20.7,16.9-19.3,8-40.8-3.7-51.4-19.9-.7,0-4.5,5.8-4.9,7.1-7,24.2-14.5,50.1-23.7,73.8-1,2.7-7.8,18-8.7,19.1-6.5,7.3-22.4,1.3-29.3-2.8.2-4-1.6-8.5-1.4-12.1.8-12.8,15.4-36.6,18.4-50.6.6-2.5,1-5,.7-7.6-9.9,5.3-21.7,14.8-32.6,17.6-9.5,2.4-40.5,2.2-50-.2-10.7-2.8-25.6-13.6-28.5-24.8-5.4-.6-8.8,5.4-14.3,5.9-9,.9-18.7-6.3-20.9-14.9-1.8-7-2.3-25.9-2.3-33.9.2-39.6,7.8-80.9,16.1-118.9,1.8-8.3,1.2-19,11.3-23.2,5.8-2.4,18-3,22,2.7,3.1,4.4,2.7,28.4,1.6,34.3-1.2,6.2-6,18.2-7.3,25.7-4.8,26.2-7.1,53.5-6.1,80.2h0ZM1417.9,565.6c-5.9-3.4-33.5,10.8-32.4,15.1,1.7,6.8,15.2,8.7,20.8,7.1,7.2-2.1,12.4-15.1,11.6-22.2h0ZM1543.8,573.1c-2.4-.6-3.5.5-5.3,1.5-2,1.1-23.3,19.6-24,21-4,8.1,6.6,18,13.1,16.3.5-.1,8-4.2,8.3-4.6,2.3-3.2-.6-13.1,9.3-13.3l-1.4-20.9h0Z"/>
  <path class="st0" d="M1606.1,244.6c-.4,0-1.1-1.8-2.2-.8-3.2,2,0,8.4,0,12,.2,9.1-1,19.6,0,28.4,1.2,9.9,7.1,12.4,2.1,23.4-4.8,10.6-18.7,11.9-27.7,6.7-2.9-1.7-8.6-23.8-9-28.5-.7-7.1,1.2-13.4,1.2-19.5s-2.7-17.5.4-26.8c-9.5-6.4-26.9-8.2-22.6-23.9,1.5-5.6,16-3.2,20-4.4,7.5-2.2,6.2-30.6,7.2-37.8,5.5-37.6,27.2-132.4,53-158.5,1.5-1.5,13-11.6,13.8-12.1,1.2-.7,14.7-3.1,16.2-3,3.5.3,3.7,4,6,6l6-6c7.3,0,18.7,29.5,21,36.1,8.5,24.5,11.8,47.3,16,72.5,3.8,23.3,9.9,32.9,2.1,58-2.5,7.9-9.5,8.7-16.5,11.9l-14-9.8c3.6-26.4-7.7-52.5-8.1-79-6.3-12.7-5.6-35.5-11.5-47-1.2-2.3-2.5-5.4-5.9-3.5-1.4.8-13.6,24.1-15.2,27.5-14.8,32.4-24.3,74.2-29.7,109.8-1.8,11.6-4,23.2-3.3,35,11.7,1.5,23-6.3,35-2.7,4.2,1.3,4.1,6.3,5.4,9.6,2.4,6.4,4.5-2.7,6.2-4.7,20.9-25.1,66.1-32.7,88-4.8,1.8,2.2,9.8,16.8,10.3,19,.3,1.4-.6,12.5-.9,14.2-1.5,7-8.7,14.8-10.1,20-.8,3.2,0,6.6-.7,9.8-1.7,7.5-11.6,10.5-17,14.5-2.5,1.8-3.4,5.5-5.3,6.7-2.7,1.7-19.1,9.5-22.5,10.5-14.8,4.6-40.5,2.5-53.2-6.7-.8-.6-7.6-7.4-7.8-7.9-.3-.8-4.5-15.7-4.5-16.6,0-6.8,6-19.8,5.6-28-9.2,0-18.5,0-27.8,0h0ZM1655.1,265.8c-4,7,14.9,11.3,21.2,10,12.7-2.6,19.4-15.4,28-23,3-2.6,8.4-3.4,10.6-7.4,9.7-17.1-14.5-20.5-26.2-18.7-5.1.8-23.6,13.8-25.6,17.9s.3,10.8-1.1,15.5c-1.2,4-6.6,5.1-7,5.8h0Z"/>
  <path class="st0" d="M1089,23c.9,1,11.7,22,12.5,24.3,6,16.5,2,72.1-4,89.2-2.5,7.2-7.3,15.2-15.3,16.4-7.1,1-13.1-4.5-19.7-5.8-1.7-4.5,2.6-7.1,3.7-10.4,5.1-15.7,6.1-34.2,8.3-50.2.5-3.7.3-29.2-.8-30.9-1.2-1.8-2-1.7-3.8-.7-9.4,5-24.2,41.5-28.5,52.5-11.6,29.8-25.2,69.4-29.9,100.6-2,13.5,15.4,8.4,24,10.3,3.1-1.1,7-10.4,10-12.7,2.6-2,20.2-12.1,22.9-12.8,5.1-1.3,6.8.8,9.9.7,2.2-.1,3.8-2.6,6-2.8,17.1-1.8,25.2-1.4,40.2,7.7,28.3,17.2,19.9,42.9,8.8,68.3-5.8,13.4-28.2,37.7-43,39.5-17.1,2-47.5-5.5-55.2-22.9-.6-1.3-5.2-14.9-5.3-15.7-.6-3.3,2.4-9.3-.5-13.7l-26.8-1.7c-2.3,2.1-2,48,0,49.5l18-6c.6,2.9-2.4,4.6-2.8,7.1-.5,2.7,1.2,5.2,1,7-.8,4.7-18.5,17.5-24.2,17.3-27.4-.6-24-40.1-23.5-59.2.4-13.3,6.3-23-2.2-35.2-1.5-2.2-4.7-2.5-5.7-4.9-5.2-12,6.2-11.3,12.4-15.5,6.6-4.5,3.7-8.2,5-14.5,12.3-60.2,33.3-129.4,78-173.2,6.1-2.5,26.4-6.3,30.7-1.5h0ZM1102.4,224.1c-3.7-1.4-35.2,2.5-36.7,4.4-.8,4.9-3.8,12.2-3.5,16.9.2,3.4,2.9,5.2,3.1,7.5.6,6.1-6.8,17.1,5.2,18.8,20.1,2.7,24.1-8.7,33.4-22.1,3.7-5.3,14.5-12.4,5.8-20-.8-.7-6.8-5.3-7.3-5.4Z"/>
  <path class="st0" d="M2559.8,203.7c2,1.3,6,.2,8.2,2.3,2.9,2.6,2.8,12.4,6.4,13.9l5.1-2.2,3.6,3.6c-13.7,11.1-1.6,20.7-6.6,33.8-13.6,9.8-25.6,20.9-42.3,25-6.3,1.5-26.9,4.4-32.4,3.5-3.6-.6-8.5-6.6-12,1.6-1.7,3.9,1,17.6,3,21,1,1.8,12.8,6.8,15.4,7.2,7.1,1,13.6-2.3,20.6-2.7,9.7-.5,16.9,2.6,25.6,3,6.4.4,12.7-4.3,17.4,5.3l-6.2,13.5c-6.2.2-11.9,5.9-17.3,6.7s-9.1-1.5-13.4-1.4c-3.9,0-7.1,2.6-10.6,2.9-12.5.9-51.5-.5-60.5-8.2-.5-.5-8.8-10.1-9-10.8-1.8-6.6-4.4-19.9-4.6-26.6-.4-10.6,2.4-20.6,1.6-31.3-13-7.3-7.4,3.7-8,9.8-.9,11.1-10.5,45.1-20.2,50.3-2,1.1-4.7,1-6.8,1.9-1.1.5-1.1,2.7-2.2,2.9-4.1.9-13.5-3.2-15.1-7.1-6.6-15.5,7.2-38.7,8.4-55.3.5-6.6-2-12.9-1.3-17.7,1-6.8,9.7-6.4,4.5-15.9-.7-.5-5.7,4.9-6.6,6.1-12.1,16.4-28.8,43.4-37.2,61.8-2.4,5.3-2.1,13.4-7.2,18.3-6.7,1.3-23.7,2-27.7-3.8-2-2.8-.7-6.8-5.3-8.3,0-6.8,4.7-14.5,5.4-20,2.1-16.8,5.2-36,8.5-53,3-15.3,22.2-31.7,34.1-15.3,2.9,1.2,3.9,10.8,6.8,9.7,4.3-1.7,25.1-36,31.8-40.5h21.9c0,0,12.3,10.5,12.3,10.5l-.7,37.5c2.9-5,11.1-4.9,13.1-6.3,2.4-1.7,11.4-24.7,15.8-29.2,19.4-19.4,58.3-17.5,79.8-2,2.3,1.7,3.1,5,4.1,5.6h0ZM2491.9,250.6c5.8,2.2,10.7-2.4,14.3-2.9,10.8-1.5,32.9.5,39.8-11.2,3.9-6.7-5.2-16.9-10.6-19.5-2.5-1.2-5.7-.9-8.5-2-6.9-2.7-6-6.6-15.4-2.6-10.2,4.4-18.5,27.7-19.5,38.2h0Z"/>
  <path class="st0" d="M1580.7,951.9c.7-.5.3-2.7,2.8-2.5,3.1.2,4.8,2.5,6.3,2.7s4.2-1.1,6.8-.7c3.6.5,18.3,9.4,19.9,11.8,2.2,3.3,6.9,30.4,14.3,25.4l9.7-49.5c9.2-6,24.3-18.3,32.3-3.7l2.3.7c.9-.2,10.1-11.9,11.9-13.6,4.5-4,13.4-11.2,18.3-14.7,1.4-1,11.3-7.3,12-7.4,2.6-.5,6.5,3,9.5,2.7l1.7-5.8c12.3,0,28.8,6.6,36.4,16.4,14.6,18.6,22.6,46.2,18.8,69.6-.4,2.7-13.1,33.1-14.9,36.1-9.8,16.2-34.4,29.5-53.3,27.9-4.8-.4-5.4-3.9-9-4.6-12.2-2.3-16.9,1.1-29.3-8.2-5.2-3.9-11.2-18.5-16.5-15.1-1.9,2.3-3,5.4-3.8,8.2-5.6,19.3-14.8,39.6-21.2,59.8-4,12.7-1.7,35.2-21.9,30.2-1.1-.3-1-2.7-2.1-2.9-4.8-1.1-9.3,1.9-14.1-2.2-9.2-7.8,4.2-30.2,7.2-39.6,4.7-15,8.3-30.6,13-45.5,2.3-7.4,8.8-12.7,4.8-22.3-2.6-3.7-10.2,0-13.7.2-13.2.3-17-15.8-22.5-16.7-8-1.3-18.4,10.9-22.4,11.5-2.6.4-9.3-1.2-13.6-.9-9.7.7-18,4.3-27.3-1-.4-.2-7.3-6.4-7.4-6.8-.8-2.4-.2-5-.8-7.5-7.2-26.3.9-47.5,9-72.8,2.4-7.5-2.3-7.2,8-11.5,23.9-10,24.3,2.7,22.2,23.7-.8,7.8-5.1,19.2-5.9,27.1-.2,2,.3,18,.7,18.8,1.5,2.8,2.4.2,3.9-.6,10-5.8,18.2-9.9,27.8-16.6h0ZM1748.1,952.4c-6.5-23.8-18.9-36-40-16.4-8.4,7.8-23.1,26.2-28,36.5-4.3,9.2-3.3,11.5,1.5,20,8.2,14.8,19.2,22.2,36.9,19.8,4.4-.6,16-6.5,18.8-9.7,2.7-3,2.1-7.4,4.5-10.5,2.1-2.7,11.1-7,11.8-10.7-3.7-8.5-5-16.7-4.2-26l3,7.5c6.2,1.1,1.3-7.7,1.3-10.3l-5.6-.3h0Z"/>
  <path class="st0" d="M153.9,785.1c-6,5.2-10,9.3-18.4,12.3l-28.6,23.9c.8,3.5,15.7,2.1,19.8,2.7,8.1,1.1,25,8.5,31.2,13.8,3.7,3.2,7.1,11.7,9.7,12.8s2-1.1,2.5-1.9c27.6-45.1,66-73.5,122-68.6,9.7.8,26.2,9.3,28.9,19.1,1.2,4.4,1.5,9.4,3,15.1,1.7,6.6-7.2,10.1-8.3,12.7s0,5.8-1.1,8.7c-12.4,33.1-65.9,47.2-97.1,38.5-12.4-3.4-25.6-14.2-16.9,10.9,4.9,14.2,11.1,14.6,25.3,13.3,19.2-1.8,41-9.7,60.2-13.1,9.4-.5,4.2,11.4.7,15.5-8.7,10.5-42.7,26-56.2,27.8-22.3,3.1-62-5.5-67.9-31.2-1-4.5-.1-9.3-.8-14.2-.2-1.6-.6-7-3.3-5.7-17.1,25.9-51.6,55.8-83.3,36.7l-.9-1.4c1.5-3.8,0-8.8,2.4-12.2,2.9-4.2,27.1-12.8,34.5-18s16.3-13.2,17.9-22.2c-.6-3.2-13-8.3-16.3-9.2-14.1-3.9-15.7-1.6-29.8-9.6-11.4-6.4-16.4-4.7-13.7-21.8,1-6.4,19.5-22,25.4-27.1,9-7.8,18.6-14.4,27.8-21.8,3.4-2.7,8-9.3,12-11.9,6.6-4.3,31.4-14.3,33.7-2.2,2.7,13.8-5.4,20.5-14.4,28.2h0ZM291,817.3l1.1-10.3c-7.8-7.8-14.9-3.3-22.8-1.8-21.8,4.3-31.4,8.3-48.6,21.5-13.6,10.4-7.3,13.8,6.9,14.9,14.8,1.2,34.6-1.7,47.2-9.9,5.7-3.7,9.6-11.6,16.3-14.4h0Z"/>
  <path class="st0" d="M1639.9,579.1c6-1,8.6-9.9,11.6-13.4s10.3-10.5,13.8-13.9c3.2-3.1,20.9-19.2,23.3-19.2s5,3.7,7.9,4.3c3.6.7,7-1.5,9.4-.6,2.6,1,7.5,10.5,11.8,12.3,1.3,6.5-.8,12.8-1.4,19.2-.3,3.2,1.2,6.9.9,9.1-.2,1.8-3.6,5.3-4.6,8.2-2.8,8.3-1.3,14-.8,22.5,1.5,1.8,9.4-8.7,10.2-10,3.9-6,5.4-13,10-18.5,3.9-4.8,9.9-7.8,14.3-12.7,7.6-8.3,20-27.9,31.1-30.4,2.3-.5,22.3-3.6,23.6-3.5.7,0,13.2,4.6,13.8,5,1.4.9,2.1,5.1,3.9,6.6,1.5,1.2,4,.7,6.3,3.5,1.3,1.6,8,17,8.2,18.9.5,5.5-4.5,19-6.4,25-.7,2.1-3.1,3.2-3.7,5.3-3.6,10.9-3.6,26.2-12.2,35.8-2.3,2.5-5.8,1.8-8.4,3.6-3.7,2.5-7.4,8.3-11.2,11.3-18.4,14.6-47.5,22-69.3,10.8-8.6-4.4-9.9-14.6-16.9-20.6-5.4,4.9-15,12.2-22.1,8.6-.9-.5-8-5.5-8.3-6-1.6-2.8,0-41.5,1.5-46.6.6-1.8,2.8-2.9,3.3-4.2,2.6-7.3,5.4-12.5,3.9-20.8-14.3,13.6-26.2,29.3-38.7,44.5-6.8,8.3-11.6,14.7-19.1,23-4.1,4.6-7.7,14.6-14.9,14.8-4.4.1-16.6-3.8-19.4-7.5-8-10.6-1.7-14.5.2-23.5,1.7-8.3,2.4-12.4,4.8-19.5,13.4-40.7,27.2-81.8,38.8-122.9.9-3.1-.2-6.8.6-9.9.5-1.8,12.5-13.1,13.9-13.2,2.7-.2,13.5,2.9,15,4.7,1.4,1.6,5.4,12.9,5.3,15.7-.2,12.4-7.7,32-11.4,44.3-1.9,6.2-.3,11.9-6.2,17.8l-12.4,42.3h0ZM1800.2,571.8c-10.2-3.8-11.7-7.3-21.5-.2-17.4,12.5-19.9,25-31.5,39-4.3,5.1-16.6,11.2-17.1,12.2-2.3,4.1,12.1,11.7,15.6,11.9,15.1.9,35.8-21.4,43.4-33.3.7-1.1-.4-3.3.8-5.2,4.6-7.7,14.8-10.6,10.4-24.5h0Z"/>
  <path class="st0" d="M2347.9,1021.6c2.8.7,2.9-.9,4.2-2.5,8-9.3,15.7-19.5,23.4-29.2,5.3-6.8,11.5-23,22.4-22.3,6.6.4,17.4,3.4,21.1,9.1,8.2,12.9,4.7,22.7,5.3,36.7.5,10.5,1.6,20.7,1.6,31.5,0,6.4-2.8,9.8,1.6,17,4.8,4.1,15.5-11.9,17.9-15.7.7-4.7-4-8.9-5.6-13.8-1.8-5.4-1.4-10.4-2.6-15.4-2.6-10.9-9.4-14,0-25.3,17.9-21.5,35.9,6.1,38.2,23.9,4.1,3.9,12.4-9.1,14.9-11.1,4.1-3.3,9.2-5.3,14.2-9.8,3.3-2.9,12.1-14.2,13.8-15.2,2.4-1.5,22.6-7.7,25-7.5.6,0,5.9,6.2,8.3,7,.1,27.8-14.8,36.5-33.9,51.3-3.6,2.8-8.8,4.2-11.4,6.2-3.8,3-7.2,10.8-13.2,13.1-1.4,5.8,8.9,22.5,12.9,27.3,4.1,5,6.7,8.4,13.9,7.9-.4,3.7,4,6.3,4.5,8.3s-1.6,10.4-.4,14c-5.2,0-11.9,5.4-15.2,5.9-4.4.7-22-3.1-26-5.4-7.3-4.1-19.9-25.4-23.6-26-15.7,12.1-30.9,26.3-52.3,23.9-15-1.7-12.7-11.7-12.7-24,4.2,1.2,8.3,2.5,12-.8-15.4-13.2-9.9-36.1-11.9-54.1-1.8-15.4-15.6,7.7-18.1,10.6-7.1,8.2-31.8,23.3-42.6,21.7-1.1-.2-15.9-6.9-16.6-7.5-1.1-1-6-11.2-6.4-13.1-4-16.4-.6-31-.3-47.6.1-7.2-1.5-13.8.4-22.2,1.6-7.2,6-14.1,13.2-16.9,2.2-.8,11.5,1.8,13.4,3.1,8.7,5.7,6.4,55.4,10.6,66.7h0Z"/>
  <path class="st0" d="M2283.4,607.6c2.5,3.1,20.2-18.1,21.7-19.5,1.9-1.7,18.5-12.9,19.9-13.2,1.7-.4,15.4,1,17.3,1.5,4.5,1.3,5.5,9.5,13,5.7-.4,7.5.7,15.7-.2,23.1-1,8.5-7.5,19-8.8,27.2-.9,6.1.6,13.2-.1,19.4-1.6,14.2-6.6,45.4-24.7,45.9-8,.2-14.8-.4-17.1-8.5-2.5-8.9,3.4-45,6.7-54.5,1.6-4.6,7.6-4.7,5.1-12-3.5-3.8-19.8,17.7-22.4,20.3-5,4.7-15.1,10.6-19.6,16.3-4.9,6.1-9.4,19-20.1,19-3.9,0-5.3-2.9-8.2-4-2.3-.9-5.6,0-7.2-1-.6-.3-6.5-10.1-6.3-12.2l8.9-49c-7.4,4.4-9.6,16.1-13.8,22.9-1.5,2.4-4.2,3-5.5,5-5.4,8.9-16.4,34-21.9,39.6-2.1,2.2-12.1,6.3-15,6-.9,0-14.2-9.5-15-10.6-1.9-2.9-2.5-7.7-2.4-11.2.3-17.7,7.3-39.7,9-57.1,1.7-17.1-5.9-44.6,19-48.5,20.1-3.2,19,7.8,21.3,23.6.5,3.2-3.1,7.2,2.6,7.8l17.3-24.8c6.2-4.4,10.7-12.5,15.7-17.3,4.4-4.2,11-6.5,13-11.7l19.4,5c2,1.4,2,20.5,1.5,24.1-.5,3.5-2.7,5.3-3.2,8.8-1.4,10.3-.5,23.4,0,33.8h0Z"/>
  <path class="st0" d="M1999.8,928.7c3.7,14.1-4.7,26-5.9,38.2-.7,6.4-.6,14.9-.8,21.8,0,2.1-1.1,2.7,1.6,4.5,1.7.3,15.3-14.3,15.7-17.3,3.9-5.8,11.2-8.5,15.7-12.8,4.6-4.2,23.6-24,27.3-25.2,2.6-.8,18.1-.8,20.4,0,4.6,1.5,4.5,9.1,5.9,11.3,1,1.6,6.6,2.8,7.8,4.9,2.6,4.5.9,20.2.4,25.9-2.2,23.6-5.2,47.1-12.7,69.8-4.6,14.1-13.2,17.7-27.4,18.2.4-7.2-6.9-9.8-4.6-17.9l-3.7,1-2-2-.2-11c2.7.2,1,4.7,2.3,7.5.4.9,3.2,3.5,3.7,3,1.9-11.6,3-23.3,4.9-34.9.7-4,3.3-8.1,4-12.5.5-2.9,1.5-20.6.1-21.6-2.8-.7-3,1.1-4.4,2.4-11.5,9.8-22,26.6-32.2,36.7-5.6,5.5-24.3,13.6-27,19.4-.5,1.2,1.2,5.3-3.4,7.5-2.4,1.1-17.8,1.8-19.9.8-5.3-2.4-6.9-11.2-12.1-13.7l6.1-38.9c-1.7-.5,1.6-18.7-3-14.2-8.1,17.6-18.3,33.2-23.7,52.1-1.7,6.2-.4,15.2-5.5,21.5-10.8,13.4-21.8.8-33.6-3.4-4.4-11.3.5-18,2.6-27.6,5.9-27.1,4.9-55.3,9.2-82.3,1.1-6.7,5.8-9.2,10.2-12.3,1.3-.9,1.5-3.4,2.7-3.7,1.8-.4,4.1,1.1,5.9,1.1,3.8,0,4.7-1.9,8.8.4,3,1.7,8.6,9.7,9.3,13.2,1.5,7.6-1.6,11.5-1.9,18.4,8.7-.4,8.8-6.9,12.7-11.3,4.5-5,9.5-9.5,14.2-14.3,4.1-4.2,3-7.6,11.8-10.8,9.2-3.3,11.4,9.2,20.5,8h0Z"/>
  <path class="st0" d="M1366.3,1003.1c-5.6,4.4-29,12.6-36.2,12.5-10.5-.1-16.5-7-23.3-8.4-4.6-.9-9.7.8-16.5-1.4-12.4-4-29.4-19-32.7-31.8-5.6-21.8,9.2-66.7,33.5-72.3,5.8-1.3,28.9-2,33.1,1.3,5.4,4.2,5.2,15,2.6,20.8-2.1,4.6-13.1,5.5-16.9,7.2-11.6,5.2-14.4,30.8-5.4,39.7,2.6,2.6,25.1,11.3,29,11.6,6,.4,13.4.8,19.1,1.1,7.2.3,16.7.5,19.5-6.8.9-2.4-1.1-5.9,0-10.4,1.4-6.4,10.7-16.3,11.1-19,.3-1.8-4.1-5.5-4.4-10.3-.2-2.7,1.4-13.4,2.4-15.7,2.2-4.8,23.7-22.9,29.3-24.7,5.3-1.7,10.3-.3,15.6-1,6.3-.8,11.9-3.8,19.6-2.2,2.8.6,4.9,4,7.9,4.9,9.6,2.8,27.7,3.4,34.9,11.6,12.3,14,11.8,30.5,2.7,46.2-5.4,9.2-10.9,19.6-16.4,28.6-18.7,30.4-59.3,39-88.8,18.7-2.8-2-7.6-8.1-9.6-8.6-5.1-1.3-7.4,6.4-9.9,8.3h0ZM1418.8,931.8c-5.2,1.8-6,16.7-7.8,20.7-2.1,4.8-12,8.3-11.2,17.1.8,9.1,18.5,12.5,26.2,11.3,9.8-1.5,19.4-15.3,25.6-22.4,3.7-4.2,10.4-6.8,10.5-15.1.2-12.1-4.8-7.5-11.9-9-3.2-.7-5.4-2.6-9-3-6.9-.7-15.2.4-22.3.3h0Z"/>
  <path class="st0" d="M1347.4,1282.6c-7.8.2-9.4,8.2-13.5,12.7-15.5,17-24.6,31.3-47.6,37.9-13.8,3.9-31.2,5.9-40.9-6.7-8.2-10.6-3.3-28.3,2.4-39.2,1.9-3.7,9.3-10.9,10.4-13.7,2.1-5.4-3.6-5.2,6-13.4s21-9.1,27.2-14c2-1.6,2.4-5.6,6.1-6.7,1-.3,19.2-1.9,20.6-1.8,5.1.3,9.2,6.7,15.9.8,1.7-1.5,9.3-12.2,10.8-14.7,5.3-9.1,12-29.2,13.2-39.4.4-3.3-1.8-7.8-.8-9.6,1.1-2,5.2-3,6.7-5.4,2.5-4,2.1-12.2,5.5-17,2-2.8,5.2-3.3,6.8-5.3,1.3-1.7.9-5.3,2.3-5.4,2.1-.3,18.7,1.8,19.4,3,1.8,5.1-.1,10.7.8,15.8,1.7,9.6,2.4,13.2.8,23.5-.4,2.7-4.1,2.6-5,6.9-2.5,11.9-1.7,26.7-3.5,38.6-.7,4.6-3.6,7.3-4.3,10.7-2.8,14.8-3.3,57.2.7,71.2,2,7,5.8,8.3,5.1,17.1-.9,11.3-3.3,8.4-10.7,11.6-2.4,1-.3,4.3-9,2.5-10.1-2.1-17.2-6.9-20.9-16.6-1.8-4.7-4.2-15.2-4.2-19.8v-23.2h0Z"/>
  <path class="st0" d="M103.9,145.6c3-.3,6.5.6,9.4,0,1.1-.2,1.2-2.3,2.3-2.8,35.3-15.4,34.9-26.6,55-54.2,2.7-3.7,8.2-4.1,10.1-8.6l17.6,1.2c-1.5,7.1,2.6,16.2,1,22.6-.3,1.1-9.7,15.5-11.7,19.8-17.2,38.5-34.1,84.3-43.6,124.4l-11.9,26.3-17.5,3.1c-2.6-8-8-14.1-6.2-23.1l30-87.7c-4.7-1.4-3.9,2.2-6.6,3.2-8.7,3.2-18.4,3.6-27.1,5.8s-12.9,8.6-22.8,4.5c-4.5-1.9-4.6-7.8-9.6-7.6-5.9,16.2-15.7,30.7-23.8,45.9-4.9,9.2-9.6,16.8-18.1,23.9-4.1,3.4-13.4,6.4-18.5,4.8-.7-.2-10.9-8.4-11.2-9-2.5-4.3,2.2-15.1,5.1-18.8,3.1-4,9.1-6.1,12.6-10.1,14.6-17,42.8-76.4,53.8-99.2,7.3-15.2,8.3-34.2,30.8-35.2l6.2,9.1c2.8-2.9,3.1-7.1,8.2-6,1.8,11.2-6.5,20-9.7,30-.9,2.9-3.8,13.5-3.8,15.7v21.8h0Z"/>
  <path class="st0" d="M957.9,218.1c-2.9,2.8-3.1,5.6-8.5,7.4s-8.1-.9-10.6-.2c-5.2,1.3-4.9,19.4-5.9,24.2-2.9,14.6-5.3,27.8-7.4,42.1-.5,3.1-4.8,8.8-5.2,13.1-27.6,8-20.7-23.4-20-39.8.1-2.5-1.7-5.1-1.5-7.5.8-11.2,5.4-24,4.6-35.8-17.2-5.4-18.1-24.7-38.3-21.8-13.5,1.9-26.1,9.8-30.9,23.1-3.7,10.3-7.2,18.1-11,27.9-2.1,5.3.1,9.9-4.8,14.7-3.1,3-11.5,6.6-15.9,5.9-9-1.4-5.8-5.4-7.5-8.4-.7-1.1-4.4-1.1-5.4-4.4-3-9.7,4.1-18.7,6.5-27.5,2.2-8.4,4.8-38.2,9.8-42.7,6.5-5.9,14.8-2.4,21.4-3.9,1.2-.3,1.2-2.4,2.2-2.9,19.3-10.4,41.3-17.8,62.7-7.7,6.6,3.1,9.8,10.4,14.1,14.1,6.5,5.7,5.4-9.9,6.4-14.4,6.6-28.5,13.1-50.6,13-79.9,0-7.1,7.6-25.4,14.7-27.4,16.2-4.8,22.4,5.6,23,20,.8,19.8-8,49.5-11.9,69.1-2,9.9-2.8,20.2-5.8,29.9.8,4.4,17.2-1.5,20.3,9.2,3.5,12-1,16.4-8.2,23.5h0Z"/>
  <path class="st0" d="M767.5,778c.3.5,3.1.5,2.5,2.7-2.7,13.3-1.8,28.8-4.7,42-2,9.3-6.3,15.5-7.3,27.3-.2,2.2,1.8,5.6,1.3,6.4-1,1.4-8.2,2-5.9,9.2,1.8,1.8,16-10,19-11.7,7-4.1,18.8-10.4,26.8-9.4,3.4.5,5.1,2.6,7.5,3,6.9,1.2,14.4.4,21.7,3.8,9.1,17.8,12.5,30.8,4.7,49.8-3.9,9.6-29,55.8-35.5,60.5-14.1,10.4-24.8,5.8-40.2,2.9-2.5-5.2-12.4-6.5-15.6-9.4-3.3-3-8.1-19.7-13.1-23.7-2.2-1.8-20-1.1-24.9-8-6-8.3,3.1-20.3,5.4-27.9,6.8-22.3,17.9-50.3,22.6-71.9,4.2-19.8-3.9-48.2,22.8-53.8,8.9-1.8,9.4,1.8,13,8.1h0ZM798.3,877.6c-6.4-4.5-38.7,30-47.8,30.1-2.9,9.3,19.5,28.2,26.6,23.6,1.8-4.8,2.2-10.6,5.5-14.7s8.4-4.2,11.1-6.9c5.6-5.5,6.5-24.6,4.5-32.1h0Z"/>
  <path class="st0" d="M1080.9,1293.6c-7.3,14.4-25.2,46-41,51.2-25.7,8.5-53.4-9.9-61.5-34.4-1.6-4.8-5.7-21.2-5.7-25.6,0-5.8,4.8-13.3,2.5-20.1-.5-.6-12.3-2.6-14.8-4-8-4.4,0-24.2,3.9-30.5,2.3-3.7,22.8-22.6,27.1-25.4,25.5-17.3,67.3-22.5,94.6-6.6,18.7,11,18.5,44.9,11.2,62.8-4.5,10.9-11.3,22.8-16.2,32.5h0ZM1063.6,1231.9c-.3-.6-9.7-6-11-6.2-11.1-2.1-27.4,0-37,6.3-8.7,5.8-3.4,6.1-4.7,10.6-4.2,15.4-9.1,15.6-6.8,36.1,1.7,15.3,18.2,43.7,32.6,22.5,3.2-4.7,10.5-22.1,12.1-23.9,1.8-2,5-1.7,6.8-3.7.6-.7,7.8-15.1,8-16,.7-2.9.8-24.2,0-25.6h0Z"/>
  <path class="st0" d="M903,476c.4.1,3.2,4.8,3.8,5.1,2.5,1,4.9.1,7.9,1.9,7.1,4,11.2,13.9,11.3,21.9,0,10.2-1.8,8.3,1.2,19.7,2.6,10-3.7,12.8-7.6,22-1.8,4.3-1.8,10.3-4.2,13.8-6.8,10.1-34.2,16.8-45.9,17.2-7.9.3-12.5-5-20.2-4.5.4,6.3,3.6,23.3,10.1,25.2,9.6,2.8,37.9-5.9,48.4-9.5,6.5-2.2,26.5-15.6,30.8-6.7,6.7,13.9-15.2,20.7-23.8,25.8-4.7,2.8-8.9,6.7-14.4,9.6-27.1,14.1-72.2,21.5-84.1-15-4-12.4-6.8-44.4-4-56.7,4-17.5,22.7-46.1,37.2-57.3,11.8-9,39.4-17.1,53.5-12.4h0ZM894.2,499.8c-17.7-3.2-32.3,13-38.3,28-7.5,18.7,3.1,13.7,15.2,13.6,3.1,0,6.2,1.8,8.9,1.6,2.4-.2,13.3-6,13.9-7.8.8-2.6,3.4-21.4,3.3-24.2,0-1.5-2.6-10.9-3.1-11.2h0Z"/>
  <path class="st0" d="M2052.6,214.4c1.9,3,27.3-3.6,32,7.8,5.2,12.4-6.4,17.7-6.7,28.5,18.6-4.3,26.6,15,23.9,30.7-.3,1.7-5.1,11.4-5.9,12-.5.3-10.4,3.5-11,3.5-11.1-.9-22.6-19.5-20.1-30,.6-2.5,6.6-10.2,5.6-11.6l-21-1.5c0,2.6.3,5.3-.3,7.9-1.8,7.2-2.9,14.2-4.1,21.4-1.4,8.7,1.2,38.9-9,43.4-1.3.5-3.4-.7-4.9-.3-2.7.6-4.4,3-7.5,2.4-7.8-1.6-15.6-13.4-14.8-21.5l4.4-62.7c-.8-3.8-15.2-8.4-14.8-18.2.5-10.9,16.9-11,18-14,2.1-8.2.7-16.8,1.7-25,2.8-23.1,8.2-46.8,10.4-69.1,1-10.4-3.2-22.8,6.6-30.8,8.3-6.8,23.2-7.6,29.4,2.2,7.3,11.6-.6,47.7-2.9,61.8-1.5,9-.7,16.6-6.1,25.4l-2.9,37.9h0Z"/>
  <path class="st0" d="M575.8,1163.2c10.3,7.9-.5,20-.5,30.4,0,4.6,5,11.8,1.1,19.2l2.3,12.8c10.2-16.2,23-29.7,35.3-44.3l22.2-.4c1.9,7.9,10.5,15.5,12.2,23.1,1.9,9.1,1.6,20.9,3.6,30.9,3.4,17.6,11,39.2,12.9,56.1,1.8,15.7-7.6,20.4-21.3,21.7-2.7-4.5-7.2-8.5-9.8-13-5.7-10-10.5-29.3-13.4-40.6-.9-3.6-4-23.5-4.9-24.4-2.3-2.2-2.7,1-3.4,1.9-6.7,8.5-12.2,22.2-19.8,29.6-3.8,3.7-7.2,4.4-10.6,7.4-6.6,5.8-8.9,16.2-19.5,18-8.2,1.4-25-6.9-25.7-15.8-.2-2.3,1.3-4.7,1.1-7.2-.9-10.7-4.3-29.9-4.1-39.4,0-3.9,3.7-11.6,4.1-17.6.8-10.7-2.5-16.3-3-24.2-.7-10,19.1-31.4,29.1-30.6,1,0,10.9,5.6,12.3,6.7h0Z"/>
  <path class="st0" d="M2305.6,960.3v3.2c-1.5,2.8-5,4.8-5.5,8.1-1.2,7.4,6.3,7.9-1.4,21-6.1,10.3-22.2,24-33.5,28.1-14.7,5.4-24.7,6.3-38.9-1.5l-3,1.7c-1,14.2,12.3,35.8,27.6,33.6,6.2-.9,21.7-6.9,27.7-9.8,4-1.9,7.8-8.7,15-6.5,3.9,12,1.5,20.8-7.5,28.9-9.2,8.3-21.9,13.1-33.3,17.4-13.5-3.1-29.3-2.6-41.9-7.8-.9-.4-14-11.7-14.6-12.4-9.8-11.7-15.8-35.6-12.2-51.3,1-4.4,6.2-10.5,6.3-11.7,1.6-12.4-9.4-19.1,3.6-30.9,6.4-5.8,8.8-2.8,14.3-5.2,1.8-.8,6.4-6.2,9.7-8.3,16.7-10.2,42-16.7,61.2-14.7,3.9.4,9.4,4.6,13.2,6.3,2.3,1,6.1.6,7.4,1.5,2.7,1.9-.5,9.5,5.6,10h0ZM2242.9,978.1c-1.1,7.1,5.6,6.8,10.9,5.6,6.2-1.3,12.4-8.7,17.6-12.4-8.9-7.2-18.6,7-28.5,6.8h0Z"/>
  <path class="st0" d="M620.8,271.1c-16.2,13.8-44,15.3-52.1-7.7-1.9-5.4-1.3-11.2,4.6-13.6,5.5-2.2,15.2,6.2,21.8,2.4,15.3-9,18.9-48,19.8-64.3-1.7-.7-3.8-2.6-5.3-3-12.2-2.6-34.8,22.4-39.8,32.9-7.4,44.1-19.6,86.6-28.8,130.2-10.6,14.2-27,9.6-33-6,5-16.6,6.7-33.9,10.6-50.9,3.8-16.9,11.8-36.8,13.9-53.6,1.1-8.9-2.1-18.8-1.1-25,.4-2.6,14.2-19.4,16-20.4,3.6-2.1,8.3-.8,12.4-2.2,9.1-3.2,28.6-25.9,41.7-28.8,1.8-.4,19.4-1.7,20.4-1.5.8.1,11.8,8.2,12.9,9.4,1.9,2,8.5,12.7,8.9,15.1,4.5,24.2-3.4,70.4-22.9,87.2h0Z"/>
  <path class="st0" d="M2054.9,568.2c-.9,1.3-4.3,1.2-5.3,4.4-3.2,10.2,1.7,14.2-7.8,26.7-10.5,13.9-27.1,19.9-43.4,23.3-3.3,3.3,8.4,28.2,12,30.6,11.6,7.9,43.4-1.6,57.3,2.3l4,14.8c-4,3-9.9,3.1-13.8,5-7.2,3.6-13.3,11.8-23.2,12.8-5.1.5-27.1-1.9-32.3-3-19.2-3.9-33.6-23.5-40.5-40.5-5-12.2-6.5-21.3-5.8-34.7-1.5-5-14.3-5.2-13.1-18.1,1.2-13.7,13.9-11.6,15.8-14.3,1.2-1.8.3-5.6,1-8,1.9-5.9,14.5-28.8,19-32,1.1-.8,23.9-10.7,25.2-10.9,3.8-.5,5.6,3.2,9,4,5.4,1.3,12.9.6,18.3,2.7,2.3.9,16.6,10.2,18,12,3.1,3.8.5,8,1.7,11.8.9,2.6,8.8,3.5,3.9,11.1h0ZM1995.4,588.1c12.4,1.3,26.7-10.4,29.7-22.2,2.2-8.7-11.5-8.7-17.4-9.1-6.1,9.8-12.2,19.3-12.3,31.2h0Z"/>
  <path class="st0" d="M971.9,869c3.5,4.5-.4,12,7.9,12.3-8.7,14.1-3.5,27.7-17.9,39.1-12.2,9.7-30.5,13.3-45.8,12.8-6.6-.2-8.7-5.3-16.3-1.4-9.6,4.9-1.2,12.5-.5,20.4,10.5,8.3,24.1.9,34.8.3,3.7-.2,7.3,1.3,10.3,1,4.8-.4,23.8-5.2,25-4.8,10,2.7,3.7,13.5-1.5,18.2-17.3,15.8-42.7,20.3-65.3,18.7-28.3-2.1-48-12.8-47.3-44.3.3-14.3,7.7-23.2,8.9-31.8.4-3.2-2.3-4.6-2.7-7.2-1.7-9.8,3.8-19.5,13.1-22.8,3.8-1.4,12-1.4,13.5-2.2.7-.4,1.1-3.1,2.5-4.2,19.9-15.3,63-27.7,81.4-4.1h0ZM943.8,886.6c-8.2-5.7-11.3-.9-19.5,0v4.5c5.1-.2,10.3.6,15.4-.4,2.7-.5,5-.7,4.1-4.1h0Z"/>
  <path class="st0" d="M80.8,1147.1c-5.3,5.2-12.6,11.5-18.8,15.7l.4,4.4c23,7.7,46.5,1.1,69.8,4.4-1.8,6.5,2.1,18.7.9,24-2.1,8.9-11,14.3-15.9,20.2-3.2,3.8-5.4,9.9-8.3,14.2-13.1,18.8-33.7,39.2-52.4,54.1-7,5.6-11.5,8.8-20.9,7.4-9.1-1.3-14.7-4.4-14.5-14.2.3-14.6,11.2-18.7,19.7-27,15.3-14.9,28.9-30.9,43.5-46.5,0-2.2-20.8-5-24-6s-6.1-4.3-8.6-4.9c-10.1-2.6-20.2,2.6-28.9-8.6-10.1-13.1-2.3-22.1,6.7-32.2,11.1-12.5,24.7-23.3,36.2-35,11.3-11.5,19.7-28.6,36.5-31.8,11-2.1,22.6-1.5,18.5,12.6-4.9,17.1-27,36.4-40,49.2h0Z"/>
  <path class="st0" d="M1388.8,200.2c13.6,9.4,22.8,24.1,24.7,40.6.6,5.7-5.9,31.7-7.9,38.7-7,23.8-30.5,51-54.8,57.7-16.7,4.6-42.8-5.4-53.4-19.2-1.6-2.1-13.8-22.1-14.1-23.4-1.7-7.3,2.2-13.9-2-20.7l3.3-3c-7.5-15.5,11.3-25,18.7-35.1,5.3-7.2,6.7-13,14.1-20.3,16.2-15.9,39.3-23.8,62-19.9,3.7.6,6.5,2.7,9.5,4.8h0ZM1370.9,230.1c-1.9-.7-11.8-2.2-13.7-2-15.5,1.5-35.2,36.3-46.6,46.6-4,9,18.6,30.2,28.5,30.1,6.3,0,13.4-5.7,17.2-10.3,1.5-1.8,1.7-4.9,3.1-6.7,4.7-5.8,9.5-6.5,11.8-15.5.6-2.4-.7-6.1.8-8.2.9-1.3,4.3-1.1,6-3,5.5-5.9,4.6-19.1,0-25.4-.3-.4-6.7-5.4-7.1-5.6h0Z"/>
  <path class="st0" d="M1203.4,613.6c3.6,35.5,14.8,33.9,44.1,23.9,12.3-4.2,22.5-12,34.7-16.5,9.9,0,6,14,2.9,19.5-7.1,12.6-39.3,31.8-53.8,33.2-21,1.9-35.4,1.9-51.2-12.7-28.5-26.5-21.5-73.7,1.7-101.3,9-10.7,24-10.5,35.8-12.2,15.4-2.2,24.3-6.6,39.9,2.3,18.8,10.7,9.8,39-3.6,51.3-3.2,3-20.7,12.5-24.2,12.5h-26.2,0ZM1236.4,571.6l-20.1,4.3-.9,6.2c1.3,1.4,22.3-3.7,21-10.5h0Z"/>
  <path class="st0" d="M546.7,842.8l8,3.3c-1,7.6,4.2,14.4,5.1,20.4,2.4,15.6-.8,36.2,0,50.9.3,4.9,5.7,9.7,6.1,13.6.2,2.6-1.6,10.8-3.6,12.8-1.1,1.1-14.6,5.8-16.6,6-10,1-12.2-7.7-14.5-15.7-3.2-11.2-5.5-25.5-7.3-37-2.5-2.6-17.5,13.4-21.2,15.6-8.9,5.3-24.7,10-35,8.3-1.8-.3-13.3-5.5-13.9-6.3-.9-1.1-6.3-15.9-6.5-18.2-.5-4.4-.5-15.3.2-19.5.7-3.9,6.4-12.6,6.8-15,.2-1.6-1.3-4-1-5.8.1-.7,6-7.9,7.8-10.5,15.5-22.3,46.2-41.9,73.9-32.4,14.2,4.9,10.5,18.1,11.7,29.5h0ZM519.1,850.9c-8.1-6.7-17.2-1.6-23.8,4.9-1.5,1.5-12.8,17.3-13.1,18.4-1.3,4.5.2,10.7-.3,15.4,8.2.1,12.6-9.3,17.2-13.5,1.6-1.4,4.5-1.5,6.1-3,1.7-1.6,12.9-15.4,13.4-16.5.8-1.7,1.5-4,.5-5.7h0Z"/>
  <path class="st0" d="M1881.4,559.6c1.7,1.9,10.1-8.2,12.1-9.6,1.7-1.2,17.8-9.4,18.9-9.6,4.5-.6,14,3,18.3,5.1,1.8.9,2.9,3.3,4.7,4.3s5.1.4,5.7,1c.6.5,1.7,10.5,1.8,12.5.6,18.2-5.7,30.9-7.4,46.7-1.1,10.2.8,47.5-12.9,50-6.1,1.1-22.2-1.2-24.1-7.3-3.2-10.5,3.1-25.6.8-37,4.6-10,6.8-20.8,7.2-31.9,0-1.6,0-4.8-1.9-4.8-2.5,0-27.8,34.1-32.9,37.6-4.8,6.7-19.6,38.4-22.5,40.5-6.6,4.8-20.4-.5-26.9-4.5l-1.1-2.3c-2.1-18,11.3-46.5,16.5-64.6,3.8-13.2,6.5-26.8,9.3-40.2,13.3-19,40.9-10.4,34.3,14h0Z"/>
  <path class="st0" d="M1093.1,876.9c.4.5,2,.6,2.3,1.7,1.5,6.9-2.3,8.1-3.8,12.4-3.2,9.4-3,17.7-17.7,13.2-4-1.2-4.5-8.5-9.4-8.8-21.7,3.4-35,25-41.2,44.3,6.4.6,17.9-10,22.6-14.9,4.2-4.3,14.5-21.2,21.4-20,1.2.2,2.7,2.4,4.9,2.7,3.7.5,7.5-.8,11.2.8,1,.5,16.8,13.2,17.2,14.2,4.4,18.2,8,37.4,3.6,56-3,12.7-6.8,16.9-20.2,17.5-3.1,1.6-12-11.8-12.4-13.1-1.2-4.1.6-9.4-.3-12.9-.4-1.6-3.6-1.5-4.3-3.5-1.1-3.2,1.1-15.9-4-17.1-1.8-.4-21.5,17.5-30.4,20.6-22.7,7.8-47.5,4.8-45.4-24.4,1.9-25.8,20.4-52.8,39.7-68.3,8.6-6.9,29.7-18.1,40.5-16.3,2.9.5,5.1,2.7,7.7,2.9,2.8.3,6-1.8,8.1-.8.8.4,8.2,11.5,9.7,13.7h0Z"/>
  <path class="st0" d="M291,155c4.1,4.1,5.5,17.2,5,22.9-.6,7.3-5.1,12.1-6,18-2.9,19.8-1.9,19.3-12.4,37.2-16,27.2-43.9,66.5-81,53.1-24.6-8.9-36.3-58.3-22.9-79,5.1-7.9,11.1-4.1,13.5-5.9,5.3-3.9,8-17.9,12-21.1,2.2-1.8,5.2-1.4,7.5-3,3.6-2.3,7.1-9.2,11.2-12.8,11.8-10.4,44.9-18.6,60.4-15.4,1.3.3,12,5.4,12.7,6.1h0ZM265.9,180.1c-15.7,2.2-35.4,4.3-45.6,18.1-3.2,4.3-5.2,11.2-8.4,15.6-5.3,7.6-11.6,14.5-17.8,21.3,11.4,31.9,26.6,27.3,44.8,4.1,12.5-15.9,13.9-25.9,20.8-43.7,2.1-5.4,7-9.4,6.3-15.5h0Z"/>
  <path class="st0" d="M740.7,271c-19.3,20.8-44.4,30.3-69.1,11.1-12.6-9.8-13.1-13.8-16.8-28.2-.7-2.9-3-4.6-3.5-8.5-.8-6.3,1.8-30.8,3.4-37.2.3-1.2,10.6-20.6,11.5-21.5,2.9-2.7,8.1-3.3,10.9-5.3,18-12.8,25.3-21.4,49.9-22.4,17.8-.7,40.5,10.9,44,29.7,2.8,15.3-.2,17.6-3.7,30.1-6.3,22.7-10.1,34.4-26.6,52.2ZM679.9,241.6c.3,6.1,7.6,12,13.1,13.1,28.6,5.9,32.6-22.4,43.3-41.5,1.1-1.9,3.6-3.2,4.3-4.7,4.2-9-1.7-16.3-10.6-17.9-11.1-2-35.3,5.3-43.4,13.4-10.2,10.3,1.6,13,3.4,19,2,6.7-1.5,18.9-10.2,18.5h0Z"/>
  <path class="st0" d="M2223.9,196.1c7.9,10.4,12.2,17.7,8.9,31.8-1.1,4.7-5.1,10.3-6.1,14.9-1.7,7.6-.8,14.3-4.1,22.9-8.7,22.5-32.3,36-56.2,30.8-4.9-1-25-12.3-27.7-15.8-.6-.8-7.7-16.5-7.9-17.4-.6-3.5,2.9-16.7,2.3-19.2-.4-1.9-4.9-3.1-6.5-5.4-2.1-3-1.4-5.4-2.4-7.9-.5-1.4-3-1.1-2.9-1.9,0-2.7,10.7-12.5,3.8-14.2-2.3-.6-5.5,2.6-8.9,3.1-12,1.7-30.9-2.7-36.9-14.3,0-2.9,10.3-14.7,13.1-15.5,4.7-1.4,25-2.7,29.7-1.8,4.4.9,9.2,9.8,8.2,14.1-.9,4.1-6.3,8.4-.7,12.8,5.6-2.4,6.6-8.9,10.5-13.5,5.9-7,18.9-17.9,27.4-20.6,8.9-2.8,27.8-4.7,36.3-1.1,4.8,2,16.8,13.9,20.1,18.2h0ZM2183.9,259.1c1.2-1.2,15.4-27.4,16.1-29.6,1.9-5.5,1.8-10-2.1-14.2-6.1-6.7-14.7-9.9-23.4-6.8-8.4,3.1-22.3,20.2-25.3,28.6-2.1,6-.5,8.1,2.8,12.8,7.1,10.2,20.9,20,32,9.2h0Z"/>
  <path class="st0" d="M364.3,253.1c5-9.2,6.4-24.1,6.6-34.7.1-5.6,0-15.6-1.5-20.7-.6-1.8-2.8-1.1-3.8-2.5l-28.4,49.6c-1.1,11.9-11.6,20.8-23.4,20.3-3.8-1-9.7-10.1-10.4-13.7-2.3-12.4.8-32.8,0-46.5-1-15.9-6.3-23.9,4.7-40.2,5.2-7.8,10.6-7.9,19.7-5.2,4.5,1.4,8.5,14.4,9.5,19.1.8,3.9-3.1,9.1,3.5,9,.9-3.5,2.6-7.9,4.5-10.9,3.3-5.4,18.9-22.6,24.8-26.6,4.5-3,20.2-9.1,24-4.5,1,1.2,8,18,8.3,20.2,1.9,15.7,3.9,44.5,3,60.1-.8,15.3-5.3,36.8-16.6,47.9-6.5,6.5-23.6,8.3-27.7-.8-1.2-2.7-1.4-12.8-.8-15.8.6-3.4,3.4-3.1,4-4.2h0Z"/>
  <path class="st0" d="M1254.1,64.9c.5.3,6.1,8.3,6.3,9.4.9,4.3-.7,14.5-1.9,19-5.4,20.7-18.5,47.2-25.5,69-15.8,48.8-26,105.3-44.1,152.4-1.6,4.1-3.1,10.2-6.4,13.1-9.4,8.1-24.2,8.6-26.9-6-2.6-14.4,8.2-40.2,12.3-55,16.3-57.8,32-112.5,52.7-169.3,2.8-7.7,2.3-15.5,7.7-22.3,3.3-4.2,8-5.6,10.7-10.7l15.1.4h0Z"/>
  <path class="st0" d="M728.8,1216c2.7-2.4,9.8-12.8,10.6-13,2.6-.5,5.9,1.8,8.7,1.6,4-.3,6.5-6.3,13.2-4.2,4.5,1.9,6,9.6,9.2,11.8,2.6,1.8,6.1,1.1,8.4,3.6,1.1,1.2,5.4,17.6,5.6,19.9.8,9-2,38.1-5.1,46.7-1.2,3.2-13.1,27.4-14.5,28.3l-16.7,5c-.8,0-7.8-12.3-8-13.1-.5-2.8,2.3-7.1,2.5-10.4.2-4.3-2.5-9.7-2.9-14.8-.5-7.1-.2-15,1.5-21.8-3.7-3.1-15.7,9.7-19,11.7-11.8,7.3-21.5,10.5-34.5,2.7-3-1.8-10.4-19-10.9-22.7-1.9-12.4-1.8-26.7-3.4-38.6-.8-5.8-7.7-13.1-7-21.4.2-2.3,2.6-3.7,2.8-6,.2-2-1.5-4.3-1.2-5.8.8-3.9,21.7-7.7,26-6.9,3.2.6,13.7,11.1,14.3,14.3.8,4.1-.5,9.2,0,13.4,1.3,9.7,2.8,20.4,4.5,30,2.8,16.2,9.3-6.4,10.4-7.7,1.4-1.7,4.2-1.6,5.5-2.7h0Z"/>
  <path class="st0" d="M2467.9,598.6l4.5-6c-.3,5.1.6,10.6,0,15.7-.3,2.5-3,4.1-2.9,7.4.2,7,4.2,36.6,6.7,43,2.9,7.5,8.8,7.8,3.4,19.8-2,4.4-12,4.7-16.7,4.1-1.8-.2-13.9-4.9-15.2-5.9-5.1-4.1-10.8-21.8-11.2-28.6-2.6-.4-3.3,0-5.2,1.5-18.4,16-25.9,33.7-55.9,25.8-1.5-.4-3.7.9-4.9.3-.6-.3-7.6-8.9-8.1-9.8-10.5-20.5,10.1-58.9,23.2-75.2,3.8-4.7,24.7-17.9,29.4-18.7,1.2-.2,21.3,2.2,23.8,2.6,8.3,1.5,10,17.5,17.7,16.3,1.8-.3,3.8-3,5.6-2.2,3.8,1.8,1.8,8.3,6,9.8h0ZM2425.9,601.6c-3.1-3.1-14.6,12.8-16.5,15.7-3,4.5-15.4,25.1-12,29.3l29.7-24.3c2.9-5-2.7-5.5-2.8-7.9-.3-4.4,2-8.4,1.7-12.8h0Z"/>
  <path class="st0" d="M1731.9,1406.1c-6.9,8.1-12.5,15.1-23.1,19.6-13.4,5.7-39.3,7.6-40.5-11.9-.2-3.5,3.8-9,6.6-10.7,3.9-2.5,10.6-2.6,14.5-4.2,1.1-.5,15.5-15.2,17.2-17.3,34.6-43.4,35.1-103.5,11-151.8-3-6-7.6-4.9-5.3-15.1,3.2-14,22.8-18.8,30.9-7.6,5.8,8,20.3,38.7,22.4,48.1,5,22.6,2.2,32.2,1.8,53.6-.1,5.9,2.7,11.5,2.7,12.1,0,1.5-4.6,3.6-5.3,6.3-.8,2.8.2,6-.4,8.6-6.2,27-14.1,48.9-32.4,70.3h0Z"/>
  <path class="st0" d="M263.7,508c-6.4,6.6-12.1,13.9-19.9,19.1l-1.9,4.8c2,3.2,2.6,1.2,4.1,1.2,9.6-.4,25.1-4.8,31.4,3,3.9,4.8.2,8,.7,12,.3,2.3,3,3.9,2.5,7.5-1.2,8.2-12.4,22-15.9,29.2-2.1,4.2-2.2,10.2-4.2,13.8-3.8,7.1-39.9,31.5-48.3,34.2s-19.3,5.4-24.4-3.2c-3.7-6.3,1.6-12.2,5.4-17.2,5.7-7.4,34.1-33.6,41.8-39.2,1.6-1.1,3.4-1.5,5.3-1.5-6.3-15.9-31-2.9-41.4-14.8-7.5-8.7,0-20.2,5.1-28.2,10-15.8,28.1-33.2,40.8-47.8,10.1-11.5,10.3-12.8,23.8-21.1,1.6-1,1.9-4.1,4.1-4.9,3.7-1.3,15.4-.8,18.6,1.9,5.2,4.4,1.9,7.5,1.5,12.3-.1,2,1.3,4.1,1,5.6-.2.9-9.6,13-10.9,14.5-5.6,6.3-13.1,12.3-19.4,18.8h0Z"/>
  <path class="st0" d="M1132.9,550.6c7.6,0,20.4-1.5,27.4,0,.3,0,4.6,4.2,4.7,4.5,3.1,6-1.2,18.2-5.1,23.2-7.7,9.7-20.6,9.1-31.6,7.3-3.3,2.3-8.5,36.4-12.8,44.3-.5.9-8.6,7.4-9.2,7.5-6,1.4-17.1-2.8-19.5-8.6-2.7-6.5.2-27.4,1.5-35.2,1-5.9,5.7-13.9,3.3-19.1-1.1-2.3-7.3-5.4-6.7-8.1.4-1.6,3.5-2.8,3.8-4.6.2-1.6-1.2-4.9-1-7.6.7-13.2,8.8-7.4,10.4-12.2,1.2-25.8,7.2-50.9,10.7-76.3.7-5.2-.8-11.3.1-16.4,2.2-12.7,20.2-21.7,29.2-9.8,5.9,7.8,2.1,21.2,2.1,29.2,0,19.3-.4,31.7-2.9,51-1.3,10.2-2.6,20.6-4.5,30.7h0Z"/>
  <path class="st0" d="M829.6,403.8c.6.4,6,11.8,6.2,12.6,3,16.2-3.3,21.5-7.5,34.4-12.1,37.4-26.4,87.4-29.8,126.2-.9,9.9,2.2,35.2-3.2,41.8-6.8,8.4-22.8,1.7-30.8-2.2,1.1-7.3-3-12.8-3.7-20.2-2-22.2,9.8-77,15.4-100.2,4.9-20.3,19.3-48.4,21.8-66.7.4-2.6-1.3-4.6-.6-7.9,2.1-8.9,10.6-14.2,16.9-19.5l15.2,1.8h0Z"/>
  <path class="st0" d="M345.4,561.1c3.7,3.8,13.4-13.3,15.1-15.3,4.5-5.5,21.6-26.3,25.8-28.5,3.1-1.6,6.6.2,8-4.2l2.5.3c8.9,5.3,13.1,5.7,17.1,16,6.2,15.9.7,29.8,4.1,43.9,1.9,7.8,9.2,7.6,9.9,12.7,2,14.5-14.1,23.8-26.6,19-21.7-8.2-4.9-34.3-14.7-49.8-2.3-.5-3.1,1.9-4.3,3.1-8.7,9-14.2,19.5-24.1,28.4-2.5,2.2-12.1,10.4-14.4,11.1-10.1,3.4-21.4.1-27.6-8.3-10.8-14.6-8-64-1.9-81.2.7-2,8.5-18.5,9.2-19.2,4.4-4.9,16.9-9.9,23.4-6.8,8.2,13.8-1.7,24.6-3.1,36.1-.6,4.8,0,41.3,1.5,42.8h0Z"/>
  <path class="st0" d="M2274,194c.6.2,6,7.8,9.3,7.9l-1.4,9.6c7.2,1.7,10.3-10.5,14.5-11.8,4-1.2,7.1,1.1,10,.8,2.2-.2,4.4-2.7,7.7-2.7,6,0,5.1,5.4,8.2,6.9,3.3,1.6,9.1-.7,10.3,3.2,2,6.2,2.4,25.9,1.7,32.8s-5.1,12.5-5.8,16.9c-.5,3.3,1.4,5.8,1.1,8.5-1,10.7-6.7,27.4-13.6,35.9-10,12.5-18.3,6.6-29.8.3-9.2-22.7,11.5-42.5,10.5-65.3-1.9-2.2-11.4,10.4-12.6,12.1-6.3,8.6-11.8,20.8-17.6,28.9-8.7,12.3-34,1.8-32.5-14.4.4-4.4,3.5-7.7,4.1-11,3-15.9,4.7-29.9,9.9-45.6,3.4-10.3,15.4-16.6,25.8-13.1h0Z"/>
  <path class="st0" d="M180.4,1203.1c15.4-1.7,24.6-25.2,38-28.9,2.1-.6,19.3.2,20.2.7.4.3,4.1,6,6.3,8,2.6,2.3,7,3.1,8.1,5.5,2.4,5.5,1.5,15.2,2.8,21.1,4.1,18.6,22.9,39.7-9.3,45.4-17.5,3.2-18.5-24.8-24.9-33.8s-12.7.3-17.9,3c-12.2,6.2-19.3,11.1-32.6,13.9-3.8.8-3.1,3.8-10.1,1.8-29.5-8.7-19.6-36.8-11.8-58.1,3.5-9.3,9.8-26.2,17.8-31.7,5.9-4,27.8-12.8,29.8-1.7,2.8,15.6-3.9,19-9.3,31.2-1.5,3.4-9,21.6-7.2,23.5h0Z"/>
  <path class="st0" d="M1976.8,215.2c2.6,1.5,5.3,5.9,5,9,0,1-5.4,14.5-5.9,15.1-4.8,5.1-17,2.6-22.9,4.1-12.2,3-34.7,25.9-40.7,37.3-7.2,13.7-4.5,26.3,13.2,23.7,4.4-.7,11-2.4,16.2-3.3,5.6-1,27.1-7.6,30.1-6.9,9.6,2.3-.6,14-.8,19-10.2,3.1-19.3,10.1-29.4,13.4-7.3,2.4-19.2,4.8-26.8,4.9-1.4,0-23.7-5.5-26.4-6.3-13.6-4-24.1-22.5-22.1-36.2.2-1.7,8.8-21.8,10.2-24.4,16.9-31,64.4-70.6,100.2-49.4h0Z"/>
  <path class="st0" d="M1792.9,214.6c6.1.8,8.3-6,13-8.8,5.3-3.1,29.6-5.9,35.8-4.7,8.1,1.6,15.6,20,15.9,27.7.4,9.2-3.8,17.4-4.6,25.5-.9,9.1,2.9,18.9,1.6,28.6-.4,2.9-8.9,18.2-10.6,19.4-2.4,1.8-14,5.6-17.2,5.4-24.7-1.8-10.8-25.6-9.1-40.4.3-3-1.3-6.5-.7-9.9.7-4.1,4.9-5,5.7-7.9,1.4-4.7-.7-11.7,1.8-16.9-25.6-2.2-35.7,39.8-63.3,26.6-10.1-4.8-9.6-12.2-8.5-22.6.4-4.2,7.2-32.8,8.7-34.8,1.7-2.2,7.2-4.1,8.7-8.1,17.2-7.1,26.2,5.4,22.8,21h0Z"/>
  <path class="st0" d="M1159.5,881c.4.5,4.8,10.3,4.8,10.9.6,6.2-1.2,15.2,0,24,1.8,13.3,9.7-4.6,12.5-7.8,2.2-2.4,14.3-11.5,17.1-12.2,6.8-1.7,9.1,3.3,13.4,3.9,3.3.4,7.3-2.1,10.9-1.2,0,3.1.2,9.8,2.2,12,1.9,2.1,5.2,1.1,6.8,2.2,2.7,1.9,1.1,10,1.5,13.5,1.2,11.1,2.6,25,4.6,35.9.7,3.6,4.5,8.1,4.3,12.2,0,.6-5.4,10.1-5.9,10.4-.6.4-12,3.8-12.8,3.9-3.1.2-4.5-.4-6.9-2.3-6.6-5.3-15.8-23.4-17.8-31.7-.9-3.8,1.1-15.1-4-17-6.5-2.4-5.4,3.8-8.1,7.7-3.3,4.8-11.1,9.8-15.8,13.1-1.4,1-1.3,3.5-3.3,4.5-9.1,4.4-19.8-1-26.5-7.5l-10.9-61,2.6-13.9c5.6,1.3,8.8-3,14.2-3.2,2.4,0,15.9,2.3,16.9,3.5h0Z"/>
  <path class="st0" d="M1258.5,1258.3c-.3.5-7.7,7.4-8.2,7.6-5.3,1.7-18.6-.1-25.3.2-4.1.2-11.8,0-14.6.4-1.7.2-8.3,3.8-10,5.1-5.5,4.2-20,33.2-23.3,41.2-1.6,3.8-.4,9.9-6.3,11.7-3.1.9-18.8.9-21.4-.4-1.8-.9-7.7-11.9-8.3-14.2-2.6-10.1-1.3-54.1,1.2-64.9,3-13,13-24.1,27.4-22.2,12.7,1.7,2.2,19.6,10.6,21,4.1.7,4.9-7.9,9-10.3,5.5-3.2,15.8-2.1,21.2-7.4,4.2-.7,4.9,9,9.9,7.1,1.8-.5,3.1-3.6,5.1-4.1,3.7-1.1,27.2,11.2,29.8,14.7,2.1,2.8,5.1,11.8,3.3,14.8h0Z"/>
  <path class="st0" d="M2644.9,558.1c2,11.5,2.2,19.4-4.1,29.6-2.7,4.5-23.9,21.8-24.4,24-1.4,7.3,6,10,8.2,16.9,7.4,22.3-13.5,53.3-32.4,65.1-10.9,6.8-39,17.1-51.2,14-5.3-1.4-11.3-8.6-7.2-14,2.1-2.8,17.9-9.2,22.4-12.1,3.6-2.2,7.6-5.5,11-8.1,11.3-8.7,21.8-17.7,21.9-33.4-1.9-5.9-13.3-9.2-15.5-13.1-1.4-2.5,3.3-8.3-2.2-11.2,5.4-2.9,5.9-8.8,9.9-14.1,8.6-11.7,18.7-18.8,28.4-28.6,2.7-2.7,3-6.3,6.2-8.8,7.5-6,19.8-6.9,29-6.2h0Z"/>
  <path class="st0" d="M372.9,857.2c-9.2,7.6-8.7,41.8-22.3,44.3-4.6.9-19.8.4-22.8-3.4-1.7-6.4-2.7-13.3-3.4-19.9-.9-8.6-1.9-21.3-1.4-29.8.2-3.3,1.1-14.2,1.7-16.4.4-1.3,7.5-8.8,8.7-9.3,1.4-.6,14.2-2.4,15.4-2.1,4.3,1.2,2.3,8.7,13.4,7,9.4-1.4,7.2-7.7,13.2-12.4,16.5-12.8,50.3-18.6,69.3-9.5,1.6.8,14.1,10.2,14.4,11.1,4.4,12.7-6.4,22.3-18.5,21.6-3.9-.2-7.1-2.5-10.7-3-17.8-2.1-43.4,10.2-57.1,21.5h0Z"/>
  <path class="st0" d="M548.7,542.3c3.7,3.7,5.4,9.7,4.5,15.1-.6,3.7-10.4,4.9-13.7,5.2-17,1.4-26.9-9.9-43.8-7-4.9,4.6-5.4,11.8-8.6,17.6-2.1,3.8-15.8,26.9-17.4,27.6-7.2,3.2-25.8-.7-29.2-8.3-1.3-2.8-.5-6.1-1.5-9s-2.8-5.8-3.5-8.5c-1.5-6.2-6.1-32-4.1-36.4.2-.5,7.2-8.9,7.8-9,14.8-4,25,5.1,26,19.5,5.2-3.3,6.1-10.3,10.4-14.3,3-2.8,6.7-3.2,9.4-5.2,1.8-1.3,4.4-5.8,6-6.4,16.4-5.7,45.7,7.6,57.5,19.2h0Z"/>
  <path class="st0" d="M1682.8,1235.2c7,5.3,7.2,11.7,8.4,19.3.3,1.7,2.1,3.4,2.1,4.8,0,2.1-17.3,34.9-19.4,37.8-3.4,4.7-15.4,11.7-21.2,12.5-16.7,2.2-28.8-4.3-38.8-16.9,1.3-5.1-1.4-11.1-1-15.3.9-10.1,14.9-33.2,21.7-41.4,4.8-5.7,13.4-13.8,21.1-13.6,4.4,0,23.1,9.7,27.1,12.8h0Z"/>
  <path class="st0" d="M1569.6,1414.3c4.8,2.9,5.6-2.1,7.5-3.2,6.9-4,24.5-17.5,25.1-25.8.2-2.8-1.8-5.8-1.6-8.9,0-.7,1.8-12.4,1.9-13.1,3.6-16.4,11.3-23.3,28.9-20.5,18.1,2.8,17.6,31.6,13.9,45.2-5.7,21.2-18.9,37-36.9,48.6-19.9,13-47.7,13.4-54.2-13.7,0-1,8-11.5,9-12,5.4-2.9,5,2.7,6.3,3.5h0Z"/>
  <path class="st0" d="M329.9,1213.1c-3.7,4-10.9,7.5-15.2,11.1-6,5-9,12.3-17.3,14.3-6.4,1.5-11.4-3.2-17.3-5.3-1.2-1.7-1.2-31.2-.6-35.2.5-3.7,8.3-17.9,10.9-19.9,7.4-5.7,11.9,6.4,19.5,3.8.9-.3,8.5-11.8,12.2-14.8,1.6-1.3,8.5-5.7,10.2-6.3,10.4-3.9,49-1.9,59.6,2.6,7.1,3,11.2,10.8,4.5,16.4-2.5,2-23.9,9.7-28.1,10.9-14.3,3.8-19.6-2.6-30.3,10.2-3,3.6-5.2,9.1-8,12.2h0Z"/>
  <path class="st0" d="M1218.9,520c-2.3-1.1-6.4-9.2-6.4-12,0-15.9,15.8-15.2,24.4-20.8,2.4-1.6,3.1-4.9,5-5.5,2.6-.9,5.8.3,8.5-.2.6-.1,6.3-5.9,9.3-7.5,10.2-5.5,14.6-7.9,25.6-9.6,2.1-.3,2.8-4,7.4-4,2.3,0,9.5,2.9,10.6,4.6,1.7,2.6-4.8,14.5-6.8,17.3-3.5,4.8-32.1,30.1-37.3,33.2-9.3,5.5-30.2,9-40.2,4.5h0Z"/>
  <path class="st0" d="M1444.3,1354.1c-6.1,5.1-16.9,3.9-22.6-1.1-2.6-2.3-5.2-11.7-5.5-15.5-.4-5.2,2.4-20.8,3.5-26.7,3.1-16.4,7.6-34.3,29.3-28.6,21.3,5.6,9,35.7,7.4,50.4-6.1,4.8-7.3,17.4-12.2,21.6h0Z"/>
  <path class="st0" d="M2128.4,1054.2c-2.1,3.3-15.4,5.4-19.5,4.6-16.8-3.2-15.6-22.7-14.5-36.3.3-3.8,3.5-20.5,4.6-23.8.7-1.9,11.4-11.2,14.1-11.5,1.6-.2,13.1,1.6,14.1,2.2,7.7,4.6,6.8,32,6,40.5-.3,2.8-4.2,23.3-4.9,24.3h0Z"/>
  <path class="st0" d="M2490.8,623.1c2-2.6,11.8-9.6,15.3-9.6,2.7,0,13.6,8.1,14.9,10.7,1.1,2.3,6,21.8,6.4,25.1,2.4,17.7-2.4,39.8-25.6,33-2-.6-11.2-11.3-12.2-13.3-3.8-7.4-3.9-39.3,1.1-45.9h0Z"/>
  <path class="st0" d="M1231.4,313.1c-3.1,2.3-15.5,5-18.7,3.1-.5-.3-6.8-8.2-7-8.7-1.2-2.6-.9-5.5-.8-8.3.3-8.9,11.3-37.6,16.8-44.8,5.9-7.7,18.5-9.5,25.3-1.7,8.7,9.9,3.1,27.9-1.9,38.6-1.4,3.1-11.8,20.4-13.6,21.7h0Z"/>
  <path class="st0" d="M1451.9,487.2c-.8,2.6-10.9,4.9-14.4,7.2-16.6,11-20,29.9-47.4,26.2-15.4-2.1-4.8-19.4-2.2-28,1.6-1.2,4.4,1.5,7.5.2,6.6-2.8,18.6-22,29.7-22.9l21.3-1.2c3.9,4.6,7.4,12.5,5.5,18.4h0Z"/>
  <path class="st0" d="M1447.5,1236.3c1.3-.2,18.6,1,20.6,1.3,2.6.4,4.6,2.6,7.1,3.4,9.2,3,12.7,1.1,14.4,14.2,1.1,8.2-13.3,26.2-22.5,24-11.3-2.7-26.6-16.3-29.3-27.8-1.3-5.5,4.1-14.1,9.8-15.1h0Z"/>
  <path class="st0" d="M1278,223.2c-.4.7-2.8,1.5-4.1,2.6-.9.8-1.1,2.9-1.8,3.4-.5.3-10.3,2.8-10.9,2.8-2,0-21.3-8.7-23.4-10.6-8.7-7.7-9.1-15.8-.3-23.4l34-2.6c5.4,3.7,10.7,9.7,9.9,16.8,0,.8-3.1,10.5-3.4,11h0Z"/>
  <path class="st0" d="M2545,575.3c-.5.2-.7,2-1.7,2.3-6.6,1.5-26.7-9.5-28.6-16-1.5-5.3-.2-16.8,4.8-20,3.3-2.1,20.9-2,25.5-1.3,9.8,1.5,12.5,8.2,12.9,17.2.4,11.1-3.8,13.5-12.9,17.9h0Z"/>
  <path class="st0" d="M2169.3,964.7c2.6,14.6-4.7,34.8-22.9,30-1.5-.4-1.6-3-2.6-3.6-3.1-1.8-12.6-6.3-13.9-10.3-.5-1.4-1-15-.7-16.5.5-2.4,5.9-10.6,8.3-11.3,8.7-2.7,21.6,13.1,31.9,11.8h0Z"/>
  <path class="st0" d="M909.3,391.6l-17.2,43.5c-5.4-5.8-.2-15.5,2.2-21.7.7-1.9,11.4-25.6,15-21.7h0Z"/>
</svg>