<svg width="158" height="77" viewBox="0 0 158 77" fill="none" xmlns="http://www.w3.org/2000/svg">
<path d="M66.8646 10.6691C67.8435 11.928 69.1573 12.6211 69.9854 14.6103C71.2189 17.5765 69.7603 19.2896 69.2434 22.0698C66.7804 35.2952 63.454 48.407 59.0684 61.1645C57.7723 64.9334 56.0121 68.5437 54.7141 72.3126C52.5056 74.0825 50.3069 71.8525 48.5859 71.5059C47.7166 71.3297 46.6614 71.6077 45.9604 71.3748C45.3574 71.1751 44.2571 68.9079 43.6482 68.5202C43.0922 68.1658 42.2189 68.3283 41.6061 67.8075C41.1911 67.4551 38.2797 60.0837 37.8059 58.8601C37.0326 56.8591 36.6018 54.5802 35.572 52.8318C34.9474 52.822 32.0263 63.2829 31.527 64.6299C30.7067 66.8443 27.9363 71.4335 27.5428 73.0742C27.2961 74.106 28.277 75.5724 27.4938 76.103C25.9275 77.1603 19.0397 75.2122 17.3697 74.1334C13.499 71.6332 13.0213 70.0708 11.5294 65.8477C9.65764 60.5458 8.32433 55.0011 6.70321 49.6581C5.95531 47.1931 4.10317 43.5848 3.78599 41.2001C3.59999 39.7983 4.08163 39.021 4.03268 37.8874C3.9387 35.72 2.73657 29.7093 2.24123 27.2444C1.78309 24.9635 -0.793463 18.9411 0.244207 17.1457C0.336227 16.9852 2.20599 15.1526 2.33913 15.0919C3.925 14.3616 8.82946 17.6391 9.7105 19.084C12.8548 24.2547 14.194 33.1493 15.9306 39.0484C17.1367 43.1462 18.8675 47.0737 19.8738 51.24C21.2561 53.145 22.5052 46.3062 22.7205 46.0047C23.0338 45.5681 24.4298 45.8246 24.7567 45.3762C24.9877 45.059 26.4757 40.2956 26.7028 39.4752C27.9206 35.0759 28.5119 30.3104 29.6436 25.8798C32.1398 16.1159 40.0751 26.8881 42.1308 31.1053C44.3844 35.7259 45.2928 41.6445 46.5948 46.6253L47.6246 46.968C48.3647 46.7213 49.0637 41.3371 49.328 40.4032C52.2648 29.9854 55.8398 19.6772 56.5917 8.73276L59.8574 5.43179C60.3958 5.13616 63.5049 6.55363 64.1667 7.00002C65.6801 8.01812 65.917 9.45716 66.8646 10.6769V10.6691Z" fill="#FFF0B8"/>
<path d="M157.706 27.8572C158.229 23.777 153.169 13.1536 150.597 9.78217C147.971 6.34024 143.84 3.41323 140.367 0.905205C133.234 -1.08203 124.375 0.200352 118.437 4.77589C118.09 5.04216 115.43 8.05337 115.367 8.27852C115.079 9.33381 116.191 10.4694 116.459 11.5384C117.331 14.9901 115.997 28.5758 115.659 33.0064C115.195 39.0464 114.2 45.3429 113.615 51.2909C113.309 54.404 113.57 58.6349 112.886 61.5874C112.557 63.0088 111.099 63.418 111.156 65.043C111.226 66.995 115.968 72.7413 117.646 73.4051C118.911 73.9063 121.28 73.9885 122.697 74.2117C123.275 74.3037 123.67 74.7854 124.428 74.8911C126.513 75.1828 129.832 74.7227 131.817 73.9768C137.371 71.8897 148.429 63.8937 152.355 59.373C152.666 59.0147 154.109 57.2742 154.174 57.0588C154.424 56.2306 154.35 51.9723 154.058 51.1128C153.823 50.4295 150.818 45.3194 150.26 44.5754C149.179 43.1364 145.667 40.7576 145.961 38.88C149.487 38.0832 157.267 31.2698 157.706 27.8572ZM140.367 48.2582C138.991 49.6248 138.014 51.1559 136.492 52.4676C135.026 53.7305 133.397 54.4353 131.895 55.4632C130.918 56.1308 130.585 57.7617 128.769 57.2859L127.69 44.3797L128.236 43.1814C129.675 44.6831 131.976 43.4791 133.745 43.4888C135.911 43.5026 141.659 45.2176 140.367 48.2582ZM143.83 20.527C143.503 22.1442 139.793 25.4941 138.378 26.4417C137.454 27.0604 129.142 31.1915 128.616 31.0701C128.115 30.9526 127.817 30.0206 127.743 29.541C127.31 26.7451 127.655 22.8294 127.376 19.9141C127.216 18.2186 125.681 16.2901 127.547 14.9275C127.766 14.9353 127.964 15.6616 128.167 15.8398C129.103 16.6621 130.084 15.9592 130.329 14.9353C130.493 14.2481 129.879 13.7077 130.435 13.0009C131.374 11.8105 135.699 11.3328 137.189 11.4796C142.358 11.9867 144.882 15.3504 143.83 20.527Z" fill="#FFF0B8"/>
<path d="M102.515 45.1863C97.8635 47.2518 92.8592 48.1994 87.9234 49.3683C85.6993 50.7623 86.0791 55.9781 86.038 58.3334C89.6366 57.0647 93.7833 55.9839 97.0314 53.9986C98.6819 52.9903 99.7313 51.0736 101.967 51.5063C103.291 51.7628 106.907 53.9399 107.686 55.1127C109.554 57.9261 109.315 60.5458 106.709 62.6446C101.57 66.7796 91.2303 71.2396 84.7497 72.3772C81.997 72.8608 81.995 71.9601 80.2603 71.5196C79.1404 71.2357 76.3935 71.1594 75.677 70.247C75.2854 69.7477 75.3089 68.8217 74.98 68.1873C74.6197 67.4923 73.7015 66.6387 73.6251 66.067C73.3745 64.1972 74.839 58.7661 75.0093 56.4323C75.1229 54.8777 75.0093 53.237 74.9506 51.6786L70.3868 47.2851C70.0422 45.8441 69.0378 44.1016 69.1377 42.6626C69.2375 41.2235 71.7182 38.1889 72.9712 37.5134C74.7039 36.5795 76.0842 38.0949 76.8439 35.1835C77.7425 31.7455 77.4782 25.6585 77.439 21.9679C77.4293 20.9342 76.9887 20.0492 77.069 18.8882C77.1238 18.1051 78.2085 14.6866 78.7058 14.2089C79.2442 13.692 80.6147 13.2828 81.3861 13.1947C84.9533 12.7875 89.3977 13.3553 93.1118 13.2084C95.7588 13.1027 96.448 12.0983 99.3633 13.1301C103.798 14.7003 105.908 18.6356 105.523 23.2092C105.127 23.7672 102.878 23.4344 101.871 23.6928C100.875 23.9493 99.98 25.1906 99.2928 25.2571C98.7289 25.3119 97.9693 24.891 97.2468 24.8949C95.5846 24.9047 94.2473 25.2121 92.7535 25.2845C91.8607 25.3276 91.1128 24.6639 90.1828 25.0751C88.5813 25.7858 89.2861 28.1959 89.1314 29.5566C89.0042 30.6863 87.7629 35.8923 89.0061 36.2525C89.4936 36.3935 92.4481 35.3636 94.1103 35.6123C95.61 35.8375 100.607 38.3729 101.548 39.5418C102.678 40.9455 102.709 43.4673 102.515 45.1824V45.1863Z" fill="#FFF0B8"/>
</svg>
